<svg xmlns="http://www.w3.org/2000/svg" xmlns:xlink="http://www.w3.org/1999/xlink" width="375" height="174" viewBox="0 0 375 174">
  <defs>
    <linearGradient id="linear-gradient" x1="0.5" x2="0.5" y2="1" gradientUnits="objectBoundingBox">
      <stop offset="0" stop-color="#f17b00"/>
      <stop offset="1" stop-color="#d20043"/>
    </linearGradient>
    <clipPath id="clip-path">
      <rect id="Rectangle_9964" data-name="Rectangle 9964" width="375" height="174" transform="translate(0 2.492)" fill="url(#linear-gradient)"/>
    </clipPath>
  </defs>
  <g id="Mask_Group_15" data-name="Mask Group 15" transform="translate(0 -2.492)" clip-path="url(#clip-path)">
    <g id="Group_18411" data-name="Group 18411" transform="translate(-46.426 4.823)">
      <path id="Path_47998" data-name="Path 47998" d="M509.992,232.409v-71.5c0-.027-.026-.049-.062-.051l-38.365-3.031h-.012l-20.046.941V105.5c0-.025-.026-.047-.059-.051l-37.2-4.831h-.019l-6.358.529V97.116a2.22,2.22,0,0,0,1.736-2.077,1.8,1.8,0,0,0-1.6-1.748l-.011,0-.05-.005h-.009l-.316-.034c-.05-.007-.1-.012-.146-.015h-.012c-.043,0-.085-.005-.129-.005a1.947,1.947,0,0,0-.225.013,2.257,2.257,0,0,0-2.056,2.131,1.789,1.789,0,0,0,1.647,1.788l.323.036.066.008.026,0h.014c.042,0,.086,0,.131,0h.067v3.982l-6.467.539V98.937a1.526,1.526,0,0,0,1.044-1.4,1.261,1.261,0,0,0-1.037-1.218v-1.06a2.855,2.855,0,0,0,2.329-2.687,2.289,2.289,0,0,0-2.031-2.232l-.013,0-.065-.008-.01.049v-.05l-.4-.044c-.06-.009-.122-.015-.184-.02h-.016c-.055,0-.108-.007-.162-.007a2.737,2.737,0,0,0-.284.016A2.876,2.876,0,0,0,397.417,93a2.278,2.278,0,0,0,2.085,2.283l.413.046.082.009.036,0h.013c.056,0,.112.005.168.005s.1,0,.149-.005v.918h-.052a1.3,1.3,0,0,0-.159.009,1.585,1.585,0,0,0-1.439,1.5,1.26,1.26,0,0,0,1.156,1.261l.224.025.044.005.019,0h.011c.03,0,.06,0,.092,0s.066,0,.1,0v2.715l-9.433.787V65.251a.057.057,0,0,0-.053-.051l-16.135-2.575h-.023l-2.3.248-.313-.062V61.517a.06.06,0,0,0-.056-.052L369.8,61.1V56.688a.055.055,0,0,0-.053-.05l-12.008-1.994V51.782a.058.058,0,0,0-.055-.051l-8.792-1.493a.075.075,0,0,0-.027,0L340.054,51.3a.058.058,0,0,0-.057.05V51.7l-.79-.13V29.053a.059.059,0,0,0-.063-.051l-1.134-.045a.085.085,0,0,0-.05.015.045.045,0,0,0-.022.037V51.358l-10.314-1.711H327.6l-13.759,1.7-14.175-2.3V37.5a.058.058,0,0,0-.055-.051l-18.041-3.129v-10.6a.052.052,0,0,0-.022-.038.092.092,0,0,0-.052-.014l-.824.033a.061.061,0,0,0-.065.052v10.4l-.571-.1h0a.086.086,0,0,0-.029,0l-2.6.361V13.981a.048.048,0,0,0-.022-.038.088.088,0,0,0-.049-.014l-1.256.036a.061.061,0,0,0-.066.052V34.608l-17.14,2.37v-.911a.057.057,0,0,0-.053-.051l-8.371-1.41h0a.075.075,0,0,0-.027,0L239.3,36.177c-.033.005-.056.026-.056.052v3.477l-12.5,1.72a.058.058,0,0,0-.057.051V94.8l-28.249-3.254h-.02l-2.913.307V87.979a2.336,2.336,0,0,0,1.522-2.206,1.86,1.86,0,0,0-1.5-1.886l-.011,0-.049-.005h-.007l-.3-.037q-.065-.01-.134-.016h-.011c-.039,0-.082,0-.122,0a1.547,1.547,0,0,0-.214.014,2.316,2.316,0,0,0-1.925,2.3,1.845,1.845,0,0,0,1.542,1.93l.3.038.062.009.027,0h.011c.042,0,.083.005.125.005s.089,0,.134-.007v3.8l-6.338.666V89.891a1.632,1.632,0,0,0,.914-1.477,1.307,1.307,0,0,0-.912-1.29V86.1a3,3,0,0,0,2.115-2.89,2.384,2.384,0,0,0-1.922-2.42l-.014,0-.06-.008-.011.052v-.054l-.385-.048c-.057-.009-.115-.015-.172-.021l-.014,0h0c-.053,0-.1-.007-.156-.007a1.875,1.875,0,0,0-.271.019,2.97,2.97,0,0,0-2.469,2.955,2.364,2.364,0,0,0,1.974,2.477l.391.05.079.011.032,0h.014c.055,0,.108.007.161.007s.1,0,.156-.007v.829h-.034a.987.987,0,0,0-.151.011,1.623,1.623,0,0,0-1.352,1.61,1.3,1.3,0,0,0,1.087,1.354l.208.027.043.005.017,0h.011a.783.783,0,0,0,.088,0c.03,0,.062,0,.09,0v2.583l-12.59,1.323c-.034,0-.059.026-.059.051v12.62l-3.946-.4a.045.045,0,0,0-.017,0l-3.387.322c-.034,0-.06.026-.06.052v.221l-4.053.382v-3.817a2.272,2.272,0,0,0,1.461-2.137,1.807,1.807,0,0,0-1.459-1.832l-.011,0-.046-.005-.01.041h0v-.043l-.29-.036a1.209,1.209,0,0,0-.129-.015l-.01,0h0c-.04,0-.079-.005-.121-.005a1.66,1.66,0,0,0-.207.013,2.25,2.25,0,0,0-1.871,2.236,1.793,1.793,0,0,0,1.5,1.875l.293.038.059.008.026,0h.013c.04,0,.08.005.121.005s.1,0,.149-.008v3.731l-13.818,1.3v-3.131c.277-.075.416-.162.422-.261h0v0h0V93.59c0-.214-.685-.406-2.036-.57a42.906,42.906,0,0,0-4.588-.267c-2.98-.026-5.5.221-5.984.586a.193.193,0,0,0-.09.143v11.576h0c.007.141.27.257.82.363v4.237l-11.043,1.054-1.232-.119h-.017l-3.141.3a.058.058,0,0,0-.06.051v43.905l-24.51-1.439h-.011l-47.485,3.015a.061.061,0,0,0-.063.052v75.932H19.625v.1H537.337v-.1Zm-411.914,0H50.731V156.525l47.348-3.006Zm24.585,0H98.217V153.518l24.447,1.436Zm3.141,0h-3V110.988l3-.286Zm37.33-129.057a1.246,1.246,0,0,1-.246.024c-.033,0-.066,0-.1,0l-.126-.016h0a1.712,1.712,0,0,1-1.258-1.756,2.162,2.162,0,0,1,1.756-2.134,1.75,1.75,0,0,1,.184-.011c.037,0,.073,0,.109,0l.131.016A1.7,1.7,0,0,1,164.9,101.2,2.165,2.165,0,0,1,163.135,103.352Zm.165.072a2.275,2.275,0,0,0,1.734-2.222,1.885,1.885,0,0,0-.9-1.637,1.73,1.73,0,0,1,1.148,1.685,2.165,2.165,0,0,1-1.763,2.151A1.236,1.236,0,0,1,163.3,103.424Zm.521.01v3.782l-.256.025V103.5A2.35,2.35,0,0,0,163.822,103.434Zm-26.348-9.952c0-.021.017-.044.05-.069.392-.294,2.7-.583,5.883-.556a43.692,43.692,0,0,1,4.57.265c1.515.185,1.919.381,1.919.468v11.415c-.65-.365-3.5-.555-6.169-.578-3.16-.027-5.681.164-6.254.468Zm0,11.574a.081.081,0,0,1,.037-.049c.4-.3,3.068-.5,6.215-.474,4.017.035,6.159.388,6.17.631,0,.023-.043.081-.286.152v-.168c0-.029-.03-.052-.069-.052h-.571a.08.08,0,0,0-.059.024l-.307.374c-.813.1-1.915.158-3.2.184l-.761-.851v-.172a.062.062,0,0,0-.068-.052h-.39a.062.062,0,0,0-.069.052v1.033l-.477,0c-1.774-.015-3.392-.1-4.558-.233l-.243-.252a.074.074,0,0,0-.056-.022h-.563a.061.061,0,0,0-.067.052v.082C137.544,105.191,137.479,105.085,137.474,105.055Zm12,.144v3.366l-.268-.023V105.2Zm-2.419,2.944.359.394-.738.066Zm-.554.475-.307.027.63-.758.146.162Zm-1.852-3.309v-.3l3.125,3.495-.205.019Zm.172.374h-.172v-.19Zm.68.1c1.189-.025,2.221-.083,3.006-.169l-1.515,1.838Zm1.576,1.763,1.931-2.342h.059v.3l-1.846,2.2Zm-2.567-2.835v4.343l-.251.025v-4.368Zm-.389,1.085v3.3l-.482.046v-3.344h0Zm-.62,0v3.359l-.267.025v-3.388Zm-2.57,2.179.116.12-1.548,1.441-.3.029ZM139,109.576l-.291.028v-3.936l2.141,2.211Zm2.133-1.4,1.061,1.1-2.5.238Zm-2.425-2.683v-.209h.046l3.8,3.954-.207.021Zm2.743,2.42,1.645-1.529v2.8l-.383.037Zm-.083-.087-.134-.14,1.862-1.708v.239Zm-.218-.227-1.948-2.025c1.035.113,2.395.186,3.895.211v.031Zm-2.643-2.314h.063v.067Zm.063.244v4.091l-.276.026v-4.361h.042ZM127.042,217.78v14.629h-1.1V110.7l1.1.106v6.427a.047.047,0,0,0,.023.038.074.074,0,0,0,.034.012h0l.706.1v9.335l-.708.059a.06.06,0,0,0-.062.051V135.4a.049.049,0,0,0,.023.039.081.081,0,0,0,.046.013h.007l.043,0,.622.093V144.9l-.66.045a.061.061,0,0,0-.063.052v8.685a.048.048,0,0,0,.023.038.069.069,0,0,0,.037.012h0l.658.069v9.373l-.675.037a.062.062,0,0,0-.065.052v8.5a.047.047,0,0,0,.022.038.081.081,0,0,0,.034.013h0l.689.1v9.36l-.66.026c-.036,0-.065.024-.065.054v8.582a.045.045,0,0,0,.022.037.065.065,0,0,0,.034.013h0l.689.1v9.4l-.688.019a.063.063,0,0,0-.068.054v8.624a.049.049,0,0,0,.022.038.087.087,0,0,0,.047.015h0l.685-.015v9.5l-.689.008C127.074,217.729,127.042,217.752,127.042,217.78Zm.724-64.084,7.91-.486-7.831.495Zm-.1,18.1,17.222-.82-17.035.846Zm17.26,60.615H127.18V217.831l17.747-.211Zm0-15.2-1.594.02v-5.316l1.594-.027Zm0-5.428-16.716.291v-.238l16.716-.3Zm-1.731.134v5.316l-.178,0v-5.315Zm-.316.005v5.314h-.1v-5.313Zm-.241,0v5.313l-2.995.038v-5.3Zm-3.134.055v5.3l-.171,0v-5.3Zm-.309.005v5.3h-.116v-5.3Zm-.254,0v5.3l-3,.038v-5.282Zm-3.138.055v5.28l-.146,0v-5.28Zm-.284,0v5.28H135.4v-5.279Zm-.261,0v5.279l-2.962.037v-5.265Zm-3.1.055v5.264H132v-5.262Zm-.3.005v5.261l-.125,0v-5.261Zm-.263,0v5.261l-3.061.038v-5.246Zm-3.2.056v5.246l-.191,0v-5.246Zm-.191-.446v-3.142l.191,0v3.142Zm.327-.005v-3.143l3.074-.055v3.142Zm3.211-.059v-3.142h.112v3.142Zm.248,0v-3.142l.144,0v3.143Zm.281,0v-3.143l2.97-.055V211.6Zm3.108-.058v-3.142l.123,0V211.6Zm.261,0v-3.143l.155,0v3.142Zm.293-.005v-3.142l3-.055v3.143Zm3.138-.057V208.39l.108,0v3.143Zm.244,0v-3.142l.181,0v3.143Zm.32-.005v-3.143l3-.055v3.142Zm3.137-.058v-3.143h.1v3.142Zm.237,0v-3.143l.178,0v3.142Zm1.909-.035-1.594.028v-3.142l1.594-.028Zm0-3.248-16.787.308c-.039,0-.067.023-.067.052v8.94a.045.045,0,0,0,.022.037.076.076,0,0,0,.047.015h0l16.784-.213v.2l-16.989.2v-9.5l16.989-.342Zm0-.405-17.744.357v-8.52l17.744-.473Zm0-8.977-1.591.041v-5.28l1.591-.046Zm0-5.389-16.708.474v-.212l16.708-.543Zm-1.728.154v5.281l-.172,0v-5.28Zm-.31.009v5.279l-.1,0v-5.28Zm-.241.007v5.279l-3,.079V193.66Zm-3.143.09v5.272l-.171,0v-5.272Zm-.309.009v5.271l-.1,0v-5.271Zm-.241.007v5.271l-3,.079v-5.265Zm-3.134.09v5.264l-.161,0v-5.264Zm-.3.009v5.264l-.109,0V193.78Zm-.247.005v5.265l-2.976.076V193.87Zm-3.112.09v5.256l-.154,0v-5.256Zm-.29.008v5.256l-.133,0v-5.256Zm-.27.008v5.256l-3.084.08v-5.248Zm-3.22.092v5.248l-.164,0v-5.248Zm-.164-.417v-3.176l.164-.005v3.177Zm.3-.009v-3.177l3.079-.107v3.183Zm3.217-.1v-3.185l.136,0v3.183Zm.273-.01v-3.185l.146-.005v3.185Zm.284-.01v-3.185l2.982-.1v3.192Zm3.12-.1v-3.193l.1,0v3.193Zm.235-.008v-3.193l.172-.007v3.194Zm.31-.011v-3.194l3-.1v3.2Zm3.134-.1v-3.2l.1,0v3.2Zm.235-.008V190l.177-.007v3.2Zm.316-.01v-3.2l3.012-.106v3.211Zm3.15-.1v-3.212l.095,0v3.212Zm.233-.008V189.87l.146-.005v3.211Zm1.9-.062-1.617.052v-3.212l1.617-.057Zm0-3.321-16.78.587c-.037,0-.066.025-.066.054v8.95a.048.048,0,0,0,.02.037.083.083,0,0,0,.049.014h0l16.774-.439v.131l-16.989.452V190.1l16.989-.593Zm0-.3-17.054.6-.154-.023,17.207-.584Zm0-.116-17.734.6V181.4l17.734-.712Zm0-8.921-1.588.067v-5.268l1.588-.07Zm0-5.375-16.716.723v-.26l16.716-.739Zm-1.726.179v5.268l-.175.008v-5.269Zm-.313.013v5.269l-.112,0v-5.268Zm-.25.011v5.267l-2.995.126v-5.262Zm-3.134.135v5.261l-.177.008v-5.261Zm-.316.014V180.6l-.122,0v-5.26Zm-.261.011v5.261l-2.979.123v-5.256Zm-3.115.135v5.255l-.154.007V175.49Zm-.291.012v5.255l-.109,0V175.5Zm-.245.011v5.255l-2.965.122v-5.249Zm-3.1.134v5.248l-.164.008v-5.249Zm-.3.013V180.9l-.128,0v-5.247Zm-.267.012v5.246l-3.071.128V175.8Zm-3.207.138v5.243l-.188.008v-5.243Zm-.188-.461v-3.117l.188-.01v3.118Zm.324-.014v-3.118l3.065-.152v3.134Zm3.2-.142v-3.134l.136-.007v3.134Zm.274-.012v-3.136l.139-.007v3.138Zm.277-.012v-3.136l2.976-.147v3.153Zm3.114-.138v-3.154l.126-.005v3.154Zm.266-.012v-3.155l.145-.008v3.156Zm.281-.013v-3.156l2.993-.147v3.173Zm3.133-.138v-3.173l.108-.005v3.173Zm.245-.011v-3.174l.174-.009v3.176Zm.312-.013v-3.177l3-.147v3.192Zm3.138-.139v-3.192l.121-.007v3.193Zm.258-.012v-3.193l.141-.007v3.193Zm1.892-.083-1.612.071v-3.194l1.612-.081Zm0-3.308-16.79.828c-.037,0-.065.025-.065.052v8.933a.045.045,0,0,0,.022.037.076.076,0,0,0,.047.015h0l16.781-.7v.121l-17.009.683v-9.347l17.009-.846Zm0-.43-17.754.844v-8.4l17.754-.972Zm0-8.9-1.6.088v-5.286l1.6-.091Zm0-5.394-16.708.944v-.248l16.708-.914Zm-1.737.2v5.286l-.142.008V156.78Zm-.28.015v5.286l-.122.007v-5.286Zm-.26.015v5.285l-3.01.166v-5.282Zm-3.15.177v5.282l-.177.01V156.99Zm-.314.019v5.281l-.108.007V157Zm-.245.013v5.281l-2.995.166v-5.277Zm-3.131.178v5.277l-.149.008V157.2Zm-.287.015v5.277l-.112.007v-5.277Zm-.25.015V162.5l-2.959.163v-5.272Zm-3.1.175v5.271l-.177.01V157.4Zm-.313.018v5.271l-.133.009v-5.273Zm-.271.015v5.27l-3.059.17V157.6Zm-3.2.18v5.268l-.177.009v-5.267Zm-.177-.449v-3.124l.177-.011v3.126Zm.313-.016v-3.128l3.079-.189v3.147Zm3.217-.177v-3.147l.113-.008v3.15Zm.25-.013V153.8l.177-.011v3.152Zm.314-.017v-3.153l2.947-.18v3.173Zm3.085-.168v-3.173l.129-.009v3.175Zm.267-.015v-3.175l.144-.009v3.176Zm.28-.015v-3.177l2.993-.184v3.2Zm3.133-.17v-3.2l.108-.007v3.2Zm.245-.014v-3.2l.177-.012v3.2Zm.316-.016v-3.2l3-.184v3.223Zm3.134-.172v-3.224l.123-.007v3.224Zm.261-.014v-3.225l.155-.01v3.226Zm1.892-.1-1.6.087v-3.227l1.6-.1Zm0-3.343-16.782,1.031c-.036,0-.063.024-.063.052v8.955a.049.049,0,0,0,.022.038.086.086,0,0,0,.047.014h.006l16.771-.926v.17l-17.015.931V153.8l17.015-1.075Zm0-.367-17.733,1.09v-8.58l17.733-1.222Zm0-9-1.581.109v-5.3l1.581-.113Zm0-5.407-16.7,1.2V139.1l8.355-.587,5.788-.409,1.907-.135c.231-.016.412-.031.535-.038l.113-.01Zm-1.718.228v5.3l-.179.012v-5.3Zm-.317.023v5.3l-.123.009v-5.3Zm-.26.019v5.3l-3,.2v-5.285Zm-3.134.224v5.285l-.164.012v-5.285Zm-.3.022v5.284l-.09.007v-5.284Zm-.228.016v5.283l-3,.206v-5.274Zm-3.144.225v5.274l-.171.011V138.9Zm-.307.022v5.273l-.135.01v-5.273Zm-.273.02V144.2l-2.94.2v-5.264Zm-3.078.221v5.262l-.178.013v-5.264Zm-.316.022v5.264l-.1.007v-5.262Zm-.235.017v5.261l-3.387.233v-5.252ZM128.228,139v-3.167l.171-.013v3.168Zm.307-.022V135.8l3.079-.229v3.182Zm3.217-.225v-3.183l.116-.009v3.183Zm.254-.019v-3.185l.159-.012v3.186Zm.3-.021v-3.187l2.942-.22v3.2Zm3.078-.216v-3.2l.135-.01v3.2Zm.271-.019v-3.2l.164-.013v3.2Zm.3-.022v-3.2l2.989-.223v3.215Zm3.127-.22v-3.215l.116-.009v3.215Zm.254-.019V135l.164-.012V138.2Zm.3-.021v-3.218l3.021-.225v3.229C141.8,138.04,140.76,138.115,139.636,138.193Zm3.158-.223v-3.23l.1-.008v3.23Zm.235-.018v-3.232l.144-.011v3.232Zm1.9-.137c-.179.014-.765.056-1.617.116V134.7l1.617-.121Zm0-3.341-16.775,1.252a.061.061,0,0,0-.062.052v8.959a.052.052,0,0,0,.022.039.087.087,0,0,0,.047.014h.006l16.762-1.15v.076l-17.009,1.172v-9.344l17.009-1.289Zm0-.323-17.075,1.293-.22-.033,17.295-1.318Zm0-.162-17.75,1.351v-8.464l17.75-1.475Zm0-8.871-1.611.135v-5.3l1.611-.141Zm0-5.406-16.716,1.457v-.246l16.716-1.386Zm-1.749.258v5.294l-.148.013v-5.3Zm-.286.025v5.293l-.132.011v-5.293Zm-.27.023v5.293l-3,.251v-5.282Zm-3.143.274v5.281l-.146.013v-5.281Zm-.284.025v5.28l-.1.009v-5.28Zm-.241.021v5.28l-3.012.251V120.6Zm-3.15.274v5.268l-.155.013v-5.267Zm-.291.025v5.268l-.141.012v-5.267Zm-.279.025v5.266l-2.923.245v-5.256Zm-3.061.267v5.255l-.181.015v-5.254Zm-.32.027v5.255l-.116.01v-5.254Zm-.254.023v5.253l-3.075.257v-5.242Zm-3.211.28V126.5l-.178.014v-5.241Zm-.178-.44v-3.154l.178-.016v3.155Zm.314-.027v-3.156l3.075-.283v3.185Zm3.213-.265v-3.187l.116-.011v3.188Zm.256-.022v-3.189l.181-.016v3.191Zm.319-.026v-3.191l2.947-.272v3.218Zm3.085-.256V117l.116-.01v3.221Zm.253-.021v-3.223l.168-.015v3.224Zm.306-.025v-3.226l3-.276v3.253Zm3.135-.261v-3.254l.093-.009v3.257Zm.231-.019v-3.257l.148-.014v3.258Zm.286-.024v-3.26l3.042-.28v3.287Zm3.18-.263v-3.289l.1-.01V119.6Zm.243-.02V116.3l.169-.016v3.294Zm1.9-.158-1.589.132v-3.295l1.589-.145Zm0-3.414-16.794,1.549a.06.06,0,0,0-.06.052v8.955a.047.047,0,0,0,.023.038.078.078,0,0,0,.046.014h.007l16.778-1.4v.072l-16.98,1.411v-9.322l16.98-1.555Zm0-.293-17.048,1.561-.3-.04,17.347-1.56Zm0-.144-17.744,1.6v-6.368l17.744-1.693Zm0-6.779v.206l-.28.026V105.79l.268,0,1.822,2.007-.722.866-1.028.091A.06.06,0,0,0,144.927,108.8Zm3.285,123.605h-3.147V108.85l3.147-.277Zm.06-123.947-.346.031-.623-.7,1.763-2.1v2.835l-.777-.069Zm1.174,109.056v14.891h-1.1V108.573l1.081.094V115.2a.052.052,0,0,0,.024.039.093.093,0,0,0,.032.011h0l.7.1v9.5l-.7.058a.059.059,0,0,0-.06.052v8.7a.044.044,0,0,0,.023.038.059.059,0,0,0,.032.012h0l.7.11v9.511l-.672.046c-.036,0-.062.024-.062.051v8.848a.048.048,0,0,0,.022.039.093.093,0,0,0,.039.013h0l.683.06v9.56L149.5,162c-.037,0-.065.024-.065.052v8.638a.049.049,0,0,0,.022.038.085.085,0,0,0,.042.013h0l.678.05v9.574l-.663.027c-.037,0-.065.024-.065.052v8.733a.044.044,0,0,0,.02.037.07.07,0,0,0,.037.013h0l.673.083v9.581l-.682.02c-.036,0-.067.023-.067.051v8.8a.05.05,0,0,0,.022.038.08.08,0,0,0,.049.014h0l.669-.012v9.654l-.658.009A.061.061,0,0,0,149.447,217.518Zm18.565,14.891H149.583V217.57l18.429-.24Zm0-15.493-1.716.022v-5.407l1.716-.032Zm0-5.521-17.332.312v-.262l17.332-.291Zm-1.853.139v5.406l-.151,0v-5.406Zm-.289,0v5.4l-.1,0v-5.4Zm-.241,0v5.4l-3.158.038V211.6Zm-3.3.059v5.384l-.144,0V211.6Zm-.281.005v5.383h-.135v-5.38Zm-.273.005v5.379l-3.091.037v-5.361Zm-3.229.058v5.361l-.172,0v-5.36Zm-.31.007v5.357l-.116,0v-5.357Zm-.254,0v5.358l-3.085.037v-5.339Zm-3.223.058v5.339H154.6v-5.337Zm-.3.005v5.337h-.144v-5.335Zm-.281.005v5.335l-3.187.038v-5.315Zm-3.325.06v5.314l-.177,0V211.81Zm-.177-.469v-3.2l.177,0v3.2Zm.314-.005v-3.2l3.2-.058v3.209Zm3.335-.056v-3.21l.134,0v3.21Zm.271-.005v-3.209l.161,0v3.21Zm.3,0v-3.21l3.087-.058v3.216Zm3.224-.054V208l.116,0v3.216Zm.254,0v-3.216l.172,0v3.217Zm.31-.005v-3.216l3.091-.057v3.222Zm3.229-.055V207.93l.135,0v3.222Zm.273,0v-3.222l.144,0v3.222Zm.283,0v-3.223l3.158-.058v3.227Zm3.3-.056v-3.228l.108,0v3.228Zm.246,0v-3.228l.146,0v3.228Zm2-.034-1.716.029v-3.229l1.716-.032Zm0-3.336-17.4.32c-.037,0-.067.024-.067.051v9.094a.046.046,0,0,0,.021.037.073.073,0,0,0,.047.014h0l17.4-.208v.2l-17.7.232V207.8l17.7-.354Zm0-.37-18.442.368v-8.694l18.442-.5Zm0-9.163-1.7.044v-5.408l1.7-.051Zm0-5.521-17.349.525v-.24l17.349-.536Zm-1.833.162v5.407l-.181.005v-5.408Zm-.319.008v5.408l-.119,0v-5.406Zm-.256.009v5.406l-3.117.082V192.93Zm-3.255.1v5.392l-.185.005V192.94Zm-.324.01v5.391l-.121,0v-5.391Zm-.257.008v5.39l-3.087.082v-5.378Zm-3.224.1v5.376l-.185.005v-5.376Zm-.323.009v5.376l-.112,0v-5.376Zm-.248.008v5.375l-3.087.081V193.16Zm-3.223.1v5.362l-.172.005V193.17Zm-.31.01v5.361l-.132,0v-5.36Zm-.27.009v5.36l-3.191.083v-5.347Zm-3.329.1v5.347l-.178,0v-5.347Zm-.178-.446v-3.193l.178-.005v3.194Zm.316-.01v-3.194l3.206-.114v3.21Zm3.342-.1v-3.21l.119,0v3.211Zm.257-.008v-3.211l.156-.005v3.211Zm.3-.01V189.5l3.1-.109v3.226Zm3.236-.1v-3.226l.125,0V192.6Zm.263-.008v-3.228l.172,0v3.227Zm.31-.01v-3.228l3.1-.11v3.242Zm3.237-.1v-3.242l.132,0v3.242Zm.271-.009v-3.244l.148,0v3.244Zm.284-.009v-3.244l3.13-.111v3.258Zm3.266-.1v-3.259l.116,0v3.26Zm.254-.008V189.1l.184-.007v3.261Zm2.017-.063-1.7.054v-3.261l1.7-.06Zm0-3.374-17.421.615c-.037,0-.066.023-.066.051v9.095a.045.045,0,0,0,.022.037.079.079,0,0,0,.047.015h0l17.415-.457v.13l-17.694.476v-9.572l17.694-.59Zm0-.3-17.759.592-.062-.009,17.82-.6Zm0-.118-18.426.617v-8.628l18.426-.744Zm0-9.05-1.716.067v-5.415l1.716-.075Zm0-5.529-17.324.764v-.28l17.324-.758Zm-1.853.187v5.414l-.145.007v-5.415Zm-.283.012v5.413l-.125,0v-5.412Zm-.263.012v5.411l-3.128.121v-5.395Zm-3.266.144v5.394l-.174.005V174.29Zm-.312.014v5.39l-.122.005V174.3Zm-.258.01V179.7l-3.112.119v-5.373Zm-3.25.144v5.372l-.155.005v-5.371Zm-.293.013v5.371l-.1,0v-5.37Zm-.234.01v5.37l-3.114.119v-5.351Zm-3.252.144v5.351l-.155.005v-5.35Zm-.293.012v5.35l-.136.005v-5.35Zm-.274.012v5.349l-3.191.122v-5.33Zm-3.329.147v5.329l-.164.007V174.8Zm-.164-.484v-3.179l.164-.007v3.18Zm.3-.012v-3.18l3.2-.154v3.194Zm3.336-.146v-3.194l.129-.007v3.2Zm.267-.012v-3.2l.155-.007v3.2Zm.293-.012v-3.2l3.1-.15v3.211Zm3.236-.142V170.77l.122-.007v3.212Zm.26-.012v-3.212l.145-.005v3.211Zm.283-.012v-3.212l3.112-.151v3.226Zm3.249-.143v-3.226l.122-.005v3.226Zm.26-.01v-3.228l.175-.008V173.8Zm.313-.014v-3.228l3.127-.151v3.242Zm3.265-.143V170.4l.119-.005v3.244Zm.257-.012V170.39l.151-.007v3.243Zm2-.087-1.716.075v-3.245l1.716-.082Zm0-3.357-17.4.836a.061.061,0,0,0-.065.051v9.1a.047.047,0,0,0,.022.038.083.083,0,0,0,.047.014h0l17.39-.67v.084l-17.7.714v-9.567l17.7-.84Zm0-.436-18.435.879V162.1l18.435-1.007Zm-17.8-17.456,4.618-.29-4.572.294Zm17.8,8.408-1.693.091v-5.4l1.693-.1Zm0-5.509-17.332,1v-.247L168.012,155Zm-1.83.211v5.4l-.19.01v-5.4Zm-.327.019v5.4l-.122.008v-5.4Zm-.26.015v5.394l-3.118.168V155.62Zm-3.256.187v5.382l-.152.008v-5.379Zm-.29.016v5.38l-.126.008v-5.38Zm-.264.015v5.38l-3.1.165v-5.367Zm-3.24.187v5.366l-.172.01v-5.366Zm-.312.017v5.366l-.123.007V155.87Zm-.261.014v5.365l-3.087.166v-5.354Zm-3.224.186v5.352l-.168.009v-5.351Zm-.306.017v5.351l-.123.007v-5.35Zm-.261.015v5.35l-3.2.17V156.28Zm-3.339.191v5.337l-.161.009V156.3Zm-.161-.448v-3.227l.161-.01v3.228Zm.3-.015v-3.23l3.223-.189v3.242Zm3.359-.184V152.4l.125-.007v3.244Zm.263-.015v-3.245l.136-.009v3.246Zm.274-.015v-3.246l3.092-.182v3.26Zm3.23-.176v-3.26l.128-.008v3.26Zm.267-.015v-3.261l.165-.01v3.262Zm.3-.015v-3.263l3.11-.184v3.276Zm3.246-.178V151.95l.131-.008v3.277Zm.27-.014v-3.279l.148-.009V155.2Zm.286-.016v-3.28l3.122-.184v3.293Zm3.26-.178v-3.294l.118-.005v3.293Zm.256-.013v-3.295l.174-.011v3.3Zm2.02-.11-1.708.093v-3.3l1.708-.1Zm0-3.409-17.407,1.026a.061.061,0,0,0-.063.052v9.126a.05.05,0,0,0,.021.038.081.081,0,0,0,.047.013h0l17.4-.93v.174l-17.69.968V152.4l17.69-1.133Zm0-.406-18.433,1.153v-8.743l18.433-1.263Zm0-9.13-1.707.117V136.7l1.707-.122Zm0-5.477-17.338,1.234v-.257l17.338-1.21Zm-1.845.236v5.366l-.158.011v-5.365Zm-.3.022V142.1l-.151.01v-5.364Zm-.29.02v5.365l-3.107.212v-5.354Zm-3.245.232v5.355l-.164.011v-5.354Zm-.3.022v5.353l-.128.009v-5.352Zm-.266.019v5.353l-3.092.211v-5.343Zm-3.23.232v5.341l-.168.012v-5.342Zm-.306.021v5.342l-.109.007v-5.341Zm-.248.017v5.341l-3.1.212v-5.332Zm-3.237.231v5.331l-.177.012v-5.331Zm-.314.023v5.33l-.1.007v-5.33Zm-.238.016v5.33l-3.206.218v-5.319Zm-3.344.238v5.32l-.178.011v-5.318Zm-.178-.456v-3.2l.178-.014v3.2Zm.316-.021v-3.2l3.206-.244V137.1Zm3.344-.235v-3.222l.1-.008v3.223Zm.238-.016v-3.224l.148-.01v3.224Zm.284-.02v-3.225l3.115-.238v3.246Zm3.253-.226v-3.248l.113-.009v3.248Zm.251-.019V133.56l.179-.013V136.8Zm.317-.022v-3.25l3.092-.236v3.271Zm3.23-.225v-3.272l.144-.01v3.271Zm.283-.021v-3.272l.145-.012v3.274Zm.283-.019v-3.275l3.141-.239V136.3Zm3.279-.229V133l.1-.008v3.3Zm.244-.017v-3.3l.171-.012v3.3Zm2.016-.141-1.707.119v-3.3l1.707-.13Zm0-3.415L150.6,134.046a.061.061,0,0,0-.062.052v9.09a.043.043,0,0,0,.023.038.071.071,0,0,0,.046.014h0l17.4-1.188v.067l-17.7,1.213v-9.5l17.7-1.345Zm0-.334-17.764,1.351-.3-.047,18.064-1.367Zm0-.168-18.451,1.4v-8.594l18.451-1.525Zm0-9.023-1.694.142v-5.374l1.694-.145Zm0-5.482L150.7,119.193v-.268l17.315-1.423Zm-1.832.262v5.373l-.177.015v-5.373Zm-.314.026v5.373l-.1.009v-5.373Zm-.238.021v5.372l-3.13.261v-5.365Zm-3.269.28v5.365l-.2.017v-5.365Zm-.342.029v5.364l-.113.01V118.34Zm-.251.022v5.363l-3.108.259v-5.356Zm-3.246.277v5.355l-.142.013v-5.356Zm-.28.024v5.355l-.125.01v-5.355Zm-.263.022v5.355l-3.105.259v-5.348Zm-3.243.279V124.3l-.145.013v-5.348Zm-.283.023v5.348l-.111.009v-5.347ZM154.2,119v5.347l-3.217.268v-5.339Zm-3.356.287v5.339l-.149.013V119.3Zm-.149-.466v-3.183l.149-.013v3.185Zm.289-.023V115.61l3.217-.293v3.215Zm3.355-.276V115.3l.118-.012v3.217Zm.257-.021v-3.218l.145-.013v3.22Zm.284-.023v-3.222l3.1-.282v3.249Zm3.233-.267v-3.249l.106-.01v3.25Zm.244-.02v-3.252l.161-.014v3.252Zm.3-.025V114.91l3.135-.285v3.282Zm3.273-.269v-3.284l.113-.01v3.285Zm.251-.021v-3.286l.144-.012v3.286Zm.281-.023v-3.288l3.164-.288v3.317Zm3.3-.271v-3.318l.1-.009v3.318Zm.237-.02v-3.32l.178-.016v3.321Zm2.01-.165-1.694.139v-3.322l1.694-.155Zm0-3.443-17.393,1.584a.06.06,0,0,0-.06.051V124.7a.047.047,0,0,0,.023.038.082.082,0,0,0,.046.014h.007l17.377-1.449v.088l-17.688,1.461v-9.488l17.688-1.591Zm0-.288-17.754,1.6-.317-.047,18.072-1.649Zm0-.205-18.442,1.682v-6.475l18.442-1.74ZM171.4,232.409H168.15V106.648l3.249-.31ZM194.673,87.941a1.412,1.412,0,0,1-.253.024c-.034,0-.069,0-.1,0l-.131-.016h0a1.765,1.765,0,0,1-1.3-1.81,2.229,2.229,0,0,1,1.812-2.2,1.382,1.382,0,0,1,.19-.013c.037,0,.075,0,.112.005l.135.017a1.748,1.748,0,0,1,1.351,1.777A2.233,2.233,0,0,1,194.673,87.941Zm.156.073a2.341,2.341,0,0,0,1.8-2.291,1.937,1.937,0,0,0-.937-1.69,1.779,1.779,0,0,1,1.2,1.74,2.232,2.232,0,0,1-1.816,2.218A1.276,1.276,0,0,1,194.829,88.014Zm.535.012v3.842l-.273.028v-3.8h.011A2.546,2.546,0,0,0,195.365,88.026Zm-5.972.388a1.532,1.532,0,0,1-1.236,1.521,1.637,1.637,0,0,0,1.1-1.556,1.372,1.372,0,0,0-.531-1.1A1.244,1.244,0,0,1,189.393,88.414Zm-.914,1.538v2.64l-.268.027V90.031A1.743,1.743,0,0,0,188.478,89.952Zm-.757-3.933a1.694,1.694,0,0,1-.332.033c-.044,0-.09,0-.134-.007l-.169-.021h0a2.292,2.292,0,0,1-1.691-2.352,2.892,2.892,0,0,1,2.354-2.852A1.914,1.914,0,0,1,188,80.8c.049,0,.1,0,.149.007l.172.021a2.277,2.277,0,0,1,1.762,2.311A2.9,2.9,0,0,1,187.722,86.019Zm.076.093a3.01,3.01,0,0,0,2.423-2.97,2.468,2.468,0,0,0-1.315-2.229,2.289,2.289,0,0,1,1.69,2.294,2.9,2.9,0,0,1-2.36,2.878A1.688,1.688,0,0,1,187.8,86.112Zm.683.024v.957l-.007,0h-.01l-.245-.031-.016,0V86.2l.067-.012C188.342,86.172,188.411,86.156,188.481,86.136Zm-.607,3.765a.9.9,0,0,1-.169.016c-.026,0-.049,0-.073,0l-.07-.009a1.221,1.221,0,0,1-.9-1.241,1.526,1.526,0,0,1,1.237-1.508.986.986,0,0,1,.128-.009c.024,0,.05,0,.073,0l.095.011a1.2,1.2,0,0,1,.917,1.216A1.529,1.529,0,0,1,187.874,89.9ZM178.8,232.409h-7.261V106.338l7.261.742Zm19.513,0H178.934V192.157l19.375-.592Zm0-40.948-19.375.591V159.347l19.375-1.092Zm0-33.313-19.375,1.094V126.52l19.375-1.544Zm0-33.278-19.375,1.545V107.034a.06.06,0,0,0-.06-.052l-3.315-.339V94.055l22.75-2.391Zm22.177,107.538h-22.04V214.258l22.04.354Zm0-17.9-22.04-.354V195.782l22.04.683Zm0-18.148-22.04-.682v-18.36l22.04,1Zm0-18.144-22.04-1V158.831l22.04,1.33Zm0-18.158-22.04-1.331V140.365l22.04,1.657Zm0-18.14-22.04-1.657V121.865l22.04,2.006Zm0-18.151-22.04-2V103.4l22.04,2.317Zm4.639,108.644h-4.5v-17.8l4.5.072Zm0-17.827-4.5-.073v-18.04l4.5.139Zm0-18.079-4.5-.14V178.326l4.5.2Zm0-18.077-4.5-.2V160.169l4.5.271Zm0-18.09-4.5-.272v-18.03l4.5.338Zm0-18.071-4.5-.338V123.883l4.5.41Zm0-18.078-4.5-.41V105.73l4.5.473Zm1.559,108.222h-1.421V214.688l1.421.024Zm0-17.8-1.421-.022V196.611l1.421.045Zm0-18.055-1.421-.044v-17.97l1.421.064Zm0-18.054-1.421-.064V160.449l1.421.086Zm0-18.067-1.421-.085V142.381l1.421.107Zm0-18.047-1.421-.107V124.3l1.421.13Zm0-18.054-1.421-.13V106.218l1.421.15Zm0-18.067-28.237-2.968V91.655l28.237,3.252Zm145.277-44.7V68.27l-20.885-3.246V58.182Zm-21.385,150.35v-4.623l18.759.433v4.57l-18.341-.385Zm.35.1v6.843l-22.061.252v-6.755Zm.138,0,20.893.439-.042,6.706-20.851-.3Zm-.558-4.831-12.438.2,12.919-.236,18.932.457-.5.014Zm.421-6.98v6.842l-21.843.4-.218-.005v-6.746Zm-.35-.1v-4.616l18.759.638v4.53l-18.343-.563Zm.488,6.938V200.2l20.893.64-.042,6.7Zm-.558-11.661-19.447.472-.333-.012,20.261-.533,19.537.675-1.1.04Zm.421-7.018V195.2l-21.915.578-.146-.005v-6.747Zm-.35-.094V183.73l18.759.815v4.463l-18.344-.753Zm.488,6.937v-6.842l20.893.858-.042,6.706Zm-.558-11.583-19.448.612-.97-.056,20.9-.7,19.741.919-1.308.048Zm.421-7.09v6.841l-21.987.737-.075,0v-6.748Zm-.35-.092V171.9l18.756,1.068V177.4L351,176.423h-.009Zm.488,6.934v-6.841l20.893,1.107-.042,6.706Zm-.553-11.586h-.007l-19.447.813-1.2-.085,21.135-.874,20.023,1.142-1.589.081Zm17.754-10.2L352,160.425a.083.083,0,0,0-.055.014.05.05,0,0,0-.022.038v4.088c0,.026.026.048.063.051l13.5.893L351,164.588h-.01l-.415.019v-4.469l18.751,1.213v4.4l-1.041-.066.02-.009a.048.048,0,0,0,.023-.038v-4A.062.062,0,0,0,368.267,161.584Zm-.076.1v3.9l-.211-.014v-3.9Zm-.349-.026v3.9l-2.5-.166v-3.912Zm-2.633-.187v3.913l-.188-.012v-3.914Zm-.327-.023v3.914l-.234-.015v-3.917Zm-.373-.026v3.915l-3.539-.233V161.17Zm-3.677-.263V165.1l-.187-.013v-3.937Zm-.324-.022v3.937l-.237-.015V161.12Zm-.375-.027v3.939l-3.644-.24v-3.958Zm-3.781-.269V164.8l-.2-.012v-3.96Zm-.339-.024v3.96l-.246-.016V160.8Zm-.383-.028v3.963l-3.572-.235v-3.982Zm-4.7,3.908v6.842l-22.012.91-.049,0V165.7Zm.138,6.843V164.7l20.893,1.326-.042,6.706Zm-.551-11.512h-.009l-19.447.918-1.328-.1,21.259-1.048,20.112,1.371-1.678.085Zm.413-7.176v6.841L328.9,160.779l-.036,0v-6.751Zm-.35-.086v-4.455l18.759,1.44v4.36L351,152.743h-.013Zm.488,6.93v-6.841l20.893,1.558-.042,6.7Zm-.55-11.495H350.5l-19.445,1.114-1.388-.107,21.319-1.24,20.215,1.583-1.782.1Zm.412-7.175v6.841l-22.032,1.281-.029,0v-6.75Zm-7.625.269-4.732.283v-3.888l4.732-.3Zm.139-.009v-3.972l.286-.018v3.972Zm.424-.026v-3.941l.152.026v3.907Zm.291-.016v-3.885l5.086-.326v3.908Zm24.111-2.962L352,136.923a.086.086,0,0,0-.056.012.051.051,0,0,0-.022.039v4.018l-.917-.078h-.013l-.429.026v-4.4l18.775,1.634v4.293l-1.006-.085v-4.051A.061.061,0,0,0,368.268,138.279Zm-.078.128v3.963l-.223-.02V138.47Zm-2.426-.232,2.2.184-.056.016Zm2.066.3v3.866l-2.479-.211v-3.886Zm-2.616-.344v3.989l-.191-.016v-3.988Zm-.329,0v3.963l-.241-.02v-3.887Zm-2.989-.273,2.719.227-.057.013Zm2.608.342v3.863l-3.524-.3v-3.884Zm-3.662-.43v3.983l-.191-.016v-3.981Zm-.329-.009v3.964l-.257-.021v-3.9Zm-.393.047v3.884l-3.644-.308v-3.9Zm-3.781-.413v3.977l-.191-.016v-3.977Zm-.329-.012v3.961l-.234-.021v-3.908Zm-.37.044v3.885l-3.583-.3v-3.9Zm-4.575,10.445v-6.841l20.893,1.769-.042,6.7Zm-.55-11.435H350.5l-19.444,1.24-1.526-.146,21.455-1.39,20.278,1.836-1.845.1Zm.412-7.238v6.841l-22.048,1.427h-.013v-6.754Zm-18.367,1.155v-3.973l.161.044v3.919Zm.257-4.018,4.924-.353V126Zm4.924-.229v3.892l-4.885.335v-3.9Zm.138,3.883v-4.016l.254-.017v4.016Zm.392-.026v-4l.165.038v3.946Zm.3-.022v-3.921l4.726-.353v3.949Zm4.865-.334V125.57l.277-.02v4.033Zm.416-.028V125.56l.161.034v3.969Zm.3-.02v-3.948l5.089-.371v3.97Zm24.116-2.834L352,125.123a.092.092,0,0,0-.055.013.048.048,0,0,0-.023.039v4l-.916-.088h-.016l-.428.03v-4.392l18.775,1.869v4.269l-1.006-.1v-3.991A.059.059,0,0,0,368.27,126.72Zm-.079.118v3.912l-.218-.021v-3.854Zm-.357.037v3.84l-2.5-.243v-3.848Zm-2.639-.351v3.935l-.161-.015v-3.936Zm-.3-.011v3.917l-.251-.024v-3.851Zm-.389.047v3.832l-3.529-.342v-3.844Zm-3.667-.463v3.941l-.192-.02v-3.941Zm-.33-.017v3.926l-.247-.025v-3.872Zm-.383.028v3.861l-3.646-.355v-3.867Zm-3.786-.453V129.6l-.192-.019v-3.945Zm-.329-.017v3.932l-.247-.023v-3.883Zm-.385.028v3.866l-3.57-.345V125.31Zm-4.562,10.372V129.2l20.893,2.024-.042,6.7Zm-.548-11.426H350.5l-19.444,1.414-1.562-.151,21.493-1.582L371.4,126.36l-1.981.135Zm.411-7.261v6.841l-22.053,1.623h-.009v-6.754ZM332.56,118.67v-3.95l.159.028v3.909Zm.3-.024v-3.889l4.857-.38v3.894Zm4.995-.387V114.28l.281-.022v3.979Zm.421-.033v-3.962l.194.03v3.919Zm.333-.025v-3.9l4.712-.364v3.9Zm4.848-.376v-3.99l.273-.022v3.99Zm.411-.032v-3.971l.151.028v3.931Zm.289-.023v-3.9l5.092-.412v3.921Zm24.118-2.653L352,113.347a.088.088,0,0,0-.056.012.048.048,0,0,0-.023.039v3.941l-.914-.1h-.017l-.428.033V112.94L369.332,115v4.2l-1-.107V115.17C368.33,115.144,368.3,115.122,368.27,115.118Zm-.079.123v3.838l-.218-.024v-3.762Zm-2.838-.327v-.009l2.594.283-.036.009Zm2.482.38v3.746l-2.482-.265V115.02Zm-2.619-.4v3.868l-.184-.02v-3.868Zm-.322-.014v3.849l-.247-.026v-3.779Zm-1.848-.222,1.545.168-.027,0Zm1.463.273v3.756l-3.53-.377v-3.782Zm-3.667-.513v3.877l-.165-.017V114.4Zm-.3-.019v3.864l-.254-.027v-3.811Zm-.393.029v3.793l-3.664-.393v-3.813Zm-3.8-.5v3.886l-.185-.02v-3.887Zm-.323-.023v3.874l-.251-.026v-3.826Zm-.389.023v3.809l-3.576-.382V113.54Zm-4.568,10.268v-6.841l20.893,2.234v6.722Zm-.547-11.365H350.5l-19.443,1.556-1.648-.186,21.577-1.739,20.473,2.294-2.039.154Zm.409-7.311v6.839l-22.061,1.78h0v-6.755Zm-18.367,1.446v-3.923l.156.044v3.865Zm.248-3.966-.017,0,4.941-.426v.009Zm4.924-.316v3.844l-4.877.411V103.1Zm.138,3.832v-3.958l.264-.023v3.958Zm.4-.034V102.55l.158.044v3.874Zm.244-3.977-.013,0,3.354-.288Zm4.8-.314v3.863l-4.751.4v-3.85Zm.136,3.852v-3.968l.27-.023v3.968Zm.408-.035v-3.945l.145.033V106Zm.283-.024v-3.87l5.1-.44v3.879Zm24.126-2.457L352,101.548a.082.082,0,0,0-.056.012.048.048,0,0,0-.023.039v3.915l-.914-.107h-.019l-.411.035v-4.289l18.743,2.275v4.137l-.991-.117V103.58A.061.061,0,0,0,368.271,103.528Zm-.08.121v3.782l-.22-.026V103.7Zm-1.95-.262,1.7.206-.011,0Zm1.592.3v3.7l-2.489-.294v-3.714Zm-2.627-.429v3.818l-.185-.022V103.24Zm-.324-.017v3.8l-.243-.028v-3.724Zm-3.9-.494v0l3.621.441-.032.005Zm3.523.541V107l-3.523-.414v-3.725Zm-3.659-.56v3.836l-.179-.021v-3.837Zm-.316-.019v3.816l-.263-.031v-3.742Zm-4.056-.506V102.2l3.753.457-.022,0Zm3.655.55v3.726l-3.655-.432v-3.737Zm-3.793-.574v3.853l-.175-.021V102.16Zm-.313-.016V106l-.261-.031v-3.755Zm-3.858-.492,3.575.436-.056.009Zm3.458.544v3.733l-3.565-.42v-3.765Zm-4.557,10.143v-6.84l20.893,2.46V114.7Zm-.547-11.321a.046.046,0,0,0-.017,0l-19.441,1.716-1.721-.225,21.651-1.916,20.541,2.529-2.107.19Zm.409-7.365v6.84l-22.061,1.953V95.712ZM332.56,95.265V91.4l.177.047-.014,3.807Zm.251-3.912-.022-.007,4.931-.465v.009Zm4.91-.357v3.793l-4.861.449.013-3.784Zm.138,3.78V90.867l.283-.026v3.908Zm.421-.038v-3.88l.152.039v3.827Zm.244-3.929-.011,0,4.791-.452v.005Zm4.779-.344v3.808l-4.733.437v-3.8Zm.139,3.8V90.34l.286-.026v3.92Zm.424-.038v-3.89l.149.047v3.829Zm.264-3.921-.065-.02,5.178-.489v.026Zm5.114-.378v3.8l-5.089.47V90.4Zm19.028,1.96-12.184-1.6h0L352,89.75a.088.088,0,0,0-.059.011.052.052,0,0,0-.023.04V93.68l-.913-.117h-.02l-.411.038V89.358l18.756,2.493v4.073l-1-.129v-3.86C368.33,91.91,368.3,91.888,368.271,91.882Zm-2.926-.239v-.037l2.667.35-.1.032Zm2.5.442v3.647l-2.5-.322V91.749Zm.136-.008.207-.066v3.765l-.207-.027Zm-2.775-.491v3.805l-.191-.024V91.562Zm-4.234-.523v-.032l3.718.487-.129.038Zm3.537.593V95.3l-3.537-.456V91.171Zm.138-.012.23-.069V95.35l-.23-.029Zm-3.813-.631v3.815l-.185-.023V90.99Zm-4.354-.534v-.036l3.827.5-.121.032Zm3.654.6v3.663l-3.654-.471V90.585Zm.138-.011.238-.063v3.785l-.238-.031Zm-3.931-.64v3.826l-.2-.025V90.4Zm-4.287-.54v-.023l3.743.492-.131.034Zm3.579.605v3.668l-3.579-.461V89.991Zm.138-.02.235-.061v3.8l-.235-.03Zm-4.709,10.046v-6.84l20.893,2.691v6.721Zm-.546-11.274H350.5L331.06,91.1l-1.76-.249,21.688-2.069,20.57,2.78-2.133.192Zm.408-7.4v6.839l-22.061,2.105V84.033ZM332.56,83.561V79.739l.156.048v3.757Zm.251-3.858-.05-.015,4.954-.5v.02Zm4.9-.39v3.735l-4.861.483V79.8Zm.138,3.721V79.174l.276-.028v3.863Zm.413-.04V79.159l.161.042v3.777Zm.26-3.878-.03-.008,4.809-.486h0Zm4.779-.388v3.766l-4.74.471V79.217Zm.138,3.753V78.608l.276-.028v3.874Zm.415-.042v-3.85l.152.033v3.8Zm.29-.028V78.64l5.1-.521V81.9Zm24.124-2.094-3.3-.475h0l-8.886-1.277h0L352,77.978a.086.086,0,0,0-.057.011.048.048,0,0,0-.024.04v3.83l-.912-.128a.072.072,0,0,0-.022,0l-.419.04v-4.19l18.765,2.671v4.06l-1-.141V80.368A.059.059,0,0,0,368.272,80.316Zm-2.934-.274V80l2.654.382-.079.021Zm2.517.459v3.605l-2.517-.355v-3.6Zm.136-.007.2-.054v3.712l-.2-.028Zm-2.789-.512v3.749l-.178-.025v-3.75Zm-4.219-.583v-.024l3.675.529-.093.021Zm3.522.623v3.612l-3.522-.5v-3.63Zm.138-.005.244-.054v3.725l-.244-.035Zm-3.8-.661v3.764l-.194-.028V79.328Zm-4.366-.6v-.03l3.812.548-.1.022Zm3.665.64v3.622L356.48,82.5V78.864Zm.139-.01.23-.052v3.736l-.23-.033Zm-3.942-.678v3.774l-.2-.029V78.68Zm-4.285-.592v-.024l3.74.536-.115.029Zm3.56.639v3.625l-3.56-.5V78.223Zm.138-.005.247-.062v3.747l-.247-.035Zm-4.69,9.936v-6.84l20.893,2.943v6.721Zm-.544-11.217a.071.071,0,0,0-.021,0l-19.44,2.007-1.779-.253,21.707-2.265L371.6,79.939l-2.172.221Zm.406-7.451v6.84l-22.061,2.3V72.407ZM332.56,71.9V68.1l.165.038v3.742Zm5.155-4.277v3.719l-4.852.525v-3.72Zm-4.7.4,4.7-.517v.009Zm4.837,3.3V67.494l.294-.032V71.3Zm.434-.047V67.47l.151.032v3.764Zm5.032-4.276v3.731l-4.743.513V67.513Zm-2,.108,2-.22V66.9Zm2.139,3.608V66.878l.279-.03v3.843Zm.415-.046V66.854l.144.026v3.781Zm.281-.029V66.9l5.092-.555V70.1Zm24.121-1.91-3.311-.517h0L360.6,67.54h0L352,66.2a.093.093,0,0,0-.057.011.048.048,0,0,0-.024.04v3.793l-.912-.137a.071.071,0,0,0-.022,0l-.416.045V65.786l18.762,2.881v4l-1-.151V68.789A.059.059,0,0,0,368.272,68.737Zm-.082.12v3.634l-.212-.032V68.9Zm-2.844-.448v-.022l2.616.408-.049.01Zm2.5.492v3.536l-2.5-.374V68.516Zm-2.631-.535v3.676l-.192-.028V68.336Zm-.33-.026v3.653l-.233-.035V68.384Zm-3.9-.61v-.024l3.667.571-.059.012Zm3.533.654v3.553l-3.533-.531V67.837Zm-3.669-.7v3.7l-.19-.028v-3.7Zm-.327-.027v3.678l-.237-.036V67.7Zm-4.046-.612V67l3.8.594-.082.015Zm3.672.665V71.28l-3.672-.553V67.153Zm-3.812-.73v3.725l-.157-.024V66.956Zm-4.271-.627v-.039l3.758.586-.115.025Zm3.57.668V70.6l-3.57-.536v-3.6Zm.138,0,.268-.059v3.7l-.268-.039Zm-4.7,9.842V70.022l20.893,3.142v6.721Zm-.55-11.192a.071.071,0,0,0-.021,0l-20.42,2.289-1.509-.265v-.071l22.442-2.5,20.621,3.205-2.235.244ZM308.526,211.01v-.241l14.053.288h0a.074.074,0,0,0,.047-.015.043.043,0,0,0,.022-.037v-4.217c0-.027-.029-.051-.068-.052l-14.056-.354v-.253l14.963.367v4.772l-14.25-.276Zm.649.087v7.166l-.649,0v-7.146Zm-.649-.433v-4.178l3.672.091v4.161Zm3.812.078v-4.16l.233.005v4.16Zm.369.008v-4.159l.212.005v4.158Zm.352.008V206.6l4.01.1v4.138Zm4.146.084V206.7l.217.007v4.135Zm.355.008v-4.135l.244.005v4.134Zm.382.008v-4.134l4.193.106v4.114Zm4.331.09v-4.114l.24.007v4.111Zm.3-12.032h0a.093.093,0,0,0,.049-.015.047.047,0,0,0,.02-.038v-4.215c0-.028-.029-.051-.066-.052l-14.049-.481v-.286l14.951.532v4.719l-14.231-.424h-.007l-.712.039v-.219Zm-14.043-.544v-4.151l3.659.125v4.142Zm3.8.119v-4.142l.238.009V198.5Zm.376.011V194.36l.205.008v4.138Zm.343.011v-4.137l4.015.137v4.126Zm4.152.13v-4.126l.227.007v4.126Zm.363.011v-4.125l.233.008v4.124Zm.37.011V194.54l4.211.143v4.112Zm4.347.135v-4.111l.23.009v4.11Zm.286-12.024h0a.086.086,0,0,0,.047-.014.05.05,0,0,0,.023-.038v-4.228c0-.028-.029-.05-.066-.052l-14.042-.629v-.288l14.985.694v4.676l-14.264-.58h-.009l-.712.038v-.168Zm-14.035-.694v-4.165l3.631.163v4.154Zm3.767.157v-4.152l.264.012v4.151Zm.4.017V182.1l.218.01v4.151Zm.356.015v-4.151l4,.179v4.139Zm4.133.173V182.3l.247.011v4.138Zm.385.015v-4.137l.205.01v4.136Zm.342.015v-4.136l4.228.19v4.123Zm4.364.184v-4.124l.218.01v4.123Zm.284-12.034h0a.079.079,0,0,0,.047-.014.048.048,0,0,0,.023-.037v-4.2a.062.062,0,0,0-.065-.052l-14.043-.79v-.287l14.971.852v4.623l-14.25-.731h-.009l-.712.04v-.135Zm-14.035-.835v-4.154l3.674.208v4.137Zm3.812.2V169.85l.214.013V174Zm.353.017V169.87l.223.013v4.134Zm.362.019v-4.133l4,.225v4.115Zm4.136.215v-4.116l.233.013v4.116Zm.369.02v-4.114l.25.014v4.112Zm.388.02v-4.113l4.189.236V174.5Zm4.327.225v-4.095l.223.013v4.093Zm.3-52.755-14.046-1.429v-.255l14.971,1.5V126l-.863-.084V121.8C322.634,121.774,322.608,121.751,322.572,121.748Zm-.078.111V125.9l-.234-.023v-4Zm-.372.024v3.981l-4.181-.406v-4.013Zm-4.32-.516v4.077l-.237-.023v-4.078Zm-.373-.024v4.065l-.241-.024v-4.017Zm-.379.025v4l-4-.389v-4.021Zm-4.142-.5v4.1l-.2-.02v-4.1Zm-.34-.016v4.081l-.258-.025v-4.016Zm-.4.046v4l-2.92-.284h-.019l-.708.07v-4.17Zm-3,3.825v7.164l-.649.044v-7.145Zm.06,7.266,18.591,1.678-4.189.281v-.29a.061.061,0,0,0-.062-.052l-15.05-1.356v-.214Zm14.264,1.715v4.465l-.841-.072v-4.167a.058.058,0,0,0-.06-.051l-14.072-1.26v-.263Zm-.979.288v4.092l-.271-.023v-4.033Zm-.409.035v4.022l-4.183-.359v-4.041Zm-4.321-.473v4.124l-.23-.02v-4.125Zm-.366-.021v4.113l-.233-.021V133.56Zm-.37.022v4.059l-4.01-.344v-4.063Zm-4.147-.439v4.142l-.207-.017V133.1Zm-.346-.013v4.125l-.243-.021V133.14Zm-.382.034V137.2l-2.927-.252h-.017l-.708.069V132.8Zm-3,3.919v7.164l-.649.043V137.12Zm.06,7.266,18.505,1.463-4.1.248v-.24a.061.061,0,0,0-.062-.052l-15.048-1.2v-.175Zm14.263,1.517v4.511l-.864-.064v-4.2a.06.06,0,0,0-.062-.051L308.526,144.9v-.252Zm-1,.3v4.138l-.215-.015v-4.14Zm-.352-.028v4.142l-4.224-.314v-4.17Zm-4.361-.352v4.17l-.224-.017V145.74Zm-.36-.031V149.9l-.217-.017v-4.173Zm-.353-.027v4.174l-4.013-.3v-4.2Zm-4.152-.337v4.2l-.218-.016v-4.2Zm-.356-.028v4.206l-.227-.017v-4.207Zm-.365-.031v4.208l-2.946-.219h-.016l-.708.068v-4.355Zm-3.021,4.1v7.164l-.649.043V149.47Zm.062,7.266,18.382,1.237-3.981.209v-.2c0-.026-.029-.048-.063-.051l-15.048-1.025v-.12Zm14.263,1.29v4.582l-.93-.059a.081.081,0,0,0,.042-.014.045.045,0,0,0,.023-.038v-4.2a.061.061,0,0,0-.063-.052l-14.045-.95v-.281Zm-1,.314v4.1l-.228-.015v-4.1Zm-.366-.026v4.1l-4.2-.27v-4.118Zm-4.334-.292v4.116l-.23-.015v-4.118Zm-.368-.026v4.12l-.235-.015v-4.12Zm-.372-.024v4.119l-4-.256v-4.134Zm-4.14-.281v4.134l-.217-.014v-4.135Zm-.355-.024v4.135l-.233-.014v-4.136Zm-.37-.025v4.137l-3.664-.236v-4.149Zm8.753,4.8-11.695-.742h-.01l-.712.039v-.094Zm-11.768-.634v7.166l-.649.015v-7.144Zm.06,7.269,18.188,1.029-3.789.157v-.158a.063.063,0,0,0-.065-.052l-15.044-.856v-.1Zm-.06,5.079v7.166l-.649.015v-7.146Zm.057,7.268,18.04.8-3.623.15v-.149c0-.028-.029-.05-.065-.052l-15.058-.7v-.035Zm-.057,5.056v7.167l-.649.015v-7.146Zm.059,7.269,17.618.6-3.237.1v-.075a.061.061,0,0,0-.066-.052l-15.022-.535v-.013Zm14.328,12.7-14.517-.356.191,0,16.748.385-2.356.044v-.016C323.627,206.416,323.6,206.393,323.561,206.392Zm-14.386-7.63v7.166l-.649.015V198.8Zm.136,12.334,19.115.37V218.5l-19.115-.237Zm18.547.255-4.231-.082v-4.7l4.231-.081Zm-18.547-5.423V198.76l19.115.57v7.037Zm18.544-6.72-4.241-.126v-4.594l4.241-.127Zm-18.544-5.619V186.42l19.115.778v7.037Zm18.538-6.52-4.2-.17v-4.477l4.2-.175Zm-18.538-5.8V174.1l19.115.98v7.037Zm18.527-6.323-4.2-.216v-4.417l4.2-.174Zm-18.527-6.024V161.75l19.115,1.213V170Zm18.521-6.1-4.195-.267v-4.329l4.195-.221Zm-18.521-6.248v-7.168l19.115,1.418v7.036Zm18.534-5.9-4.209-.311V146.14l4.209-.253Zm-18.534-6.451v-7.167l19.115,1.644v7.036Zm18.534-5.679-4.208-.362v-4.127l4.208-.283Zm-18.534-6.652v-7.168l19.115,1.857v7.036Zm14.323-5.882v-4.042l4.214-.312v4.764Zm0-4.148v-.342a.06.06,0,0,0-.059-.052l-15.05-1.51V119.7l.709-.046,18.66,1.9Zm-1.065-12.239-14.043-1.6v-.264l14.968,1.675v4.382l-.867-.094v-4.049A.059.059,0,0,0,322.569,109.624Zm-.08.113v3.973l-.237-.026v-3.924Zm-.376.021v3.912l-4.182-.454v-3.941Zm-4.32-.57V113.2l-.228-.024v-4.014Zm-.365-.029v4l-.233-.025v-3.961Zm-.369.013v3.95l-4-.435v-3.951Zm-4.137-.538v4.039l-.223-.025v-4.039Zm-.36-.025v4.024l-.234-.025v-3.969Zm-.372.031v3.954l-2.937-.319a.053.053,0,0,0-.019,0l-.708.069v-4.119Zm-3.015,3.746v7.164l-.649.043v-7.145Zm.136,7.168v-7.167l19.115,2.075V121.5Zm14.32-5.718v-3.944l4.214-.364v4.764Zm0-4.05v-.393c0-.025-.024-.047-.059-.051l-15.047-1.683v-.308l.708-.034,18.728,2.1Zm-1.051-12.321-14.055-1.742v-.255l14.966,1.857v4.305l-.854-.1V97.515A.059.059,0,0,0,322.581,97.464Zm-.079.113v3.935l-.25-.029V97.6Zm-.388.024v3.865l-4.186-.5V97.085Zm-4.324-.624v3.976l-.227-.027V96.948Zm-.363-.028v3.96l-.24-.028V96.974Zm-.378.028v3.887l-4-.475V96.48Zm-4.142-.605v4l-.208-.025v-4Zm-.346-.024v3.983l-.233-.027v-3.92Zm-.313-.058-.022,0-3.7-.463v0Zm-.059.1v3.892l-2.936-.35h-.019l-.709.057V95.935Zm-3.015,3.653v7.164l-.649.032V100.1Zm.136,7.17v-7.167l19.115,2.271v7.036Zm18.534-5.07-4.214-.5v-3.87l4.214-.364Zm-4.214-4.477v-.391c0-.026-.026-.047-.059-.051l-15.047-1.867V95.07l.711-.082,18.754,2.306Zm-1.057-12.363-14.049-1.883v-.243L323.5,85.213v4.246l-.861-.111V85.359A.061.061,0,0,0,322.575,85.307Zm-.08.117V89.33l-.241-.032V85.465Zm-4.516-.627,4.235.568-.023,0Zm4.136.669V89.28l-4.182-.543V84.9Zm-4.32-.693V88.72l-.21-.027V84.744Zm-.347-.028v3.931l-.258-.035V84.781Zm-4.39-.6v0l4.07.546-.023,0Zm3.992.646v3.837l-3.992-.518V84.246Zm-4.13-.668v3.969l-.218-.029V84.089Zm-.357-.027V88.04l-.235-.031V84.13Zm-.291-.059-.031,0-3.713-.5V83.53Zm-.083.1v3.855l-2.933-.381h-.023l-.7.1V83.645Zm-3.012,3.59v7.163l-.649.074V87.82Zm.136,7.166V87.724l19.115,2.482v7.036Zm18.534-4.866-4.211-.547V85.69l4.211-.406Zm-4.211-4.441v-.416a.061.061,0,0,0-.059-.051l-15.05-2.042v-.347l.711-.082,18.8,2.515Zm-1.062-12.413-14.046-2.051v-.241l14.959,2.175v4.215l-.857-.12V73.224A.06.06,0,0,0,322.572,73.172Zm-.082.115V77.13l-.227-.032V73.319Zm-.366.03v3.762l-4.185-.589V72.71ZM317.94,72.6h0l1.085.158Zm-.139-.022V76.47l-.237-.033v-3.89Zm-.373-.033v3.868l-.237-.033v-3.8Zm-4.38-.648v-.013l4.11.6-.04.008Zm4.007.692v3.772l-4.007-.563v-3.8Zm-4.145-.725v3.915l-.212-.031V71.837Zm-.35-.026v3.892l-.238-.034V71.888Zm-.244-.06-.059.012-3.73-.554v-.012Zm-.132.107V75.68l-2.927-.412a.09.09,0,0,0-.024,0l-.7.1V71.346Zm-3.008,3.5v7.163l-.649.074V75.479Zm.136,7.166V75.383l19.115,2.689v7.034Zm18.531-4.667-4.219-.593V73.6l4.219-.435Zm-4.219-4.387v-.483a.06.06,0,0,0-.056-.052l-15.041-2.187v-.386l.709-.081,18.832,2.732Zm-.055-12.654-15.042-2.35v-.624l19.493,3.058-4.4.476v-.509A.058.058,0,0,0,323.569,60.841Zm-.083.094V65.09l-.857-.13V61.094a.058.058,0,0,0-.055-.051L308.526,58.83V58.6Zm-.995.222V64.94l-.223-.034V61.185Zm-1.226-.213.926.145h-.006Zm.867.246v3.7l-4.2-.639V60.52ZM317.79,60.4v3.829l-.218-.033V60.361Zm-.357-.036v3.811l-.25-.038v-3.74Zm-4.374-.7V59.65l4.074.642h-.009Zm3.987.728v3.723l-3.987-.605V59.768Zm-4.125-.759v3.856l-.227-.035V59.593Zm-.365-.037V63.43l-.23-.035V59.626Zm-.281-.066-.033.005-3.715-.57v-.025Zm-.086.1v3.744l-2.932-.446a.051.051,0,0,0-.026,0l-.7.1V59.069Zm-3.013,3.413v7.163l-.649.074V63.138Zm.136,7.167V63.043l19.115,2.906v7.033Zm14.312-5.1V61.506l4.8-.519.053.009h.016a.082.082,0,0,0,.042-.012.047.047,0,0,0,.026-.04V60.77l22.383-2.589v6.841l-22.374,2.5V65.905c0-.025-.023-.046-.056-.051Zm25.33-14.755,8.642,1.467v2.8l-8.642-1.434ZM340.134,51.4l8.683-1.051v2.816l-.4-.067v-.789a.056.056,0,0,0-.055-.051l-5.2-.856a.091.091,0,0,0-.024,0l-2.9.339-.1-.016Zm8.144.952v.725l-5.065-.841v-.717Zm-5.2-.837v.7l-2.469-.411Zm-5-22.448.995.038V51.547l-.995-.166ZM327.65,49.759l42.008,6.971v4.349l-18.63-3.011a.06.06,0,0,0-.024,0l-22.447,2.6V53.78a.059.059,0,0,0-.055-.052l-.851-.138Zm-.138,0v3.8l-13.3-2.16Zm.906,4.059V60.88l-47.795-7.5V46.06ZM298.774,210.794l-18.228-.365-.257,0v-4.969l17.517.37.968-.009Zm1.895.143v7.2l-20.051-.276v-7.328ZM253.694,56.888l.184-.032.092.012-.208.036Zm.027.116V214.688H253.5V56.952Zm-.593-10.14,4.582-.627v2.679l-3.883.506a.056.056,0,0,0-.056.051v.99l-.643.092Zm-.065-.1-.044-.011,4.692-.633v.007ZM278.4,54.695a.077.077,0,0,0-.055-.013l-5.193.65h0l-15.5,1.938a.058.058,0,0,0-.057.051v4.066l-1.312.16V57.168l23.874-2.942v4.412l-1.727.21V54.734A.047.047,0,0,0,278.4,54.695Zm-4.891.714-.046-.01,4.825-.6v.014Zm4.779-.494v3.949l-4.719.576V55.508Zm-4.857.586v3.956l-.2.025V55.455Zm-.337-.056V59.5l-.291.035V55.481Zm-5.259.678-.065-.013,4.894-.612v.02Zm4.829-.5v3.926l-4.795.583V56.226Zm-4.934.587v3.941l-.2.024V56.167Zm-.336-.054v4.034l-.283.035V56.192Zm-5.112.667-.079-.019,4.771-.6h0Zm4.692-.508v3.926l-4.644.566V56.925Zm-4.783.6v3.913l-.21.026V56.863Zm-.349-.061v4.018l-.3.036V56.889Zm-3.812.5-.057-.013,3.427-.427v0Zm3.369-.33v3.906l-3.325.4V57.448Zm-3.463.418v3.909l-.21.025V57.39ZM280.479,58.7v7.327l-26.573,3.1V61.941Zm16.215-1.713-15.337-2.378a.09.09,0,0,0-.059.011.052.052,0,0,0-.024.04V58.7l-.714-.108h-.024l-.247.031v-4.4l18.478,2.868v4.267l-2.018-.306V57.042A.058.058,0,0,0,296.694,56.991Zm-4.789-.605v-.031l4.509.7-.106.027Zm4.333.792V60.97l-4.333-.657v-3.82Zm.136,0,.238-.06v3.913l-.238-.037Zm-4.605-.84v3.958l-.225-.035V56.3Zm-4.934-.739v-.027l4.361.677-.095.022Zm4.2.769v3.816l-4.2-.638V55.7Zm.136-.005.23-.054v3.931l-.23-.035Zm-4.479-.812v3.974l-.256-.039V55.507Zm-5.283-.787v-.033l4.682.726-.095.022Zm4.527.813v3.833l-4.527-.687V54.868Zm.138-.005.225-.054v3.947l-.225-.034Zm-7.691,11.7a.087.087,0,0,0-.055-.012L257.669,69.68a.058.058,0,0,0-.059.051v4.124l-1.334.151V69.585l23.874-2.755V71.3l-1.741.2V67.308A.05.05,0,0,0,278.385,67.268Zm-4.874.674-.042-.01,4.8-.563v.021Zm4.76-.446v4.021l-4.712.533V68.042Zm-4.849.534v4.036l-.191.022v-4.1Zm-.327-.055V72.1l-.291.033V68.011Zm-5.273.636-.05-.011,4.894-.574v.005Zm4.844-.473v4.014l-4.8.543V68.713Zm-4.936.563V72.71l-.2.023V68.655Zm-.339-.056v4.1l-.286.032v-4.1Zm-5.112.6h-.014l4.7-.552V68.7Zm4.689-.44V72.8l-4.643.525V69.35Zm-4.782.532v4l-.207.024V69.3Zm-.346,4.037-.289.033V69.33l.287-.034Zm-.428-3.926v3.974l-3.333.378v-3.96Zm-3.471.388v3.98l-.192.022V69.8Zm22.538,1.535V78.7l-26.573,2.869V74.381Zm-2.1,8.486a.085.085,0,0,0-.055-.012l-20.666,2.236a.058.058,0,0,0-.059.051v4.17l-1.321.139V81.975l23.874-2.55v4.528l-1.75.182V79.9A.047.047,0,0,0,278.377,79.86Zm-4.86.624-.032-.007,4.778-.518v.009Zm4.746-.409v4.076l-4.683.487V80.582Zm-4.821.5v4.077l-.207.021V80.529Zm-.345-.058v4.17l-.289.031v-4.17Zm-.426.139v4.076l-4.806.5V81.181Zm-4.944.521v4.071l-.2.021V81.142Zm-.333-.043v4.148l-.271.028V81.165Zm-4.883.529,4.472-.485v.008Zm4.472-.373v4.035l-4.656.485V81.789Zm-4.794.494v4.041l-.208.022V81.755Zm-.346-.049v4.126l-.281.029V81.766Zm-.419.138v4.032l-3.331.347V82.242Zm-3.467.365v4.029l-.223.023V82.2Zm22.521,1.786v7.327l-26.573,2.632V86.8Zm-2.1,8.426a.074.074,0,0,0-.053-.013l-20.679,2.053a.061.061,0,0,0-.06.051v4.194l-1.308.125v-4.5l23.874-2.338v4.558l-1.75.166V92.49A.047.047,0,0,0,278.377,92.451Zm-.113.2v4.113l-4.679.447V93.117Zm-4.815.458v4.114l-.208.02V93.07Zm-.346-.047v4.2l-.293.027V93.092Zm-5.237.625,4.808-.486v4.1l-4.808.459Zm-.044-.1h0l.055-.005Zm-.093.09V97.77l-.191.019V93.639Zm-.329-.048V97.8l-.28.027V93.656Zm-.418.138v4.075l-4.646.442V94.235Zm-4.783.466V98.3l-.218.021V94.19Zm-.356-.052v4.15l-.294.028V94.209Zm-.432.132v4.06l-3.316.316V94.639Zm-3.454.327V98.7l-.233.023V94.606Zm22.523,2.021v7.327l-26.573,2.394V99.193Zm-2.118,8.383a.085.085,0,0,0-.055-.013L257.672,106.9a.062.062,0,0,0-.06.052v4.269l-1.335.117v-4.571l23.874-2.13v4.607l-1.767.155v-4.316A.052.052,0,0,0,278.361,105.042Zm-.85.165.735-.067v0Zm.735.043v4.16l-4.661.41v-4.169Zm-4.8.4v4.184l-.212.017v-4.23Zm-.35-.04v4.255l-.3.026v-4.254Zm-.434.123V109.9l-4.792.421v-4.154Zm-4.93.432v4.17l-.2.019v-4.221Zm-.336-.039v4.239l-.3.026V106.15Zm-.434.126V110.4l-4.624.405v-4.131Zm-4.762.422v4.147l-.234.021v-4.2Zm-.372-.043v4.222l-.284.025v-4.221Zm-.422.114v4.146l-3.3.289v-4.131Zm-3.438.3v4.146l-.221.019v-4.2Zm22.508,2.277v7.327l-26.573,2.191V111.65Zm-2.1,8.307a.083.083,0,0,0-.055-.013l-5.165.418a.087.087,0,0,0-.024,0l-15.479,1.254a.059.059,0,0,0-.06.051v4.3l-1.318.1v-4.583h0l23.874-1.926v4.656l-1.75.135v-4.36A.049.049,0,0,0,278.378,117.627Zm-.115.185v4.226l-4.687.364v-4.225Zm-4.827.362v4.239l-.212.016v-4.282Zm-.35-.029v4.3l-.293.023v-4.295Zm-.431.115v4.215l-4.778.37v-4.2Zm-4.916.377v4.219l-.2.015v-4.262Zm-.342-.031v4.276l-.3.024v-4.276Zm-.442.116v4.194l-4.621.359V119.1Zm-4.759.369v4.194l-.205.016V119.06Zm-.342-.036v4.257l-.31.024v-4.256Zm-.448.135v4.156l-3.3.257v-4.157Zm-3.438.251v4.172l-.238.019V119.4Zm22.509,2.53V129.3l-26.573,1.923v-7.19Zm-2.106,8.268a.088.088,0,0,0-.053-.014l-20.664,1.507a.059.059,0,0,0-.062.052v4.3l-1.318.089v-4.616l23.874-1.721v4.719l-1.757.119v-4.4A.045.045,0,0,0,278.372,130.239Zm-.115.1v4.288l-4.68.318v-4.264Zm-4.818.352v4.264l-.21.015V130.7Zm-.347.025v4.263l-.289.02v-4.261Zm-.425.031V135l-4.809.328v-4.237Zm-4.946.362v4.234l-.192.014v-4.236Zm-.33.024v4.233l-.268.02v-4.233Zm-.406.028v4.232l-4.666.317V131.5Zm-4.8.352v4.207l-.218.015v-4.208Zm-.355.025v4.207l-.274.017v-4.2Zm-.413.03v4.2l-3.329.226v-4.187Zm-3.468.253V136l-.215.014v-4.185Zm22.533,2.821v7.328l-26.573,1.661v-7.19Zm0,12.654v7.328l-26.573,1.437v-7.19Zm-24.2,1.331v-4.678l23.874-1.508v4.77Zm24.2,11.3v7.328l-26.573,1.227v-7.19Zm-24.2,1.139v-4.745l23.874-1.287v4.8Zm24.2,11.517v7.328l-26.573.965v-7.19Zm-24.2.9v-4.742l23.874-1.112v4.863Zm24.2,11.748v7.328l-26.573.742v-7.19Zm-24.2.7v-4.807l23.874-.891v4.907Zm24.2,11.953v7.329l-26.573.518V198.54Zm-24.2.495v-4.868l23.874-.657v4.934Zm-.016,7.418-.132,0,24.417-.477,15.543.381-15.858-.335Zm23.89-.328v4.97l-23.874.386V205.9Zm-24.012-7.086-2.281.056v-5.028l2.281.1Zm0-12.447-2.281.074v-5.024l2.281.132Zm0-12.447-2.281.1V168.59l2.281.143Zm0-12.416-2.281.118v-5.024l2.281.149Zm0-12.442-2.281.135v-5.029l2.281.2Zm0-12.45-2.281.155v-5l2.281.209Zm0-12.426-2.281.178v-4.979l2.281.2Zm0-12.4-2.281.2V106.5l2.281.261Zm0-12.476-2.281.217V94.1l2.281.257Zm0-12.417-2.281.238v-5.01l2.281.276Zm0-12.436-2.281.259V69.246l2.281.327Zm0-12.459-2.281.279V57l.464-.081,1.817.241Zm-2.281,144.273,2.281.059v4.929l-2.281.036Zm.047,5.129,26.573-.428v7.328l-26.573.288Zm26.713-5.754v-7.327l20.053.614v7.2Zm18.155-6.876-18.228-.559-.256.007v-4.931l17.519.612.965-.027Zm-.965-4.977-17.568-.614-23.978.661-.912-.038,25.2-.7,18.538.659Zm-17.19-.8v-7.328l20.053.836v7.206Zm18.142-6.676-18.215-.759-.256.009v-4.9l17.519.822h.006l.946-.031Zm-.949-4.938-17.581-.825h-.009l-23.962.9-1.308-.076,25.6-.929,18.878.882Zm-17.193-1.036v-7.328l20.053,1.06v7.2Zm18.14-6.475-18.207-.961h-.009l-.254.011v-4.858l17.545,1.026h.01l.914-.042Zm-.919-4.888-17.591-1.028h-.01l-23.973,1.115-1.461-.092,25.743-1.188,19.18,1.1Zm-17.222-1.293v-7.327l20.053,1.278v7.2Zm5.3-7.193-4.5-.309V155.5l4.5.326Zm.139.01v-4.238l.245.019v4.237Zm.383.027v-4.236l.245.016v4.236Zm.385.026v-4.234l4.2.3v4.221Zm4.341.3V156.2l.238.017v4.218Zm.375.026v-4.219l.218.016v4.217Zm.356.024v-4.217l4.336.314v4.2Zm4.473.309v-4.2l.25.017v4.2Zm2.4.2-2.011-.128v-4.3c0-.027-.029-.049-.063-.051l-15.341-1.11a.081.081,0,0,0-.053.014.045.045,0,0,0-.022.038V159.8c0,.027.026.05.063.052l3.112.214-3.9-.248h-.01l-.254.012v-4.8l17.51,1.2h.01l.963-.051Zm-.966-4.852-17.54-1.206h-.011l-24,1.293-1.532-.1,25.828-1.4,19.321,1.3Zm-17.189-1.509v-7.328l16.063,1.178h.006l3.984.293v7.2Zm.8-7.453v-4.253l4.489.369v4.236Zm4.627.363v-4.236l.256.021v4.234Zm.393.031v-4.233l.243.021v4.232Zm.38.03v-4.232l4.211.347v4.216Zm4.348.342v-4.217l.238.021v4.215Zm.375.029v-4.215l.245.02v4.215Zm.383.031v-4.214l4.3.353.029,4.2Zm4.435-3.85.261.023v4.194l-.234-.017Zm2.42,4.376-2.02-.149v-4.252a.059.059,0,0,0-.062-.052L281.359,142.8a.082.082,0,0,0-.055.012.05.05,0,0,0-.022.039v4.36a.034.034,0,0,0,.007.02l-.735-.054h-.013l-.253.015v-4.762l17.486,1.377h.013l.993-.056Zm-1-4.811-17.543-1.382h-.012l-23.96,1.513-1.72-.147,26-1.626,19.411,1.517Zm-17.166-1.741v-7.328l20.053,1.692v7.2Zm.8-7.365v-4.265l4.493.392v4.251Zm4.631.39v-4.251l.257.022v4.251Zm.393.033v-4.25l.235.021v4.25Zm.372.033v-4.25l4.219.367v4.238Zm4.356.367v-4.237l.231.019v4.237Zm.368.031v-4.237l.23.021v4.236Zm.366.031v-4.235l4.323.377v4.223Zm4.46.377v-4.222l.257.022v4.222Zm2.4.2-2.008-.17v-4.28a.062.062,0,0,0-.062-.052l-15.34-1.336a.1.1,0,0,0-.056.013.051.051,0,0,0-.022.039v4.311l-.728-.061h-.014l-.251.017v-4.711l17.5,1.593h.014l.968-.057Zm-.972-4.744-17.546-1.6h-.016l-23.968,1.726-1.787-.164,26.067-1.886,19.493,1.787Zm-17.18-2.02v-7.327l20.053,1.962v7.2Zm5.293-11.058v4.144l-4.483-.439v-4.162Zm-4.483-.563v0l2.132.221Zm4.623,4.719v-4.16l.254-.039v4.225Zm.392.038V118.2l.241.025v4.24Zm.379.037v-4.139l4.2.413v4.138Zm4.341.425v-4.151l.244-.024v4.2Zm.38.037v-4.213l.228.024v4.21Zm.367.036V118.84l4.315.437v4.118Zm4.453.436V119.28l.271-.017v4.172Zm2.416.236-2.007-.2v-4.243a.061.061,0,0,0-.059-.052l-15.345-1.59a.084.084,0,0,0-.055.012.048.048,0,0,0-.023.039v4.319l-.735-.072h-.016l-.251.019v-4.648L297.812,119h.017l.95-.073Zm-.956-4.747-17.572-1.775h-.017l-23.965,1.934-1.81-.157,26.088-2.152,19.6,1.97Zm-17.206-2.249v-7.327l20.053,2.138v7.2Zm5.277-10.906v4.037l-4.481-.479v-4.066Zm-1.662-.295,1.759.191-.03.005Zm1.8,4.346v-4.054l.268-.047v4.13Zm.406.043v-4.149l.244.027v4.148Zm.382.042v-4.061l4.193.466v4.041Zm4.331.461v-4.057l.258-.036v4.122Zm.4.043v-4.139l.234.025v4.139Zm4.667-3.52v4.018l-4.3-.459v-4.038Zm-2.324-.365,2.418.262-.026,0Zm2.462,4.4v-4.036l.254-.04v4.1Zm2.422.259-2.031-.217v-4.19a.058.058,0,0,0-.059-.051l-15.33-1.665a.083.083,0,0,0-.055.013.048.048,0,0,0-.023.039v4.2l-.719-.075h-.019l-.25.022v-4.6l17.519,1.958h.017l.949-.09Zm-.958-4.665-17.563-1.964h-.019l-23.988,2.141-1.892-.217,26.193-2.36,19.674,2.174Zm-17.2-2.5V96.661L300.669,99v7.2Zm5.306-10.812v4l-4.5-.524V92.62Zm-4.5-.662v-.005l4.6.56-.044.009Zm4.639,4.677V93.17l.254-.045V97.22Zm.39.046V93.121l.238.028v4.114Zm4.572-3.446V97.77l-4.2-.489v-4Zm-4.2-.619v0l4.284.522-.02,0Zm4.334,4.615v-4l.248-.042v4.068Zm.386.045V93.742l.228.028v4.087Zm4.683-3.4v3.946l-4.317-.5V93.9Zm-4.317-.638v-.007l4.425.54-.04.007Zm4.455,4.6V94.428l.253-.046v4.041Zm2.4.28-2.007-.234V94.316a.061.061,0,0,0-.059-.052l-15.337-1.869a.091.091,0,0,0-.056.012.05.05,0,0,0-.023.04v4.186l-.729-.085h-.019l-.25.024V92.025l17.5,2.154a.053.053,0,0,0,.019,0l.956-.084Zm-.96-4.6-17.553-2.16a.061.061,0,0,0-.02,0l-23.986,2.348-1.911-.215,26.21-2.6,19.688,2.409Zm-17.19-2.721V84.027L300.669,86.6v7.2Zm5.313-10.719V84.6l-4.5-.579V80.037Zm-4.5-.7v-.013l4.552.615h-.009Zm4.638,4.691v-4l.24-.032v4.057Zm.376.048V80.595l.243.033V84.7Zm4.572-3.342v3.93l-4.192-.539V80.752Zm-4.027-.659,4.127.556-.034.005Zm4.165,4.606V81.327l.248-.042v4.022Zm.386.05V81.283l.228.031v4.041Zm.368.047V81.416L296.22,82v3.924Zm4.45.572V82.006l.253-.024v3.994Zm2.416.31-2.027-.26V81.923a.058.058,0,0,0-.056-.051L281.374,79.8a.1.1,0,0,0-.056.012.05.05,0,0,0-.024.04v4.152l-.735-.094h-.022l-.248.026V79.422l17.493,2.35h.02l.973-.089Zm-.979-4.587L280.255,79.31a.071.071,0,0,0-.022,0L256.26,81.871l-1.96-.239L280.547,78.8l19.717,2.645ZM280.618,78.7V71.375l20.053,2.814v7.2Zm5.289-10.6v3.907l-4.486-.629v-3.93Zm-4.486-.758v0l4.6.659-.044.007Zm4.624,4.685V68.1l.26-.042v4Zm.4.056V68.061l.241.034v4.026Zm4.591-3.236V72.73l-4.212-.591v-3.9Zm-4.212-.718v-.019l4.346.623-.079.014Zm4.348,4.617V68.844l.243-.048v3.988Zm.38.054V68.792l.227.032v4.012Zm4.683-3.227V73.46l-4.318-.605V68.961Zm-4.318-.722v-.011l4.429.634-.027,0Zm4.456,4.626v-3.9l.245-.043v3.977Zm2.4.338-2.017-.284V69.472c0-.025-.024-.046-.057-.051l-5.2-.744h0l-10.131-1.45a.091.091,0,0,0-.056.012.047.047,0,0,0-.024.04v4.084l-.724-.1a.081.081,0,0,0-.023,0l-.248.028V66.829l17.538,2.536a.081.081,0,0,0,.023,0l.923-.1Zm-.932-4.558-17.589-2.543a.082.082,0,0,0-.023,0l-23.978,2.766-2-.286,26.3-3.067,19.763,2.876Zm-17.223-3.226V58.707l20.053,3.043v7.2Zm-.352-11.924a.069.069,0,0,0-.026,0l-23.992,2.957-2-.265,26.3-3.318,20.62,3.234-2.349.273Zm.477-30.3.686-.027V34.3l-.686-.119Zm-.656,10.364,19.437,3.371V49.022l-18.954-3.08a.1.1,0,0,0-.026,0l-.457.06Zm.4,11.883v7.327l-26.578,3.353v-7.22Zm-4.338-31.988,1.117-.033v20.4l-1.117.154Zm3.8,20.1V46.02L258.38,48.828V37.152Zm-29.449.551,8.232,1.386V37l-.434.061c-.033,0-.056.025-.056.05v.716L250.5,38.885Zm7.742,3.207V48.847l-.393.051V46.061a.046.046,0,0,0-.026-.04.085.085,0,0,0-.056-.012l-5.051.682a.059.059,0,0,0-.056.051v3.922a.048.048,0,0,0,.024.04.085.085,0,0,0,.044.012h.013l1.029-.146V53.4l-3.885.513V39.077Zm-5.251,8.929v3.715l-.192.027V46.812ZM226.822,232.409V41.522l20.423-2.808.022,105.523.019,88.172Zm22.925,0h-2.324L247.4,130.183l-.019-91.468,2.364.361ZM247.327,38.6H247.3l-7.919,1.089V36.272l10.98-1.552v4.185l-.544.074Zm8.812,193.81h-6.252V54.015l3.885-.513v3.266l-.355.061a.06.06,0,0,0-.053.049v0h0V214.74a.061.061,0,0,0,.067.052h.337v3.414a.045.045,0,0,0,.02.037.081.081,0,0,0,.049.016h0l2.3-.026Zm24.012,0H256.277V218.233l23.874-.261Zm18.623,0H280.289V217.971l.258,0,18.227.253Zm2.723,0h-2.584V218.222l1.825.025a.1.1,0,0,0,.049-.014.053.053,0,0,0,.02-.038v-7.309a.063.063,0,0,0-.066-.052l-1.828-.036v-4.973l1.826-.018h0a.082.082,0,0,0,.046-.014.05.05,0,0,0,.022-.037v-7.31a.062.062,0,0,0-.066-.052l-1.829-.056v-4.906l1.829-.051h0a.086.086,0,0,0,.044-.014.05.05,0,0,0,.022-.037v-7.31c0-.027-.027-.051-.066-.052l-1.843-.076v-4.875l1.843-.061h0a.084.084,0,0,0,.044-.012.054.054,0,0,0,.022-.038v-7.31c0-.027-.027-.05-.065-.052l-1.848-.1v-4.837l1.846-.086h0a.086.086,0,0,0,.044-.014.05.05,0,0,0,.022-.038v-7.309c0-.027-.027-.05-.065-.052l-1.83-.117v-4.816l1.83-.1h0a.091.091,0,0,0,.043-.013.05.05,0,0,0,.022-.038v-7.309c0-.028-.027-.05-.063-.052l-1.825-.134v-4.781l1.823-.1h0a.075.075,0,0,0,.042-.013.045.045,0,0,0,.023-.038v-7.309c0-.027-.026-.049-.062-.052l-1.838-.155V131.36l1.835-.109h0a.1.1,0,0,0,.042-.011.052.052,0,0,0,.023-.04v-7.309c0-.026-.024-.048-.062-.051l-1.828-.179v-4.741l1.826-.142v0a.083.083,0,0,0,.04-.011.048.048,0,0,0,.023-.039v-7.309c0-.026-.024-.048-.06-.052l-1.835-.2V106.49l1.833-.173h0a.069.069,0,0,0,.037-.012.045.045,0,0,0,.024-.039V98.956a.058.058,0,0,0-.059-.051l-1.842-.215V94.084l1.839-.163h0a.083.083,0,0,0,.037-.01.05.05,0,0,0,.024-.04V86.561a.06.06,0,0,0-.057-.052l-1.836-.236v-4.6l1.832-.165h0a.086.086,0,0,0,.037-.012.045.045,0,0,0,.024-.039V74.146a.057.057,0,0,0-.056-.051l-1.841-.259V69.255l1.836-.188h0a.082.082,0,0,0,.036-.01.05.05,0,0,0,.024-.042V61.707a.06.06,0,0,0-.056-.052l-1.848-.28V57.086l2.594-.3Zm6.891,0h-6.753V56.787l6.753,1.06Zm15.1,0H308.526V218.364l.709,0,14.25.178Zm4.376,0h-4.238V218.548l4.238.051Zm3.319,0H328V218.6l.5.007h0a.092.092,0,0,0,.049-.014.049.049,0,0,0,.02-.038v-7.14a.063.063,0,0,0-.067-.054l-.5-.008v-4.871l.5-.009h0a.1.1,0,0,0,.049-.015.053.053,0,0,0,.02-.038v-7.139c0-.029-.029-.052-.067-.053l-.5-.015v-4.855l.5-.015h0a.078.078,0,0,0,.046-.013.05.05,0,0,0,.022-.038v-7.142c0-.027-.029-.05-.066-.051l-.511-.021v-4.834l.511-.021h0a.082.082,0,0,0,.044-.014.05.05,0,0,0,.022-.038v-7.14c0-.028-.027-.05-.066-.052l-.524-.027v-4.819l.524-.021h0a.082.082,0,0,0,.044-.014.05.05,0,0,0,.022-.038v-7.14a.061.061,0,0,0-.063-.052l-.531-.033V158l.53-.028h0a.084.084,0,0,0,.043-.013.051.051,0,0,0,.022-.039v-7.14c0-.026-.026-.049-.063-.051l-.518-.039v-4.807l.517-.031h0a.068.068,0,0,0,.042-.013.047.047,0,0,0,.023-.038v-7.14c0-.027-.026-.049-.062-.052l-.52-.045v-4.793l.518-.035h0a.074.074,0,0,0,.04-.012.048.048,0,0,0,.023-.039v-7.14c0-.027-.026-.048-.06-.052l-.517-.05v-4.788l.514-.037h0a.084.084,0,0,0,.04-.012.048.048,0,0,0,.023-.039v-7.14a.06.06,0,0,0-.06-.052l-.521-.057v-4.792l.52-.045h0a.091.091,0,0,0,.039-.011.052.052,0,0,0,.023-.04v-7.14a.058.058,0,0,0-.059-.051l-.523-.062V97.4l.52-.045h0a.073.073,0,0,0,.037-.012.047.047,0,0,0,.024-.039v-7.14c0-.026-.024-.047-.057-.052l-.524-.068V85.271l.521-.05h0a.079.079,0,0,0,.036-.011.048.048,0,0,0,.024-.04v-7.14c0-.025-.023-.047-.057-.051l-.527-.074V73.153l.524-.055h0a.094.094,0,0,0,.036-.01.05.05,0,0,0,.024-.042V67.8l1.49.262a.1.1,0,0,0,.026,0l20.354-2.281v4.184l-1.055.114v-3.9a.045.045,0,0,0-.023-.039.087.087,0,0,0-.055-.012l-16.821,1.848c-.036,0-.06.025-.06.051v3.885l-3.634.393c-.034,0-.059.026-.059.052v6.86a.044.044,0,0,0,.023.039.079.079,0,0,0,.055.013l.043,0,2.2.311a.07.07,0,0,0,.022,0l19.366-2v4.2l-1.052.1V77.961a.047.047,0,0,0-.022-.039.089.089,0,0,0-.055-.012l-11.116,1.124h0l-5.705.578a.06.06,0,0,0-.06.051v3.911l-3.632.361a.06.06,0,0,0-.06.052v6.86a.045.045,0,0,0,.023.039.081.081,0,0,0,.053.013l.046,0,2.194.311h.022l19.375-1.853v4.26l-1.061.1V89.732a.047.047,0,0,0-.022-.039.084.084,0,0,0-.055-.012l-5.514.52h0l-11.307,1.07c-.036,0-.062.025-.062.051v3.956l-3.632.335a.06.06,0,0,0-.06.052v6.86a.045.045,0,0,0,.023.039.081.081,0,0,0,.053.013l.05,0,2.191.287h.02l19.375-1.711v4.3l-1.061.09V101.52a.047.047,0,0,0-.022-.039.09.09,0,0,0-.053-.013l-16.823,1.448a.061.061,0,0,0-.062.052v4.008l-3.631.307c-.036,0-.062.025-.062.052v6.86a.045.045,0,0,0,.023.039.088.088,0,0,0,.053.013l.059,0,2.184.246h.019l19.358-1.548v4.344l-1.044.081v-4.047a.047.047,0,0,0-.022-.039.081.081,0,0,0-.053-.013L332.484,114.6c-.036,0-.063.025-.063.052v4.028l-3.629.281c-.037,0-.063.025-.063.052v6.86a.047.047,0,0,0,.022.039.1.1,0,0,0,.053.013l.07-.005,2.175.21h.014l19.361-1.408v4.4l-1.044.072v-4.1a.046.046,0,0,0-.022-.038.079.079,0,0,0-.052-.013l-16.823,1.207a.062.062,0,0,0-.063.052v4.056l-3.629.249c-.037,0-.063.025-.063.051v6.862a.048.048,0,0,0,.022.038.094.094,0,0,0,.052.013l.075,0,2.172.209h.014l19.361-1.236v4.408l-1.057.066a.041.041,0,0,0,.013-.029v-4.092a.046.046,0,0,0-.022-.038.077.077,0,0,0-.052-.013l-16.821,1.048c-.037,0-.065.025-.065.052v4.048a.055.055,0,0,0,.022.039.091.091,0,0,0,.047.014h.006l8.467-.506-12.17.756c-.037,0-.065.024-.065.052v6.86a.046.046,0,0,0,.022.038.084.084,0,0,0,.052.014l.092-.005,2.156.167h.011l19.379-1.111v4.464l-21.648,1.151a.06.06,0,0,0-.065.052v6.86a.046.046,0,0,0,.022.038.084.084,0,0,0,.052.014l.1-.005,2.151.167h.011l19.379-.916v4.478l-21.648.981a.061.061,0,0,0-.065.052v6.86a.046.046,0,0,0,.022.038.077.077,0,0,0,.05.014l.112,0,2.139.151h.01l19.379-.811v4.55l-21.648.811a.061.061,0,0,0-.065.052v6.86a.05.05,0,0,0,.02.038.084.084,0,0,0,.052.014l.139,0,2.112.122h.009l19.381-.61v4.544l-21.648.653a.061.061,0,0,0-.065.054v6.86a.049.049,0,0,0,.02.038.1.1,0,0,0,.05.014l.212-.005,2.049.071,19.381-.471V200.1l-21.646.479a.062.062,0,0,0-.066.052v6.86a.047.047,0,0,0,.02.038.093.093,0,0,0,.05.015l.286-.005,1.975.055,19.381-.314v4.627l-21.645.334a.061.061,0,0,0-.067.051v6.861a.048.048,0,0,0,.02.037.077.077,0,0,0,.049.015l2.383-.027Zm7.253-94.734v3.908l-.172.01V137.65Zm-.309-.032V141.6l-.283.016v-3.957Zm-.419.1v3.885l-4.845.291v-3.863Zm-4.984.3v3.882l-.161.01v-3.923Zm17.72,94.367H331.317V219.181l19.124-.22Zm18.9,0H350.577V218.96l.412,0,18.347.265Zm3.081,0h-2.944V219.224l2.511.036h0a.084.084,0,0,0,.049-.015.051.051,0,0,0,.02-.037l.043-6.809a.061.061,0,0,0-.067-.052l-2.555-.055v-4.573l2.512-.067h0a.087.087,0,0,0,.046-.015.048.048,0,0,0,.022-.037l.043-6.809a.062.062,0,0,0-.066-.052l-2.557-.079v-4.533l2.514-.094h0a.086.086,0,0,0,.044-.014.049.049,0,0,0,.022-.038l.043-6.809a.061.061,0,0,0-.065-.052l-2.558-.1v-4.467l2.514-.093h0a.091.091,0,0,0,.044-.014.05.05,0,0,0,.022-.038l.043-6.81a.061.061,0,0,0-.065-.051l-2.56-.137v-4.434l2.517-.129h0a.09.09,0,0,0,.043-.014.05.05,0,0,0,.022-.038l.043-6.81a.06.06,0,0,0-.063-.051l-2.568-.164v-4.406l2.524-.129h0a.09.09,0,0,0,.043-.014.049.049,0,0,0,.022-.038l.043-6.809a.061.061,0,0,0-.062-.052l-2.56-.191v-4.368l2.514-.143h0a.091.091,0,0,0,.042-.013.05.05,0,0,0,.023-.038l.043-6.809a.06.06,0,0,0-.062-.052l-2.561-.217v-4.3l2.515-.142h0a.089.089,0,0,0,.042-.012.052.052,0,0,0,.023-.039l.043-6.809a.06.06,0,0,0-.06-.052l-2.563-.248V126.6l2.561-.176h0a.074.074,0,0,0,.037-.012.047.047,0,0,0,.024-.039v-6.828c0-.025-.026-.047-.059-.051l-2.565-.274v-4.207l2.563-.193h0a.091.091,0,0,0,.037-.011.048.048,0,0,0,.024-.039v-6.828a.059.059,0,0,0-.057-.051l-2.578-.3v-4.146l2.576-.233h0a.091.091,0,0,0,.036-.011.049.049,0,0,0,.024-.04V96.324a.059.059,0,0,0-.057-.052l-2.567-.331V91.857l2.564-.23h0a.1.1,0,0,0,.034-.011.048.048,0,0,0,.026-.04V84.746a.059.059,0,0,0-.056-.051l-2.568-.362V80.262L372.037,80h0a.079.079,0,0,0,.033-.011.047.047,0,0,0,.026-.04V73.12a.059.059,0,0,0-.056-.05l-2.568-.387V68.666l2.57-.281h0a.114.114,0,0,0,.033-.011.05.05,0,0,0,.026-.04V62.918l.293.058a.06.06,0,0,0,.024,0Zm2.24,0h-2.1V62.962l2.1-.226Zm16.132,0h-16V62.741l16,2.552Zm16.317-135.37a1.655,1.655,0,0,1-.273.023c-.039,0-.076,0-.112,0l-.139-.015h0a1.677,1.677,0,0,1-1.39-1.669,2.165,2.165,0,0,1,1.94-2.028,1.842,1.842,0,0,1,.2-.012c.042,0,.083,0,.124,0l.141.015a1.682,1.682,0,0,1,1.451,1.64A2.166,2.166,0,0,1,407.106,97.039Zm.2.068a2.245,2.245,0,0,0,1.882-2.114,1.758,1.758,0,0,0-.973-1.553,1.675,1.675,0,0,1,1.262,1.6,2.163,2.163,0,0,1-1.945,2.045A1.414,1.414,0,0,1,407.305,97.106Zm.435.045v4.008l-.274.023V97.2c.032,0,.063-.008.1-.013C407.623,97.177,407.682,97.164,407.74,97.151Zm-5.974.383a1.473,1.473,0,0,1-1.271,1.4,1.537,1.537,0,0,0,1.115-1.429,1.228,1.228,0,0,0-.547-1.014A1.145,1.145,0,0,1,401.767,97.535Zm-1.044,1.45v2.758l-.227.02V99.04A1.919,1.919,0,0,0,400.723,98.984Zm-.7-3.832a2.01,2.01,0,0,1-.35.031c-.05,0-.1,0-.148-.005l-.177-.021h0A2.167,2.167,0,0,1,397.555,93a2.792,2.792,0,0,1,2.489-2.622,2.406,2.406,0,0,1,.266-.014c.055,0,.106,0,.159.007l.181.019a2.169,2.169,0,0,1,1.865,2.122A2.788,2.788,0,0,1,400.02,95.152Zm.112.087a2.887,2.887,0,0,0,2.521-2.731,2.251,2.251,0,0,0-1.355-2.042,2.169,2.169,0,0,1,1.76,2.1,2.787,2.787,0,0,1-2.494,2.643A2.129,2.129,0,0,1,400.132,95.239Zm.6.049V96.3l-.22-.024h-.01v-.942l.092-.014C400.638,95.307,400.686,95.3,400.73,95.289Zm-.581,3.622a1.06,1.06,0,0,1-.185.015l-.075,0-.1-.011h0a1.148,1.148,0,0,1-.942-1.146,1.486,1.486,0,0,1,1.324-1.4,1.148,1.148,0,0,1,.138-.008c.027,0,.055,0,.083,0l.1.01a1.148,1.148,0,0,1,.983,1.126A1.484,1.484,0,0,1,400.149,98.91Zm-7.177,133.5h-2.046V114.784l2.046.256Zm21.2,0H393.11V194.765l21.063-.515Zm0-38.263-21.063.513V164.02l21.063-.945Zm0-31.177-21.063.947V133.243l21.063-1.369Zm0-31.2-21.063,1.369V115c0-.026-.023-.047-.057-.051l-2.126-.268V102.665l23.247-1.936Zm17.183,100.641H414.311v-16.9l17.045.3Zm0-16.7-17.045-.3v-17.2l17.045.6Zm0-17.013-17.045-.6V180.891l17.045.884Zm0-17.028-17.045-.884V163.594l17.045,1.172Zm0-17.009-17.045-1.172V146.277l17.045,1.465Zm0-17.025-17.045-1.465V128.983l17.045,1.746Zm0-17.014-17.045-1.746v-17.2l17.045,2.033Zm3.6,101.787h-3.46v-16.59l3.46.061Zm0-16.634-3.46-.061V198.808l3.46.122Zm0-16.951-3.46-.12V181.782l3.46.179Zm0-16.967-3.46-.179v-16.9l3.46.238Zm0-16.949-3.46-.238V147.754l3.46.3Zm0-16.963-3.46-.3V130.741l3.46.355Zm0-16.955-3.46-.354V113.731l3.46.412Zm16.415,101.418h-16.28V215.883l16.28.29Zm0-16.341-16.28-.291V198.933l16.28.57Zm0-16.67-16.28-.568V181.968l16.28.844Zm0-16.69-16.28-.846V165.023l16.28,1.12Zm0-16.67-16.28-1.12V148.064l16.28,1.4Zm0-16.681-16.28-1.4V131.11l16.28,1.668Zm0-16.685L435.089,131V114.159l16.28,1.942Zm0-16.678-37.058-4.419V100.732l37.058,4.812Zm20.12,116.415H451.508V158.876l19.981-.936Zm38.367,0H471.627V157.942l38.229,3.018Z" transform="translate(-19.625 -13.929)" fill="#fff"/>
      <path id="Path_47999" data-name="Path 47999" d="M185.448,194.338h0l20.7-.358c.037,0,.067-.024.067-.052v-4.379a.045.045,0,0,0-.022-.037.069.069,0,0,0-.049-.015l-20.7.4a.062.062,0,0,0-.067.054v4.332a.046.046,0,0,0,.022.038A.08.08,0,0,0,185.448,194.338Zm15.931-4.644,4.7-.092v4.274l-4.7.081ZM201,189.7l.241,0v4.262l-.241,0Zm-.425.008.287-.007v4.263l-.287.005Zm-4.918.1,4.781-.094v4.262l-4.781.083Zm-.333.007.194,0v4.251l-.194,0Zm-.415.009.277-.007v4.25l-.277.005Zm-4.8.093,4.657-.091v4.249l-4.657.081Zm-.345.008.207,0v4.238l-.207,0Zm-.431.009.293-.007v4.238l-.293,0Zm-3.46.067,3.322-.064v4.234l-3.322.058Zm-.362.008.224-.005v4.228l-.224,0Z" transform="translate(52.581 2.306)" fill="#fff"/>
      <path id="Path_48000" data-name="Path 48000" d="M217.3,189.87l-15.348-.374a.068.068,0,0,0-.05.015.045.045,0,0,0-.022.037V193.9c0,.03.029.051.066.052l15.35.349h0a.068.068,0,0,0,.047-.015.048.048,0,0,0,.023-.037v-4.326A.062.062,0,0,0,217.3,189.87Zm-10.771,4.081-4.511-.1V189.6l4.511.108Zm.369.009-.231-.005v-4.239l.231.005Zm.388.009-.248-.005v-4.239l.248.007Zm4.346.1-4.208-.1v-4.238l4.208.1Zm.382.009-.244-.005v-4.231l.244.007Zm.386.009-.248-.005v-4.231l.248.007Zm4.427.1-4.288-.1v-4.229l4.288.1Zm.4.01-.264-.007v-4.221l.264.007Z" transform="translate(59.77 2.306)" fill="#fff"/>
      <path id="Path_48001" data-name="Path 48001" d="M206.115,177.977l-20.664.591c-.037,0-.066.024-.066.052v4.291a.049.049,0,0,0,.02.037.081.081,0,0,0,.049.015h0l20.663-.489a.061.061,0,0,0,.067-.052v-4.394a.05.05,0,0,0-.022-.037A.067.067,0,0,0,206.115,177.977Zm-20.377,4.876-.217,0v-4.186l.217-.007Zm3.437-.082-3.3.078v-4.186l3.3-.1Zm.448-.011-.309.008v-4.2l.309-.009Zm.345-.008-.205.005v-4.208l.205-.005Zm4.775-.114-4.637.111v-4.21l4.637-.132Zm.436-.01-.3.007V178.4l.3-.009Zm.343-.008-.205,0V178.39l.205-.005Zm4.926-.117-4.788.114v-4.237l4.788-.138Zm.442-.011-.3.008v-4.262l.3-.009Zm.346-.008-.208,0v-4.263l.208-.007Zm4.814-.114-4.674.11v-4.265l4.674-.134Z" transform="translate(52.583 1.241)" fill="#fff"/>
      <path id="Path_48002" data-name="Path 48002" d="M217.3,178.519l-15.341-.542a.082.082,0,0,0-.05.013.052.052,0,0,0-.02.038v4.359c0,.028.029.05.066.054l15.34.488h0a.073.073,0,0,0,.047-.015.046.046,0,0,0,.023-.037V178.57C217.365,178.542,217.335,178.52,217.3,178.519Zm-10.751,3.962-4.524-.144v-4.254l4.524.161Zm.346.011-.208-.007v-4.238l.208.008Zm.4.013-.258-.009V178.26l.258.01Zm4.35.139-4.212-.134v-4.236l4.212.149Zm.37.012-.234-.008v-4.22l.234.008Zm.362.011-.225-.007v-4.22l.225.009Zm4.468.142-4.331-.138v-4.218l4.331.154Zm.386.013-.248-.009v-4.2l.248.009Z" transform="translate(59.771 1.241)" fill="#fff"/>
      <path id="Path_48003" data-name="Path 48003" d="M206.114,166.465l-20.663.757a.062.062,0,0,0-.066.052v4.291a.053.053,0,0,0,.02.037.087.087,0,0,0,.049.015h0l20.664-.656a.061.061,0,0,0,.066-.052v-4.393a.047.047,0,0,0-.022-.037A.082.082,0,0,0,206.114,166.465ZM185.747,171.5l-.225.008v-4.186l.225-.009Zm3.451-.108-3.315.1v-4.189l3.315-.12Zm.406-.014-.268.009v-4.2l.268-.01Zm.378-.011-.24.007V167.17l.24-.008Zm4.769-.152-4.631.146v-4.208l4.631-.17Zm.413-.012-.274.009v-4.233l.274-.011Zm.37-.013-.233.009v-4.236l.233-.009Zm4.924-.156-4.786.152v-4.237l4.786-.175Zm.431-.012-.294.008v-4.261l.294-.011Zm.329-.011-.191.007v-4.265l.191-.007Zm4.831-.154-4.693.15v-4.265l4.693-.171Z" transform="translate(52.583 0.176)" fill="#fff"/>
      <path id="Path_48004" data-name="Path 48004" d="M217.3,167.172l-15.341-.707a.084.084,0,0,0-.052.014.049.049,0,0,0-.02.038v4.359c0,.027.027.05.065.052l15.341.654h0a.073.073,0,0,0,.047-.014.048.048,0,0,0,.023-.038v-4.307A.063.063,0,0,0,217.3,167.172ZM206.54,171.02l-4.518-.193v-4.253l4.518.208Zm.366.015-.228-.01v-4.238l.228.011Zm.378.015-.24-.01V166.8l.24.012Zm4.356.187-4.219-.18v-4.236l4.219.2Zm.362.016-.225-.011v-4.219l.225.009Zm.372.014-.235-.009v-4.22l.235.011Zm4.442.19-4.3-.184v-4.218l4.3.2Zm.411.018-.271-.011v-4.2l.271.013Z" transform="translate(59.771 0.176)" fill="#fff"/>
      <path id="Path_48005" data-name="Path 48005" d="M206.114,154.93l-20.664.974a.063.063,0,0,0-.065.052v4.292a.05.05,0,0,0,.022.037.079.079,0,0,0,.047.015h0l20.666-.873a.061.061,0,0,0,.065-.052v-4.393a.048.048,0,0,0-.023-.039A.084.084,0,0,0,206.114,154.93Zm-20.371,5.254-.221.01v-4.186l.221-.011Zm3.47-.147-3.332.141V155.99l3.332-.157Zm.413-.016-.274.012v-4.206l.274-.013Zm.342-.014-.2.009v-4.208l.2-.009Zm4.781-.2-4.643.2v-4.208l4.643-.22Zm.425-.019-.287.013v-4.233l.287-.014Zm.352-.014-.214.009v-4.236l.214-.01Zm4.943-.209-4.806.2v-4.236l4.806-.227Zm.419-.019-.281.012v-4.261l.281-.013Zm.334-.013-.2.008v-4.263l.2-.01Zm4.828-.2-4.69.2v-4.265l4.69-.222Z" transform="translate(52.583 -0.891)" fill="#fff"/>
      <path id="Path_48006" data-name="Path 48006" d="M217.3,155.854l-15.34-.924a.091.091,0,0,0-.053.013.047.047,0,0,0-.022.039v4.358a.061.061,0,0,0,.063.052l15.341.874h0a.083.083,0,0,0,.047-.014.052.052,0,0,0,.023-.038v-4.308A.063.063,0,0,0,217.3,155.854Zm-10.754,3.695-4.524-.257v-4.254l4.524.273Zm.36.021-.223-.013V155.32l.223.013Zm.383.022-.245-.013v-4.237l.245.014Zm4.338.247-4.2-.239v-4.234l4.2.253Zm.382.021-.243-.013v-4.22l.243.015Zm.365.022-.228-.013v-4.219l.228.015Zm4.433.251-4.294-.244v-4.218l4.294.26Zm.418.025-.28-.016v-4.2l.28.017Z" transform="translate(59.771 -0.891)" fill="#fff"/>
      <path id="Path_48007" data-name="Path 48007" d="M206.112,143.416l-20.663,1.16c-.037,0-.065.024-.065.051v4.291a.05.05,0,0,0,.022.038.087.087,0,0,0,.047.014h0l20.666-1.058a.061.061,0,0,0,.065-.052v-4.393a.047.047,0,0,0-.023-.038A.079.079,0,0,0,206.112,143.416Zm-20.357,5.435-.234.011v-4.185l.234-.013Zm3.447-.177-3.311.17v-4.189l3.311-.186Zm.421-.021-.281.014v-4.2l.281-.016Zm.347-.019-.208.011v-4.207l.208-.011Zm4.8-.245-4.664.239v-4.21l4.664-.261Zm.415-.022-.277.014V144.15l.277-.016Zm.33-.016-.192.009v-4.234l.192-.01Zm4.944-.253-4.806.247v-4.238l4.806-.269Zm.415-.021-.277.014V143.83l.277-.015Zm.345-.017-.207.011v-4.264l.207-.011Zm4.828-.248-4.69.24v-4.265l4.69-.262Z" transform="translate(52.583 -1.955)" fill="#fff"/>
      <path id="Path_48008" data-name="Path 48008" d="M206.112,131.9l-20.664,1.312c-.036,0-.063.024-.063.052v4.29a.05.05,0,0,0,.022.038.087.087,0,0,0,.047.014h0l20.664-1.209a.062.062,0,0,0,.065-.052v-4.394a.048.048,0,0,0-.023-.038A.081.081,0,0,0,206.112,131.9Zm-20.376,5.586-.215.013v-4.186l.215-.014Zm3.457-.2-3.318.194v-4.187l3.318-.21Zm.436-.025-.3.017v-4.2l.3-.02Zm.332-.02-.194.012v-4.208l.194-.011Zm4.815-.282-4.677.274v-4.208l4.677-.3Zm.4-.023-.266.015v-4.232l.266-.017Zm.337-.021-.2.012v-4.234l.2-.013Zm4.924-.287-4.785.281v-4.237l4.785-.3Zm.434-.025-.3.017v-4.261l.3-.02Zm.35-.021-.212.013v-4.264l.212-.014Zm4.824-.282-4.686.274V132.3l4.686-.3Z" transform="translate(52.583 -3.021)" fill="#fff"/>
      <path id="Path_48009" data-name="Path 48009" d="M237.576,195.581h0l16.82-.226c.039,0,.068-.024.068-.054V191.21a.049.049,0,0,0-.019-.037.078.078,0,0,0-.05-.015l-16.821.269c-.039,0-.069.025-.069.054v4.048a.049.049,0,0,0,.022.038A.087.087,0,0,0,237.576,195.581Zm11.682-4.237,5.072-.081v3.986l-5.072.069Zm-.3.005.164,0v3.974l-.164,0Zm-.419.007.281,0v3.973l-.281,0Zm-4.861.078,4.725-.075v3.972l-4.725.062Zm-.316.005.177,0V195.4l-.177,0Zm-.4.007.264,0V195.4l-.264,0Zm-5.012.08,4.874-.078v3.957l-4.874.066Zm-.3.005.164,0v3.944l-.164,0Z" transform="translate(75.289 2.46)" fill="#fff"/>
      <path id="Path_48010" data-name="Path 48010" d="M251.157,195.349l16.27.318h0a.088.088,0,0,0,.049-.015.049.049,0,0,0,.022-.038v-4c0-.027-.03-.051-.067-.052l-16.271-.4a.066.066,0,0,0-.049.015.048.048,0,0,0-.022.037V195.3C251.09,195.326,251.119,195.349,251.157,195.349Zm15.988-3.693.214.005v3.9l-.214,0Zm-2.624-.064,2.489.061v3.9l-2.489-.049Zm-.332-.008.194,0V195.5l-.194,0Zm-.385-.01.247.007V195.5l-.247-.005Zm-3.655-.09,3.517.086v3.917l-3.517-.068Zm-.332-.009.194,0v3.937l-.194,0Zm-.365-.009.225.005v3.938l-.225,0Zm-3.8-.094,3.665.091V195.4l-3.665-.071Zm-.346-.008.208,0v3.96l-.208,0Zm-.366-.01.23.005v3.962l-.23-.005Zm-3.711-.091,3.573.087v3.964l-3.573-.07Z" transform="translate(81.206 2.46)" fill="#fff"/>
      <path id="Path_48011" data-name="Path 48011" d="M237.576,184.926h0l16.82-.349c.039,0,.068-.025.068-.052v-4.092a.048.048,0,0,0-.019-.037.088.088,0,0,0-.05-.015l-16.823.391a.063.063,0,0,0-.067.054v4.048a.048.048,0,0,0,.022.038A.079.079,0,0,0,237.576,184.926Zm11.666-4.321,5.088-.118v3.986l-5.088.106Zm-.293.007.155,0v3.974l-.155,0Zm-.408.01.27-.005v3.971l-.27.005Zm-4.874.114,4.738-.11V184.6l-4.738.1Zm-.3.007.159,0V184.7l-.159,0Zm-.422.011.284-.008V184.7l-.284.005Zm-5,.116,4.861-.114v3.958l-4.861.1Zm-.3.007.165,0v3.944l-.165,0Z" transform="translate(75.289 1.463)" fill="#fff"/>
      <path id="Path_48012" data-name="Path 48012" d="M251.156,184.572l16.271.491h0a.076.076,0,0,0,.047-.015.045.045,0,0,0,.023-.037v-4a.063.063,0,0,0-.066-.052l-16.271-.575a.078.078,0,0,0-.05.015.047.047,0,0,0-.022.037v4.087C251.09,184.547,251.117,184.571,251.156,184.572Zm15.991-3.522.212.008v3.9l-.212-.005Zm-2.642-.093,2.505.087v3.9l-2.505-.076Zm-.313-.012.177.007v3.913l-.177-.005Zm-.382-.013.244.01v3.914l-.244-.007Zm-3.662-.129,3.524.125v3.918l-3.524-.107Zm-.347-.012.211.008v3.935l-.211-.007Zm-.37-.013.234.008v3.937l-.234-.005Zm-3.8-.134,3.664.129v3.941l-3.664-.111Zm-.314-.012.175.007V184.6l-.175-.005Zm-.382-.013.244.009v3.961l-.244-.008Zm-3.708-.13,3.569.126v3.962l-3.569-.107Z" transform="translate(81.206 1.463)" fill="#fff"/>
      <path id="Path_48013" data-name="Path 48013" d="M237.576,174.26h0L254.4,173.8a.059.059,0,0,0,.066-.052V169.65a.053.053,0,0,0-.019-.038.092.092,0,0,0-.052-.014l-16.821.508c-.039,0-.067.024-.067.052v4.048a.052.052,0,0,0,.022.039A.1.1,0,0,0,237.576,174.26Zm11.679-4.4,5.075-.153v3.988l-5.075.14Zm-.306.01.167-.005v3.974l-.167,0Zm-.4.011.263-.007v3.972l-.263.008Zm-4.874.147,4.736-.143v3.972l-4.736.131Zm-.323.01.185-.005v3.959l-.185.005Zm-.409.013.271-.009V174l-.271.008Zm-4.986.15,4.848-.145v3.957l-4.848.133Zm-.312.01.175-.005v3.945l-.175.005Z" transform="translate(75.289 0.466)" fill="#fff"/>
      <path id="Path_48014" data-name="Path 48014" d="M251.155,173.79l16.271.671h0a.079.079,0,0,0,.047-.015.047.047,0,0,0,.023-.038v-4a.06.06,0,0,0-.065-.052l-16.271-.755a.086.086,0,0,0-.052.014.05.05,0,0,0-.022.038v4.087A.06.06,0,0,0,251.155,173.79Zm16.006-3.345.2.01v3.9l-.2-.009Zm-2.647-.122,2.509.116v3.9l-2.509-.1Zm-.326-.015.19.009v3.914l-.19-.009Zm-.37-.017.233.011v3.915l-.233-.01Zm-3.671-.169,3.533.164V174.2l-3.533-.144Zm-.327-.016.191.009v3.937l-.191-.008Zm-.368-.016.23.011v3.937l-.23-.01Zm-3.8-.176,3.667.169v3.939l-3.667-.151Zm-.334-.016.2.01v3.959l-.2-.008Zm-.378-.017.24.011v3.961l-.24-.01Zm-3.708-.172,3.57.166v3.964l-3.57-.148Z" transform="translate(81.206 0.466)" fill="#fff"/>
      <path id="Path_48015" data-name="Path 48015" d="M237.576,163.643h0l16.821-.636c.037,0,.065-.024.065-.052v-4.092a.049.049,0,0,0-.02-.038.1.1,0,0,0-.05-.014l-16.823.681c-.037,0-.066.024-.066.051v4.049a.05.05,0,0,0,.022.038A.086.086,0,0,0,237.576,163.643Zm11.679-4.52,5.075-.205v3.988l-5.075.191Zm-.306.011.168-.005V163.1l-.168.007Zm-.4.017.263-.011v3.972l-.263.011Zm-4.877.2,4.74-.191v3.972l-4.74.179Zm-.333.013.2-.007v3.958l-.2.008Zm-.4.016.261-.011v3.958l-.261.011Zm-4.993.2,4.855-.2v3.957l-4.855.184Zm-.3.011.164-.005v3.944l-.164.007Z" transform="translate(75.289 -0.532)" fill="#fff"/>
      <path id="Path_48016" data-name="Path 48016" d="M251.155,163l16.27.876h0a.087.087,0,0,0,.047-.014.048.048,0,0,0,.023-.038v-4a.061.061,0,0,0-.065-.051l-16.27-.961a.094.094,0,0,0-.053.014.05.05,0,0,0-.022.038v4.088A.06.06,0,0,0,251.155,163Zm15.983-3.143.223.012v3.9l-.223-.012Zm-2.617-.155,2.479.146v3.9l-2.479-.133Zm-.34-.021.2.013v3.913l-.2-.011Zm-.365-.021.227.014v3.913l-.227-.011Zm-3.677-.216,3.539.209v3.916l-3.539-.19Zm-.342-.021.2.012v3.935l-.2-.01Zm-.366-.022.23.013v3.938l-.23-.012Zm-3.8-.224,3.659.216v3.939l-3.659-.2Zm-.323-.019.185.011v3.959l-.185-.01Zm-.373-.023.235.014v3.961l-.235-.013Zm-3.712-.219,3.573.211v3.962l-3.573-.191Z" transform="translate(81.206 -0.532)" fill="#fff"/>
      <path id="Path_48017" data-name="Path 48017" d="M237.576,152.96h0l16.821-.737c.037,0,.065-.024.065-.052v-4.092a.049.049,0,0,0-.02-.038.087.087,0,0,0-.052-.014l-16.821.781c-.037,0-.066.025-.066.052v4.049a.047.047,0,0,0,.022.038A.087.087,0,0,0,237.576,152.96Zm11.666-4.589,5.088-.237v3.986l-5.088.224Zm-.3.013.161-.007v3.972l-.161.008Zm-.4.019.264-.012v3.972l-.264.012Zm-4.875.227,4.739-.221v3.972l-4.739.208Zm-.322.014.184-.009v3.959l-.184.009Zm-.411.019.273-.012v3.959l-.273.011Zm-4.963.231,4.825-.224v3.957l-4.865.214Zm-.324.016.185-.01-.04,3.947-.145.005Z" transform="translate(75.289 -1.529)" fill="#fff"/>
      <path id="Path_48018" data-name="Path 48018" d="M237.576,142.287h.006l16.821-.871a.06.06,0,0,0,.063-.051v-4.092a.049.049,0,0,0-.02-.039.089.089,0,0,0-.052-.013l-16.821.914c-.039,0-.066.024-.066.051v4.049a.054.054,0,0,0,.022.039A.1.1,0,0,0,237.576,142.287Zm11.664-4.615,5.089-.288v3.932l-5.089.262Zm-.287-.036.151.022v3.927l-.151.008Zm-.416.007.279-.014V141.6l-.279.015Zm-4.881.331,4.742-.248v3.9l-4.742.246Zm-.283-.036.145.022v3.914l-.145.008Zm-.431.01.291-.016v3.958l-.291.015Zm-4.995.343,4.857-.264v3.886l-4.857.251Zm-.3-.038.164.03v3.888l-.164.009Z" transform="translate(75.289 -2.528)" fill="#fff"/>
      <path id="Path_48019" data-name="Path 48019" d="M251.152,141.412l16.271,1.206h.006a.09.09,0,0,0,.047-.014.047.047,0,0,0,.023-.039v-4a.061.061,0,0,0-.062-.052l-16.271-1.291a.1.1,0,0,0-.055.012.054.054,0,0,0-.022.04v4.086A.061.061,0,0,0,251.152,141.412Zm15.986-2.742.223-.036v3.874l-.223-.015Zm-2.634-.213,2.5.219v3.806l-2.5-.185Zm-.322-.1.182.014v3.913l-.182-.013Zm-.365.052.227-.042v3.894l-.227-.017Zm-.1-.09h-.006l-.274-.023Zm-3.559-.194,3.52.3v3.809l-3.52-.261Zm-.342-.115.2.016v3.936l-.2-.015Zm-.388.056.25-.047v3.918l-.25-.019Zm-3.786-.3,3.649.311v3.836l-3.649-.271Zm-.307-.107.169.013v3.959l-.169-.012Zm-.4.058.263-.049v3.941l-.263-.019Zm-.07-.1-.023,0-1.4-.118Zm-3.638-.192,3.57.3v3.851l-3.57-.264Z" transform="translate(81.206 -2.528)" fill="#fff"/>
      <path id="Path_48020" data-name="Path 48020" d="M138.683,124.795h.006l4.6-.319a.061.061,0,0,0,.063-.052v-1.937a.048.048,0,0,0-.023-.038.092.092,0,0,0-.055-.013l-4.6.381a.06.06,0,0,0-.062.052v1.874a.048.048,0,0,0,.023.038A.083.083,0,0,0,138.683,124.795Zm4.528-.42-3.427.238v-1.627l3.427-.261Zm0-1.83v.074l-3.5.267-.333-.024Zm-4.459.38.894.061v1.637l-.894.061Z" transform="translate(32.208 -3.895)" fill="#fff"/>
      <path id="Path_48021" data-name="Path 48021" d="M138.692,159.387h0l4.571-.2a.062.062,0,0,0,.065-.054v-1.945a.047.047,0,0,0-.022-.039.088.088,0,0,0-.052-.013l-4.571.215c-.036,0-.065.024-.065.052v1.926a.05.05,0,0,0,.022.038A.091.091,0,0,0,138.692,159.387Zm4.5-.3-3.4.146v-1.7l3.4-.16Zm0-1.841v.022l-3.463.163-.171-.012Zm-4.435.218.9.067v1.708l-.9.039Z" transform="translate(32.213 -0.686)" fill="#fff"/>
      <path id="Path_48022" data-name="Path 48022" d="M138.68,194.009h0l4.6-.1c.037,0,.066-.024.066-.051v-1.947a.051.051,0,0,0-.019-.037.1.1,0,0,0-.052-.015l-4.6.1c-.037,0-.068.025-.068.052v1.946a.049.049,0,0,0,.022.038A.087.087,0,0,0,138.68,194.009Zm1.127-1.97,3.4-.072v1.841l-3.4.072Zm-1.058.023.922-.02v1.841l-.922.02Z" transform="translate(32.208 2.524)" fill="#fff"/>
      <path id="Path_48023" data-name="Path 48023" d="M147.306,103.593l7.869.767h.009a.081.081,0,0,0,.046-.013.048.048,0,0,0,.023-.039v-3.819a.059.059,0,0,0-.059-.051l-7.869-.846a.084.084,0,0,0-.055.012.052.052,0,0,0-.024.04v3.9A.061.061,0,0,0,147.306,103.593Zm7.808.655-.807-.079v-3.531l.807-.09Zm-3.233-4.062,2.818.3-.461.051-2.357-.268Zm0,.192,2.287.26v3.518l-2.287-.224Zm-1.067-.307.929.1v3.747l-.929-.09Zm-.138,3.744-.821-.08v-3.557l.821-.1ZM147.384,99.7l2.911.312-.51.066-2.4-.255Zm0,.229,2.334.247v3.543l-2.334-.227Z" transform="translate(35.969 -6.008)" fill="#fff"/>
      <path id="Path_48024" data-name="Path 48024" d="M147.314,120.416l7.886.674h.007a.082.082,0,0,0,.046-.014.049.049,0,0,0,.024-.039v-3.812a.062.062,0,0,0-.062-.052l-7.884-.721a.09.09,0,0,0-.055.013.048.048,0,0,0-.024.039v3.859A.061.061,0,0,0,147.314,120.416Zm7.826.564-.81-.069v-3.541l.81-.084Zm-3.263-4,2.789.255-.4.042-2.385-.21Zm0,.191,2.316.2V120.9l-2.316-.2Zm-1.082-.291.943.086v3.728l-.943-.081Zm-.138,3.721-.8-.068v-3.546l.8-.1Zm-3.265-4.032,2.855.261-.455.06-2.4-.236Zm0,.19,2.333.231v3.532l-2.333-.2Z" transform="translate(35.972 -4.449)" fill="#fff"/>
      <path id="Path_48025" data-name="Path 48025" d="M147.287,137.27l7.886.552h.007a.086.086,0,0,0,.046-.014.05.05,0,0,0,.023-.038v-3.826a.061.061,0,0,0-.063-.052l-7.886-.577a.085.085,0,0,0-.053.013.046.046,0,0,0-.022.038v3.853A.058.058,0,0,0,147.287,137.27Zm7.824.441-.781-.055v-3.547l.781-.1Zm-3.237-3.957,2.792.2-.408.055-2.385-.2Zm0,.168,2.317.19v3.534l-2.317-.162Zm-1.067-.247.929.068v3.732l-.929-.064Zm-.138,3.725-.8-.056v-3.577l.8-.091Zm-3.308-3.978,2.808.206-.375.042-2.433-.2Zm0,.158,2.366.189v3.565l-2.366-.165Z" transform="translate(35.96 -2.889)" fill="#fff"/>
      <path id="Path_48026" data-name="Path 48026" d="M147.312,154.153l7.884.38h0a.076.076,0,0,0,.047-.015.043.043,0,0,0,.022-.037v-3.787a.06.06,0,0,0-.063-.052l-7.886-.452a.082.082,0,0,0-.052.014.048.048,0,0,0-.023.038v3.86C147.246,154.128,147.276,154.151,147.312,154.153Zm7.82.271-.851-.04v-3.558l.851-.073Zm-3.263-3.868,2.6.149-.256.023-2.341-.16Zm0,.118,2.274.153v3.551l-2.274-.109Zm-1.074-.179.936.054v3.713l-.936-.046Zm-.138,3.714-.794-.038v-3.6l.794-.073Zm-3.273-3.91,2.64.151-.23.021-2.41-.145Zm0,.131,2.343.142v3.592l-2.343-.113Z" transform="translate(35.969 -1.329)" fill="#fff"/>
      <path id="Path_48027" data-name="Path 48027" d="M147.314,170.995l7.84.288h0a.075.075,0,0,0,.047-.014.046.046,0,0,0,.023-.037V167.44a.063.063,0,0,0-.066-.052l-7.84-.348a.077.077,0,0,0-.05.014.045.045,0,0,0-.023.037v3.852A.061.061,0,0,0,147.314,170.995Zm7.029-3.437.747-.059v3.677l-.747-.027Zm-2.455-.211,2.418.108-.033,0-2.385-.1Zm0,.114,2.317.1v3.583l-2.317-.084ZM150.8,167.3l.955.043v3.713l-.955-.035Zm-.138,3.715-.8-.03v-3.609l.8-.073Zm-3.272-3.866,2.554.112-.155.014-2.4-.118Zm0,.114,2.331.116v3.6l-2.331-.087Z" transform="translate(35.97 0.229)" fill="#fff"/>
      <path id="Path_48028" data-name="Path 48028" d="M147.313,187.841l7.86.156h0a.078.078,0,0,0,.047-.014.047.047,0,0,0,.02-.037v-3.774c0-.027-.029-.05-.066-.051l-7.86-.229a.1.1,0,0,0-.05.014.051.051,0,0,0-.022.039v3.844C147.246,187.817,147.276,187.84,147.313,187.841Zm7.01-3.641.784.023v3.67l-.784-.016Zm-2.428-.071,2.29.067v3.678l-2.29-.046Zm-1.1-.032.965.027v3.7l-.965-.019Zm-.955-.027.818.023V187.8l-.818-.017ZM147.384,184l2.317.069v3.719l-2.317-.047Z" transform="translate(35.969 1.788)" fill="#fff"/>
      <path id="Path_48029" data-name="Path 48029" d="M147.309,204.677l7.869.071h0a.079.079,0,0,0,.047-.015.045.045,0,0,0,.02-.037v-3.806c0-.027-.03-.051-.067-.052l-7.869-.069a.1.1,0,0,0-.049.014.05.05,0,0,0-.022.037v3.805C147.24,204.653,147.272,204.677,147.309,204.677Zm7-3.743.8.008v3.7l-.8-.007Zm-2.41-.022,2.273.021v3.7l-2.273-.021Zm-1.1-.009.965.008v3.7l-.965-.009Zm-.946-.009.808.008v3.7l-.808-.007Zm-2.475-.022,2.336.021v3.7l-2.336-.022Z" transform="translate(35.967 3.348)" fill="#fff"/>
      <path id="Path_48030" data-name="Path 48030" d="M160.519,113.788l2.031.17h.007a.081.081,0,0,0,.046-.013.048.048,0,0,0,.023-.039V99.658a.059.059,0,0,0-.057-.052l-2.033-.24a.079.079,0,0,0-.055.013.047.047,0,0,0-.024.039v14.319A.06.06,0,0,0,160.519,113.788Zm1.97.06-.413-.035V99.763l.413-.045Zm-1.894-14.369,1.493.176-.082.009-1.411-.143Zm0,.147,1.342.137V113.8l-1.342-.113Z" transform="translate(41.724 -6.029)" fill="#fff"/>
      <path id="Path_48031" data-name="Path 48031" d="M160.511,130.384l2.021.121h0a.079.079,0,0,0,.047-.012.052.052,0,0,0,.023-.039V116.229a.059.059,0,0,0-.06-.051l-2.021-.206a.085.085,0,0,0-.055.012.05.05,0,0,0-.023.04v14.308A.061.061,0,0,0,160.511,130.384Zm1.573-14.048.385-.045V130.4l-.385-.024Zm-.03-.1-.039,0-.747-.085Zm-1.469-.052,1.361.155v14.03l-1.361-.083Z" transform="translate(41.72 -4.493)" fill="#fff"/>
      <path id="Path_48032" data-name="Path 48032" d="M160.522,146.973l2.031.1h0a.076.076,0,0,0,.047-.015.045.045,0,0,0,.022-.037V132.781a.061.061,0,0,0-.062-.052l-2.031-.151a.077.077,0,0,0-.053.014.046.046,0,0,0-.023.038v14.291A.062.062,0,0,0,160.522,146.973Zm1.545-14.089.422-.044V146.96l-.422-.019Zm-1.472-.2,1,.073-1-.061Zm0,.117,1.334.083v14.047l-1.334-.063Z" transform="translate(41.724 -2.957)" fill="#fff"/>
      <path id="Path_48033" data-name="Path 48033" d="M160.517,163.579l2.016.08h0a.081.081,0,0,0,.049-.015.046.046,0,0,0,.021-.038V149.346a.06.06,0,0,0-.065-.052l-2.017-.1a.084.084,0,0,0-.052.013.054.054,0,0,0-.022.038v14.287C160.451,163.555,160.48,163.577,160.517,163.579Zm1.549-14.134.4-.039v14.145l-.4-.016Zm-1.477-.073,1.339.075v14.082l-1.339-.051Z" transform="translate(41.722 -1.421)" fill="#fff"/>
      <path id="Path_48034" data-name="Path 48034" d="M160.517,180.147l2.023.066h0a.081.081,0,0,0,.049-.014.047.047,0,0,0,.021-.039V165.921a.063.063,0,0,0-.066-.052l-2.021-.075a.08.08,0,0,0-.052.015.044.044,0,0,0-.022.038v14.248A.061.061,0,0,0,160.517,180.147Zm1.562-14.191.395.015v14.134l-.395-.013Zm-1.49-.055,1.352.05v14.137l-1.352-.044Z" transform="translate(41.722 0.114)" fill="#fff"/>
      <path id="Path_48035" data-name="Path 48035" d="M160.515,196.716l2.026.058h0a.075.075,0,0,0,.049-.015.045.045,0,0,0,.022-.038V182.488a.062.062,0,0,0-.066-.052l-2.026-.061a.077.077,0,0,0-.05.014.045.045,0,0,0-.022.038v14.238A.061.061,0,0,0,160.515,196.716Zm1.565-14.189.395.01v14.13l-.395-.012Zm-1.493-.046,1.355.042v14.129l-1.355-.038Z" transform="translate(41.721 1.647)" fill="#fff"/>
      <path id="Path_48036" data-name="Path 48036" d="M160.518,213.332h2.043c.039,0,.069-.023.069-.052V199.055a.063.063,0,0,0-.067-.054l-2.043-.023a.084.084,0,0,0-.05.014.048.048,0,0,0-.02.037v14.249C160.449,213.309,160.479,213.332,160.518,213.332Zm1.566-14.229.408,0v14.12h-.408Zm-1.5-.019,1.361.016v14.127h-1.361Z" transform="translate(41.721 3.183)" fill="#fff"/>
      <path id="Path_48037" data-name="Path 48037" d="M288.578,130.5h0l4.992-.256a.06.06,0,0,0,.065-.052v-1.83a.05.05,0,0,0-.022-.038.079.079,0,0,0-.053-.013l-4.992.326a.06.06,0,0,0-.063.052v1.76a.05.05,0,0,0,.02.038A.091.091,0,0,0,288.578,130.5Zm4.923-.357-4.054.209v-1.536l4.054-.243Zm0-1.723v.047l-4.122.249-.156-.016Zm-4.854.329.662.064v1.546l-.662.033Z" transform="translate(97.506 -3.352)" fill="#fff"/>
      <path id="Path_48038" data-name="Path 48038" d="M288.586,162.9h0l4.971-.166a.06.06,0,0,0,.065-.052v-1.808a.05.05,0,0,0-.02-.038.09.09,0,0,0-.053-.014l-4.967.192a.062.062,0,0,0-.066.052v1.782a.049.049,0,0,0,.02.038A.08.08,0,0,0,288.586,162.9Zm.866-1.711,4.035-.164v1.606l-4.035.135Zm-.029-.1h0Zm-.769.038.66.061v1.584l-.66.023Z" transform="translate(97.51 -0.346)" fill="#fff"/>
      <path id="Path_48039" data-name="Path 48039" d="M288.588,195.305h0l4.959-.044a.061.061,0,0,0,.067-.052v-1.817a.045.045,0,0,0-.02-.037.08.08,0,0,0-.049-.015l-4.96.092a.06.06,0,0,0-.066.052v1.769a.044.044,0,0,0,.02.037A.079.079,0,0,0,288.588,195.305Zm.867-1.785,4.024-.075v1.713l-4.024.034Zm-.8.015.66-.013v1.671l-.66.005Z" transform="translate(97.511 2.661)" fill="#fff"/>
      <path id="Path_48040" data-name="Path 48040" d="M296.95,110.639l6.094.673h.01a.08.08,0,0,0,.046-.012.05.05,0,0,0,.022-.039v-3.547a.056.056,0,0,0-.056-.051l-6.1-.725a.091.091,0,0,0-.056.012.048.048,0,0,0-.022.039v3.6A.057.057,0,0,0,296.95,110.639Zm6.037.56-.907-.1v-3.235l.907-.091Zm-2.452-3.733,2.039.243-.561.056-1.477-.216Zm0,.188,1.407.208v3.222l-1.407-.155Zm-.85-.288.712.084v3.463l-.712-.079Zm-.138,3.454-.889-.1v-3.26l.889-.1Zm-2.518-3.77,2.123.251-.561.062-1.562-.2Zm0,.219,1.492.192v3.246l-1.492-.165Z" transform="translate(101.158 -5.329)" fill="#fff"/>
      <path id="Path_48041" data-name="Path 48041" d="M314.149,113.2l5.784.638h.011a.077.077,0,0,0,.045-.013.048.048,0,0,0,.023-.039v-3.508a.059.059,0,0,0-.056-.052l-5.786-.687a.084.084,0,0,0-.056.011.049.049,0,0,0-.024.04v3.558A.058.058,0,0,0,314.149,113.2Zm5.727.527-.854-.094v-3.209l.854-.086Zm-2.32-3.679,1.907.227-.507.05-1.4-.205Zm0,.179,1.329.2v3.194l-1.329-.146Zm-.807-.275.669.08v3.425l-.669-.074Zm-.138,3.415-.836-.093v-3.232l.836-.091Zm-2.385-3.714,1.988.236-.507.056-1.482-.19Zm0,.208,1.411.181v3.218l-1.411-.156Z" transform="translate(108.65 -5.088)" fill="#fff"/>
      <path id="Path_48042" data-name="Path 48042" d="M296.944,126.434l6.1.557h.009a.08.08,0,0,0,.045-.013.044.044,0,0,0,.023-.039v-3.564a.059.059,0,0,0-.06-.051l-6.1-.607a.083.083,0,0,0-.055.013.047.047,0,0,0-.023.039v3.613A.06.06,0,0,0,296.944,126.434Zm6.037.446-.87-.079v-3.282l.87-.084Zm-2.452-3.7,1.985.2-.469.047-1.516-.169Zm0,.18,1.446.162v3.269l-1.446-.132Zm-.846-.265.706.071v3.48l-.706-.063Zm-.138,3.474-.877-.08v-3.32l.877-.074Zm-2.522-3.738,2.021.2-.445.038-1.576-.151Zm0,.194,1.507.144v3.307l-1.507-.138Z" transform="translate(101.154 -3.869)" fill="#fff"/>
      <path id="Path_48043" data-name="Path 48043" d="M314.124,128.608l5.788.528h.01a.1.1,0,0,0,.045-.013.051.051,0,0,0,.022-.04v-3.5a.059.059,0,0,0-.059-.051l-5.788-.576a.087.087,0,0,0-.055.012.048.048,0,0,0-.022.039v3.547A.059.059,0,0,0,314.124,128.608Zm5.728.417-.82-.075v-3.226l.82-.08Zm-2.321-3.626,1.853.185-.418.04-1.436-.159Zm0,.171,1.365.152v3.215l-1.365-.126Zm-.8-.251.665.067V128.8l-.665-.061Zm-.138,3.407-.826-.075V125.39l.826-.071Zm-2.389-3.659,1.888.187-.393.035-1.494-.143Zm0,.185,1.426.135v3.251l-1.426-.13Z" transform="translate(108.639 -3.662)" fill="#fff"/>
      <path id="Path_48044" data-name="Path 48044" d="M296.958,142.19l6.083.476h.009a.07.07,0,0,0,.044-.014.046.046,0,0,0,.024-.038v-3.543c0-.026-.027-.048-.063-.051l-6.083-.524a.079.079,0,0,0-.053.013.045.045,0,0,0-.023.039v3.59A.061.061,0,0,0,296.958,142.19Zm6.021.365-.864-.068V139.2l.864-.068Zm-2.465-3.649,1.889.163-.356.027-1.533-.144Zm0,.152,1.463.138v3.282l-1.463-.115Zm-.848-.225.709.06v3.459l-.709-.055Zm-.138,3.452-.861-.068v-3.3l.861-.083Zm-2.494-3.678,1.985.17-.423.04-1.562-.138Zm0,.179,1.494.131v3.291l-1.494-.118Z" transform="translate(101.16 -2.41)" fill="#fff"/>
      <path id="Path_48045" data-name="Path 48045" d="M314.128,143.989l5.751.45h.007a.086.086,0,0,0,.046-.014.047.047,0,0,0,.023-.038v-3.48a.06.06,0,0,0-.062-.051l-5.751-.5a.088.088,0,0,0-.053.013.051.051,0,0,0-.023.039v3.525A.061.061,0,0,0,314.128,143.989Zm5.689.339-.81-.062v-3.237l.81-.063Zm-2.324-3.573,1.749.15-.3.024-1.447-.137Zm0,.143,1.377.13v3.227l-1.377-.108Zm-.8-.213.663.058v3.393l-.663-.051Zm-.138,3.389-.807-.063v-3.247l.807-.078Zm-2.35-3.6,1.84.158-.366.036-1.474-.13Zm0,.169,1.405.124V144l-1.405-.11Z" transform="translate(108.639 -2.238)" fill="#fff"/>
      <path id="Path_48046" data-name="Path 48046" d="M296.95,158.007l6.109.355h.007a.094.094,0,0,0,.047-.014.049.049,0,0,0,.02-.038v-3.546c0-.027-.026-.05-.063-.052l-6.107-.437a.083.083,0,0,0-.055.013.054.054,0,0,0-.023.038v3.63A.061.061,0,0,0,296.95,158.007Zm6.047.246-.886-.051v-3.329l.886-.054Zm-2.481-3.619,1.747.125-.218.013-1.529-.119Zm0,.125,1.459.112v3.322l-1.459-.084Zm-.854-.186.716.051V158.1l-.716-.041Zm-.138,3.48-.86-.05v-3.351l.86-.076Zm-2.5-3.669,1.917.138-.345.031-1.572-.116Zm0,.158,1.5.11v3.342l-1.5-.086Z" transform="translate(101.155 -0.951)" fill="#fff"/>
      <path id="Path_48047" data-name="Path 48047" d="M314.125,159.376l5.809.339h.006a.086.086,0,0,0,.047-.014.049.049,0,0,0,.02-.038v-3.438c0-.027-.026-.049-.062-.052l-5.809-.417a.079.079,0,0,0-.052.013.047.047,0,0,0-.022.039v3.518A.06.06,0,0,0,314.125,159.376Zm5.744.229-.833-.049V156.33l.833-.05Zm-2.349-3.5,1.622.118-.172.011-1.45-.115Zm0,.12,1.38.107v3.221l-1.38-.081Zm-.814-.177.676.048v3.368l-.676-.04Zm-.136,3.368-.811-.047v-3.247l.811-.073Zm-2.37-3.549,1.789.129-.3.027-1.489-.11Zm0,.151,1.421.106v3.238l-1.421-.083Z" transform="translate(108.638 -0.814)" fill="#fff"/>
      <path id="Path_48048" data-name="Path 48048" d="M296.961,173.794l6.073.257h0a.078.078,0,0,0,.046-.015.046.046,0,0,0,.023-.037v-3.552c0-.026-.03-.05-.065-.051l-6.073-.306a.092.092,0,0,0-.052.014.042.042,0,0,0-.022.038v3.6C296.9,173.771,296.925,173.793,296.961,173.794Zm5.154-3.249.853-.042v3.439l-.853-.036Zm-1.6-.084,1.463.083V173.9l-1.463-.062Zm-.853-.131.715.036v3.469l-.715-.032Zm-1.028.029.892-.029V173.8l-.892-.037Zm-1.6-.06,1.461.06v3.394l-1.461-.06Z" transform="translate(101.16 0.511)" fill="#fff"/>
      <path id="Path_48049" data-name="Path 48049" d="M314.137,174.784l5.763.243h0a.08.08,0,0,0,.047-.014.048.048,0,0,0,.023-.039v-3.441a.062.062,0,0,0-.065-.052l-5.763-.291a.092.092,0,0,0-.052.014.052.052,0,0,0-.022.038v3.49A.061.061,0,0,0,314.137,174.784Zm4.9-3.156.8-.039v3.331l-.8-.034Zm-1.519-.08,1.382.079v3.253l-1.382-.058Zm-.811-.125.673.034v3.359l-.673-.029Zm-.973.029.837-.031v3.36l-.837-.037Zm-1.519-.058,1.38.057v3.288l-1.38-.058Z" transform="translate(108.642 0.613)" fill="#fff"/>
      <path id="Path_48050" data-name="Path 48050" d="M296.959,189.6l6.1.114h0a.081.081,0,0,0,.049-.015.049.049,0,0,0,.022-.037v-3.546c0-.028-.03-.051-.068-.052l-6.107-.175a.086.086,0,0,0-.05.014.043.043,0,0,0-.019.038v3.607C296.893,189.58,296.92,189.6,296.959,189.6Zm5.158-3.46.881.025v3.442l-.881-.017Zm-1.584-.046,1.444.042v3.452l-1.444-.026Zm-.871-.024.732.021v3.468l-.732-.013Zm-1-.03.867.025v3.477l-.867-.016ZM297.029,186l1.492.044v3.487l-1.492-.028Z" transform="translate(101.158 1.973)" fill="#fff"/>
      <path id="Path_48051" data-name="Path 48051" d="M314.129,190.193l5.844.108h0a.088.088,0,0,0,.047-.014.05.05,0,0,0,.023-.038v-3.422c0-.029-.03-.051-.068-.052l-5.843-.168a.077.077,0,0,0-.05.015.048.048,0,0,0-.02.037v3.481A.062.062,0,0,0,314.129,190.193Zm4.939-3.34.838.024v3.318l-.838-.016Zm-1.515-.044,1.377.039v3.328l-1.377-.025Zm-.833-.023.695.019v3.343l-.695-.013Zm-.96-.028.823.024v3.351l-.823-.015Zm-1.56-.045,1.421.04v3.36l-1.421-.026Z" transform="translate(108.638 2.039)" fill="#fff"/>
      <path id="Path_48052" data-name="Path 48052" d="M296.96,205.362l6.081.04h0a.085.085,0,0,0,.05-.015.051.051,0,0,0,.02-.037V201.8c0-.028-.032-.053-.068-.054l-6.083-.084a.076.076,0,0,0-.05.015.042.042,0,0,0-.019.037v3.6A.061.061,0,0,0,296.96,205.362Zm5.122-3.528.892.013V205.3l-.892-.005Zm-1.55-.021,1.413.019v3.458l-1.413-.009Zm-.86-.013.722.011v3.47l-.722-.005Zm-1.016-.014.879.013v3.475l-.879-.007Zm-1.626-.022,1.489.021v3.483l-1.489-.011Z" transform="translate(101.158 3.431)" fill="#fff"/>
      <path id="Path_48053" data-name="Path 48053" d="M314.14,205.6l5.819.038h0a.087.087,0,0,0,.049-.015.047.047,0,0,0,.02-.037v-3.441c0-.028-.032-.051-.067-.052l-5.82-.081a.077.077,0,0,0-.049.014.046.046,0,0,0-.022.037v3.485C314.071,205.577,314.1,205.6,314.14,205.6Zm4.9-3.416.847.012v3.336l-.847-.005Zm-1.483-.021,1.347.02v3.343l-1.347-.008Zm-.823-.011.685.009v3.356l-.685-.005Zm-.972-.014.834.012v3.362l-.834-.007Zm-1.558-.022,1.418.02v3.369l-1.418-.01Z" transform="translate(108.641 3.463)" fill="#fff"/>
      <path id="Path_48054" data-name="Path 48054" d="M307.173,120.1l1.578.187h.012a.087.087,0,0,0,.044-.013.048.048,0,0,0,.023-.039V106.853a.058.058,0,0,0-.056-.052l-1.579-.2a.084.084,0,0,0-.056.012.05.05,0,0,0-.024.039v13.4A.061.061,0,0,0,307.173,120.1Zm1.519.073-.428-.05V106.95l.428-.038Zm-1.439-13.458,1.015.128-.072.007-.943-.113Zm0,.129.873.1v13.16l-.873-.1Z" transform="translate(105.611 -5.359)" fill="#fff"/>
      <path id="Path_48055" data-name="Path 48055" d="M307.178,135.669l1.573.134h.009a.08.08,0,0,0,.044-.013.046.046,0,0,0,.023-.039v-13.38a.058.058,0,0,0-.059-.05l-1.573-.154a.085.085,0,0,0-.053.013.048.048,0,0,0-.024.039v13.4C307.118,135.645,307.145,135.665,307.178,135.669Zm1.512.025-.424-.036V122.49l.424-.056Zm-1.433-13.413,1.032.1-.093.012-.939-.111Zm0,.106.87.1v13.154l-.87-.074Z" transform="translate(105.613 -3.92)" fill="#fff"/>
      <path id="Path_48056" data-name="Path 48056" d="M307.179,151.231l1.585.09h.006a.085.085,0,0,0,.047-.014.047.047,0,0,0,.02-.038V137.936a.062.062,0,0,0-.06-.052l-1.584-.159a.078.078,0,0,0-.053.012.048.048,0,0,0-.024.04v13.4A.061.061,0,0,0,307.179,151.231Zm1.082-13.216.438-.023v13.219l-.438-.024Zm-1.006-.076.867.075V151.18l-.867-.049Z" transform="translate(105.612 -2.482)" fill="#fff"/>
      <path id="Path_48057" data-name="Path 48057" d="M307.191,166.809l1.563.039h0a.094.094,0,0,0,.047-.014.045.045,0,0,0,.02-.038V153.454c0-.027-.027-.049-.063-.051l-1.563-.087a.077.077,0,0,0-.05.013.048.048,0,0,0-.023.038v13.39A.061.061,0,0,0,307.191,166.809Zm1.084-13.329.412.023v13.239l-.412-.01Zm-1.012-.057.874.049v13.256l-.874-.022Z" transform="translate(105.616 -1.04)" fill="#fff"/>
      <path id="Path_48058" data-name="Path 48058" d="M307.188,182.359l1.559.032h0a.077.077,0,0,0,.049-.015.045.045,0,0,0,.02-.037v-13.35c0-.028-.029-.05-.065-.052l-1.558-.069a.082.082,0,0,0-.052.014.045.045,0,0,0-.021.037v13.387A.063.063,0,0,0,307.188,182.359Zm1.092-13.339.4.016v13.248l-.4-.008Zm-1.019-.046.88.039v13.26l-.88-.019Z" transform="translate(105.614 0.398)" fill="#fff"/>
      <path id="Path_48059" data-name="Path 48059" d="M307.184,197.89l1.575.025h0a.082.082,0,0,0,.047-.014.048.048,0,0,0,.02-.037V184.511a.06.06,0,0,0-.065-.052l-1.576-.039a.075.075,0,0,0-.05.014.045.045,0,0,0-.022.038v13.366C307.116,197.866,307.146,197.889,307.184,197.89Zm1.087-13.34.421.011V197.81l-.421-.008Zm-1.015-.025.877.022V197.8l-.877-.015Z" transform="translate(105.612 1.836)" fill="#fff"/>
      <path id="Path_48060" data-name="Path 48060" d="M307.2,213.45l1.515.015h0a.077.077,0,0,0,.049-.015.045.045,0,0,0,.02-.037V200.052c0-.028-.029-.052-.069-.052l-1.526-.023a.073.073,0,0,0-.049.014.048.048,0,0,0-.021.038l.011,13.369C307.133,213.426,307.162,213.45,307.2,213.45ZM308.27,200.1l.379.005v13.258l-.379,0Zm-.138,0v13.259l-.86-.009-.011-13.264Z" transform="translate(105.614 3.275)" fill="#fff"/>
    </g>
  </g>
</svg>
