<svg xmlns="http://www.w3.org/2000/svg" width="188.048" height="115.676" viewBox="0 0 188.048 115.676">
  <g id="Group_25876" data-name="Group 25876" transform="translate(2927.054 470.741)">
    <path id="Path_55133" data-name="Path 55133" d="M5.7.957a4.775,4.775,0,0,1-1.843.366,3.19,3.19,0,0,1-2.435-1A3.669,3.669,0,0,1,.479-2.3,3.943,3.943,0,0,1,1.5-5.139a3.433,3.433,0,0,1,2.6-1.069,4.81,4.81,0,0,1,1.6.269v.533a3.889,3.889,0,0,0-1.615-.345,2.9,2.9,0,0,0-2.229.929A3.5,3.5,0,0,0,1-2.349,3.265,3.265,0,0,0,1.817,0,2.749,2.749,0,0,0,3.9.861,4.041,4.041,0,0,0,5.7.47Zm5.49.239V-1.922a2.2,2.2,0,0,0-.335-1.353A1.245,1.245,0,0,0,9.808-3.7a1.594,1.594,0,0,0-1.178.523,2.064,2.064,0,0,0-.508,1.5V1.2H7.655V-6.5h.467V-3.07h.02A1.954,1.954,0,0,1,9.93-4.131a1.559,1.559,0,0,1,1.285.543,2.416,2.416,0,0,1,.442,1.559V1.2ZM16.766-6.02h-.457L17.5-7.686h.528Zm0,7.216V.155h-.02a2.038,2.038,0,0,1-.724.851,1.855,1.855,0,0,1-1.054.317A1.618,1.618,0,0,1,13.795.907a1.4,1.4,0,0,1-.432-1.051q0-1.361,1.8-1.645l1.6-.239q0-1.676-1.259-1.676a2.566,2.566,0,0,0-1.671.691v-.564a2.547,2.547,0,0,1,.785-.391,2.994,2.994,0,0,1,.932-.163,1.569,1.569,0,0,1,1.242.5,2.123,2.123,0,0,1,.439,1.447V1.2Zm-1.432-2.59a2.48,2.48,0,0,0-1.148.378,1.021,1.021,0,0,0-.33.851A1.019,1.019,0,0,0,14.163.6a1.174,1.174,0,0,0,.856.3A1.606,1.606,0,0,0,16.268.34a2.07,2.07,0,0,0,.5-1.435V-1.6Zm.894-3.443-.8-1.214-.813,1.214H14.2l1.122-1.706h.229l1.112,1.706Zm5.063,5.962a1.613,1.613,0,0,1-.686.173q-1.153,0-1.153-1.381V-3.578h-.934V-4h.934V-5.355q.112-.041.234-.081t.234-.076V-4h1.371v.427H19.92V-.145a1.382,1.382,0,0,0,.17.78.656.656,0,0,0,.576.241,1.29,1.29,0,0,0,.625-.188Zm4.754.071V-6.5h.467V1.2Zm6.47,0h-.467V.252h-.02a1.767,1.767,0,0,1-1.676,1.072q-1.843,0-1.843-2.321V-4h.472v2.89a4.163,4.163,0,0,0,.086.909,1.708,1.708,0,0,0,.262.625,1.054,1.054,0,0,0,.447.361A1.633,1.633,0,0,0,30.422.9,1.466,1.466,0,0,0,31.6.363a2.138,2.138,0,0,0,.452-1.422V-4h.1a1.236,1.236,0,0,0,.757-.178.578.578,0,0,0,.223-.477,1.957,1.957,0,0,0-.107-.66h.493a1.684,1.684,0,0,1,.069.3,2.593,2.593,0,0,1,.023.35,1.192,1.192,0,0,1-.079.452.886.886,0,0,1-.223.325,1.04,1.04,0,0,1-.343.206,1.66,1.66,0,0,1-.442.094Zm4.317.127a2.568,2.568,0,0,1-1.031-.2,2.176,2.176,0,0,1-.774-.556,2.488,2.488,0,0,1-.488-.853,3.334,3.334,0,0,1-.17-1.089,3.478,3.478,0,0,1,.18-1.158,2.432,2.432,0,0,1,.513-.868,2.214,2.214,0,0,1,.8-.543,2.719,2.719,0,0,1,1.028-.188,2.649,2.649,0,0,1,.9.147q.107.01.239.015t.249.005a1.839,1.839,0,0,0,.452-.048.876.876,0,0,0,.3-.135.513.513,0,0,0,.17-.208.664.664,0,0,0,.053-.269,1.957,1.957,0,0,0-.107-.66h.493a1.684,1.684,0,0,1,.069.3,2.593,2.593,0,0,1,.023.35,1.208,1.208,0,0,1-.084.472.85.85,0,0,1-.244.33,1.1,1.1,0,0,1-.389.2,2.038,2.038,0,0,1-.513.079,2.569,2.569,0,0,1,.589.909,3.488,3.488,0,0,1,.2,1.244,3.42,3.42,0,0,1-.168,1.1,2.479,2.479,0,0,1-.485.858,2.189,2.189,0,0,1-.774.561A2.54,2.54,0,0,1,36.831,1.323ZM36.867-3.7a2.069,2.069,0,0,0-.828.16,1.77,1.77,0,0,0-.635.46A2.067,2.067,0,0,0,35-2.351a3.169,3.169,0,0,0-.142.988,2.943,2.943,0,0,0,.137.924,2.044,2.044,0,0,0,.4.714,1.768,1.768,0,0,0,.627.46,2.036,2.036,0,0,0,.83.163,2.083,2.083,0,0,0,.835-.157,1.634,1.634,0,0,0,.612-.455,2.03,2.03,0,0,0,.378-.724A3.319,3.319,0,0,0,38.8-1.4a2.57,2.57,0,0,0-.5-1.709A1.776,1.776,0,0,0,36.867-3.7Zm-.046,6.272a.393.393,0,0,1-.277-.112.373.373,0,0,1-.119-.284.334.334,0,0,1,.119-.272.407.407,0,0,1,.267-.1.441.441,0,0,1,.282.1.328.328,0,0,1,.124.272.4.4,0,0,1-.4.4ZM44.551,1.2V-1.831Q44.551-3.7,43.2-3.7a1.567,1.567,0,0,0-1.234.551,2,2,0,0,0-.482,1.364V1.2h-.467V-4h.467v.945h.02a1.882,1.882,0,0,1,1.777-1.072,1.552,1.552,0,0,1,1.29.561,2.518,2.518,0,0,1,.447,1.6V1.2ZM51.178.81a3.057,3.057,0,0,1-.64,2.148,2.615,2.615,0,0,1-1.991.681A3.471,3.471,0,0,1,47,3.243V2.755a3.224,3.224,0,0,0,1.559.457q2.153,0,2.153-2.275V.262h-.02a2.023,2.023,0,0,1-1.874,1.061,1.983,1.983,0,0,1-1.567-.7,2.855,2.855,0,0,1-.607-1.94A3.069,3.069,0,0,1,47.3-3.344a2.136,2.136,0,0,1,1.727-.787,1.758,1.758,0,0,1,1.666.95h.02V-4h.467Zm-.467-2.819A1.7,1.7,0,0,0,50.246-3.2a1.573,1.573,0,0,0-1.211-.5,1.691,1.691,0,0,0-1.381.645,2.626,2.626,0,0,0-.523,1.706A2.566,2.566,0,0,0,47.61.3,1.551,1.551,0,0,0,48.877.9,1.723,1.723,0,0,0,50.213.353a1.9,1.9,0,0,0,.5-1.331Zm5.759.386v-.457h2.778v.457ZM69.2,1.2V-2.3H65.032V1.2h-.5V-6.086h.5v3.331H69.2V-6.086h.5V1.2Zm2.93-6.511a.378.378,0,0,1-.269-.112.377.377,0,0,1-.117-.284.343.343,0,0,1,.119-.272.4.4,0,0,1,.267-.1.414.414,0,0,1,.277.1.342.342,0,0,1,.119.274.381.381,0,0,1-.117.279A.381.381,0,0,1,72.132-5.314ZM71.9,1.2V-4h.467V1.2Zm2.682-2.58a2.572,2.572,0,0,0,.5,1.676,1.661,1.661,0,0,0,1.358.6A2.764,2.764,0,0,0,78.145.252v.5a3.04,3.04,0,0,1-1.8.574A2.039,2.039,0,0,1,74.717.6a3.031,3.031,0,0,1-.62-2.036,2.9,2.9,0,0,1,.647-1.917,2.085,2.085,0,0,1,1.684-.78,1.758,1.758,0,0,1,1.488.681,3,3,0,0,1,.518,1.859v.208Zm3.362-.427a2.3,2.3,0,0,0-.432-1.4,1.344,1.344,0,0,0-1.107-.5,1.624,1.624,0,0,0-1.211.49,2.352,2.352,0,0,0-.592,1.4Zm-.762-3.027-.8-1.214-.813,1.214h-.416l1.122-1.706h.229l1.112,1.706Zm-.7,7.4a.393.393,0,0,1-.277-.112.373.373,0,0,1-.119-.284.334.334,0,0,1,.119-.272.407.407,0,0,1,.267-.1.441.441,0,0,1,.282.1.328.328,0,0,1,.124.272.4.4,0,0,1-.4.4ZM83.594,1.2V.252h-.02A1.773,1.773,0,0,1,81.9,1.323q-1.843,0-1.843-2.321V-4h.472v2.89A2.644,2.644,0,0,0,80.875.419,1.263,1.263,0,0,0,81.969.9,1.464,1.464,0,0,0,83.145.363a2.134,2.134,0,0,0,.449-1.422V-4h.467V1.2Zm9.548,2.392V.241h-.02a1.978,1.978,0,0,1-1.884,1.082A1.938,1.938,0,0,1,89.668.607a2.928,2.928,0,0,1-.594-1.93,2.969,2.969,0,0,1,.675-2.052,2.2,2.2,0,0,1,1.717-.757,1.712,1.712,0,0,1,1.656.97h.02V-4h.467V3.588Zm0-5.51A1.842,1.842,0,0,0,92.69-3.2a1.6,1.6,0,0,0-1.254-.5,1.692,1.692,0,0,0-1.341.622,2.591,2.591,0,0,0-.533,1.739A2.571,2.571,0,0,0,90.037.3a1.5,1.5,0,0,0,1.232.6A1.738,1.738,0,0,0,92.66.338a2.018,2.018,0,0,0,.482-1.366Zm6,3.118V.252h-.02a1.773,1.773,0,0,1-1.676,1.072q-1.843,0-1.843-2.321V-4h.472v2.89A2.644,2.644,0,0,0,96.425.419,1.263,1.263,0,0,0,97.52.9,1.464,1.464,0,0,0,98.7.363a2.134,2.134,0,0,0,.449-1.422V-4h.467V1.2Zm5.678,0V.155h-.02a2.038,2.038,0,0,1-.724.851,1.855,1.855,0,0,1-1.054.317,1.618,1.618,0,0,1-1.173-.416,1.4,1.4,0,0,1-.432-1.051q0-1.361,1.8-1.645l1.6-.239q0-1.676-1.259-1.676a2.566,2.566,0,0,0-1.671.691v-.564a2.547,2.547,0,0,1,.785-.391,2.994,2.994,0,0,1,.932-.163,1.569,1.569,0,0,1,1.242.5,2.123,2.123,0,0,1,.439,1.447V1.2Zm-1.432-2.59a2.48,2.48,0,0,0-1.148.378,1.021,1.021,0,0,0-.33.851A1.019,1.019,0,0,0,102.22.6a1.174,1.174,0,0,0,.856.3A1.606,1.606,0,0,0,104.325.34a2.07,2.07,0,0,0,.5-1.435V-1.6Zm.147-5.409a1.1,1.1,0,0,1,.708.2.712.712,0,0,1,.246.587.768.768,0,0,1-.165.521.789.789,0,0,1-.531.231v.274h-.366v-.584a.8.8,0,0,0,.472-.109.376.376,0,0,0,.147-.322.333.333,0,0,0-.135-.289.631.631,0,0,0-.373-.1q-.132,0-.234.01a1.134,1.134,0,0,0-.178.03v-.416q.1-.015.2-.025A2.069,2.069,0,0,1,103.538-6.8Zm6.942,5.18v-.457h2.778v.457Zm12.9,2.58a4.775,4.775,0,0,1-1.843.366,3.19,3.19,0,0,1-2.435-1,3.669,3.669,0,0,1-.942-2.618,3.943,3.943,0,0,1,1.021-2.841,3.433,3.433,0,0,1,2.6-1.069,4.81,4.81,0,0,1,1.6.269v.533a3.889,3.889,0,0,0-1.615-.345,2.9,2.9,0,0,0-2.229.929,3.5,3.5,0,0,0-.858,2.473A3.265,3.265,0,0,0,119.5,0a2.749,2.749,0,0,0,2.08.861,4.041,4.041,0,0,0,1.8-.391Zm5.49.239V-1.922a2.2,2.2,0,0,0-.335-1.353,1.245,1.245,0,0,0-1.046-.429,1.594,1.594,0,0,0-1.178.523,2.064,2.064,0,0,0-.508,1.5V1.2h-.467V-6.5h.467V-3.07h.02a1.954,1.954,0,0,1,1.788-1.061,1.559,1.559,0,0,1,1.285.543,2.416,2.416,0,0,1,.442,1.559V1.2Zm5.9,0V.252h-.02a1.773,1.773,0,0,1-1.676,1.072q-1.843,0-1.843-2.321V-4h.472v2.89a2.644,2.644,0,0,0,.348,1.534A1.263,1.263,0,0,0,133.146.9a1.464,1.464,0,0,0,1.176-.533,2.134,2.134,0,0,0,.449-1.422V-4h.467V1.2Zm3.839,1.061a3.091,3.091,0,0,1-.63,1.041,1.213,1.213,0,0,1-.889.34,1.087,1.087,0,0,1-.406-.071V3.1a1.173,1.173,0,0,0,.427.071q.625,0,.985-.863l.482-1.153L136.609-4h.523L138.7.231q.051.137.071.208a1.575,1.575,0,0,0,.046.173h.02l.122-.35L140.636-4h.508ZM142.6-1.384a2.572,2.572,0,0,0,.5,1.676,1.661,1.661,0,0,0,1.358.6,2.764,2.764,0,0,0,1.706-.645v.5a3.04,3.04,0,0,1-1.8.574A2.039,2.039,0,0,1,142.734.6a3.032,3.032,0,0,1-.62-2.036,2.9,2.9,0,0,1,.648-1.917,2.085,2.085,0,0,1,1.684-.78,1.758,1.758,0,0,1,1.488.681,3,3,0,0,1,.518,1.859v.208Zm3.362-.427a2.3,2.3,0,0,0-.432-1.4,1.344,1.344,0,0,0-1.107-.5,1.624,1.624,0,0,0-1.211.49,2.352,2.352,0,0,0-.592,1.4Zm-.731-3.027-.8-1.214-.813,1.214h-.416l1.122-1.706h.229l1.112,1.706Zm6.48,6.033V-1.831q0-1.874-1.351-1.874a1.567,1.567,0,0,0-1.234.551,2,2,0,0,0-.482,1.364V1.2h-.467V-4h.467v.945h.02a1.882,1.882,0,0,1,1.777-1.072,1.552,1.552,0,0,1,1.29.561,2.518,2.518,0,0,1,.447,1.6V1.2ZM161,1.2V-1.831Q161-3.7,159.651-3.7a1.567,1.567,0,0,0-1.234.551,2,2,0,0,0-.482,1.364V1.2h-.467V-4h.467v.945h.02a1.882,1.882,0,0,1,1.777-1.072,1.552,1.552,0,0,1,1.29.561,2.518,2.518,0,0,1,.447,1.6V1.2ZM167.629.81a3.057,3.057,0,0,1-.64,2.148A2.615,2.615,0,0,1,165,3.639a3.471,3.471,0,0,1-1.549-.4V2.755a3.224,3.224,0,0,0,1.559.457q2.153,0,2.153-2.275V.262h-.02a2.023,2.023,0,0,1-1.874,1.061,1.983,1.983,0,0,1-1.567-.7,2.855,2.855,0,0,1-.607-1.94,3.069,3.069,0,0,1,.655-2.031,2.136,2.136,0,0,1,1.727-.787,1.758,1.758,0,0,1,1.666.95h.02V-4h.467Zm-.467-2.819A1.7,1.7,0,0,0,166.7-3.2a1.573,1.573,0,0,0-1.211-.5,1.691,1.691,0,0,0-1.381.645,2.626,2.626,0,0,0-.523,1.706A2.566,2.566,0,0,0,164.061.3,1.551,1.551,0,0,0,165.328.9a1.723,1.723,0,0,0,1.336-.543,1.9,1.9,0,0,0,.5-1.331Zm6.1,3.2V-1.922a2.2,2.2,0,0,0-.335-1.353,1.245,1.245,0,0,0-1.046-.429,1.594,1.594,0,0,0-1.178.523,2.064,2.064,0,0,0-.508,1.5V1.2h-.467V-6.5h.467V-3.07h.02a1.954,1.954,0,0,1,1.788-1.061,1.559,1.559,0,0,1,1.285.543,2.416,2.416,0,0,1,.442,1.559V1.2Zm2.7-6.511a.378.378,0,0,1-.269-.112.376.376,0,0,1-.117-.284.343.343,0,0,1,.119-.272.4.4,0,0,1,.267-.1.414.414,0,0,1,.277.1.342.342,0,0,1,.119.274.381.381,0,0,1-.117.279A.381.381,0,0,1,175.963-5.314ZM175.734,1.2V-4h.467V1.2Zm2.682-2.58a2.572,2.572,0,0,0,.5,1.676,1.661,1.661,0,0,0,1.358.6,2.764,2.764,0,0,0,1.706-.645v.5a3.04,3.04,0,0,1-1.8.574A2.039,2.039,0,0,1,178.548.6a3.032,3.032,0,0,1-.62-2.036,2.9,2.9,0,0,1,.648-1.917,2.085,2.085,0,0,1,1.684-.78,1.758,1.758,0,0,1,1.488.681,3,3,0,0,1,.518,1.859v.208Zm3.362-.427a2.3,2.3,0,0,0-.432-1.4,1.344,1.344,0,0,0-1.107-.5,1.624,1.624,0,0,0-1.211.49,2.352,2.352,0,0,0-.592,1.4Zm-.762-3.027-.8-1.214-.813,1.214h-.416l1.122-1.706h.229l1.112,1.706Zm-.7,7.4a.393.393,0,0,1-.277-.112.373.373,0,0,1-.119-.284.334.334,0,0,1,.119-.272.407.407,0,0,1,.267-.1.441.441,0,0,1,.282.1.328.328,0,0,1,.124.272.4.4,0,0,1-.4.4Zm4.164-2.3h-.02V3.588h-.467V-4h.467v1.072h.02a2.055,2.055,0,0,1,.8-.886,2.184,2.184,0,0,1,1.145-.312,1.884,1.884,0,0,1,1.546.683,2.855,2.855,0,0,1,.556,1.856,3.3,3.3,0,0,1-.637,2.11,2.042,2.042,0,0,1-1.684.8A1.834,1.834,0,0,1,184.48.272Zm-.02-1.935v.655a1.967,1.967,0,0,0,.493,1.343,1.64,1.64,0,0,0,1.3.561,1.533,1.533,0,0,0,1.295-.683,2.979,2.979,0,0,0,.5-1.8,2.418,2.418,0,0,0-.457-1.549,1.479,1.479,0,0,0-1.219-.574,1.714,1.714,0,0,0-1.407.609A2.2,2.2,0,0,0,184.459-1.663Z" transform="translate(-2927.533 -358.704)" fill="#fff"/>
    <g id="Group_26826" data-name="Group 26826">
      <g id="Group_26825" data-name="Group 26825">
        <rect id="Rectangle_17025" data-name="Rectangle 17025" width="15" height="15" rx="3" transform="translate(-2861.412 -438.742)" fill="#f17b00"/>
        <rect id="Rectangle_17026" data-name="Rectangle 17026" width="15" height="15" rx="3" transform="translate(-2861.412 -470.741)" fill="#fff"/>
        <rect id="Rectangle_17027" data-name="Rectangle 17027" width="15" height="15" rx="3" transform="translate(-2861.412 -454.741)" fill="#f17b00"/>
        <rect id="Rectangle_17028" data-name="Rectangle 17028" width="15" height="15" rx="3" transform="translate(-2829.412 -438.741)" fill="#fff"/>
        <rect id="Rectangle_17029" data-name="Rectangle 17029" width="15" height="15" rx="3" transform="translate(-2829.412 -470.741)" fill="#fff"/>
        <rect id="Rectangle_17030" data-name="Rectangle 17030" width="15" height="15" rx="3" transform="translate(-2845.412 -438.741)" fill="#fff"/>
        <rect id="Rectangle_17031" data-name="Rectangle 17031" width="15" height="15" rx="3" transform="translate(-2845.412 -454.741)" fill="#f17b00"/>
      </g>
      <path id="Path_55132" data-name="Path 55132" d="M-3619.125,1093.209s8.717,13.283,22.053,13.277a90.186,90.186,0,0,0,22.105-2.461s4.765-1.517,5.729.924.475,5.278-10.683,9.62c4.733.765,12.585-.571,20.079-6.317s12.584-11.005,16.71-8.773c-.148.261-13.639,25.435-39.971,25.111S-3619.125,1093.209-3619.125,1093.209Z" transform="translate(743.217 -1525.06)" fill="#fff"/>
    </g>
    <path id="Path_90534" data-name="Path 90534" d="M-82.225-7.106a3.673,3.673,0,0,0,1.188-.33,4.171,4.171,0,0,0,2.42-3.784,4.214,4.214,0,0,0-1.21-2.948,4.123,4.123,0,0,0-2.926-1.21h-9.724V.022h2.75V-7.062h2.75a2.726,2.726,0,0,1,2.332,1.32l.066.132,1.474,2.882L-81.7.022h3.08l-1.408-2.75Zm-7.5-2.684v-2.838h6.974a1.386,1.386,0,0,1,.99.4,1.451,1.451,0,0,1,.418,1.012,1.4,1.4,0,0,1-.836,1.276,1.284,1.284,0,0,1-.572.132Zm17.49-2.86H-61V-15.4H-72.237a4.15,4.15,0,0,0-4.136,4.158v7.084A4.15,4.15,0,0,0-72.237,0H-61V-2.75H-72.237a1.418,1.418,0,0,1-1.408-1.408v-2.9h9.9v-2.75h-9.9v-1.43A1.418,1.418,0,0,1-72.237-12.65Zm26.884,9.9L-51.8-15.4-58.245-2.75-59.653,0h3.08l1.408-2.75,3.366-6.6,3.366,6.6L-47.025,0h3.08Zm6.776,0a2.194,2.194,0,0,1-1.87-1.87V-15.378H-43.2V-4.884a4.784,4.784,0,0,0,.506,2.156A4.88,4.88,0,0,0-40.469-.484a4.784,4.784,0,0,0,2.156.506h7.81v-2.75ZM-4.389-9a4.075,4.075,0,0,0,.66-2.244A4.169,4.169,0,0,0-7.887-15.4h-9.7V0H-7.1A4.911,4.911,0,0,0-2.189-4.906,4.907,4.907,0,0,0-4.389-9Zm-10.45-3.652h6.974a1.418,1.418,0,0,1,1.408,1.408A1.418,1.418,0,0,1-7.865-9.834h-6.974ZM-7.1-2.75h-7.744V-7.084H-7.1A2.16,2.16,0,0,1-4.939-4.928,2.159,2.159,0,0,1-7.1-2.772ZM12.111-15.4v7.7a4.957,4.957,0,0,1-4.95,4.95A4.957,4.957,0,0,1,2.211-7.7v-7.7H-.539v7.7A7.708,7.708,0,0,0,7.161,0a7.708,7.708,0,0,0,7.7-7.7v-7.7ZM19.811,0V-15.4h-2.75V0Zm6.82-2.75a2.194,2.194,0,0,1-1.87-1.87V-15.378h-2.75V-4.884a4.784,4.784,0,0,0,.506,2.156A4.88,4.88,0,0,0,24.739-.484,4.784,4.784,0,0,0,26.9.022h7.81v-2.75ZM44.6-15.4H36.9V0h7.7a7.561,7.561,0,0,0,5.412-2.266c.154-.154.308-.308.44-.462A7.636,7.636,0,0,0,52.283-7.7a7.69,7.69,0,0,0-7.7-7.678ZM44.583-2.728h-4.95v-9.9h4.95a4.957,4.957,0,0,1,4.95,4.95A4.957,4.957,0,0,1,44.583-2.728ZM57.255,0V-15.4h-2.75V0Zm14.85-15.4v9.812l-9.9-7.634-2.75-2.112V.022h2.75V-9.724l9.9,7.634L74.855.022v-15.4Zm12.65,2.75h7.7V-15.4h-7.7a7.708,7.708,0,0,0-7.7,7.7,7.708,7.708,0,0,0,7.7,7.7h7.7V-8.448h-7.7V-5.7H89.7V-2.75h-4.95A4.957,4.957,0,0,1,79.8-7.7,4.957,4.957,0,0,1,84.755-12.65Z" transform="translate(-2833.065 -373.861)" fill="#fff"/>
  </g>
</svg>
