<svg xmlns="http://www.w3.org/2000/svg" width="23.091" height="23.088" viewBox="0 0 23.091 23.088">
  <path id="add-group" d="M13.372,15.635a8.563,8.563,0,0,0-1.8-.96,4.591,4.591,0,0,0,1.493-3.028,6.789,6.789,0,0,1,8.608-.7.9.9,0,1,0,1.032-1.479,8.573,8.573,0,0,0-1.8-.96,4.6,4.6,0,1,0-6.193-.01q-.189.073-.375.154a8.565,8.565,0,0,0-1.589.913,4.6,4.6,0,1,0-7.379,5.1,8.673,8.673,0,0,0-5.238,5.4A2.706,2.706,0,0,0,2.71,23.588h7.846a.9.9,0,0,0,0-1.8H2.71a.9.9,0,0,1-.859-1.179A6.959,6.959,0,0,1,8.462,15.9a6.746,6.746,0,0,1,3.878,1.216.9.9,0,1,0,1.032-1.479ZM17.816,2.3a2.8,2.8,0,1,1-2.8,2.8A2.8,2.8,0,0,1,17.816,2.3ZM8.482,8.476a2.8,2.8,0,1,1-2.8,2.8A2.8,2.8,0,0,1,8.482,8.476ZM23.092,19.3a.9.9,0,0,1-.9.9H19.71v2.48a.9.9,0,1,1-1.8,0v-2.48h-2.48a.9.9,0,0,1,0-1.8h2.48v-2.48a.9.9,0,0,1,1.8,0V18.4h2.48A.9.9,0,0,1,23.092,19.3Zm0,0" transform="translate(-0.001 -0.5)" fill="#f17b00"/>
</svg>
