<svg xmlns="http://www.w3.org/2000/svg" width="21.97" height="20.794" viewBox="0 0 21.97 20.794">
  <g id="attach" transform="translate(0 -13.704)">
    <g id="Group_25055" data-name="Group 25055" transform="translate(0 13.704)">
      <path id="Path_53650" data-name="Path 53650" d="M19.913,15.758a7.031,7.031,0,0,0-9.933,0L1.466,24.272a5.017,5.017,0,0,0,7.095,7.095l7.8-7.8a3.01,3.01,0,1,0-4.257-4.257l-5.1,5.1a1,1,0,1,0,1.419,1.419l5.1-5.1a1,1,0,1,1,1.419,1.419l-7.8,7.8a3.01,3.01,0,0,1-4.257-4.257L11.4,17.177a5.017,5.017,0,1,1,7.095,7.095L9.98,32.786A1,1,0,0,0,11.4,34.2l8.514-8.514a7.023,7.023,0,0,0,0-9.933Z" transform="translate(0 -13.704)" fill="#f17b00"/>
    </g>
  </g>
</svg>
