<svg id="calendar" xmlns="http://www.w3.org/2000/svg" width="19.102" height="19.102" viewBox="0 0 19.102 19.102">
  <g id="Group_2606" data-name="Group 2606">
    <g id="Group_2605" data-name="Group 2605">
      <path id="Path_7149" data-name="Path 7149" d="M16.863,1.492h-.9V0H14.475V1.492H4.626V0H3.134V1.492h-.9A2.241,2.241,0,0,0,0,3.731V16.863A2.241,2.241,0,0,0,2.238,19.1H16.863A2.241,2.241,0,0,0,19.1,16.863V3.731A2.241,2.241,0,0,0,16.863,1.492Zm.746,15.371a.747.747,0,0,1-.746.746H2.238a.747.747,0,0,1-.746-.746V7.014H17.609Zm0-11.342H1.492V3.731a.747.747,0,0,1,.746-.746h.9V4.477H4.626V2.985h9.849V4.477h1.492V2.985h.9a.747.747,0,0,1,.746.746Z" fill="#707070"/>
    </g>
  </g>
  <g id="Group_2608" data-name="Group 2608" transform="translate(2.338 9.102)">
    <g id="Group_2607" data-name="Group 2607" transform="translate(0 0)">
      <rect id="Rectangle_2162" data-name="Rectangle 2162" width="1" height="1" fill="#707070"/>
    </g>
  </g>
  <g id="Group_2610" data-name="Group 2610" transform="translate(5.338 9.102)">
    <g id="Group_2609" data-name="Group 2609" transform="translate(0 0)">
      <rect id="Rectangle_2163" data-name="Rectangle 2163" width="1" height="1" fill="#707070"/>
    </g>
  </g>
  <g id="Group_2612" data-name="Group 2612" transform="translate(8.338 9.102)">
    <g id="Group_2611" data-name="Group 2611" transform="translate(0 0)">
      <rect id="Rectangle_2164" data-name="Rectangle 2164" width="1" height="1" fill="#707070"/>
    </g>
  </g>
  <g id="Group_2614" data-name="Group 2614" transform="translate(11.338 9.102)">
    <g id="Group_2613" data-name="Group 2613" transform="translate(0 0)">
      <rect id="Rectangle_2165" data-name="Rectangle 2165" width="1" height="1" fill="#707070"/>
    </g>
  </g>
  <g id="Group_2616" data-name="Group 2616" transform="translate(14.338 9.102)">
    <g id="Group_2615" data-name="Group 2615" transform="translate(0 0)">
      <rect id="Rectangle_2166" data-name="Rectangle 2166" width="1" height="1" fill="#707070"/>
    </g>
  </g>
  <g id="Group_2618" data-name="Group 2618" transform="translate(2.338 11.102)">
    <g id="Group_2617" data-name="Group 2617" transform="translate(0 0)">
      <rect id="Rectangle_2167" data-name="Rectangle 2167" width="1" height="2" fill="#707070"/>
    </g>
  </g>
  <g id="Group_2620" data-name="Group 2620" transform="translate(5.338 11.102)">
    <g id="Group_2619" data-name="Group 2619" transform="translate(0 0)">
      <rect id="Rectangle_2168" data-name="Rectangle 2168" width="1" height="2" fill="#707070"/>
    </g>
  </g>
  <g id="Group_2622" data-name="Group 2622" transform="translate(8.338 11.102)">
    <g id="Group_2621" data-name="Group 2621" transform="translate(0 0)">
      <rect id="Rectangle_2169" data-name="Rectangle 2169" width="1" height="2" fill="#707070"/>
    </g>
  </g>
  <g id="Group_2624" data-name="Group 2624" transform="translate(11.338 11.102)">
    <g id="Group_2623" data-name="Group 2623" transform="translate(0 0)">
      <rect id="Rectangle_2170" data-name="Rectangle 2170" width="1" height="2" fill="#707070"/>
    </g>
  </g>
  <g id="Group_2626" data-name="Group 2626" transform="translate(2.338 15.102)">
    <g id="Group_2625" data-name="Group 2625" transform="translate(0 0)">
      <rect id="Rectangle_2171" data-name="Rectangle 2171" width="1" height="1" fill="#707070"/>
    </g>
  </g>
  <g id="Group_2628" data-name="Group 2628" transform="translate(5.338 15.102)">
    <g id="Group_2627" data-name="Group 2627" transform="translate(0 0)">
      <rect id="Rectangle_2172" data-name="Rectangle 2172" width="1" height="1" fill="#707070"/>
    </g>
  </g>
  <g id="Group_2630" data-name="Group 2630" transform="translate(8.338 15.102)">
    <g id="Group_2629" data-name="Group 2629" transform="translate(0 0)">
      <rect id="Rectangle_2173" data-name="Rectangle 2173" width="1" height="1" fill="#707070"/>
    </g>
  </g>
  <g id="Group_2632" data-name="Group 2632" transform="translate(11.338 15.102)">
    <g id="Group_2631" data-name="Group 2631" transform="translate(0 0)">
      <rect id="Rectangle_2174" data-name="Rectangle 2174" width="1" height="1" fill="#707070"/>
    </g>
  </g>
  <g id="Group_2634" data-name="Group 2634" transform="translate(14.338 11.102)">
    <g id="Group_2633" data-name="Group 2633" transform="translate(0 0)">
      <rect id="Rectangle_2175" data-name="Rectangle 2175" width="1" height="2" fill="#707070"/>
    </g>
  </g>
</svg>
