<svg xmlns="http://www.w3.org/2000/svg" width="26" height="26" viewBox="0 0 26 26">
  <g id="Group_18536" data-name="Group 18536" transform="translate(-312 -226)">
    <rect id="Rectangle_10145" data-name="Rectangle 10145" width="26" height="26" rx="13" transform="translate(312 226)" opacity="0.799"/>
    <g id="pencil" transform="translate(318.17 231.93)">
      <path id="Path_52074" data-name="Path 52074" d="M8.436,82.473.92,89.99a.3.3,0,0,0-.078.137L.008,93.471a.3.3,0,0,0,.287.368.294.294,0,0,0,.072-.009L3.711,93a.3.3,0,0,0,.137-.078L11.366,85.4Zm0,0" transform="translate(0 -79.945)" fill="#fff"/>
      <path id="Path_52075" data-name="Path 52075" d="M338.282,1.5l-.837-.837a1.515,1.515,0,0,0-2.092,0l-1.025,1.025,2.929,2.929L338.282,3.6a1.48,1.48,0,0,0,0-2.092Zm0,0" transform="translate(-325.054 0)" fill="#fff"/>
    </g>
  </g>
</svg>
