<svg xmlns="http://www.w3.org/2000/svg" width="22.056" height="20.468" viewBox="0 0 22.056 20.468">
  <g id="Group_25883" data-name="Group 25883" transform="translate(-15.271 -410.124)">
    <g id="_6588513_arrow_arrows_directions_left_right_icon" data-name="6588513_arrow_arrows_directions_left_right_icon" transform="translate(23.869 415.398)">
      <path id="Union_86" data-name="Union 86" d="M7.485,3.973a.41.41,0,0,1,0-.578l.937-.938H.41a.41.41,0,0,1,0-.82H8.422L7.485.7A.41.41,0,0,1,8.063.12L9.7,1.758a.411.411,0,0,1,0,.579L8.063,3.973a.408.408,0,0,1-.578,0Z" transform="translate(3.637 5.999)" fill="#333"/>
      <path id="Union_85" data-name="Union 85" d="M1.757,3.973.121,2.337a.406.406,0,0,1-.08-.467v0l.007-.014a.41.41,0,0,1,.09-.114L1.757.12A.41.41,0,0,1,2.336.7L1.4,1.638H9.413a.409.409,0,0,1,0,.817H1.4l.94.94a.409.409,0,1,1-.578.578Z" transform="translate(1.999 10.092)" fill="#333"/>
    </g>
    <path id="Subtraction_17" data-name="Subtraction 17" d="M-895.77-10251.514h-9.662a.587.587,0,0,1-.567-.591.585.585,0,0,1,.567-.588h2.253v-19.272c.017-.011,1.194-.017,3.15-.017,3.644,0,8.961.021,9,.053v7.529c0,.419,0,1.983.008,3.886h-1.191v-10.307h-1.73v10.307h-1.173v-.683h-1.4v3.635h.748v1.178h-.748v3.635h.748v1.234ZM-902-10270.82v18.128h1.727v-18.128Zm2.908,14.437v3.635h1.4v-3.635Zm0-4.812v3.635h1.4v-3.635Zm2.578-4.813v3.635h1.4v-3.635Zm-2.578,0v3.635h1.4v-3.635Zm2.578-4.811v3.633h1.4v-3.633Zm-2.578,0v3.633h1.4v-3.633Z" transform="translate(921.27 10682.105)" fill="#333"/>
  </g>
</svg>
