<svg xmlns="http://www.w3.org/2000/svg" width="10.975" height="11.042" viewBox="0 0 10.975 11.042">
  <path id="XMLID_10_" d="M14.473,23.881c-.054-.041-.11-.084-.163-.127-.279-.224-.575-.431-.861-.631L13.27,23a1.778,1.778,0,0,0-1.009-.383,1.307,1.307,0,0,0-1.088.69.578.578,0,0,1-.5.3.986.986,0,0,1-.4-.1,4.812,4.812,0,0,1-2.515-2.449c-.234-.526-.158-.869.254-1.149a1.163,1.163,0,0,0,.638-1.02A5.822,5.822,0,0,0,6.6,16.1a1.163,1.163,0,0,0-.791,0,2.289,2.289,0,0,0-1.425,1.172,2.178,2.178,0,0,0,.031,1.758,14.183,14.183,0,0,0,3.112,4.738A15.087,15.087,0,0,0,12.254,26.9a2.615,2.615,0,0,0,.467.139c.043.01.081.018.108.026a.181.181,0,0,0,.046.006h.015a2.679,2.679,0,0,0,2.224-1.693C15.394,24.585,14.883,24.194,14.473,23.881Z" transform="translate(-4.219 -16.025)" fill="#f17b00"/>
</svg>
