<svg xmlns="http://www.w3.org/2000/svg" width="24.366" height="29.594" viewBox="0 0 24.366 29.594">
  <g id="certificate_3_" data-name="certificate (3)" transform="translate(0.25 0.25)">
    <g id="Group_18504" data-name="Group 18504">
      <path id="Path_48305" data-name="Path 48305" d="M68.73,0H50.546A1.138,1.138,0,0,0,49.41,1.136V2.955H47.136A1.138,1.138,0,0,0,46,4.091V27.957a1.138,1.138,0,0,0,1.136,1.136H65.32a1.138,1.138,0,0,0,1.136-1.136V26.139H68.73A1.138,1.138,0,0,0,69.866,25V1.136A1.138,1.138,0,0,0,68.73,0ZM65.32,27.957H47.136V4.091H49.41V25a1.138,1.138,0,0,0,1.136,1.136H65.32ZM50.546,25V1.136H68.73V25Z" transform="translate(-46)" fill="#f17b00" stroke="#f17b00" stroke-width="0.5"/>
      <path id="Path_48306" data-name="Path 48306" d="M146.572,53.138h4.233a.568.568,0,1,0,0-1.136h-4.233a.568.568,0,1,0,0,1.136Z" transform="translate(-140.321 -49.047)" fill="#f17b00" stroke="#f17b00" stroke-width="0.5"/>
      <path id="Path_48307" data-name="Path 48307" d="M146.572,95.8h2.7a.568.568,0,0,0,0-1.136h-2.7a.568.568,0,1,0,0,1.136Z" transform="translate(-140.321 -89.289)" fill="#f17b00" stroke="#f17b00" stroke-width="0.5"/>
      <path id="Path_48308" data-name="Path 48308" d="M146.572,181.136h4.233a.568.568,0,1,0,0-1.136h-4.233a.568.568,0,1,0,0,1.136Z" transform="translate(-140.321 -169.772)" fill="#f17b00" stroke="#f17b00" stroke-width="0.5"/>
      <path id="Path_48309" data-name="Path 48309" d="M203.785,262H191.568a.568.568,0,1,0,0,1.136h12.217a.568.568,0,0,0,0-1.136Z" transform="translate(-182.761 -247.112)" fill="#f17b00" stroke="#f17b00" stroke-width="0.5"/>
      <path id="Path_48310" data-name="Path 48310" d="M161.346,304.666H146.572a.568.568,0,1,0,0,1.137h14.774a.568.568,0,0,0,0-1.137Z" transform="translate(-140.321 -287.354)" fill="#f17b00" stroke="#f17b00" stroke-width="0.5"/>
      <path id="Path_48311" data-name="Path 48311" d="M153.959,347.332h-7.387a.568.568,0,0,0,0,1.137h7.387a.568.568,0,0,0,0-1.137Z" transform="translate(-140.321 -327.595)" fill="#f17b00" stroke="#f17b00" stroke-width="0.5"/>
      <path id="Path_48312" data-name="Path 48312" d="M153.959,390h-7.387a.568.568,0,1,0,0,1.136h7.387a.568.568,0,1,0,0-1.136Z" transform="translate(-140.321 -367.837)" fill="#f17b00" stroke="#f17b00" stroke-width="0.5"/>
      <path id="Path_48313" data-name="Path 48313" d="M146.568,263.136a.568.568,0,0,0,0-1.136h0a.568.568,0,0,0,0,1.136Z" transform="translate(-140.318 -247.112)" fill="#f17b00" stroke="#f17b00" stroke-width="0.5"/>
      <path id="Path_48314" data-name="Path 48314" d="M276.238,44.7l-.018.243a1.135,1.135,0,0,0,.412,1l.173.142.062.186a1.143,1.143,0,0,0,.773.8l.065.02v3.289a.568.568,0,0,0,.816.512l1.457-.7,1.457.7a.568.568,0,0,0,.816-.512V47.094l.023-.008a1.143,1.143,0,0,0,.8-.773l.064-.213.2-.171a1.139,1.139,0,0,0,.4-.98l-.022-.221.112-.223a1.136,1.136,0,0,0,0-1.067l-.1-.193.018-.243a1.135,1.135,0,0,0-.412-1l-.173-.141-.062-.186a1.143,1.143,0,0,0-.773-.8l-.213-.064-.171-.2a1.139,1.139,0,0,0-.979-.4l-.221.022-.223-.112a1.136,1.136,0,0,0-1.067,0l-.193.1-.243-.018a1.136,1.136,0,0,0-1,.412l-.142.173-.186.062a1.143,1.143,0,0,0-.8.773l-.064.213-.2.171a1.139,1.139,0,0,0-.4.979l.022.221-.112.223a1.137,1.137,0,0,0,0,1.067Zm3.987,4.343a.568.568,0,0,0-.495,0l-.889.43V47.736a1.135,1.135,0,0,0,.162,0l.221-.022.223.112a1.136,1.136,0,0,0,1.067,0l.193-.1.243.018a1.148,1.148,0,0,0,.164,0v1.74Zm-3.081-5.087.189-.376a.568.568,0,0,0,.058-.311l-.038-.384.33-.286a.568.568,0,0,0,.172-.265l.115-.373.05-.014.363-.12a.568.568,0,0,0,.261-.179l.249-.3.022,0,.417.03a.571.571,0,0,0,.309-.066l.337-.181h0l.014.007.376.189a.568.568,0,0,0,.311.058l.384-.038.286.33a.568.568,0,0,0,.265.172l.373.115c0,.017.009.034.014.05l.12.363a.568.568,0,0,0,.179.261l.3.249c0,.007,0,.015,0,.022l-.03.417a.569.569,0,0,0,.066.309l.18.338-.007.014-.189.376a.568.568,0,0,0-.057.311l.038.384-.33.286a.568.568,0,0,0-.172.265l-.115.373-.05.014-.363.12a.567.567,0,0,0-.261.179l-.249.3-.023,0-.417-.03a.568.568,0,0,0-.309.066l-.338.18-.014-.007-.376-.189a.568.568,0,0,0-.255-.06l-.056,0-.384.038-.286-.33a.568.568,0,0,0-.265-.172l-.373-.115q-.006-.025-.014-.05l-.12-.363a.568.568,0,0,0-.179-.261l-.3-.249c0-.007,0-.015,0-.023l.03-.417a.569.569,0,0,0-.066-.309l-.18-.338Z" transform="translate(-262.93 -37.725)" fill="#f17b00" stroke="#f17b00" stroke-width="0.5"/>
    </g>
  </g>
</svg>
