<svg xmlns="http://www.w3.org/2000/svg" width="34" height="34" viewBox="0 0 34 34">
  <g id="Group_18309" data-name="Group 18309" transform="translate(-7.436 -31.622)">
    <g id="Ellipse_2001" data-name="Ellipse 2001" transform="translate(7.436 31.622)" fill="#ffe4ce" stroke="#731984" stroke-width="2">
      <circle cx="17" cy="17" r="17" stroke="none"/>
      <circle cx="17" cy="17" r="16" fill="none"/>
    </g>
    <path id="Path_51408" data-name="Path 51408" d="M14.837,26.091s-15.05,8.928-2.395,29.841c-14.4-5.2-11.6-18.438-11.6-18.438l4.35-8.064,7.248-3.339Z" transform="translate(7.684 7.69)" fill="#f17b00" opacity="0.307"/>
    <g id="Path_52111" data-name="Path 52111" transform="translate(7.436 31.622)" fill="none">
      <path d="M17,0A17,17,0,1,1,0,17,17,17,0,0,1,17,0Z" stroke="none"/>
      <path d="M 17 2 C 12.99336051940918 2 9.226520538330078 3.560270309448242 6.393400192260742 6.393400192260742 C 3.560270309448242 9.226520538330078 2 12.99336051940918 2 17 C 2 21.00664138793945 3.560270309448242 24.77347946166992 6.393400192260742 27.60659980773926 C 9.226520538330078 30.43972969055176 12.99336051940918 32 17 32 C 21.00664138793945 32 24.77347946166992 30.43972969055176 27.60659980773926 27.60659980773926 C 30.43972969055176 24.77347946166992 32 21.00664138793945 32 17 C 32 12.99336051940918 30.43972969055176 9.226520538330078 27.60659980773926 6.393400192260742 C 24.77347946166992 3.560270309448242 21.00664138793945 2 17 2 M 17 0 C 26.38883972167969 0 34 7.611160278320312 34 17 C 34 26.38883972167969 26.38883972167969 34 17 34 C 7.611160278320312 34 0 26.38883972167969 0 17 C 0 7.611160278320312 7.611160278320312 0 17 0 Z" stroke="none" fill="#f17b00"/>
    </g>
    <path id="Path_51409" data-name="Path 51409" d="M27.66,32.939c-.037,0-.07,0-.107,0a1.966,1.966,0,0,1-1.422-.73l-5.217-6.521,3.057-2.447,3.853,4.815,7.583-7.583,2.768,2.768-9.13,9.13a1.972,1.972,0,0,1-1.385.571Z" transform="translate(-5.194 21.831)" fill="#f17b00"/>
  </g>
</svg>
