<svg xmlns="http://www.w3.org/2000/svg" xmlns:xlink="http://www.w3.org/1999/xlink" width="283" height="305.991" viewBox="0 0 283 305.991">
  <defs>
    <linearGradient id="linear-gradient" x1="0.5" x2="0.5" y2="1" gradientUnits="objectBoundingBox">
      <stop offset="0" stop-color="#004bb2"/>
      <stop offset="1" stop-color="#009cfc"/>
    </linearGradient>
    <linearGradient id="linear-gradient-2" x1="0.5" x2="0.5" y2="1" gradientUnits="objectBoundingBox">
      <stop offset="0" stop-color="#009cfc"/>
      <stop offset="1" stop-color="#53beff"/>
    </linearGradient>
  </defs>
  <g id="Group_26138" data-name="Group 26138" transform="translate(-49 -57)">
    <circle id="Ellipse_2379" data-name="Ellipse 2379" cx="132" cy="132" r="132" transform="translate(68 69)" fill="#d8f0ff"/>
    <g id="Ellipse_2378" data-name="Ellipse 2378" transform="translate(49 57)" fill="none" stroke="#009cfc" stroke-width="1">
      <circle cx="132" cy="132" r="132" stroke="none"/>
      <circle cx="132" cy="132" r="131.5" fill="none"/>
    </g>
    <g id="Group_26136" data-name="Group 26136" transform="translate(40.719 91.963)">
      <g id="Shadows" transform="translate(32.389 140.339)">
        <path id="Shadow" d="M260.239,317.227,123.983,238.58a9.107,9.107,0,0,0-8.21,0L38.8,282.917c-3.064,1.766-3.067,4.663-.007,6.43l135.278,78.082a8.024,8.024,0,0,0,7.243,0l78.921-45.459C262.5,320.664,262.5,318.531,260.239,317.227Z" transform="translate(-36.503 -237.602)" fill="#ebebeb"/>
      </g>
      <g id="Paper_Planes" data-name="Paper Planes" transform="translate(53.56 118.6)">
        <g id="Paper_Plane" data-name="Paper Plane" transform="translate(0 73.061)">
          <g id="Group_26065" data-name="Group 26065" transform="translate(8.371 42.021)">
            <g id="Group_26059" data-name="Group 26059" transform="translate(0 12.178)">
              <path id="Path_61363" data-name="Path 61363" d="M138.494,443.074l-35.5-7.489-11.059,8.8Z" transform="translate(-91.932 -435.586)" fill="#ba68c8"/>
            </g>
            <g id="Group_26060" data-name="Group 26060" transform="translate(0 12.178)">
              <path id="Path_61364" data-name="Path 61364" d="M138.494,443.074l-35.5-7.489-11.059,8.8Z" transform="translate(-91.932 -435.586)" fill="#009cfc"/>
            </g>
            <g id="Group_26061" data-name="Group 26061" transform="translate(14.068)">
              <path id="Path_61365" data-name="Path 61365" d="M150.821,432.4l-32.493-11.252,3.091-8.415Z" transform="translate(-118.327 -412.736)" fill="#ba68c8"/>
            </g>
            <g id="Group_26062" data-name="Group 26062" transform="translate(14.068)">
              <path id="Path_61366" data-name="Path 61366" d="M150.821,432.4l-32.493-11.252,3.091-8.415Z" transform="translate(-118.327 -412.736)" fill="#009cfc"/>
            </g>
            <g id="Group_26063" data-name="Group 26063" transform="translate(14.068 8.415)">
              <path id="Path_61367" data-name="Path 61367" d="M118.327,428.524l1.809,4.78,30.685,6.472Z" transform="translate(-118.327 -428.524)" fill="#ba68c8"/>
            </g>
            <g id="Group_26064" data-name="Group 26064" transform="translate(14.068 8.415)" opacity="0.999">
              <path id="Path_61368" data-name="Path 61368" d="M118.327,428.524l1.809,4.78,30.685,6.472Z" transform="translate(-118.327 -428.524)" fill="#004bb2"/>
            </g>
          </g>
          <g id="Group_26070" data-name="Group 26070">
            <g id="Group_26067" data-name="Group 26067" transform="translate(17.285 49.709)">
              <g id="Group_26066" data-name="Group 26066">
                <path id="Path_61369" data-name="Path 61369" d="M109.819,428.544a.3.3,0,0,0,.19-.126.384.384,0,0,0-.064-.5c-.258-.224-.514-.448-.769-.675a.3.3,0,0,0-.452.045.383.383,0,0,0,.058.5q.385.343.775.682A.308.308,0,0,0,109.819,428.544Z" transform="translate(-108.656 -427.16)" fill="#455a64"/>
              </g>
            </g>
            <g id="Group_26069" data-name="Group 26069">
              <g id="Group_26068" data-name="Group 26068">
                <path id="Path_61370" data-name="Path 61370" d="M91.17,381.913q-.728-.72-1.426-1.46a.383.383,0,0,1-.018-.5.3.3,0,0,1,.456,0q.69.731,1.409,1.443a.382.382,0,0,1,.034.5.3.3,0,0,1-.176.108A.309.309,0,0,1,91.17,381.913Zm-3.7-4.013q-.663-.793-1.292-1.606a.377.377,0,0,1,.029-.5.3.3,0,0,1,.455.052q.62.8,1.275,1.583a.381.381,0,0,1-.01.5.3.3,0,0,1-.155.083A.316.316,0,0,1,87.471,377.9Zm-3.315-4.4c-.388-.577-.766-1.166-1.125-1.751a.372.372,0,0,1,.082-.491.311.311,0,0,1,.449.109c.353.576.726,1.157,1.108,1.725a.375.375,0,0,1-.061.5.291.291,0,0,1-.127.059A.321.321,0,0,1,84.156,373.5Zm-2.837-4.784c-.324-.626-.634-1.26-.92-1.886a.36.36,0,0,1,.139-.472.317.317,0,0,1,.434.171c.283.615.587,1.239.906,1.854a.365.365,0,0,1-.117.48.29.29,0,0,1-.094.036A.327.327,0,0,1,81.319,368.712Zm-2.265-5.126c-.243-.655-.473-1.326-.685-2a.35.35,0,0,1,.2-.445.333.333,0,0,1,.411.234c.208.658.435,1.318.674,1.961a.356.356,0,0,1-.175.456.288.288,0,0,1-.055.017A.333.333,0,0,1,79.055,363.586Zm-1.617-5.393q-.188-.806-.347-1.624l-.085-.448a.339.339,0,0,1,.248-.406h0a.341.341,0,0,1,.38.294l.083.437q.158.8.342,1.6a.343.343,0,0,1-.231.423l-.013,0A.338.338,0,0,1,77.438,358.193Zm-.581-5.232a.348.348,0,0,1-.358-.326c-.075-.7-.135-1.4-.18-2.1a.328.328,0,0,1,.3-.366.353.353,0,0,1,.344.344c.044.69.1,1.387.176,2.07a.337.337,0,0,1-.252.378Zm-.313-5.569a.358.358,0,0,1-.318-.373c.008-.7.036-1.407.081-2.1a.318.318,0,0,1,.345-.314.364.364,0,0,1,.3.392c-.045.683-.071,1.377-.08,2.063a.331.331,0,0,1-.255.332A.3.3,0,0,1,76.544,347.393Zm.41-5.527a.371.371,0,0,1-.264-.421c.107-.683.235-1.373.378-2.051a.311.311,0,0,1,.387-.249.374.374,0,0,1,.241.436c-.141.664-.266,1.34-.371,2.01a.324.324,0,0,1-.25.277A.3.3,0,0,1,76.954,341.866Zm1.193-5.356a.379.379,0,0,1-.2-.459c.2-.656.43-1.31.669-1.948a.3.3,0,0,1,.421-.177.382.382,0,0,1,.177.471c-.235.625-.455,1.266-.656,1.909a.316.316,0,0,1-.237.222A.289.289,0,0,1,78.147,336.51Z" transform="translate(-76.226 -333.895)" fill="#455a64"/>
              </g>
            </g>
          </g>
        </g>
        <g id="Paper_Plane-2" data-name="Paper Plane" transform="translate(177.557)">
          <g id="Group_26071" data-name="Group 26071">
            <path id="Path_61371" data-name="Path 61371" d="M429.036,216.494l-19.672-19.679,11.5,22.047Z" transform="translate(-409.364 -196.815)" fill="#ba68c8"/>
            <path id="Path_61372" data-name="Path 61372" d="M429.036,216.494l-19.672-19.679,11.5,22.047Z" transform="translate(-409.364 -196.815)" fill="#009cfc"/>
            <path id="Path_61373" data-name="Path 61373" d="M409.364,196.815l23.129,17.5,8.174-2.368Z" transform="translate(-409.364 -196.815)" fill="#ba68c8"/>
            <path id="Path_61374" data-name="Path 61374" d="M409.364,196.815l23.129,17.5,8.174-2.368Z" transform="translate(-409.364 -196.815)" fill="#009cfc"/>
            <path id="Path_61375" data-name="Path 61375" d="M432.493,214.312l-3.3,6.266-.161-4.085-19.672-19.679Z" transform="translate(-409.364 -196.815)" fill="#ba68c8"/>
            <path id="Path_61376" data-name="Path 61376" d="M432.493,214.312l-3.3,6.266-.161-4.085-19.672-19.679Z" transform="translate(-409.364 -196.815)" fill="#003579"/>
            <path id="Path_61377" data-name="Path 61377" d="M444.047,237.822l-2.886-3.3,2.724-.789Z" transform="translate(-424.214 -214.058)" fill="#004bb2"/>
            <path id="Path_61378" data-name="Path 61378" d="M443.886,233.738l-2.724.789.46.526Z" transform="translate(-424.214 -214.058)" opacity="0.2"/>
          </g>
          <g id="Group_26076" data-name="Group 26076" transform="translate(23.489 22.697)">
            <g id="Group_26073" data-name="Group 26073">
              <g id="Group_26072" data-name="Group 26072">
                <path id="Path_61379" data-name="Path 61379" d="M453.741,239.4a.288.288,0,0,0-.2.08.363.363,0,0,0-.034.475c.2.255.392.511.585.769a.282.282,0,0,0,.427.043.361.361,0,0,0,.039-.474q-.291-.389-.589-.776A.289.289,0,0,0,453.741,239.4Z" transform="translate(-453.435 -239.4)" fill="#455a64"/>
              </g>
            </g>
            <g id="Group_26075" data-name="Group 26075" transform="translate(2.426 3.367)">
              <g id="Group_26074" data-name="Group 26074">
                <path id="Path_61380" data-name="Path 61380" d="M458.535,245.852q.538.8,1.046,1.619a.362.362,0,0,1-.077.469.287.287,0,0,1-.423-.085q-.5-.806-1.034-1.6a.361.361,0,0,1,.063-.471.284.284,0,0,1,.183-.066A.291.291,0,0,1,458.535,245.852Zm2.672,4.408q.465.858.9,1.728a.356.356,0,0,1-.12.457.288.288,0,0,1-.412-.133q-.425-.859-.885-1.7a.361.361,0,0,1,.1-.463.283.283,0,0,1,.159-.048A.3.3,0,0,1,461.207,250.261Zm2.244,4.7c.251.607.491,1.223.714,1.832a.351.351,0,0,1-.167.439.294.294,0,0,1-.4-.185c-.219-.6-.456-1.207-.7-1.8a.353.353,0,0,1,.15-.447.268.268,0,0,1,.129-.031A.3.3,0,0,1,463.451,254.958Zm1.731,4.96c.182.64.35,1.285.5,1.919a.341.341,0,0,1-.217.411.3.3,0,0,1-.37-.24c-.147-.623-.311-1.257-.491-1.886a.346.346,0,0,1,.2-.423.289.289,0,0,1,.094-.016A.31.31,0,0,1,465.182,259.919Zm1.136,5.17c.1.651.189,1.316.26,1.976a.331.331,0,0,1-.265.375.315.315,0,0,1-.337-.294c-.07-.649-.156-1.3-.256-1.942a.336.336,0,0,1,.247-.39.239.239,0,0,1,.055-.005A.314.314,0,0,1,466.318,265.089Zm.487,5.3q.022.781.017,1.568l-.006.43a.32.32,0,0,1-.305.33h0a.322.322,0,0,1-.3-.343l.005-.421q0-.774-.017-1.542a.325.325,0,0,1,.294-.348h.012A.32.32,0,0,1,466.8,270.386Zm-.443,4.952a.33.33,0,0,1,.271.369c-.061.658-.138,1.324-.229,1.982a.31.31,0,0,1-.345.283.333.333,0,0,1-.255-.383c.089-.647.165-1.3.224-1.95a.318.318,0,0,1,.3-.3Zm-.753,5.214a.339.339,0,0,1,.224.406c-.139.645-.3,1.3-.469,1.932a.3.3,0,0,1-.378.227.345.345,0,0,1-.2-.419c.169-.624.325-1.262.461-1.894a.313.313,0,0,1,.3-.26A.276.276,0,0,1,465.609,280.552Zm-1.415,5.04a.349.349,0,0,1,.166.439c-.227.612-.474,1.227-.734,1.828a.294.294,0,0,1-.406.158.354.354,0,0,1-.142-.449c.255-.588.5-1.191.72-1.791a.306.306,0,0,1,.284-.21A.28.28,0,0,1,464.194,285.592Zm-2.107,4.735a.358.358,0,0,1,.1.463c-.312.569-.644,1.133-.984,1.678a.286.286,0,0,1-.423.086.36.36,0,0,1-.076-.469c.334-.534.659-1.087.965-1.645a.3.3,0,0,1,.261-.161A.281.281,0,0,1,462.086,290.327Z" transform="translate(-457.987 -245.717)" fill="#455a64"/>
              </g>
            </g>
          </g>
        </g>
      </g>
      <g id="Device" transform="translate(27.978 94.8)">
        <g id="Mobile">
          <g id="Mobile-2" data-name="Mobile">
            <g id="Group_26077" data-name="Group 26077">
              <path id="Path_61381" data-name="Path 61381" d="M118.759,154.078,257.309,262.912c3.478,2.732,3.08,5.628,2.76,8.226s-1.767,6.152-4.738,7.868l-76.064,43.916c-2.971,1.716-7.42,1.5-9.937-.474L30.78,213.614c-2.517-1.977-2.76-5.1-2.441-7.7s1.448-6.679,4.418-8.394L108.822,153.6C111.793,151.888,115.253,151.324,118.759,154.078Z" transform="translate(-28.228 -152.163)" fill="#00439a"/>
              <path id="Path_61382" data-name="Path 61382" d="M114.691,157.475,36.474,202.633,175.622,311.9l-1.494,12.163a8.5,8.5,0,0,1-4.8-1.621L30.78,213.612c-2.517-1.977-2.76-5.1-2.441-7.7s1.448-6.679,4.418-8.394L108.822,153.6a8.822,8.822,0,0,1,6.5-1.243l-.046.376Z" transform="translate(-28.228 -152.161)" fill="#003579"/>
            </g>
            <path id="Path_61383" data-name="Path 61383" d="M259.951,264.787,121.637,156.138a7.649,7.649,0,0,0-7.9-.377L39.483,198.633c-3.193,1.84-3.595,5.089-.893,7.212L176.042,313.816a6.74,6.74,0,0,0,6.972.328L259.3,270.1C261.652,268.747,261.947,266.354,259.951,264.787Z" transform="translate(-32.231 -153.413)" fill="#004bb2"/>
            <g id="Group_26080" data-name="Group 26080" transform="translate(10.491 60.857)">
              <g id="Group_26078" data-name="Group 26078" transform="translate(19.276 15.14)">
                <path id="Path_61384" data-name="Path 61384" d="M98.693,303.775a4.7,4.7,0,0,1,1.492,3.882,1.639,1.639,0,0,1-.7,1.3c-.254.141-1.221.718-1.485.866a1.24,1.24,0,0,1-1.389-.255L85.595,300.92a4.7,4.7,0,0,1-1.492-3.882,1.685,1.685,0,0,1,.655-1.276c.264-.167,1.267-.745,1.531-.893a1.238,1.238,0,0,1,1.392.254Z" transform="translate(-84.077 -294.75)" fill="#455a64"/>
                <path id="Path_61385" data-name="Path 61385" d="M97.215,305.377,86.2,296.726c-.992-.779-1.932-.3-2.1,1.061a4.7,4.7,0,0,0,1.492,3.882l11.014,8.651c.992.779,1.932.3,2.1-1.061A4.7,4.7,0,0,0,97.215,305.377Z" transform="translate(-84.077 -295.498)" fill="#37474f"/>
              </g>
              <g id="Group_26079" data-name="Group 26079">
                <path id="Path_61386" data-name="Path 61386" d="M62.527,275.368a4.7,4.7,0,0,1,1.492,3.882,1.637,1.637,0,0,1-.7,1.3c-.255.141-1.221.718-1.485.866a1.24,1.24,0,0,1-1.389-.255l-11.014-8.651a4.7,4.7,0,0,1-1.492-3.882,1.685,1.685,0,0,1,.654-1.276c.264-.166,1.267-.745,1.531-.893a1.239,1.239,0,0,1,1.392.254Z" transform="translate(-47.911 -266.343)" fill="#455a64"/>
                <path id="Path_61387" data-name="Path 61387" d="M61.049,276.97l-11.014-8.65c-.991-.779-1.932-.3-2.1,1.06a4.7,4.7,0,0,0,1.492,3.882l11.014,8.651c.992.779,1.932.3,2.1-1.061A4.7,4.7,0,0,0,61.049,276.97Z" transform="translate(-47.911 -267.091)" fill="#37474f"/>
              </g>
            </g>
            <g id="Group_26096" data-name="Group 26096" transform="translate(12.565 7.125)">
              <path id="Path_61388" data-name="Path 61388" d="M131.159,167.092,260.318,268.55c1.908,1.5,1.631,3.779-.617,5.071l-69.016,39.848a7.244,7.244,0,0,1-7.529-.358L53.073,210.928a2.706,2.706,0,0,1-.437-4.243c.1-.1.19-.2.294-.3a5.507,5.507,0,0,1,.764-.53l19.412-11.208s.565-.329,1.266-.73a2.249,2.249,0,0,1,2.337.111,2.34,2.34,0,0,0,2.425.061l22.625-13.061c.74-.43.874-1.158.284-1.621a.876.876,0,0,1,.06-1.5,1.373,1.373,0,0,1,.127-.078l18.992-10.961.4-.236A9.227,9.227,0,0,1,131.159,167.092Z" transform="translate(-51.802 -165.529)"/>
              <path id="Path_61389" data-name="Path 61389" d="M76.647,199.894a2.247,2.247,0,0,0-2.337-.111c-.7.4-1.266.73-1.266.73L53.632,211.722a5.5,5.5,0,0,0-.764.53c-.1.1-.195.2-.294.3-.032.034-.053.071-.083.106a3.6,3.6,0,0,0,.9,1.013L183.477,315.849a7.244,7.244,0,0,0,7.529.358l69.016-39.848a4.413,4.413,0,0,0,1.139-.92,3.57,3.57,0,0,0-.906-1.028L131.1,172.954a9.226,9.226,0,0,0-9.535-.455l-.4.236-18.492,10.673s-.288,2.369-.323,2.649a1.192,1.192,0,0,1-.647.838L79.072,199.955A2.342,2.342,0,0,1,76.647,199.894Z" transform="translate(-52.124 -168.267)" fill="#e7f6ff"/>
              <g id="Group_26092" data-name="Group 26092" transform="translate(9.853 10.696)">
                <g id="Group_26081" data-name="Group 26081" transform="translate(8.251 28.806)">
                  <path id="Path_61390" data-name="Path 61390" d="M87.35,243.384a.156.156,0,0,1-.086-.044l-.276-.254-.86.5a.1.1,0,0,1-.13-.013l-.1-.091a.192.192,0,0,1-.044-.052.213.213,0,0,1-.014-.058l-.072-1.436a.127.127,0,0,1,.008-.059.108.108,0,0,1,.05-.043l.12-.069a.154.154,0,0,1,.1-.026.17.17,0,0,1,.092.048l.963.885.19-.11a.152.152,0,0,1,.1-.026.175.175,0,0,1,.088.049l.066.06c.029.027.043.05.041.07s-.02.04-.056.062l-.19.109.276.254c.029.027.043.051.039.071s-.023.043-.06.065l-.145.083A.155.155,0,0,1,87.35,243.384Zm-.539-.546-.687-.632.062.992Z" transform="translate(-85.769 -240.621)" fill="#455a64"/>
                  <path id="Path_61391" data-name="Path 61391" d="M89.226,241.664a1.593,1.593,0,0,1-.889-.439.925.925,0,0,1-.381-.73.832.832,0,0,1,.489-.617,1.865,1.865,0,0,1,.379-.168,1.281,1.281,0,0,1,.362-.065.079.079,0,0,1,.056.015.072.072,0,0,1,.018.032l.042.157c0,.02,0,.033-.01.039a.2.2,0,0,1-.047.009,1.254,1.254,0,0,0-.532.169.567.567,0,0,0-.331.424.707.707,0,0,0,.3.537,1.2,1.2,0,0,0,.645.337.964.964,0,0,0,.624-.129,1.293,1.293,0,0,0,.2-.137.553.553,0,0,0,.124-.138l-.448-.411-.359.207a.148.148,0,0,1-.1.025.174.174,0,0,1-.088-.049l-.063-.058q-.046-.042-.042-.072c0-.019.021-.039.057-.061l.573-.33a.17.17,0,0,1,.111-.026.208.208,0,0,1,.1.058l.639.587a.2.2,0,0,1,.046.054.059.059,0,0,1,0,.051,1.177,1.177,0,0,1-.539.521A1.475,1.475,0,0,1,89.226,241.664Z" transform="translate(-86.789 -239.645)" fill="#455a64"/>
                </g>
                <g id="Group_26087" data-name="Group 26087" transform="translate(14.668 24.899)">
                  <g id="Group_26082" data-name="Group 26082" transform="translate(2.04 1.477)">
                    <path id="Path_61392" data-name="Path 61392" d="M102.768,235.255a.382.382,0,0,1-.114.642.8.8,0,0,1-.885-.066.382.382,0,0,1,.114-.642A.8.8,0,0,1,102.768,235.255Z" transform="translate(-101.638 -235.086)" fill="#455a64"/>
                  </g>
                  <g id="Group_26084" data-name="Group 26084" transform="translate(1.008 0.73)">
                    <g id="Group_26083" data-name="Group 26083">
                      <path id="Path_61393" data-name="Path 61393" d="M100.348,233.954a1.088,1.088,0,0,0-.625,1.165.234.234,0,0,0,.244.145h0c.152,0,.271-.1.245-.21a.762.762,0,0,1,.437-.822,1.547,1.547,0,0,1,1.2-.122.277.277,0,0,0,.338-.126h0c.029-.085-.029-.172-.138-.206A2.21,2.21,0,0,0,100.348,233.954Z" transform="translate(-99.7 -233.684)" fill="#455a64"/>
                    </g>
                  </g>
                  <g id="Group_26086" data-name="Group 26086">
                    <g id="Group_26085" data-name="Group 26085">
                      <path id="Path_61394" data-name="Path 61394" d="M98.848,232.748a1.8,1.8,0,0,0-1.028,1.725.225.225,0,0,0,.245.164h0c.148,0,.261-.1.247-.2a1.455,1.455,0,0,1,.836-1.409,2.891,2.891,0,0,1,2.075-.271.276.276,0,0,0,.325-.13h0c.032-.091-.04-.181-.162-.211A3.546,3.546,0,0,0,98.848,232.748Z" transform="translate(-97.81 -232.315)" fill="#455a64"/>
                    </g>
                  </g>
                </g>
                <g id="Group_26088" data-name="Group 26088" transform="translate(0 32.376)">
                  <path id="Path_61395" data-name="Path 61395" d="M70.82,254.587l-.531-.488.918-.53.531.488Z" transform="translate(-70.288 -249.717)" fill="#455a64"/>
                  <path id="Path_61396" data-name="Path 61396" d="M72.939,252.667l-1.063-.977.918-.53,1.063.977Z" transform="translate(-71.03 -248.592)" fill="#455a64"/>
                  <path id="Path_61397" data-name="Path 61397" d="M75.058,250.747l-1.594-1.465.918-.53,1.594,1.465Z" transform="translate(-71.772 -247.468)" fill="#455a64"/>
                  <path id="Path_61398" data-name="Path 61398" d="M77.177,248.826l-2.125-1.954.918-.53L78.1,248.3Z" transform="translate(-72.513 -246.342)" fill="#455a64"/>
                </g>
                <g id="Group_26091" data-name="Group 26091" transform="translate(56.494)">
                  <path id="Path_61399" data-name="Path 61399" d="M180.377,185.615a.739.739,0,0,0-.495.056l-3.434,1.976c-.222.128-.217.393.011.6l.966.888a1.017,1.017,0,0,0,.5.237.986.986,0,0,0,.241.015.588.588,0,0,0,.254-.071l3.433-1.976c.222-.128.218-.393-.011-.6l-.966-.888A1.011,1.011,0,0,0,180.377,185.615Zm-2.454,3.616a.444.444,0,0,1-.212-.112l-.966-.888c-.168-.155-.173-.366-.009-.459l3.433-1.977a.313.313,0,0,1,.21-.036.444.444,0,0,1,.212.112l.966.888c.168.155.173.366.009.46l-3.433,1.976A.308.308,0,0,1,177.923,189.231Z" transform="translate(-176.285 -185.598)" fill="#455a64"/>
                  <g id="Group_26089" data-name="Group 26089" transform="translate(0.764 0.458)">
                    <path id="Path_61400" data-name="Path 61400" d="M178.225,189.26l1.143,1.051-.54.31a.192.192,0,0,1-.165.005l-.85-.781c-.122-.112-.125-.272-.009-.342Z" transform="translate(-177.719 -187.766)" fill="#455a64"/>
                    <path id="Path_61401" data-name="Path 61401" d="M179.142,188.667l.643-.373,1.143,1.051-.646.37Z" transform="translate(-178.384 -187.315)" fill="#455a64"/>
                    <path id="Path_61402" data-name="Path 61402" d="M180.823,187.7l.643-.373,1.146,1.054-.646.37Z" transform="translate(-179.169 -186.864)" fill="#455a64"/>
                    <path id="Path_61403" data-name="Path 61403" d="M183.221,186.477l.823.757c.151.139.082.32-.182.472l-.217.125L182.5,186.78l.513-.3A.234.234,0,0,1,183.221,186.477Z" transform="translate(-179.953 -186.457)" fill="#455a64"/>
                  </g>
                  <g id="Group_26090" data-name="Group 26090" transform="translate(4.556 0.171)">
                    <path id="Path_61404" data-name="Path 61404" d="M185,185.934c.094-.056.332.047.53.229l.18.165c.2.182.285.378.193.439l-.166.108-.908-.841Z" transform="translate(-184.833 -185.918)" fill="#455a64"/>
                  </g>
                </g>
                <path id="Path_61405" data-name="Path 61405" d="M167.282,194.518l2.816-2.4.848,2.319-1.531-.68Z" transform="translate(-115.586 -188.642)" fill="#455a64"/>
              </g>
              <g id="Group_26094" data-name="Group 26094" transform="translate(26.619 14.132)">
                <path id="Path_61406" data-name="Path 61406" d="M102.286,204.617l10.371-5.988a1.944,1.944,0,0,1,2.011.053c.492.386.389.989-.23,1.346l-10.371,5.988a1.943,1.943,0,0,1-2.01-.053C101.565,205.577,101.667,204.974,102.286,204.617Z" transform="translate(-101.746 -195.001)" fill="#263238"/>
                <g id="Group_26093" data-name="Group 26093" transform="translate(15.287)">
                  <path id="Path_61407" data-name="Path 61407" d="M131.012,192.317a2.248,2.248,0,0,1,2.331.111.888.888,0,0,1-.193,1.569,2.248,2.248,0,0,1-2.331-.111A.888.888,0,0,1,131.012,192.317Z" transform="translate(-130.428 -192.044)" fill="#263238"/>
                </g>
              </g>
              <path id="Path_61408" data-name="Path 61408" d="M155.491,227.96l-.012.007-1.225-.962a1.55,1.55,0,0,0-1.6-.155l-1.5.867a.612.612,0,0,0-.018,1.088l1.225.962-.012.006a.467.467,0,0,0-.013.831l2.47,1.94a1.183,1.183,0,0,0,1.222.118l3.142-1.814a.467.467,0,0,0,.013-.831l-2.47-1.94A1.182,1.182,0,0,0,155.491,227.96Zm-4.007.644a.348.348,0,0,1,.01-.619l1.5-.867a.881.881,0,0,1,.91.088l1.225.962-2.422,1.4Z" transform="translate(-98.042 -194.095)" fill="#455a64"/>
              <g id="Group_26095" data-name="Group 26095" transform="translate(51.274 34.123)">
                <path id="Path_61409" data-name="Path 61409" d="M163.177,279.633c.266.209.241.4-.071.584l-.406.235a.717.717,0,0,1-.868-.042l-10.781-8.469-1.328,4.168c-.1.272-.343.379-.733.325l-.489-.062a.7.7,0,0,1-.4-.173.285.285,0,0,1-.071-.317l1.582-4.957a.558.558,0,0,1,.169-.245,2.029,2.029,0,0,1,.26-.175l.406-.235a.719.719,0,0,1,.868.042Z" transform="translate(-148.005 -248.51)" fill="#455a64"/>
                <path id="Path_61410" data-name="Path 61410" d="M164.711,265.887a4.306,4.306,0,0,1-.985-1.182,2.757,2.757,0,0,1-.377-1.447,2.862,2.862,0,0,1,.537-1.542,5.121,5.121,0,0,1,1.74-1.485,8.344,8.344,0,0,1,2.378-.955,7.657,7.657,0,0,1,2.213-.167,6.334,6.334,0,0,1,1.966.468,7.01,7.01,0,0,1,1.62.938,3.817,3.817,0,0,1,1.413,1.9,5.342,5.342,0,0,1,.041,2.417l-.69,6.266,7.153-4.129a.748.748,0,0,1,.907.044l.271.213q.4.313-.093.6l-8.755,5.054a.717.717,0,0,1-.868-.041l-.272-.213a.653.653,0,0,1-.236-.346,1.343,1.343,0,0,1,.01-.56l.844-6.873a7.678,7.678,0,0,0,.133-1.235,2.962,2.962,0,0,0-.125-.927,2.156,2.156,0,0,0-.4-.732,4.372,4.372,0,0,0-.683-.653,4.659,4.659,0,0,0-2.71-1.024,5.5,5.5,0,0,0-3.037.817,2.728,2.728,0,0,0-1.591,1.892,2.534,2.534,0,0,0,.886,2.064.362.362,0,0,1,.115.367.444.444,0,0,1-.189.244l-.427.246A.658.658,0,0,1,164.711,265.887Z" transform="translate(-155.17 -243.346)" fill="#455a64"/>
                <path id="Path_61411" data-name="Path 61411" d="M194.31,259.195a.312.312,0,0,1,.15.307.443.443,0,0,1-.244.289l-1.024.592a.718.718,0,0,1-.868-.042l-.868-.682a.365.365,0,0,1-.17-.309.374.374,0,0,1,.223-.289l1.025-.592a.838.838,0,0,1,.472-.111.743.743,0,0,1,.437.154Zm6.333,4.973a.316.316,0,0,1,.15.309.44.44,0,0,1-.244.287l-1.025.592a.716.716,0,0,1-.868-.042l-.868-.681a.366.366,0,0,1-.17-.31.375.375,0,0,1,.223-.289l1.025-.592a.84.84,0,0,1,.471-.11.744.744,0,0,1,.438.154Z" transform="translate(-168.217 -243.005)" fill="#455a64"/>
                <path id="Path_61412" data-name="Path 61412" d="M200.5,238.44a.749.749,0,0,1,.908.043l.27.213a.362.362,0,0,1,.136.179,1.044,1.044,0,0,1,.037.189l-.037,6.111.427-.246a11.035,11.035,0,0,1,2.213-.982,7.91,7.91,0,0,1,2.209-.375,6.482,6.482,0,0,1,2.115.308,6.132,6.132,0,0,1,1.934,1.039,3.727,3.727,0,0,1,1.217,1.48,2.376,2.376,0,0,1,.109,1.54,3.616,3.616,0,0,1-.891,1.513,7.53,7.53,0,0,1-1.774,1.37,10.411,10.411,0,0,1-2.4,1.027,9.642,9.642,0,0,1-2.285.371,7.109,7.109,0,0,1-1.99-.2,4.321,4.321,0,0,1-1.523-.686.258.258,0,0,1-.125-.273.438.438,0,0,1,.23-.256l.3-.173a1.183,1.183,0,0,1,.4-.135,1.084,1.084,0,0,1,.589.128,4.3,4.3,0,0,0,1.532.433,5.781,5.781,0,0,0,1.507-.067,6.819,6.819,0,0,0,1.419-.413,10.857,10.857,0,0,0,1.257-.615,6.452,6.452,0,0,0,1.352-1,2.611,2.611,0,0,0,.687-1.075,1.609,1.609,0,0,0-.061-1.111,2.778,2.778,0,0,0-.9-1.083,4.128,4.128,0,0,0-2.868-.958,7.264,7.264,0,0,0-3.173,1.043l-1.88,1.085a.717.717,0,0,1-.867-.042l-.271-.213a.6.6,0,0,1-.191-.222.683.683,0,0,1-.051-.23l0-5.992-6.449,3.723a.718.718,0,0,1-.868-.042l-.271-.213q-.416-.327.054-.6Z" transform="translate(-168.687 -233.642)" fill="#455a64"/>
                <path id="Path_61413" data-name="Path 61413" d="M233.486,239.041q.4.314-.072.584l-.406.234a.718.718,0,0,1-.868-.042l-10.782-8.469-1.327,4.167c-.1.272-.343.38-.733.326l-.489-.062a.7.7,0,0,1-.4-.174.284.284,0,0,1-.07-.316l1.581-4.957a.553.553,0,0,1,.169-.245,2.109,2.109,0,0,1,.26-.175l.407-.234a.716.716,0,0,1,.867.041Z" transform="translate(-180.84 -229.553)" fill="#455a64"/>
              </g>
              <path id="Path_61414" data-name="Path 61414" d="M178.975,291.171l54.751-31.611a4.754,4.754,0,0,1,4.93.236l12.448,9.778c1.249.981,1.066,2.466-.407,3.317L195.945,304.5a4.756,4.756,0,0,1-4.93-.235l-12.448-9.778C177.319,293.507,177.5,292.022,178.975,291.171Z" transform="translate(-110.617 -209.174)" fill="#fff"/>
              <path id="Path_61415" data-name="Path 61415" d="M221.059,324.234l54.751-31.611a4.754,4.754,0,0,1,4.93.236l12.449,9.778c1.249.981,1.066,2.466-.408,3.317l-54.752,31.611a4.755,4.755,0,0,1-4.93-.235l-12.448-9.778C219.4,326.57,219.585,325.085,221.059,324.234Z" transform="translate(-130.271 -224.615)" fill="#fff"/>
              <path id="Path_61416" data-name="Path 61416" d="M263.143,357.3l54.751-31.611a4.756,4.756,0,0,1,4.931.235l12.448,9.778c1.249.981,1.066,2.466-.408,3.317l-54.751,31.611a4.755,4.755,0,0,1-4.931-.236l-12.448-9.777C261.487,359.633,261.669,358.148,263.143,357.3Z" transform="translate(-149.925 -240.056)" fill="#fff"/>
              <path id="Path_61417" data-name="Path 61417" d="M293.615,385.185h-.027a5.417,5.417,0,0,1-3.492-.925L288.5,383a6.948,6.948,0,0,0-7.2-.344h0c-2.153,1.243-2.42,3.412-.6,4.845l1.429,1.122a2.414,2.414,0,0,1,1,2.572l.294.673a1.75,1.75,0,0,0,1.814.086l9.107-5.257a.691.691,0,0,0,.15-1.221A1.554,1.554,0,0,0,293.615,385.185ZM292,391.07a1.317,1.317,0,0,0,.286-2.326l-3.744,2.161A3.335,3.335,0,0,0,292,391.07Z" transform="translate(-158.136 -266.541)" fill="#e0e0e0"/>
              <path id="Path_61418" data-name="Path 61418" d="M251.6,351.344h-.027a5.417,5.417,0,0,1-3.492-.925l-1.6-1.256a6.946,6.946,0,0,0-7.2-.343h0c-2.153,1.243-2.42,3.412-.6,4.845l1.429,1.122a2.414,2.414,0,0,1,1,2.572l.294.673a1.751,1.751,0,0,0,1.814.087l9.107-5.258a.691.691,0,0,0,.15-1.221A1.554,1.554,0,0,0,251.6,351.344Zm-1.612,5.885a1.317,1.317,0,0,0,.286-2.327l-3.744,2.161A3.335,3.335,0,0,0,249.987,357.229Z" transform="translate(-138.514 -250.736)" fill="#e0e0e0"/>
            </g>
          </g>
          <g id="Shine" transform="translate(49.98 7.125)" opacity="0.3">
            <path id="Path_61419" data-name="Path 61419" d="M262.734,235.343l-16.495-12.956-26.374,84.454L236.36,319.8Z" transform="translate(-167.706 -192.083)" fill="#fff"/>
            <path id="Path_61420" data-name="Path 61420" d="M346.882,307.285l-27.956-21.96L293.41,367.031l2.581,2.027a7.244,7.244,0,0,0,7.529.358l29.229-16.876Z" transform="translate(-202.052 -221.476)" fill="#fff"/>
            <path id="Path_61421" data-name="Path 61421" d="M159.154,268.5l26.374-84.454-21.584-16.954a9.227,9.227,0,0,0-9.536-.455l-.4.236-11.442,6.6L122,239.318Z" transform="translate(-122.002 -165.529)" fill="#fff"/>
          </g>
        </g>
      </g>
      <g id="Character" transform="translate(104.123 41.938)">
        <ellipse id="Shadow-2" data-name="Shadow" cx="35.908" cy="18.822" rx="35.908" ry="18.822" transform="translate(18.311 123.136)" opacity="0.2"/>
        <g id="Character-2" data-name="Character" transform="translate(0 0)">
          <g id="Group_26097" data-name="Group 26097" transform="translate(23.895 124.305)">
            <path id="Path_61422" data-name="Path 61422" d="M295.846,314.331s11.165-4.023,14.806-9.925c-.336-6.539-.968-18.28-1.063-18.2l-21.043,2.179,4.447,18.449Z" transform="translate(-249.84 -286.204)" fill="#0051b9"/>
            <path id="Path_61423" data-name="Path 61423" d="M270.137,304.705c1.973-3.418,3.688-11.618,3.693-14.408H216.9s-1.059,12.3-.971,17.247c0,.02.005.037.005.058,0,0,0,.006,0,.009,1.189,2.935,3.985,4.738,10.362,7.5,11.8,5.113,27.812,4.333,35.631,1.128v-2.606S268.164,308.123,270.137,304.705Z" transform="translate(-215.925 -288.116)" fill="#003579"/>
          </g>
          <g id="Top">
            <g id="Top-2" data-name="Top">
              <g id="Group_26116" data-name="Group 26116" transform="translate(73.583)">
                <g id="Group_26098" data-name="Group 26098" transform="translate(0 43.656)">
                  <path id="Path_61424" data-name="Path 61424" d="M328.3,162.088c9.272,8.09,10.977,9.742,10.977,9.742,2.553-10.621,4.663-18.049,4.984-22.558s6.15-14.384,6.15-14.384c4.647,1.2,8.293,8.5,5.941,15.964-1.711,5.429,1.524,18.634-1.8,36.12-1.74,9.145-6.805,11.31-16.633,5.762-6.887-3.888-19.322-12.886-19.322-12.886l-9.437-31.393C317.052,149.889,319.263,154.206,328.3,162.088Z" transform="translate(-309.152 -134.888)" fill="#ffa8a7"/>
                  <path id="Path_61425" data-name="Path 61425" d="M312.044,160.125c4.485.883,7.569,3.173,12.694,8.289s15.956,14.9,15.956,14.9a26.21,26.21,0,0,0-.479,15.143c1.921,7.374,4.886,8.616,4.886,8.616s-2.336.678-8.548-3.312-19.965-13.851-19.965-13.851Z" transform="translate(-310.503 -146.674)" fill="#004bb2"/>
                  <path id="Path_61426" data-name="Path 61426" d="M362.593,199.645s-1.083,16.932,4.122,21.647,8.508,1.612,8.508,1.612-.272,4.811-3.426,4.653-3.647.088-5.5.031-4.766-.316-6.082-4.019c-3.88-7.5-2.454-17.342.246-23.271C361.38,200.749,361.373,199.454,362.593,199.645Z" transform="translate(-331.886 -165.122)" fill="url(#linear-gradient)"/>
                </g>
                <g id="Group_26115" data-name="Group 26115" transform="translate(21.75)">
                  <g id="Group_26114" data-name="Group 26114">
                    <g id="Group_26113" data-name="Group 26113">
                      <g id="Group_26112" data-name="Group 26112">
                        <g id="Group_26111" data-name="Group 26111">
                          <path id="Path_61427" data-name="Path 61427" d="M399.295,133.392a17.944,17.944,0,0,1-1.925,6.67c-2.4,6.064-3.746,5.35-6.126,10.013l-5.029-13c-2.191-3.841-.464-5.548,2.921-6.352Z" transform="translate(-366.436 -89.285)" fill="#f28f8f"/>
                          <g id="Megaphone">
                            <g id="Group_26099" data-name="Group 26099" transform="translate(0 25.36)">
                              <path id="Path_61428" data-name="Path 61428" d="M353.23,114.041A7.361,7.361,0,1,0,351.2,103.83,7.361,7.361,0,0,0,353.23,114.041Z" transform="translate(-349.96 -100.56)" fill="#455a64"/>
                              <path id="Path_61429" data-name="Path 61429" d="M356.527,117.372l8.6-4.239a7.361,7.361,0,0,1-14.144,3.446C352.182,118.169,353.761,118.734,356.527,117.372Z" transform="translate(-350.44 -106.432)" fill="#37474f"/>
                            </g>
                            <g id="Group_26101" data-name="Group 26101" transform="translate(8.882 28.434)">
                              <path id="Path_61430" data-name="Path 61430" d="M373.206,112.238l.387-5.911a75.733,75.733,0,0,0,16.58,13.555l-.156,2.364C386.092,121.066,379.295,116.844,373.206,112.238Z" transform="translate(-369.698 -106.327)" fill="#37474f"/>
                              <path id="Path_61431" data-name="Path 61431" d="M366.625,122.572l3.491-.266,6.728,4.434a10.279,10.279,0,0,0,10.1.686h0c-4.561-1.574-11.233-5.867-16.811-10.009Z" transform="translate(-366.625 -111.506)" fill="#455a64"/>
                              <g id="Group_26100" data-name="Group 26100" transform="translate(9.512 10.201)">
                                <path id="Path_61432" data-name="Path 61432" d="M386.384,125.762l-.011.174a.967.967,0,0,1-.487.728l-1.217.6a.267.267,0,0,0-.033.5l.143.1a.967.967,0,0,0,.873.058l1.237-.608a.947.947,0,0,0,.479-.728l.009-.164a.987.987,0,0,0-.394-.786l-.145-.1C386.605,125.384,386.4,125.484,386.384,125.762Z" transform="translate(-384.472 -125.466)" fill="#009cfc"/>
                                <path id="Path_61433" data-name="Path 61433" d="M390.692,128.229l-.011.174a.967.967,0,0,1-.487.727l-1.217.6a.266.266,0,0,0-.033.5l.143.1a.969.969,0,0,0,.874.058l1.237-.608a.947.947,0,0,0,.479-.727l.009-.164a.988.988,0,0,0-.395-.785l-.145-.1C390.914,127.85,390.711,127.95,390.692,128.229Z" transform="translate(-386.484 -126.618)" fill="#009cfc"/>
                                <path id="Path_61434" data-name="Path 61434" d="M395,130.695l-.012.174a.966.966,0,0,1-.486.727l-1.217.6a.266.266,0,0,0-.034.5l.143.1a.97.97,0,0,0,.874.058l1.237-.608a.946.946,0,0,0,.479-.728l.009-.164a.987.987,0,0,0-.394-.785l-.145-.1C395.222,130.317,395.019,130.416,395,130.695Z" transform="translate(-388.496 -127.77)" fill="#009cfc"/>
                              </g>
                            </g>
                            <g id="Group_26107" data-name="Group 26107" transform="translate(2.631)">
                              <g id="Group_26102" data-name="Group 26102" transform="translate(0 22.286)">
                                <path id="Path_61435" data-name="Path 61435" d="M361.278,94.792v0a3.987,3.987,0,0,0-1.956,3.243c-.025.169-.043.345-.055.528-.014.216-.02.43-.017.651a9.6,9.6,0,0,0,.074,1.107,12.2,12.2,0,0,0,.439,2.07,14.494,14.494,0,0,0,2.783,5.127,10.218,10.218,0,0,0,2.046,1.848,4.281,4.281,0,0,0,4.135.739L364.892,112l0-.009a4.792,4.792,0,0,1-4.652-.48,10.08,10.08,0,0,1-1.961-1.751,14.438,14.438,0,0,1-2.866-5.222,12.022,12.022,0,0,1-.438-2.071,9.135,9.135,0,0,1-.074-1.106c0-.221,0-.439.017-.651.011-.181.033-.358.06-.531a4.748,4.748,0,0,1,2.393-3.452v0l.106-.054c.045-.021.091-.045.137-.066Z" transform="translate(-354.896 -94.792)" fill="#009cfc"/>
                                <path id="Path_61436" data-name="Path 61436" d="M367.853,123.157l0-.009a4.792,4.792,0,0,1-4.652-.48,10.08,10.08,0,0,1-1.961-1.751l4.272-2.241a10.216,10.216,0,0,0,2.046,1.848,4.281,4.281,0,0,0,4.135.739Z" transform="translate(-357.857 -105.946)" fill="#009cfc" opacity="0.1"/>
                              </g>
                              <g id="Group_26103" data-name="Group 26103" transform="translate(4.354 21.981)">
                                <path id="Path_61437" data-name="Path 61437" d="M369.322,95.226a13.3,13.3,0,0,1,5.323,10.8c-.125,1.927-.9,3.235-2.038,3.784a.686.686,0,0,1-.063.03,4.281,4.281,0,0,1-4.135-.739,13.313,13.313,0,0,1-5.325-10.8c.127-1.911.886-3.214,2.012-3.771S367.722,94.156,369.322,95.226Z" transform="translate(-363.065 -94.22)" fill="#ba68c8"/>
                                <path id="Path_61438" data-name="Path 61438" d="M369.322,95.226a13.3,13.3,0,0,1,5.323,10.8c-.125,1.927-.9,3.235-2.038,3.784a.686.686,0,0,1-.063.03,4.281,4.281,0,0,1-4.135-.739,13.313,13.313,0,0,1-5.325-10.8c.127-1.911.886-3.214,2.012-3.771S367.722,94.156,369.322,95.226Z" transform="translate(-363.065 -94.22)" fill="#004bb2"/>
                              </g>
                              <g id="Group_26104" data-name="Group 26104" transform="translate(4.741 7.087)">
                                <path id="Path_61439" data-name="Path 61439" d="M379.1,66.275s-.786,6.783,3.8,16.091a40.959,40.959,0,0,0,2.8,4.833c3.865,5.719,7.645,7.987,7.645,7.987-4.692-.959-9.76-1.641-14.771-.473a57.137,57.137,0,0,0-5.776,1.691l0,0c-1.032.505-2.4.29-3.832-.668A10.431,10.431,0,0,1,366.4,93.2a13.779,13.779,0,0,1-1.262-2.081,11.926,11.926,0,0,1-1.327-5.844c.114-1.723.775-2.935,1.8-3.445l0,0a57.362,57.362,0,0,0,4.862-3.549C374.452,75.014,377,70.58,379.1,66.275Z" transform="translate(-363.792 -66.275)" fill="#ba68c8"/>
                                <path id="Path_61440" data-name="Path 61440" d="M379.1,66.275s-.786,6.783,3.8,16.091a40.959,40.959,0,0,0,2.8,4.833c3.865,5.719,7.645,7.987,7.645,7.987-4.692-.959-9.76-1.641-14.771-.473a57.137,57.137,0,0,0-5.776,1.691l0,0c-1.032.505-2.4.29-3.832-.668A10.431,10.431,0,0,1,366.4,93.2a13.779,13.779,0,0,1-1.262-2.081,11.926,11.926,0,0,1-1.327-5.844c.114-1.723.775-2.935,1.8-3.445l0,0a57.362,57.362,0,0,0,4.862-3.549C374.452,75.014,377,70.58,379.1,66.275Z" transform="translate(-363.792 -66.275)" fill="#d8f0ff"/>
                                <path id="Path_61441" data-name="Path 61441" d="M387.981,105.511c3.865,5.719,7.645,7.987,7.645,7.987-4.692-.959-9.761-1.641-14.771-.473a57.141,57.141,0,0,0-5.776,1.691l0,0c-1.032.505-2.4.29-3.832-.668a10.43,10.43,0,0,1-2.562-2.533C373.157,108.965,380.832,105.136,387.981,105.511Z" transform="translate(-366.076 -84.587)" fill="#004bb2" opacity="0.319"/>
                              </g>
                              <g id="Group_26105" data-name="Group 26105" transform="translate(18.729)">
                                <path id="Path_61442" data-name="Path 61442" d="M404.922,55.371a28.285,28.285,0,0,1,8.512,9.645h0c2.847,5.07,4.488,10.943,4.15,16.064-.6,9.118-7.247,12.391-14.842,7.311A24.309,24.309,0,0,1,397.886,84a34.138,34.138,0,0,1-7.405-15.4q-.219-1.158-.331-2.3c-.032-.316-.056-.633-.075-.946v0c-.027-.446-.042-.887-.041-1.324,0-.455.014-.906.044-1.35C390.681,53.567,397.325,50.29,404.922,55.371Z" transform="translate(-390.035 -52.978)" fill="#009cfc"/>
                                <path id="Path_61443" data-name="Path 61443" d="M420.315,75.566c2.847,5.07,4.488,10.943,4.15,16.064-.6,9.118-7.247,12.391-14.842,7.311a24.307,24.307,0,0,1-4.858-4.388l0,0c1.28.212,3.752-.45,3.248-1.822a21.927,21.927,0,0,0,4.314,3.884,9.812,9.812,0,0,0,6.037,2,4.688,4.688,0,0,0,3.624-2.216,10.919,10.919,0,0,0,1.552-5.305,27.861,27.861,0,0,0-3.363-13.942S420.8,76.974,420.315,75.566Z" transform="translate(-396.914 -63.527)" opacity="0.1"/>
                              </g>
                              <g id="Group_26106" data-name="Group 26106" transform="translate(22.247 1.482)">
                                <path id="Path_61444" data-name="Path 61444" d="M407.885,57.768a27.208,27.208,0,0,1,8.5,10.134,27.861,27.861,0,0,1,3.363,13.942,10.919,10.919,0,0,1-1.552,5.305,4.688,4.688,0,0,1-3.624,2.216,9.812,9.812,0,0,1-6.037-2,21.925,21.925,0,0,1-4.314-3.884q-.757-.871-1.459-1.83a31.871,31.871,0,0,1-2.25-3.537q-.209-.381-.409-.765c-.223-.425-.438-.858-.638-1.293a32.133,32.133,0,0,1-1.733-4.559c-.005-.015-.009-.036-.017-.053a28.55,28.55,0,0,1-.718-3.054q-.192-1.09-.282-2.154c-.026-.3-.044-.592-.057-.886q-.021-.528-.018-1.051c0-.337.018-.672.038-1a10.933,10.933,0,0,1,1.55-5.312C400.158,55.094,403.771,55.016,407.885,57.768Z" transform="translate(-396.637 -55.759)" fill="#004bb2"/>
                                <path id="Path_61445" data-name="Path 61445" d="M407.885,57.768a27.208,27.208,0,0,1,8.5,10.134,27.861,27.861,0,0,1,3.363,13.942,10.919,10.919,0,0,1-1.552,5.305,4.688,4.688,0,0,1-3.624,2.216,9.812,9.812,0,0,1-6.037-2,21.925,21.925,0,0,1-4.314-3.884q-.757-.871-1.459-1.83a31.871,31.871,0,0,1-2.25-3.537q-.209-.381-.409-.765c-.223-.425-.438-.858-.638-1.293a32.133,32.133,0,0,1-1.733-4.559c-.005-.015-.009-.036-.017-.053a28.55,28.55,0,0,1-.718-3.054q-.192-1.09-.282-2.154c-.026-.3-.044-.592-.057-.886q-.021-.528-.018-1.051c0-.337.018-.672.038-1a10.933,10.933,0,0,1,1.55-5.312C400.158,55.094,403.771,55.016,407.885,57.768Z" transform="translate(-396.637 -55.759)" fill="#004bb2" opacity="0.4"/>
                              </g>
                            </g>
                            <g id="Group_26110" data-name="Group 26110" transform="translate(25.767 13.902)">
                              <g id="Group_26108" data-name="Group 26108" transform="translate(0 0.137)">
                                <path id="Path_61446" data-name="Path 61446" d="M405.794,79.32l4.47,8.866c-2.044,1.1-4.556,2.426-6.252,5.091-.161-.2-.317-.412-.472-.625a31.921,31.921,0,0,1-2.25-3.537q-.209-.382-.409-.765c-.223-.425-.438-.858-.639-1.293A32.238,32.238,0,0,1,398.51,82.5c-.005-.015-.009-.037-.017-.053-.065-.225-.13-.451-.189-.676C401.5,82.02,405.794,79.32,405.794,79.32Z" transform="translate(-398.305 -79.32)" fill="#333"/>
                              </g>
                              <g id="Group_26109" data-name="Group 26109" transform="translate(6.395)">
                                <path id="Path_61447" data-name="Path 61447" d="M416.36,87.58c-.593.886-1.662.936-2.861.134l-.037-.024a7.883,7.883,0,0,1-3.147-6.389l0-.044a3.065,3.065,0,0,1,.443-1.493c.593-.886,1.662-.936,2.861-.135l.037.025a7.882,7.882,0,0,1,3.147,6.389l0,.044a3.066,3.066,0,0,1-.443,1.493Z" transform="translate(-410.304 -79.062)" fill="#009cfc"/>
                              </g>
                            </g>
                          </g>
                          <path id="Path_61448" data-name="Path 61448" d="M390.469,120.854s1.508-.447,2.039-.562c1.272-.274,2.214-.737,3.165.2.325.32.513.921.881,1.177.417.29,1.251.171,1.751.278a2.373,2.373,0,0,1,1.485.885c.238.334.306.947.627,1.147.4.252,1.09.205,1.545.4,1.023.445,1.31,1.805,1.688,2.737.408,1.006,1.092,2.4.657,3.481a4.756,4.756,0,0,1-1.668,1.952,25.977,25.977,0,0,1-2.578,1.763,1.576,1.576,0,0,1-2.065-.544c-.638-.827-1.853-.519-2.622-1.24-.333-.312-.432-.783-.757-1.1a2.506,2.506,0,0,1-.881-1.181,6.55,6.55,0,0,1,.4-2.947,5.784,5.784,0,0,0-.266-2.584,4.047,4.047,0,0,0-1-1.991Z" transform="translate(-368.878 -84.247)" fill="#ffa8a7"/>
                        </g>
                      </g>
                      <path id="Path_61449" data-name="Path 61449" d="M374.836,143.184c.128-5.675-.215-8.117-.205-10.8.011-3.053,2.129-4.783,4.65-6.825a29.548,29.548,0,0,0,3.771-3.5c.942-1.048,1.777,2.188,1.588,3.4-.228,1.461-1.589,3.129-2.49,4.43-2.051,2.963,6.032,7.1,4.139,16.042C384.4,148.84,374.836,143.184,374.836,143.184Z" transform="translate(-361.482 -85.143)" fill="#ffa8a7"/>
                    </g>
                  </g>
                </g>
              </g>
              <g id="Chest" transform="translate(23.148 4.293)">
                <g id="Group_26122" data-name="Group 26122" transform="translate(0 49.224)">
                  <path id="Path_61450" data-name="Path 61450" d="M277.063,181.408c-.5-17.72-8.346-22.58-11.439-23.861l-12.589-2.512c-3.843.425-20.21,5.334-24.721,6.45-2.9.718-2.766,6.364-4.232,15.671-1.192,7.56-1.854,13.926-2.572,24.464-.6,8.83-1.309,18.888.254,31.384,19.911,6.077,39.02,8.982,53.807-2.363-.345-2.49,1.161-23.221,1.287-29.336S277.2,186.2,277.063,181.408Z" transform="translate(-217.463 -154.158)" fill="#fafafa"/>
                  <g id="Group_26118" data-name="Group 26118" transform="translate(0 2.669)">
                    <g id="Group_26117" data-name="Group 26117">
                      <path id="Path_61451" data-name="Path 61451" d="M221.977,163.458l15.94-5.06s1.347,4.148,4.319,12.14,2.8,12.92,1.915,26.309-1.176,42.18-2.452,54.164c-5.961.277-22.3-4.481-27.175-11.083,0,0,1.687-24.269,2.449-37.969S214.938,166.7,221.977,163.458Z" transform="translate(-214.524 -158.398)" fill="#ba68c8"/>
                      <path id="Path_61452" data-name="Path 61452" d="M221.977,163.458l15.94-5.06s1.347,4.148,4.319,12.14,2.8,12.92,1.915,26.309-1.176,42.18-2.452,54.164c-5.961.277-22.3-4.481-27.175-11.083,0,0,1.687-24.269,2.449-37.969S214.938,166.7,221.977,163.458Z" transform="translate(-214.524 -158.398)" fill="#009cfc"/>
                    </g>
                  </g>
                  <g id="Group_26121" data-name="Group 26121" transform="translate(41.147)">
                    <g id="Group_26119" data-name="Group 26119" transform="translate(0.016 1.732)">
                      <path id="Path_61453" data-name="Path 61453" d="M291.755,158.075c5.211,2.6,8.379,8.946,8.892,17.368s2.379,25.268,2.677,31.619c1.3,27.59,2.7,35,2.7,35,2.592-1.33,5.808-2.911,6.268-6.707-.582-5.906-.946-28.477-.992-33.749s-.343-17.458-.543-23.9-1.746-14.566-7.138-18.935a53.534,53.534,0,0,0-11.673-2.132Z" transform="translate(-291.755 -156.64)" fill="#ba68c8"/>
                      <path id="Path_61454" data-name="Path 61454" d="M291.755,158.075c5.211,2.6,8.379,8.946,8.892,17.368s2.379,25.268,2.677,31.619c1.3,27.59,2.7,35,2.7,35,2.592-1.33,5.808-2.911,6.268-6.707-.582-5.906-.946-28.477-.992-33.749s-.343-17.458-.543-23.9-1.746-14.566-7.138-18.935a53.534,53.534,0,0,0-11.673-2.132Z" transform="translate(-291.755 -156.64)" fill="#009cfc"/>
                    </g>
                    <g id="Group_26120" data-name="Group 26120">
                      <path id="Path_61455" data-name="Path 61455" d="M301.012,178.8c-.176-6.179-2.644-17.431-9.059-20.269a5.319,5.319,0,0,1-.213-1.972l.352-3.167a27.185,27.185,0,0,1,5.39,3.273c2.684,2.11,7.072,8.462,7.906,13.338C302.748,167.3,301.247,171.154,301.012,178.8Z" transform="translate(-291.725 -153.39)" fill="#d8f0ff"/>
                      <path id="Path_61456" data-name="Path 61456" d="M301.012,178.8c-.176-6.179-2.644-17.431-9.059-20.269a5.319,5.319,0,0,1-.213-1.972l.352-3.167a27.185,27.185,0,0,1,5.39,3.273c2.684,2.11,7.072,8.462,7.906,13.338C302.748,167.3,301.247,171.154,301.012,178.8Z" transform="translate(-291.725 -153.39)" fill="#d8f0ff" opacity="0.45"/>
                    </g>
                  </g>
                </g>
                <g id="Head" transform="translate(12.49)">
                  <path id="Path_61457" data-name="Path 61457" d="M249.7,106.821c-1.132-4.2-5.808-8.261-8.077-11.805-2.188-3.417-3.553-6.1-3.665-9.5-.066-2.012.937-4.844,2.366-5.554a9.333,9.333,0,0,1,5.725-12.241,31.818,31.818,0,0,0,3.992-1.533c1.547-.827,1.788-2.158,2.982-3.384,2.056-2.112,5.818-2.512,7.526.226,1.305-2.067,3.329-2.209,5.718-1.838a4,4,0,0,1,3.48,4.211c2.952-2.042,6.023-.112,6.484,1.695.34,1.332.16,2.5,1.161,3.629,1.127,1.27,3.009,1.068,3.477-.09.5,1.891-.107,3.427-2.2,3.519a4.385,4.385,0,0,1,.891,3.616,4,4,0,0,1-3.339,3.089,6.112,6.112,0,0,1-2.893,5.463c-3.012,1.8-6.455,2.624-9.786,3.65L259.591,91.2c-.23.071-1.441.261-1.566.483Z" transform="translate(-237.958 -61.034)" fill="#263238"/>
                  <g id="Group_26123" data-name="Group 26123" transform="translate(1.795 13.077)">
                    <path id="Path_61458" data-name="Path 61458" d="M245.573,113.244a4.159,4.159,0,0,0,5.027-.627l.348,7.531.173,8.156s8.542,9.115,20.108,8.563c.585-2.6-.261-7.162-2.124-9.4l-.289-6.672a41.252,41.252,0,0,0,5.062-.709,8.909,8.909,0,0,0,6.5-7.418,38.664,38.664,0,0,0-.931-14.58,12.6,12.6,0,0,1-.515-3.5,16.61,16.61,0,0,0-1.76-7.45c-3.97-2.621-14.46-2.247-21.954,3.343,2.089,3.893,1.41,8.118-1.861,10.249.282,1.262.748,4.475-1.358,4.616-1.517.1-1.8-1.788-3.51-3.312-1.747-1.556-5.381-1.629-6.551.969A8.21,8.21,0,0,0,245.573,113.244Z" transform="translate(-241.325 -85.569)" fill="#ffa8a7"/>
                    <path id="Path_61459" data-name="Path 61459" d="M278.529,142.988c-5.375-.123-9.468-.317-12.6-3.906a33.429,33.429,0,0,1-3.8-6,26.055,26.055,0,0,0,3.028,7.68c1.571,2.331,5.051,4.068,13.453,3.994Z" transform="translate(-251.039 -107.76)" fill="#f28f8f"/>
                  </g>
                  <g id="Group_26124" data-name="Group 26124" transform="translate(20.13 20.337)">
                    <path id="Path_61460" data-name="Path 61460" d="M282.343,111.33a1.5,1.5,0,1,1-1.624-1.439A1.528,1.528,0,0,1,282.343,111.33Z" transform="translate(-277.415 -104.186)" fill="#263238"/>
                    <path id="Path_61461" data-name="Path 61461" d="M279.1,103.624,276,105.578a1.927,1.927,0,0,1,.6-2.6A1.791,1.791,0,0,1,279.1,103.624Z" transform="translate(-275.727 -100.833)" fill="#263238"/>
                    <path id="Path_61462" data-name="Path 61462" d="M305.085,101.385l-3.644-.638a1.776,1.776,0,0,1,2.075-1.529A1.943,1.943,0,0,1,305.085,101.385Z" transform="translate(-287.736 -99.19)" fill="#263238"/>
                    <path id="Path_61463" data-name="Path 61463" d="M305.042,108.443A1.5,1.5,0,1,1,303.418,107,1.527,1.527,0,0,1,305.042,108.443Z" transform="translate(-288.016 -102.837)" fill="#263238"/>
                    <path id="Path_61464" data-name="Path 61464" d="M298.356,114.256l-4.983,2.8L290.8,107.009C292.664,106.135,295.6,110.588,298.356,114.256Z" transform="translate(-282.765 -102.79)" fill="#f28f8f"/>
                  </g>
                  <g id="Group_26125" data-name="Group 26125" transform="translate(25.626 37.518)">
                    <path id="Path_61465" data-name="Path 61465" d="M286.053,131.427l6.382.742a3.156,3.156,0,0,1-3.486,2.919A3.365,3.365,0,0,1,286.053,131.427Z" transform="translate(-286.039 -131.427)" fill="#b16668"/>
                    <path id="Path_61466" data-name="Path 61466" d="M286.987,133.2a3.482,3.482,0,0,0-.774.084,3.323,3.323,0,0,0,2.817,2.63,3.068,3.068,0,0,0,1.028-.067A2.942,2.942,0,0,0,286.987,133.2Z" transform="translate(-286.12 -132.257)" fill="#f28f8f"/>
                  </g>
                </g>
                <g id="Group_26126" data-name="Group 26126" transform="translate(20.008 47.655)">
                  <path id="Path_61467" data-name="Path 61467" d="M262.237,179.673c-.373-12.132-5.341-13.216-6.866-9.381a24.48,24.48,0,0,1-3.154-14.8,44.99,44.99,0,0,0,2.39-3.915,2.41,2.41,0,0,1,1.355-1.136l.145,3.05a20.431,20.431,0,0,0,3.555,8.294C262,165.268,262.543,169.5,262.237,179.673Z" transform="translate(-252.063 -150.446)" fill="url(#linear-gradient-2)"/>
                  <path id="Path_61468" data-name="Path 61468" d="M262.237,179.673c-.373-12.132-5.341-13.216-6.866-9.381a24.48,24.48,0,0,1-3.154-14.8,44.99,44.99,0,0,0,2.39-3.915,2.41,2.41,0,0,1,1.355-1.136l.145,3.05a20.431,20.431,0,0,0,3.555,8.294C262,165.268,262.543,169.5,262.237,179.673Z" transform="translate(-252.063 -150.446)" opacity="0.45" fill="url(#linear-gradient-2)"/>
                </g>
              </g>
              <g id="Arm" transform="translate(0 60.228)">
                <path id="Path_61469" data-name="Path 61469" d="M206.6,165.98c-9.672,2.925-13.988,4.54-17.133,10.8s-8.615,21.747-11.666,31.137c-2.614,8.048-4.044,15.377-2.308,19.083l18.833-6.128,9.942-24.342S210.724,181.422,206.6,165.98Z" transform="translate(-172.79 -165.98)" fill="#004bb2"/>
                <g id="Group_26127" data-name="Group 26127" transform="translate(0 40.185)">
                  <path id="Path_61470" data-name="Path 61470" d="M192.2,248.836c1.375-.173,2.749.041,4.059-.44a1.843,1.843,0,0,0,.642-3.458,12.14,12.14,0,0,0-6.134-3.169,18.932,18.932,0,0,0-13.056,2.05c-2.363,1.273-5.253,3-5.419,6.009a10.849,10.849,0,0,1-.123,2.7c-.182.576-.563,1.07-.773,1.637a5.721,5.721,0,0,0-.269,1.6,4.25,4.25,0,0,0,.174,1.939c.163.387.436.721.6,1.107a14.874,14.874,0,0,1,.415,1.84c.354,1.24,1.7,2.668,2.819,1.422,1.018-1.13,1.366-2.671,2.032-4a11.665,11.665,0,0,1,3.575-3.747,35.759,35.759,0,0,1,5.9-3.465,23.123,23.123,0,0,1,4.919-1.911A6.336,6.336,0,0,1,192.2,248.836Z" transform="translate(-171.093 -241.376)" fill="url(#linear-gradient)"/>
                </g>
                <path id="Path_61471" data-name="Path 61471" d="M201.214,243.97c-1.784,2.135-7.17,2.768-10.959,3.826s-8.454,2.863-11.044,6.821c-2.281,3.485-4.69,6.352-3.553,9.089.783,1.886,5.1,2.892,10.16,2.924s9.6-4.573,14.94-7.806c4.577-2.772,6.675-4.061,6.675-4.061Z" transform="translate(-173.089 -202.403)" fill="#f28f8f"/>
                <g id="Group_26128" data-name="Group 26128" transform="translate(15.294 35.133)">
                  <path id="Path_61472" data-name="Path 61472" d="M219.048,241.389c-1.649-1.715-1.923-3.433-4.388-4.9s-4.036-1.445-6.663-2.849-4.762-2.136-6.777-1.524-1.722,1.767-.235,2.743,4.044,2.267,5.813,3.61,3.508,2.12,3.469,4.393a100.986,100.986,0,0,1-1,10.748c-.561,3.8-1.375,6.869-1.1,7.285s1.908.635,2.952-1.473,2.493-9.835,2.493-9.835.636,5.393.867,9.1.3,6.541.391,7.334,2.727.234,3.2-2.551.083-11.081.083-11.081,2.111,3.812,3.468,6.283,3.032,5.834,3.589,6.667,2.249-.592,1.891-2.821-3.1-7.725-3.1-7.725,3.375,3.665,3.971,4.031,2.434.112,1.851-2.354c-.39-1.647-1.416-2.713-4.123-5.928s-2.649-4.526-3.481-5.99C221.126,242.631,220.244,242.634,219.048,241.389Z" transform="translate(-199.789 -231.898)" fill="#ffa8a7"/>
                  <path id="Path_61473" data-name="Path 61473" d="M223.006,251.361c2.728,1.271,5.448.086,5.833-.591C228.623,252.661,224.824,253.7,223.006,251.361Z" transform="translate(-210.632 -240.711)" fill="#f28f8f"/>
                  <path id="Path_61474" data-name="Path 61474" d="M249.037,273.928a1.249,1.249,0,0,1-1.727-.151c-.685-.595-2.358-2.546-3.117-3.447s-3.364-4.1-3.364-4.1l2.339,4.6s3.375,3.665,3.971,4.031A1.348,1.348,0,0,0,249.037,273.928Z" transform="translate(-218.955 -247.933)" fill="#f28f8f"/>
                </g>
              </g>
            </g>
          </g>
        </g>
      </g>
      <g id="Speech_Bubble" data-name="Speech Bubble" transform="translate(27.693 29.338)">
        <g id="Speech_Bubble-2" data-name="Speech Bubble">
          <g id="Speech_Bubble-3" data-name="Speech Bubble" transform="translate(9.328)">
            <g id="Group_26130" data-name="Group 26130">
              <g id="Group_26129" data-name="Group 26129">
                <path id="Path_61475" data-name="Path 61475" d="M134.835,64.016C131.677,74.794,123.3,83.408,96.466,88.593l1.419,7.58L87.559,89.925c-.181.037-20.254.851-29.9-4.548-12.238-6.847-14.594-22.743-7.588-33.939,6.035-9.645,15.042-15.5,34.472-19.332,21.119-4.161,37.826-.972,45.458,7.553C136.625,47.064,136.518,58.275,134.835,64.016Z" transform="translate(-45.645 -29.783)" fill="#fff"/>
                <path id="Path_61476" data-name="Path 61476" d="M97.434,96.235a.51.51,0,0,1-.263-.074l-10.2-6.171c-2.322.1-20.848.513-30.015-4.615A22.741,22.741,0,0,1,45.992,71a26.161,26.161,0,0,1,3.193-20.274c6.524-10.428,16.283-15.912,34.8-19.561,20.774-4.093,37.946-1.21,45.934,7.712,6.759,7.55,6.662,18.99,4.949,24.837h0c-3.822,13.042-14.923,20.256-38.266,24.837l1.327,7.085a.508.508,0,0,1-.5.6Zm-10.3-7.268a.442.442,0,0,1,.235.079l9.357,5.66-1.211-6.465a.507.507,0,0,1,.4-.592c28.766-5.558,35.255-14.928,37.98-24.222h0c1.65-5.63,1.751-16.634-4.731-23.875C121.419,30.9,104.6,28.137,84.184,32.159c-18.21,3.588-27.782,8.944-34.14,19.1a25.141,25.141,0,0,0-3.07,19.484A21.734,21.734,0,0,0,57.45,84.489c9.473,5.3,29.414,4.5,29.6,4.487A.419.419,0,0,1,87.135,88.967Zm47.249-25.4h0Z" transform="translate(-45.193 -29.338)" fill="#009cfc"/>
              </g>
            </g>
          </g>
          <g id="Group_26131" data-name="Group 26131" transform="translate(85.259 2.16)">
            <path id="Path_61478" data-name="Path 61478" d="M190.129,48.135l12.828-13.649,10.107,3.224Z" transform="translate(-188.813 -33.902)" fill="#009cfc"/>
            <path id="Path_61479" data-name="Path 61479" d="M187.659,45.4l8.65-12-6.345.676Z" transform="translate(-187.659 -33.391)" fill="#009cfc"/>
            <path id="Path_61480" data-name="Path 61480" d="M193.746,59.74l17.606-3.146-2.3,5.377Z" transform="translate(-190.501 -44.227)" fill="#009cfc"/>
          </g>
          <g id="Group_26132" data-name="Group 26132" transform="translate(0 43.133)">
            <path id="Path_61481" data-name="Path 61481" d="M50.628,116.854,37.8,130.5l-10.107-3.224Z" transform="translate(-27.693 -113.342)" fill="#009cfc"/>
            <path id="Path_61482" data-name="Path 61482" d="M65.617,121.034l-8.65,12,6.345-.676Z" transform="translate(-41.364 -115.294)" fill="#009cfc"/>
            <path id="Path_61483" data-name="Path 61483" d="M51.682,112.5l-17.606,3.146,2.3-5.377Z" transform="translate(-30.674 -110.265)" fill="#009cfc"/>
          </g>
          <g id="Sparkles" transform="translate(13.878 7.742)">
            <path id="Path_61484" data-name="Path 61484" d="M193.495,85.35a.107.107,0,0,1-.091-.111,1.792,1.792,0,0,0-1.676-1.676.093.093,0,1,1,0-.182A1.792,1.792,0,0,0,193.4,81.7c0-.062.043-.112.091-.112a.107.107,0,0,1,.091.112,1.791,1.791,0,0,0,1.676,1.676.093.093,0,1,1,0,.182,1.791,1.791,0,0,0-1.676,1.676A.107.107,0,0,1,193.495,85.35Z" transform="translate(-118.126 -61.483)" fill="#f3aa3c"/>
            <path id="Path_61485" data-name="Path 61485" d="M161.776,47.706a.11.11,0,0,1-.093-.115,1.831,1.831,0,0,0-1.714-1.714.1.1,0,1,1,0-.187,1.832,1.832,0,0,0,1.714-1.714.11.11,0,0,1,.093-.115c.05,0,.089.051.093.115a1.832,1.832,0,0,0,1.714,1.714.1.1,0,1,1,0,.187,1.831,1.831,0,0,0-1.714,1.714C161.865,47.654,161.826,47.706,161.776,47.706Z" transform="translate(-103.293 -43.863)" fill="#f3aa3c"/>
            <path id="Path_61486" data-name="Path 61486" d="M62.06,88.2a.113.113,0,0,1-.1-.117,1.876,1.876,0,0,0-1.755-1.755.1.1,0,1,1,0-.191,1.877,1.877,0,0,0,1.755-1.755.113.113,0,0,1,.1-.118c.051,0,.091.053.1.117a1.876,1.876,0,0,0,1.755,1.755.1.1,0,1,1,0,.191,1.876,1.876,0,0,0-1.755,1.755C62.151,88.146,62.11,88.2,62.06,88.2Z" transform="translate(-56.702 -62.73)" fill="#f3aa3c"/>
            <path id="Path_61487" data-name="Path 61487" d="M65.14,103.157a.077.077,0,0,1-.066-.08,1.293,1.293,0,0,0-1.21-1.21c-.044,0-.08-.031-.08-.066a.077.077,0,0,1,.08-.066,1.293,1.293,0,0,0,1.21-1.21.078.078,0,0,1,.066-.081c.035,0,.063.036.066.081a1.294,1.294,0,0,0,1.21,1.21c.045,0,.081.03.081.066s-.036.063-.081.066a1.293,1.293,0,0,0-1.21,1.209A.078.078,0,0,1,65.14,103.157Z" transform="translate(-58.426 -70.287)" fill="#f3aa3c"/>
            <path id="Path_61488" data-name="Path 61488" d="M153.8,51.9a.053.053,0,0,1-.045-.055.889.889,0,0,0-.831-.831.046.046,0,1,1,0-.09.889.889,0,0,0,.831-.832.053.053,0,0,1,.045-.055c.024,0,.043.025.045.055a.888.888,0,0,0,.831.831c.03,0,.055.021.055.045a.053.053,0,0,1-.055.045.889.889,0,0,0-.831.831C153.843,51.877,153.824,51.9,153.8,51.9Z" transform="translate(-100.03 -46.746)" fill="#f3aa3c"/>
            <path id="Path_61489" data-name="Path 61489" d="M200.053,92.8c-.022,0-.04-.023-.042-.052a.825.825,0,0,0-.771-.771.043.043,0,1,1,0-.084.825.825,0,0,0,.771-.771.043.043,0,1,1,.084,0,.825.825,0,0,0,.771.771.043.043,0,1,1,0,.084.825.825,0,0,0-.771.771A.05.05,0,0,1,200.053,92.8Z" transform="translate(-121.662 -65.911)" fill="#f3aa3c"/>
            <path id="Path_61490" data-name="Path 61490" d="M54.455,97.189a.041.041,0,0,1-.035-.043.691.691,0,0,0-.646-.647.041.041,0,0,1-.043-.035c0-.019.019-.034.043-.035a.69.69,0,0,0,.646-.646c0-.023.017-.043.035-.043a.041.041,0,0,1,.035.043.691.691,0,0,0,.647.646c.023,0,.043.017.043.035a.041.041,0,0,1-.043.035.691.691,0,0,0-.647.646A.041.041,0,0,1,54.455,97.189Z" transform="translate(-53.731 -68.09)" fill="#f3aa3c"/>
          </g>
          <g id="Group_15943" data-name="Group 15943" transform="translate(24.579 16.442)">
            <path id="Path_46164" data-name="Path 46164" d="M84.692,121.959a5.313,5.313,0,0,1,1.44-3.615,5.471,5.471,0,0,1,1.71-1.215,5.922,5.922,0,0,1,4.972.173A4.156,4.156,0,0,1,94.5,118.99l-2.235,1.59a1.888,1.888,0,0,0-.4-.645,2.023,2.023,0,0,0-.547-.4,2.372,2.372,0,0,0-.622-.21,3.425,3.425,0,0,0-.623-.06,2.185,2.185,0,0,0-1.837.893,2.791,2.791,0,0,0-.435.9,3.641,3.641,0,0,0-.142,1,3.421,3.421,0,0,0,.165,1.065,2.778,2.778,0,0,0,.479.9,2.345,2.345,0,0,0,.773.622,2.234,2.234,0,0,0,1.027.233,2.962,2.962,0,0,0,.615-.067,2.289,2.289,0,0,0,.607-.225,2.052,2.052,0,0,0,.525-.405,1.789,1.789,0,0,0,.367-.607l2.385,1.425a3.041,3.041,0,0,1-.727,1.05,4.641,4.641,0,0,1-1.11.78,5.891,5.891,0,0,1-1.335.479,6.14,6.14,0,0,1-1.387.165,4.93,4.93,0,0,1-2.168-.473,5.494,5.494,0,0,1-1.694-1.252,5.685,5.685,0,0,1-1.1-1.77A5.437,5.437,0,0,1,84.692,121.959Z" transform="translate(-84.692 -116.65)" fill="#009cfc"/>
            <path id="Path_46165" data-name="Path 46165" d="M109.282,127.463a5.121,5.121,0,0,1-2.2-.465,5.456,5.456,0,0,1-1.695-1.222,5.538,5.538,0,0,1-1.095-1.733,5.359,5.359,0,0,1-.39-2.009,5.227,5.227,0,0,1,.405-2.025,5.385,5.385,0,0,1,1.132-1.717,5.525,5.525,0,0,1,1.725-1.185,5.325,5.325,0,0,1,2.182-.442,5.129,5.129,0,0,1,2.2.465,5.406,5.406,0,0,1,1.695,1.23,5.53,5.53,0,0,1,1.087,1.74,5.42,5.42,0,0,1,.383,1.994,5.175,5.175,0,0,1-.405,2.017,5.454,5.454,0,0,1-1.125,1.71,5.538,5.538,0,0,1-1.717,1.193A5.247,5.247,0,0,1,109.282,127.463Zm-2.414-5.4a3.612,3.612,0,0,0,.15,1.042,2.725,2.725,0,0,0,.45.892,2.269,2.269,0,0,0,.758.63,2.564,2.564,0,0,0,2.182-.007,2.218,2.218,0,0,0,.758-.645,2.786,2.786,0,0,0,.435-.907,3.822,3.822,0,0,0,.142-1.034,3.63,3.63,0,0,0-.15-1.042,2.575,2.575,0,0,0-.458-.885,2.313,2.313,0,0,0-.765-.615,2.339,2.339,0,0,0-1.073-.233,2.309,2.309,0,0,0-1.087.24,2.23,2.23,0,0,0-.758.638,2.7,2.7,0,0,0-.442.9A3.747,3.747,0,0,0,106.868,122.064Z" transform="translate(-93.7 -116.65)" fill="#009cfc"/>
            <path id="Path_46166" data-name="Path 46166" d="M134.661,127.427v-5.61l-1.785,3.944h-1.56l-1.785-3.944v5.61h-2.925V116.778H129.8l2.294,5.009,2.31-5.009h3.18v10.649Z" transform="translate(-104.35 -116.703)" fill="#009cfc"/>
            <path id="Path_46167" data-name="Path 46167" d="M150.727,127.427V116.778h2.925v10.649Z" transform="translate(-115.662 -116.703)" fill="#009cfc"/>
            <path id="Path_46168" data-name="Path 46168" d="M162.606,122.192v5.235h-2.925V116.778h2.28l4.275,5.414v-5.414h2.924v10.649h-2.324Z" transform="translate(-119.862 -116.703)" fill="#009cfc"/>
            <path id="Path_46169" data-name="Path 46169" d="M187.7,126.475a3.956,3.956,0,0,1-2.625.96,5.419,5.419,0,0,1-1.98-.367,4.723,4.723,0,0,1-1.65-1.073,5.2,5.2,0,0,1-1.125-1.725,6.063,6.063,0,0,1-.42-2.325,5.2,5.2,0,0,1,1.575-3.772,5.467,5.467,0,0,1,1.732-1.125,5.583,5.583,0,0,1,2.152-.412,5.921,5.921,0,0,1,1.38.157,4.921,4.921,0,0,1,1.222.465,4.81,4.81,0,0,1,1.012.735,3.721,3.721,0,0,1,.735.967l-2.174,1.665a2.454,2.454,0,0,0-.945-1.013,2.532,2.532,0,0,0-1.335-.382,2.181,2.181,0,0,0-.96.21,2.243,2.243,0,0,0-.75.585,2.8,2.8,0,0,0-.5.892,3.676,3.676,0,0,0,0,2.273,2.649,2.649,0,0,0,.5.877,2.224,2.224,0,0,0,.772.57,2.425,2.425,0,0,0,1.005.2,2.988,2.988,0,0,0,2.249-1.05h-1.845v-2.1h4.38v5.669H187.7Z" transform="translate(-129.346 -116.637)" fill="#009cfc"/>
          </g>
          <g id="Group_15944" data-name="Group 15944" transform="translate(22.92 30.75)">
            <path id="Path_46170" data-name="Path 46170" d="M92.126,144.24a12.092,12.092,0,0,0-1.369-.707,12.549,12.549,0,0,0-1.336-.5,4.825,4.825,0,0,0-1.446-.232,2.007,2.007,0,0,0-.917.177.618.618,0,0,0-.342.6.686.686,0,0,0,.2.508,1.881,1.881,0,0,0,.574.365,7.247,7.247,0,0,0,.917.32q.541.155,1.226.375a16.154,16.154,0,0,1,1.954.729,6.08,6.08,0,0,1,1.491.939,3.616,3.616,0,0,1,.949,1.314A4.759,4.759,0,0,1,94.357,150a4.947,4.947,0,0,1-.519,2.374,4.256,4.256,0,0,1-1.369,1.535,5.765,5.765,0,0,1-1.922.828,9.3,9.3,0,0,1-2.153.254,12.219,12.219,0,0,1-1.767-.132,15.292,15.292,0,0,1-1.8-.375,15.634,15.634,0,0,1-1.723-.575,10.934,10.934,0,0,1-1.535-.751l1.855-3.776a12.877,12.877,0,0,0,1.612.861,11.375,11.375,0,0,0,1.6.6,6.374,6.374,0,0,0,1.822.265,1.853,1.853,0,0,0,.983-.187.575.575,0,0,0,.276-.5.711.711,0,0,0-.276-.563,2.528,2.528,0,0,0-.762-.409q-.486-.177-1.116-.353t-1.336-.42a11.454,11.454,0,0,1-1.789-.762,4.843,4.843,0,0,1-1.237-.927,3.316,3.316,0,0,1-.718-1.182,4.6,4.6,0,0,1-.232-1.523,5.265,5.265,0,0,1,.475-2.3,4.714,4.714,0,0,1,1.292-1.656,5.778,5.778,0,0,1,1.866-1.005,7.116,7.116,0,0,1,2.219-.342,8.465,8.465,0,0,1,1.678.166,13.5,13.5,0,0,1,1.579.42,15.048,15.048,0,0,1,1.425.552q.663.3,1.193.563Z" transform="translate(-81.569 -138.984)" fill="#f3aa3c"/>
            <path id="Path_46171" data-name="Path 46171" d="M115.534,154.969a7.539,7.539,0,0,1-3.247-.685,8.028,8.028,0,0,1-2.5-1.8,8.133,8.133,0,0,1-1.612-2.551,7.888,7.888,0,0,1-.575-2.959,7.7,7.7,0,0,1,.6-2.982,7.924,7.924,0,0,1,1.667-2.529,8.135,8.135,0,0,1,2.54-1.744,7.835,7.835,0,0,1,3.214-.652,7.547,7.547,0,0,1,3.247.684,7.957,7.957,0,0,1,2.5,1.811,8.126,8.126,0,0,1,1.6,2.562,7.982,7.982,0,0,1,.563,2.938,7.614,7.614,0,0,1-.6,2.97,8.055,8.055,0,0,1-1.656,2.517,8.147,8.147,0,0,1-2.529,1.756A7.721,7.721,0,0,1,115.534,154.969Zm-3.556-7.951a5.338,5.338,0,0,0,.221,1.535,4.006,4.006,0,0,0,.663,1.314,3.337,3.337,0,0,0,1.115.928,3.779,3.779,0,0,0,3.214-.011,3.258,3.258,0,0,0,1.115-.949,4.093,4.093,0,0,0,.641-1.337,5.642,5.642,0,0,0,.21-1.523,5.343,5.343,0,0,0-.221-1.535,3.792,3.792,0,0,0-.674-1.3,3.4,3.4,0,0,0-1.126-.905,3.442,3.442,0,0,0-1.579-.342,3.4,3.4,0,0,0-1.6.354,3.287,3.287,0,0,0-1.115.938,3.962,3.962,0,0,0-.652,1.325A5.506,5.506,0,0,0,111.978,147.019Z" transform="translate(-93.78 -139.023)" fill="#f3aa3c"/>
            <path id="Path_46172" data-name="Path 46172" d="M147.351,154.969a7.538,7.538,0,0,1-3.246-.685,8.028,8.028,0,0,1-2.5-1.8A8.133,8.133,0,0,1,140,149.934a7.888,7.888,0,0,1-.575-2.959,7.7,7.7,0,0,1,.6-2.982,7.924,7.924,0,0,1,1.667-2.529,8.135,8.135,0,0,1,2.54-1.744,7.835,7.835,0,0,1,3.214-.652,7.547,7.547,0,0,1,3.247.684,7.957,7.957,0,0,1,2.5,1.811,8.126,8.126,0,0,1,1.6,2.562,7.982,7.982,0,0,1,.563,2.938,7.614,7.614,0,0,1-.6,2.97,8.046,8.046,0,0,1-1.657,2.517,8.139,8.139,0,0,1-2.529,1.756A7.722,7.722,0,0,1,147.351,154.969Zm-3.556-7.951a5.338,5.338,0,0,0,.221,1.535,4.006,4.006,0,0,0,.663,1.314,3.337,3.337,0,0,0,1.115.928,3.779,3.779,0,0,0,3.214-.011,3.258,3.258,0,0,0,1.115-.949,4.092,4.092,0,0,0,.641-1.337,5.642,5.642,0,0,0,.21-1.523,5.342,5.342,0,0,0-.221-1.535,3.792,3.792,0,0,0-.674-1.3,3.4,3.4,0,0,0-1.126-.905,3.442,3.442,0,0,0-1.579-.342,3.4,3.4,0,0,0-1.6.354,3.294,3.294,0,0,0-1.116.938,3.961,3.961,0,0,0-.651,1.325A5.506,5.506,0,0,0,143.8,147.019Z" transform="translate(-108.702 -139.023)" fill="#f3aa3c"/>
            <path id="Path_46173" data-name="Path 46173" d="M177.169,147.207v7.707h-4.306v-15.68h3.357l6.294,7.973v-7.973h4.307v15.68H183.4Z" transform="translate(-124.386 -139.101)" fill="#f3aa3c"/>
          </g>
        </g>
      </g>
      <g id="Exclamation_Mark" data-name="Exclamation Mark" transform="translate(187.353 33.986)">
        <g id="Exclamation">
          <g id="Group_26133" data-name="Group 26133" transform="translate(5.394 10.202)">
            <path id="Path_61491" data-name="Path 61491" d="M339.08,67.307a.648.648,0,0,1,.9-.075l2.285,1.942a.65.65,0,0,1,.074.906l-1.556,1.831a.652.652,0,0,1-.906.074L337.6,70.043a.621.621,0,0,1-.221-.438.614.614,0,0,1,.148-.467Zm8.4-9.882a.65.65,0,0,1,.9-.074l2.285,1.942a.651.651,0,0,1,.074.906l-6.64,7.815a.649.649,0,0,1-.9.073l-2.285-1.942a.649.649,0,0,1-.074-.9Z" transform="translate(-337.373 -57.201)" fill="#f3aa3c"/>
          </g>
          <g id="Group_26134" data-name="Group 26134">
            <path id="Path_61492" data-name="Path 61492" d="M327.654,51.39a.649.649,0,0,1,.738-.529l2.958.49a.652.652,0,0,1,.53.739l-.393,2.371a.651.651,0,0,1-.739.528l-2.958-.49a.65.65,0,0,1-.529-.738Zm2.12-12.792a.65.65,0,0,1,.738-.529l2.958.49A.651.651,0,0,1,334,39.3l-1.677,10.117a.651.651,0,0,1-.739.528l-2.958-.49a.65.65,0,0,1-.528-.739Z" transform="translate(-327.252 -38.06)" fill="#f3aa3c"/>
          </g>
          <g id="Group_26135" data-name="Group 26135" opacity="0.3">
            <path id="Path_61493" data-name="Path 61493" d="M327.654,51.39a.649.649,0,0,1,.738-.529l2.958.49a.652.652,0,0,1,.53.739l-.393,2.371a.651.651,0,0,1-.739.528l-2.958-.49a.65.65,0,0,1-.529-.738Zm2.12-12.792a.65.65,0,0,1,.738-.529l2.958.49A.651.651,0,0,1,334,39.3l-1.677,10.117a.651.651,0,0,1-.739.528l-2.958-.49a.65.65,0,0,1-.528-.739Z" transform="translate(-327.252 -38.06)" fill="#f3aa3c"/>
          </g>
        </g>
      </g>
      <g id="Likes" transform="translate(29.064 90.611)">
        <g id="Like" transform="translate(218.033)">
          <path id="Path_61494" data-name="Path 61494" d="M441.763,162.591a.29.29,0,0,1-.3-.228l-2.114-9.657a.294.294,0,0,1,.039-.219.289.289,0,0,1,.182-.126l3.2-.7a.286.286,0,0,1,.345.221l2.114,9.657a.294.294,0,0,1-.039.219.288.288,0,0,1-.182.126l-3.2.7A.308.308,0,0,1,441.763,162.591Zm-1.782-9.726,1.99,9.091,2.632-.576-1.99-9.091Zm5.79,7.675a.29.29,0,0,1-.3-.228l-1.816-8.3a.294.294,0,0,1,.014-.17c.543-1.361,1.374-3.517,1.434-3.877a11.576,11.576,0,0,0-.5-2.326c-.07-.248-.124-.443-.145-.538-.026-.119-.033-.422.467-.64a2.208,2.208,0,0,1,2.641.75,6.009,6.009,0,0,1,1.186,3.579l4.078-.893a1.691,1.691,0,0,1,1.97,1.323,1.8,1.8,0,0,1-.213,1.339,1.572,1.572,0,0,1,.937,1.166,1.747,1.747,0,0,1-.624,1.71,2.415,2.415,0,0,1,.358.861,1.944,1.944,0,0,1-.83,1.766,3.192,3.192,0,0,1,.278.767,1.848,1.848,0,0,1-1.547,2.094l-7.34,1.606A.259.259,0,0,1,445.771,160.541Zm-1.528-8.563,1.735,7.928,7.056-1.544a1.289,1.289,0,0,0,1.105-1.4,2.526,2.526,0,0,0-.364-.857.291.291,0,0,1,.172-.454,1.3,1.3,0,0,0,.742-1.223,1.481,1.481,0,0,0-.414-.826.293.293,0,0,1-.107-.264.289.289,0,0,1,.166-.228,1.134,1.134,0,0,0,.621-1.254.967.967,0,0,0-.884-.826.289.289,0,0,1-.192-.5,1.243,1.243,0,0,0,.352-1.179,1.107,1.107,0,0,0-1.279-.881l-4.437.971a.287.287,0,0,1-.248-.061.291.291,0,0,1-.1-.233,5.5,5.5,0,0,0-1.076-3.6,1.566,1.566,0,0,0-1.277-.665,1.405,1.405,0,0,0-.771.176c.026.1.068.249.118.429a9.219,9.219,0,0,1,.518,2.578C445.593,148.572,444.483,151.374,444.243,151.978Z" transform="translate(-439.346 -144.3)" fill="#009cfc"/>
        </g>
        <g id="Like-2" data-name="Like" transform="translate(0 122.268)">
          <path id="Path_61495" data-name="Path 61495" d="M46.591,395.417l-3.8-.831a.344.344,0,0,1-.216-.15.35.35,0,0,1-.046-.26l2.511-11.468a.341.341,0,0,1,.41-.263l3.8.831a.343.343,0,0,1,.216.15.35.35,0,0,1,.046.26L47,395.155a.345.345,0,0,1-.352.27A.312.312,0,0,1,46.591,395.417Zm-.951-12.225-2.363,10.8,3.125.684,2.363-10.8Zm-3.809,9.79-8.715-1.908a2.194,2.194,0,0,1-1.837-2.486,3.78,3.78,0,0,1,.33-.911,2.31,2.31,0,0,1-.985-2.1,2.867,2.867,0,0,1,.425-1.023,2.074,2.074,0,0,1-.741-2.031,1.867,1.867,0,0,1,1.113-1.385,2.131,2.131,0,0,1-.253-1.59,2.008,2.008,0,0,1,2.339-1.571l4.843,1.06a7.137,7.137,0,0,1,1.408-4.25,2.622,2.622,0,0,1,3.137-.891c.594.258.586.618.555.761-.025.112-.09.344-.173.639a13.744,13.744,0,0,0-.6,2.761c.07.429,1.057,2.988,1.7,4.6a.343.343,0,0,1,.017.2l-2.158,9.854a.344.344,0,0,1-.352.27A.312.312,0,0,1,41.831,392.982ZM42,378.174a10.943,10.943,0,0,1,.615-3.061c.06-.213.11-.391.141-.509a1.664,1.664,0,0,0-.916-.209,1.86,1.86,0,0,0-1.516.79,6.536,6.536,0,0,0-1.279,4.272.345.345,0,0,1-.418.35l-5.267-1.153A1.314,1.314,0,0,0,31.84,379.7a1.476,1.476,0,0,0,.418,1.4.344.344,0,0,1-.228.594,1.148,1.148,0,0,0-1.05.981,1.346,1.346,0,0,0,.738,1.488.346.346,0,0,1,.069.584,1.765,1.765,0,0,0-.491.981,1.546,1.546,0,0,0,.882,1.453.344.344,0,0,1,.2.539,3,3,0,0,0-.432,1.017,1.531,1.531,0,0,0,1.313,1.666l8.379,1.833,2.061-9.414C43.418,382.1,42.1,378.776,42,378.174Z" transform="translate(-30.266 -373.704)" fill="#009cfc"/>
        </g>
        <g id="Like-3" data-name="Like" transform="translate(200.034 65.31)">
          <path id="Path_61496" data-name="Path 61496" d="M417.792,275.03s-.69-3.891-.667-4.459a16.985,16.985,0,0,1,1.334-2.987c.172-.385-1.594-1.347-2.8-.208a6.206,6.206,0,0,0-2.01,3.725l-4.455-1.99a1.5,1.5,0,0,0-1.95.8,1.65,1.65,0,0,0,.142,1.623,1.361,1.361,0,0,0-1.451.855,1.533,1.533,0,0,0,.482,1.833,1.856,1.856,0,0,0-.763.931,1.677,1.677,0,0,0,.672,1.861,3,3,0,0,0-.644.925,1.69,1.69,0,0,0,1.014,2.129l7.371,3.292Z" transform="translate(-405.575 -266.837)" fill="#009cfc"/>
          <path id="Path_61497" data-name="Path 61497" d="M422.557,292.346l3.216,1.434,4.327-9.7-3.21-1.434Zm1.649-.793a.628.628,0,1,1,.628.628A.626.626,0,0,1,424.206,291.553Z" transform="translate(-413.506 -274.22)" fill="#009cfc"/>
        </g>
        <g id="Like-4" data-name="Like" transform="translate(3.733 11.384)">
          <path id="Path_61498" data-name="Path 61498" d="M44.888,173.852s.69-3.891.667-4.458a16.927,16.927,0,0,0-1.334-2.987c-.172-.385,1.594-1.347,2.8-.208a6.2,6.2,0,0,1,2.01,3.725l4.455-1.99a1.5,1.5,0,0,1,1.95.805,1.65,1.65,0,0,1-.141,1.623,1.361,1.361,0,0,1,1.45.854,1.533,1.533,0,0,1-.481,1.833,1.854,1.854,0,0,1,.762.931,1.675,1.675,0,0,1-.672,1.86,3,3,0,0,1,.644.926,1.69,1.69,0,0,1-1.014,2.129l-7.371,3.292Z" transform="translate(-40.511 -165.659)" fill="#004bb2"/>
          <path id="Path_61499" data-name="Path 61499" d="M40.48,181.468,37.27,182.9l4.326,9.7,3.217-1.434ZM42.535,191a.628.628,0,1,1,.628-.628A.625.625,0,0,1,42.535,191Z" transform="translate(-37.27 -173.042)" fill="#004bb2"/>
        </g>
      </g>
    </g>
  </g>
</svg>
