<svg xmlns="http://www.w3.org/2000/svg" width="20.21" height="20.668" viewBox="0 0 20.21 20.668">
  <g id="calendar_9_" data-name="calendar (9)" transform="translate(-5.411)">
    <g id="Group_18720" data-name="Group 18720" transform="translate(5.411)">
      <path id="Path_52555" data-name="Path 52555" d="M119.61,258.711a.469.469,0,0,0-.469-.469H117.5a.469.469,0,0,0-.469.469v1.637a.469.469,0,0,0,.469.469h1.637a.469.469,0,0,0,.469-.469v-1.637Z" transform="translate(-112.309 -247.308)" fill="#f17b00"/>
      <path id="Path_52556" data-name="Path 52556" d="M216.245,258.711a.469.469,0,0,0-.469-.469h-1.637a.469.469,0,0,0-.469.469v1.637a.469.469,0,0,0,.469.469h1.637a.469.469,0,0,0,.469-.469Z" transform="translate(-204.853 -247.308)" fill="#f17b00"/>
      <path id="Path_52557" data-name="Path 52557" d="M312.873,258.711a.469.469,0,0,0-.469-.469h-1.637a.469.469,0,0,0-.469.469v1.637a.469.469,0,0,0,.469.469H312.4a.469.469,0,0,0,.469-.469Z" transform="translate(-297.389 -247.308)" fill="#f17b00"/>
      <path id="Path_52558" data-name="Path 52558" d="M119.61,355.344a.469.469,0,0,0-.469-.469H117.5a.469.469,0,0,0-.469.469v1.637a.469.469,0,0,0,.469.469h1.637a.469.469,0,0,0,.469-.469v-1.637Z" transform="translate(-112.309 -339.85)" fill="#f17b00"/>
      <path id="Path_52559" data-name="Path 52559" d="M216.245,355.344a.469.469,0,0,0-.469-.469h-1.637a.469.469,0,0,0-.469.469v1.637a.469.469,0,0,0,.469.469h1.637a.469.469,0,0,0,.469-.469Z" transform="translate(-204.853 -339.85)" fill="#f17b00"/>
      <path id="Path_52560" data-name="Path 52560" d="M312.873,355.344a.469.469,0,0,0-.469-.469h-1.637a.469.469,0,0,0-.469.469v1.637a.469.469,0,0,0,.469.469H312.4a.469.469,0,0,0,.469-.469v-1.637Z" transform="translate(-297.389 -339.85)" fill="#f17b00"/>
      <path id="Path_52561" data-name="Path 52561" d="M23.822,54.151v2.5a2.042,2.042,0,0,1-2.047,2.041H20.484a2.052,2.052,0,0,1-2.059-2.041V54.142H12.606v2.509a2.052,2.052,0,0,1-2.059,2.041H9.256A2.042,2.042,0,0,1,7.21,56.651v-2.5A1.861,1.861,0,0,0,5.411,56V70.654a1.862,1.862,0,0,0,1.853,1.864h16.5a1.864,1.864,0,0,0,1.853-1.864V56A1.861,1.861,0,0,0,23.822,54.151Zm-.6,15.591a.8.8,0,0,1-.8.8H8.575a.8.8,0,0,1-.8-.8V62.173a.8.8,0,0,1,.8-.8H22.421a.8.8,0,0,1,.8.8v7.568Z" transform="translate(-5.411 -51.85)" fill="#f17b00"/>
      <path id="Path_52562" data-name="Path 52562" d="M80.252,5.5h1.277a.7.7,0,0,0,.7-.7V.7a.7.7,0,0,0-.7-.7H80.252a.7.7,0,0,0-.7.7V4.8A.7.7,0,0,0,80.252,5.5Z" transform="translate(-76.411 0)" fill="#f17b00"/>
      <path id="Path_52563" data-name="Path 52563" d="M345.16,5.5h1.277a.7.7,0,0,0,.7-.7V.7a.7.7,0,0,0-.7-.7H345.16a.7.7,0,0,0-.7.7V4.8A.7.7,0,0,0,345.16,5.5Z" transform="translate(-330.103 0)" fill="#f17b00"/>
    </g>
  </g>
</svg>
