<svg xmlns="http://www.w3.org/2000/svg" width="18.09" height="18.09" viewBox="0 0 18.09 18.09">
  <g id="_226587_clock_icon" data-name="226587_clock_icon" transform="translate(-4 -4)">
    <path id="Path_90523" data-name="Path 90523" d="M13.045,4a9.045,9.045,0,1,0,9.045,9.045A9.045,9.045,0,0,0,13.045,4Zm0,16.445a7.4,7.4,0,1,1,7.4-7.4A7.4,7.4,0,0,1,13.045,20.445Z" transform="translate(0 0)" fill="#707070"/>
    <path id="Path_90524" data-name="Path 90524" d="M45.645,25.415V20.822a.822.822,0,1,0-1.645,0v4.934s0,0,0,.006a.8.8,0,0,0,.016.155c0,.025.014.048.021.073a.823.823,0,0,0,.025.081.845.845,0,0,0,.043.081c.011.021.02.041.033.061a.8.8,0,0,0,.1.126l2.325,2.325A.822.822,0,0,0,47.73,27.5Z" transform="translate(-31.777 -12.711)" fill="#707070"/>
  </g>
</svg>
