<svg xmlns="http://www.w3.org/2000/svg" width="12" height="15" viewBox="0 0 12 15">
  <path id="Path_56733" data-name="Path 56733" d="M43.25,157.5H32.75a.75.75,0,0,0,0,1.5h10.5a.75.75,0,0,0,0-1.5Zm-5.783-1.718a.744.744,0,0,0,.248.158.707.707,0,0,0,.57,0,.744.744,0,0,0,.248-.158l3-3a.753.753,0,0,0-1.065-1.066l-1.717,1.726V144.75a.75.75,0,0,0-1.5,0v8.693l-1.717-1.726a.769.769,0,0,0-.244-.163.757.757,0,0,0-.576,0,.769.769,0,0,0-.244.163.755.755,0,0,0,0,1.066Z" transform="translate(-32 -144)" fill="#707070"/>
</svg>
