<svg id="checked" xmlns="http://www.w3.org/2000/svg" width="31.961" height="31.961" viewBox="0 0 31.961 31.961">
  <g id="Group_12887" data-name="Group 12887" transform="translate(7.589 4.016)">
    <g id="Group_12886" data-name="Group 12886">
      <path id="Path_43024" data-name="Path 43024" d="M145.026,64.681a1.2,1.2,0,0,0-1.7,0L128.872,79.092l-5.214-5.663a1.2,1.2,0,0,0-1.772,1.632l6.063,6.585a1.2,1.2,0,0,0,.86.388h.026a1.206,1.206,0,0,0,.85-.351l15.338-15.3A1.2,1.2,0,0,0,145.026,64.681Z" transform="translate(-121.568 -64.327)" fill="#ffa812"/>
    </g>
  </g>
  <g id="Group_12889" data-name="Group 12889">
    <g id="Group_12888" data-name="Group 12888">
      <path id="Path_43025" data-name="Path 43025" d="M30.756,14.776a1.2,1.2,0,0,0-1.2,1.2A13.571,13.571,0,1,1,15.98,2.409,1.2,1.2,0,1,0,15.98,0a15.98,15.98,0,1,0,15.98,15.98A1.2,1.2,0,0,0,30.756,14.776Z" fill="#ffa812"/>
    </g>
  </g>
</svg>
