<svg id="exclamation-mark" xmlns="http://www.w3.org/2000/svg" width="38.981" height="38.981" viewBox="0 0 38.981 38.981">
  <path id="Path_43697" data-name="Path 43697" d="M19.491,0A19.491,19.491,0,1,0,38.981,19.491,19.492,19.492,0,0,0,19.491,0Zm0,35.327A15.836,15.836,0,1,1,35.327,19.491,15.836,15.836,0,0,1,19.491,35.327Zm0-26.779c-1.4,0-2.452.729-2.452,1.905V21.246c0,1.178,1.056,1.9,2.452,1.9,1.362,0,2.452-.756,2.452-1.9V10.453C21.944,9.3,20.854,8.548,19.492,8.548Zm0,17.034a2.433,2.433,0,1,0,2.432,2.434A2.436,2.436,0,0,0,19.492,25.582Z" fill="#ffa812"/>
</svg>
