<svg id="checked" xmlns="http://www.w3.org/2000/svg" width="32.089" height="31.961" viewBox="0 0 32.089 31.961">
  <g id="Group_12889" data-name="Group 12889">
    <g id="Group_12888" data-name="Group 12888">
      <path id="Path_43025" data-name="Path 43025" d="M30.756,14.776a1.2,1.2,0,0,0-1.2,1.2A13.571,13.571,0,1,1,15.98,2.409,1.2,1.2,0,1,0,15.98,0a15.98,15.98,0,1,0,15.98,15.98A1.2,1.2,0,0,0,30.756,14.776Z" fill="#ff1f30"/>
    </g>
  </g>
  <path id="Union_36" data-name="Union 36" d="M-4972.032-7828.881v-7.745h-7.745a1.223,1.223,0,0,1-1.223-1.223,1.223,1.223,0,0,1,1.223-1.223h7.745v-7.744a1.222,1.222,0,0,1,1.221-1.223,1.223,1.223,0,0,1,1.223,1.223v7.744h7.745a1.223,1.223,0,0,1,1.223,1.223,1.223,1.223,0,0,1-1.223,1.223h-7.745v7.745a1.223,1.223,0,0,1-1.223,1.223A1.223,1.223,0,0,1-4972.032-7828.881Z" transform="translate(9074.767 2042.55) rotate(-45)" fill="#ff1f30"/>
</svg>
