<svg id="eye_1_" data-name="eye (1)" xmlns="http://www.w3.org/2000/svg" width="17.948" height="10.083" viewBox="0 0 17.948 10.083">
  <g id="Group_12229" data-name="Group 12229" transform="translate(0 0)">
    <g id="Group_12228" data-name="Group 12228" transform="translate(0)">
      <path id="Path_42498" data-name="Path 42498" d="M17.873,59.017a9.264,9.264,0,0,1-3.544,3.754l1.9,1.9a.7.7,0,1,1-.991.991l-2.226-2.226a10.5,10.5,0,0,1-3.333.771v3.178a.7.7,0,0,1-1.4,0V64.2a10.5,10.5,0,0,1-3.333-.771L2.714,65.66a.7.7,0,1,1-.991-.991l1.9-1.9A9.263,9.263,0,0,1,.076,59.017a.7.7,0,0,1,1.252-.632,8.488,8.488,0,0,0,7.647,4.44,8.488,8.488,0,0,0,7.647-4.44.7.7,0,0,1,1.252.632Z" transform="translate(0 -58)" fill="#707070"/>
    </g>
  </g>
</svg>
