<svg id="eye_1_" data-name="eye (1)" xmlns="http://www.w3.org/2000/svg" width="17.948" height="13.882" viewBox="0 0 17.948 13.882">
  <g id="Group_12229" data-name="Group 12229" transform="translate(0 0)">
    <g id="Group_12228" data-name="Group 12228" transform="translate(0 0)">
      <path id="Path_42497" data-name="Path 42497" d="M169.158,274a3.155,3.155,0,1,0,3.155,3.155A3.158,3.158,0,0,0,169.158,274Zm0,4.908a1.753,1.753,0,1,1,1.753-1.753A1.755,1.755,0,0,1,169.158,278.908Z" transform="translate(-160.184 -266.428)" fill="#707070"/>
      <path id="Path_42498" data-name="Path 42498" d="M17.873,67.066a9.264,9.264,0,0,0-3.544-3.754l1.9-1.9a.7.7,0,1,0-.991-.991l-2.226,2.226a10.494,10.494,0,0,0-3.333-.771V58.7a.7.7,0,1,0-1.4,0v3.178a10.5,10.5,0,0,0-3.333.771L2.714,60.423a.7.7,0,1,0-.991.991l1.9,1.9A9.263,9.263,0,0,0,.076,67.066a.7.7,0,0,0,1.252.632,8.488,8.488,0,0,1,7.647-4.44,8.488,8.488,0,0,1,7.647,4.44.7.7,0,1,0,1.252-.632Z" transform="translate(0 -58)" fill="#707070"/>
    </g>
  </g>
</svg>
