<svg xmlns="http://www.w3.org/2000/svg" width="34" height="34" viewBox="0 0 34 34">
  <g id="Group_25007" data-name="Group 25007" transform="translate(-328 -136)">
    <circle id="Ellipse_2261" data-name="Ellipse 2261" cx="17" cy="17" r="17" transform="translate(328 136)" fill="#ffe4ce"/>
    <g id="edit_5_" data-name="edit (5)" transform="translate(337 142.999)">
      <path id="Path_53621" data-name="Path 53621" d="M14.657,10.171a.771.771,0,0,0-.771.771v6.171a.772.772,0,0,1-.771.771H2.314a.772.772,0,0,1-.771-.771V6.314a.772.772,0,0,1,.771-.771H8.485A.771.771,0,0,0,8.485,4H2.314A2.317,2.317,0,0,0,0,6.314v10.8a2.317,2.317,0,0,0,2.314,2.314h10.8a2.317,2.317,0,0,0,2.314-2.314V10.943A.771.771,0,0,0,14.657,10.171Z" transform="translate(0 -0.914)" fill="#f17b00"/>
      <path id="Path_53622" data-name="Path 53622" d="M9.181,9.28a.391.391,0,0,0-.106.2L8.53,12.2a.386.386,0,0,0,.379.461.365.365,0,0,0,.076-.008l2.727-.545a.384.384,0,0,0,.2-.106l6.1-6.1L15.285,3.177Z" transform="translate(-1.948 -0.726)" fill="#f17b00"/>
      <path id="Path_53623" data-name="Path 53623" d="M22.144.565a1.93,1.93,0,0,0-2.727,0L18.349,1.632l2.727,2.727,1.068-1.068a1.928,1.928,0,0,0,0-2.727Z" transform="translate(-4.195)" fill="#f17b00"/>
    </g>
  </g>
</svg>
