<svg xmlns="http://www.w3.org/2000/svg" width="16.041" height="14.697" viewBox="0 0 16.041 14.697">
  <g id="Group_12842" data-name="Group 12842" transform="translate(0 0)">
    <path id="Path_35029" data-name="Path 35029" d="M79.681,81.678H70.124a1.971,1.971,0,0,0-3.737,0H64.894a.627.627,0,0,0,0,1.255h1.492a1.971,1.971,0,0,0,3.737,0h9.557a.627.627,0,1,0,0-1.255ZM68.255,83.022a.717.717,0,1,1,.717-.717A.718.718,0,0,1,68.255,83.022Z" transform="translate(-64.267 -80.334)" fill="#333"/>
    <path id="Path_35030" data-name="Path 35030" d="M79.681,210.211H78.189a1.971,1.971,0,0,0-3.737,0H64.895a.627.627,0,0,0,0,1.255h9.557a1.971,1.971,0,0,0,3.737,0h1.492a.627.627,0,1,0,0-1.255Zm-3.36,1.344a.717.717,0,1,1,.717-.717A.718.718,0,0,1,76.32,211.555Z" transform="translate(-64.267 -203.49)" fill="#333"/>
    <path id="Path_35031" data-name="Path 35031" d="M79.681,338.744H72.812a1.971,1.971,0,0,0-3.737,0h-4.18a.627.627,0,0,0,0,1.255h4.18a1.971,1.971,0,0,0,3.737,0h6.869a.627.627,0,1,0,0-1.255Zm-8.737,1.344a.717.717,0,1,1,.717-.717A.718.718,0,0,1,70.943,340.088Z" transform="translate(-64.267 -326.646)" fill="#333"/>
  </g>
</svg>
