<svg xmlns="http://www.w3.org/2000/svg" width="19.717" height="22.532" viewBox="0 0 19.717 22.532">
  <g id="fingerprint_2_" data-name="fingerprint (2)" transform="translate(-1.5)">
    <path id="Path_47771" data-name="Path 47771" d="M19.4,4.521a.7.7,0,0,1-.474-.184,11.032,11.032,0,0,0-14.975,0A.7.7,0,1,1,3,3.3a12.442,12.442,0,0,1,16.873,0A.7.7,0,0,1,19.4,4.521Z" transform="translate(-0.078)" fill="#707070"/>
    <path id="Path_47772" data-name="Path 47772" d="M20.512,9.3a.7.7,0,0,1-.585-.312,10.348,10.348,0,0,0-8.569-4.648A10.348,10.348,0,0,0,2.789,8.991a.7.7,0,1,1-1.17-.785,11.755,11.755,0,0,1,9.739-5.271A11.754,11.754,0,0,1,21.1,8.207a.7.7,0,0,1-.585,1.1Z" transform="translate(0 -0.179)" fill="#707070"/>
    <path id="Path_47773" data-name="Path 47773" d="M9.353,23.071a.7.7,0,0,1-.5-.208c-.154-.155-3.762-3.838-3.762-7.384A6.59,6.59,0,0,1,11.577,8.8a6.59,6.59,0,0,1,6.486,6.674.7.7,0,0,1-1.408,0,5.18,5.18,0,0,0-5.078-5.266A5.18,5.18,0,0,0,6.5,15.478c0,2.973,3.321,6.359,3.354,6.393a.7.7,0,0,1-.5,1.2Z" transform="translate(-0.22 -0.538)" fill="#707070"/>
    <path id="Path_47774" data-name="Path 47774" d="M13.628,22.891c-1.694,0-5.62-3.222-6-6.81A4.553,4.553,0,0,1,8.706,12.61a3.591,3.591,0,0,1,2.678-1.229h.02a3.749,3.749,0,0,1,2.657,1.1A3.936,3.936,0,0,1,15.222,15.3v.459a1.966,1.966,0,1,0,3.929,0V15.6A8.09,8.09,0,0,0,11.92,7.3,7.541,7.541,0,0,0,6.213,9.346,8.225,8.225,0,0,0,5.434,20.41a.7.7,0,1,1-1.1.879A9.634,9.634,0,0,1,5.25,8.317,8.931,8.931,0,0,1,12.013,5.89,9.5,9.5,0,0,1,20.559,15.6v.161a3.374,3.374,0,1,1-6.746,0V15.3a2.54,2.54,0,0,0-.745-1.816,2.346,2.346,0,0,0-1.664-.695h-.013a2.178,2.178,0,0,0-1.635.76,3.122,3.122,0,0,0-.729,2.384c.311,2.927,3.675,5.551,4.6,5.551a.7.7,0,1,1,0,1.407Z" transform="translate(-0.046 -0.359)" fill="#707070"/>
    <path id="Path_47775" data-name="Path 47775" d="M16.787,22.052c-2.52,0-5.6-3.079-5.6-6.674a.7.7,0,1,1,1.408,0c0,2.786,2.342,5.266,4.188,5.266a.7.7,0,0,1,0,1.408Z" transform="translate(-0.593 -0.897)" fill="#707070"/>
  </g>
</svg>
