<svg xmlns="http://www.w3.org/2000/svg" xmlns:xlink="http://www.w3.org/1999/xlink" width="163.565" height="161.655" viewBox="0 0 163.565 161.655">
  <defs>
    <linearGradient id="linear-gradient" x1="0.5" x2="0.5" y2="1" gradientUnits="objectBoundingBox">
      <stop offset="0" stop-color="#f17b00"/>
      <stop offset="1" stop-color="#d20043"/>
    </linearGradient>
  </defs>
  <g id="Group_26779" data-name="Group 26779" transform="translate(-299.854 -137.439)">
    <path id="Path_56706" data-name="Path 56706" d="M78.582,0c43.4,0,78.582,6.019,78.582,13.443S121.981,26.885,78.582,26.885,0,20.867,0,13.443,35.182,0,78.582,0Z" transform="translate(302.048 272.209)" fill="#ebebeb" opacity="0.56"/>
    <path id="Path_299" data-name="Path 299" d="M373.384,276.715c-27.559-5.8-48.56-26.2-60.733-58.971a170.721,170.721,0,0,1-9.895-45.859l-.473-9.346,73.687-26.045,73.687,26.045-.473,9.346a170.725,170.725,0,0,1-9.895,45.859c-12.173,32.775-33.174,53.168-60.733,58.971l-2.586.545Z" transform="translate(0.121 0.946)" fill="#ffe4ce"/>
    <path id="Path_300" data-name="Path 300" d="M433.608,171.886l-58.364-20.63h0l-58.365,20.63s3.952,78.17,58.365,89.629h0C429.656,250.056,433.608,171.886,433.608,171.886Z" transform="translate(0.847 1.681)" fill="url(#linear-gradient)"/>
    <g id="Group_172" data-name="Group 172" transform="translate(369.824 189.763)">
      <path id="Path_301" data-name="Path 301" d="M372.339,248.9l26.761-3.823h23.527l21.027,4.117-36.172,18.233Z" transform="translate(-366.218 -183.414)" fill="#333"/>
      <path id="Path_302" data-name="Path 302" d="M421.756,267.976s-47.347-26.027-52.935-17.5c-8.072,12.321,4.264,18.527,48.23,30.291Z" transform="translate(-366.508 -183.231)" fill="#58595b"/>
      <g id="Group_167" data-name="Group 167" transform="translate(50.116 85.974)">
        <path id="Path_303" data-name="Path 303" d="M432.432,280.013h0a5.549,5.549,0,0,0-3-7.25l-10.933-4.528-4.245,10.254,10.933,4.527A5.549,5.549,0,0,0,432.432,280.013Z" transform="translate(-414.249 -268.236)" fill="#333"/>
        <path id="Path_304" data-name="Path 304" d="M417.772,269.811l8.272,3.425a3.76,3.76,0,1,1-2.877,6.947l-8.272-3.425Z" transform="translate(-414.217 -268.158)" fill="url(#linear-gradient)"/>
        <path id="Path_305" data-name="Path 305" d="M414.965,276.356l10.933,4.528a5.538,5.538,0,0,0,6.8-2.176,5.469,5.469,0,0,1-7.52,3.905l-10.933-4.527Z" transform="translate(-414.249 -267.832)" fill="#063272" opacity="0.45"/>
        <path id="Path_306" data-name="Path 306" d="M418.381,276.732l1.747-4.221a.42.42,0,0,1,.547-.226h0a.418.418,0,0,1,.226.546l-1.748,4.22a.419.419,0,0,1-.546.227h0A.419.419,0,0,1,418.381,276.732Z" transform="translate(-414.045 -268.036)" fill="#e6e6e6"/>
        <path id="Path_307" data-name="Path 307" d="M420.831,277.747l1.748-4.221a.419.419,0,0,1,.546-.226h0a.419.419,0,0,1,.227.546l-1.748,4.221a.419.419,0,0,1-.546.226h0A.419.419,0,0,1,420.831,277.747Z" transform="translate(-413.923 -267.986)" fill="#e6e6e6"/>
        <path id="Path_308" data-name="Path 308" d="M423.529,278.864l1.748-4.221a.42.42,0,0,1,.546-.227h0a.42.42,0,0,1,.227.546l-1.748,4.221a.419.419,0,0,1-.546.227h0A.419.419,0,0,1,423.529,278.864Z" transform="translate(-413.789 -267.93)" fill="#e6e6e6"/>
      </g>
      <path id="Path_309" data-name="Path 309" d="M438.4,234.763c-.728-2.5-4.351-6.737-7.573-15.424-3.349-9.031-17.621-10-17.621-10l-5.541,2.966-5.541-2.966s-14.272.973-17.622,10c-3.221,8.687-6.844,12.922-7.573,15.424s3.2,18.689,14.491,20.98h32.49C435.191,253.452,439.124,237.264,438.4,234.763Z" transform="translate(-365.994 -185.192)" fill="#d20043"/>
      <g id="Group_170" data-name="Group 170" transform="translate(30.427)">
        <g id="Group_168" data-name="Group 168" transform="translate(5.733 24.201)">
          <path id="Path_310" data-name="Path 310" d="M412.62,209.391v4.44s-1.025,4.958-5.854,5.783a7.538,7.538,0,0,1-5.811-5.783v-4.44Z" transform="translate(-400.954 -209.391)" fill="#f49290"/>
        </g>
        <g id="Group_169" data-name="Group 169">
          <path id="Path_311" data-name="Path 311" d="M395.956,201.819s-1.651-10.376,2.3-11.637c1.075-.343.29-3.77,6.3-3.812,8.2-.058,14.666-1.16,13.589,15.591Z" transform="translate(-395.487 -186.337)" fill="#333"/>
          <path id="Path_312" data-name="Path 312" d="M401.162,202.31a2.834,2.834,0,1,0-2.834,2.834A2.834,2.834,0,0,0,401.162,202.31Z" transform="translate(-395.493 -185.683)" fill="#ffb5b1"/>
          <path id="Path_313" data-name="Path 313" d="M417.608,202.31a2.834,2.834,0,1,0-2.834,2.834A2.834,2.834,0,0,0,417.608,202.31Z" transform="translate(-394.675 -185.683)" fill="#ffb5b1"/>
          <path id="Path_314" data-name="Path 314" d="M416.37,197.782l-.015-.005v0h-.006a4.467,4.467,0,0,1-2.809-3.762l-1.241.349a18.957,18.957,0,0,1-10.5-.1l-.99-.249a4.5,4.5,0,0,1-2.934,3.762h-.023l-.079,4.593a15.346,15.346,0,0,0,2.935,8.42,7.9,7.9,0,0,0,12.711,0,15.344,15.344,0,0,0,2.934-8.42l0-4.573Z" transform="translate(-395.379 -185.955)" fill="#ffb5b1"/>
        </g>
      </g>
      <rect id="Rectangle_142" data-name="Rectangle 142" width="35.878" height="23.919" rx="2.866" transform="translate(24.015 49.847)" fill="#d6d6d6"/>
      <circle id="Ellipse_52" data-name="Ellipse 52" cx="3.725" cy="3.725" r="3.725" transform="translate(38.119 57.836)" fill="#fff"/>
      <path id="Path_315" data-name="Path 315" d="M392.37,267.976s47.347-26.027,52.935-17.5c8.072,12.321-4.265,18.527-48.23,30.291Z" transform="translate(-365.221 -183.231)" fill="#58595b"/>
      <g id="Group_171" data-name="Group 171" transform="translate(13.675 85.974)">
        <path id="Path_316" data-name="Path 316" d="M379.958,280.013h0a5.548,5.548,0,0,1,3-7.25l10.932-4.528,4.246,10.254-10.933,4.527A5.549,5.549,0,0,1,379.958,280.013Z" transform="translate(-379.534 -268.236)" fill="#333"/>
        <path id="Path_317" data-name="Path 317" d="M397.252,276.758l-8.272,3.425a3.76,3.76,0,1,1-2.877-6.947l8.272-3.425Z" transform="translate(-379.323 -268.158)" fill="url(#linear-gradient)"/>
        <path id="Path_318" data-name="Path 318" d="M397.418,276.356l-10.933,4.528a5.538,5.538,0,0,1-6.8-2.176,5.477,5.477,0,0,0,.271.9,5.549,5.549,0,0,0,7.25,3l10.933-4.527Z" transform="translate(-379.527 -267.832)" fill="#333" opacity="0.45"/>
        <path id="Path_319" data-name="Path 319" d="M393.25,276.732l-1.748-4.221a.419.419,0,0,0-.546-.226h0a.418.418,0,0,0-.226.546l1.748,4.22a.418.418,0,0,0,.546.227h0A.419.419,0,0,0,393.25,276.732Z" transform="translate(-378.979 -268.036)" fill="#e6e6e6"/>
        <path id="Path_320" data-name="Path 320" d="M390.8,277.747l-1.747-4.221a.419.419,0,0,0-.546-.226h0a.418.418,0,0,0-.227.546l1.748,4.221a.419.419,0,0,0,.546.226h0A.419.419,0,0,0,390.8,277.747Z" transform="translate(-379.101 -267.986)" fill="#e6e6e6"/>
        <path id="Path_321" data-name="Path 321" d="M388.1,278.864l-1.748-4.221a.42.42,0,0,0-.546-.227h0a.419.419,0,0,0-.227.546l1.748,4.221a.419.419,0,0,0,.546.227h0A.42.42,0,0,0,388.1,278.864Z" transform="translate(-379.235 -267.93)" fill="#e6e6e6"/>
      </g>
    </g>
    <g id="Group_177" data-name="Group 177" transform="translate(299.854 194.734)">
      <g id="Group_175" data-name="Group 175">
        <g id="Group_173" data-name="Group 173" transform="translate(15.468 4.645)">
          <path id="Path_322" data-name="Path 322" d="M324,251.693s-12.543-20.025-8.661-22.927,7.688,8.886,9.674,7-6.92-18.73-2.715-22.351,3.891,8.675,7.463,10.959-1.933-16.757,2.341-19.732,6.332,6.5,6.332,6.5,4.739-18.856,11.111-15.159-9.769,22.681-5.979,22.03,7.683-7.059,10.971-2.741-18.244,15.311-14.792,15.028,9.567-4.564,10.629-.748-17.471,10.7-15.551,12.02,11.607-6.16,13.134-.653S327.843,255.2,324,251.693Z" transform="translate(-314.589 -195.497)" fill="#ffd584"/>
          <path id="Path_323" data-name="Path 323" d="M322.1,259.172a65.447,65.447,0,0,0,5.8-12.59c.794-2.337,1.471-4.755,2.127-7.094.3-1.065.6-2.131.908-3.192a154.594,154.594,0,0,1,14.515-33.958l.245.142a154.37,154.37,0,0,0-14.489,33.9c-.31,1.061-.609,2.126-.907,3.189-.656,2.343-1.335,4.765-2.131,7.109a65.808,65.808,0,0,1-5.827,12.645Z" transform="translate(-314.215 -195.156)" fill="#fff"/>
          <path id="Path_324" data-name="Path 324" d="M335.272,221.822a.142.142,0,0,1-.054-.073,64.1,64.1,0,0,1-2.836-13.289.141.141,0,0,1,.281-.028,63.911,63.911,0,0,0,2.823,13.23.141.141,0,0,1-.09.178A.146.146,0,0,1,335.272,221.822Z" transform="translate(-313.704 -194.859)" fill="#fff"/>
          <path id="Path_325" data-name="Path 325" d="M333.459,226.583a.168.168,0,0,1-.035-.033.142.142,0,0,1,.031-.2,111.487,111.487,0,0,1,12.219-8.125,10.734,10.734,0,0,1,2.567-1.094.141.141,0,1,1,.066.274,10.524,10.524,0,0,0-2.5,1.069,111.364,111.364,0,0,0-12.188,8.1A.14.14,0,0,1,333.459,226.583Z" transform="translate(-313.653 -194.42)" fill="#fff"/>
          <path id="Path_326" data-name="Path 326" d="M331.148,235.073a.162.162,0,0,1-.038-.038,57.114,57.114,0,0,1-5.209-9.33,72.309,72.309,0,0,1-2.509-7.493.141.141,0,0,1,.271-.08,72.137,72.137,0,0,0,2.5,7.464,56.814,56.814,0,0,0,5.184,9.282.141.141,0,0,1-.2.2Z" transform="translate(-314.151 -194.375)" fill="#fff"/>
          <path id="Path_327" data-name="Path 327" d="M330.743,234.6a.141.141,0,0,1,.128-.249,2.412,2.412,0,0,0,1.267.008,21.385,21.385,0,0,0,3.35-1.039c.2-.076.4-.15.607-.224,3.2-1.17,6.548-2.063,9.784-2.926a.141.141,0,0,1,.072.273c-3.228.862-6.567,1.752-9.76,2.917l-.6.224a21.476,21.476,0,0,1-3.4,1.052,2.7,2.7,0,0,1-1.416-.02A.113.113,0,0,1,330.743,234.6Z" transform="translate(-313.788 -193.772)" fill="#fff"/>
          <path id="Path_328" data-name="Path 328" d="M327.971,245.818c-3.749-2.578-8.045-9.524-10.586-14.69a.141.141,0,0,1,.253-.124c2.526,5.134,6.789,12.034,10.492,14.581a.141.141,0,0,1-.16.233Z" transform="translate(-314.45 -193.734)" fill="#d2ebff"/>
          <path id="Path_329" data-name="Path 329" d="M327.707,245.4c-.034-.023-.066-.048-.1-.075a.141.141,0,0,1,.18-.218,2.379,2.379,0,0,0,2.107.081l13.681-3.747a.141.141,0,1,1,.075.272l-13.681,3.747A2.73,2.73,0,0,1,327.707,245.4Z" transform="translate(-313.944 -193.211)" fill="#fff"/>
        </g>
        <g id="Group_174" data-name="Group 174">
          <path id="Path_330" data-name="Path 330" d="M323.063,251.547s-21.711-9.406-20.155-14,11.387,2.97,11.951.282-16.336-11.527-14.921-16.9,8.132,4.951,12.376,4.809-11.1-12.729-9.264-17.61,8.91,1.769,8.91,1.769-6.789-18.246.566-18.812,4.809,24.257,7.568,21.569,2.334-10.184,7.5-8.486-6.365,22.984-3.677,20.791,5.3-9.194,8.344-6.647-8.344,18.74-6.011,18.74,6.082-11.669,10.466-7.991S328.226,252.255,323.063,251.547Z" transform="translate(-299.854 -191.072)" fill="#ffa800"/>
          <path id="Path_331" data-name="Path 331" d="M325.608,258.5a65.52,65.52,0,0,0-2.358-13.679c-.671-2.379-1.483-4.76-2.27-7.061-.358-1.049-.716-2.1-1.062-3.149a154.734,154.734,0,0,1-7.292-36.254l.281-.022a154.556,154.556,0,0,0,7.278,36.188c.346,1.051.7,2.1,1.062,3.146.787,2.305,1.6,4.689,2.275,7.074a65.877,65.877,0,0,1,2.367,13.739Z" transform="translate(-299.218 -190.711)" fill="#fff"/>
          <path id="Path_332" data-name="Path 332" d="M316.194,219.584a.148.148,0,0,1-.086-.028,64.21,64.21,0,0,1-9.879-9.356.141.141,0,1,1,.215-.183,63.936,63.936,0,0,0,9.836,9.313.141.141,0,0,1,.026.2A.139.139,0,0,1,316.194,219.584Z" transform="translate(-299.538 -190.132)" fill="#fff"/>
          <path id="Path_333" data-name="Path 333" d="M317.153,224.938a.148.148,0,0,1-.047-.007.142.142,0,0,1-.086-.181,111.666,111.666,0,0,1,5.471-13.636,10.808,10.808,0,0,1,1.5-2.36.143.143,0,0,1,.2-.01.141.141,0,0,1,.011.2,10.486,10.486,0,0,0-1.455,2.3,111.462,111.462,0,0,0-5.458,13.6A.142.142,0,0,1,317.153,224.938Z" transform="translate(-299 -190.194)" fill="#fff"/>
          <path id="Path_334" data-name="Path 334" d="M320.31,232.858a.15.15,0,0,1-.052-.009,57.178,57.178,0,0,1-9.593-4.743,72.694,72.694,0,0,1-6.322-4.759.143.143,0,0,1-.02-.2.14.14,0,0,1,.2-.02,72.4,72.4,0,0,0,6.3,4.741,57,57,0,0,0,9.544,4.718.141.141,0,0,1-.053.272Z" transform="translate(-299.633 -189.479)" fill="#fff"/>
          <path id="Path_335" data-name="Path 335" d="M319.594,233.1a.141.141,0,0,1-.036-.278,2.413,2.413,0,0,0,1.051-.713,21.276,21.276,0,0,0,2.174-2.758l.374-.529c1.98-2.783,4.234-5.417,6.412-7.964a.141.141,0,0,1,.215.184c-2.175,2.542-4.424,5.172-6.4,7.945l-.372.528a21.483,21.483,0,0,1-2.206,2.794,2.7,2.7,0,0,1-1.18.787A.138.138,0,0,1,319.594,233.1Z" transform="translate(-298.879 -189.592)" fill="#fff"/>
          <path id="Path_336" data-name="Path 336" d="M323.786,243.526c-4.556,0-12.043-3.293-17.07-6.114a.142.142,0,0,1,.14-.247c5,2.8,12.429,6.077,16.93,6.077a.142.142,0,1,1,0,.283Z" transform="translate(-299.516 -188.78)" fill="#fff"/>
          <path id="Path_337" data-name="Path 337" d="M323.235,243.762a1.233,1.233,0,0,1-.124-.006.141.141,0,0,1-.129-.152.144.144,0,0,1,.153-.129c.681.052,1.261-.508,1.785-1.128l9.162-10.854a.141.141,0,1,1,.216.182l-9.162,10.854A2.738,2.738,0,0,1,323.235,243.762Z" transform="translate(-298.703 -189.063)" fill="#fff"/>
        </g>
      </g>
      <g id="Group_176" data-name="Group 176" transform="translate(10.143 57.652)">
        <path id="Path_338" data-name="Path 338" d="M312.81,251.872l3.466,21.456a6.283,6.283,0,0,0,6.2,5.279H333.04a6.283,6.283,0,0,0,6.2-5.279l3.466-21.456Z" transform="translate(-309.352 -245.699)" fill="#ebebeb"/>
        <path id="Path_339" data-name="Path 339" d="M342.707,251.872h-29.9l.48,2.973h23.049l-2.987,18.483a6.282,6.282,0,0,1-6.2,5.279h5.888a6.282,6.282,0,0,0,6.2-5.279l2.987-18.483h0Z" transform="translate(-309.352 -245.699)" fill="#d6d6d6"/>
        <path id="Path_340" data-name="Path 340" d="M343.2,245.992H312.64a3.134,3.134,0,0,0-3.124,3.124h0a3.133,3.133,0,0,0,3.124,3.124H343.2a3.133,3.133,0,0,0,3.124-3.124h0A3.134,3.134,0,0,0,343.2,245.992Z" transform="translate(-309.516 -245.992)" fill="#a0a0a0"/>
      </g>
    </g>
    <g id="Group_180" data-name="Group 180" transform="translate(395.535 162.916)">
      <rect id="Rectangle_143" data-name="Rectangle 143" width="67.884" height="20.968" rx="3.02" fill="#d20043"/>
      <g id="Group_178" data-name="Group 178" transform="translate(4.92 2.949)">
        <rect id="Rectangle_144" data-name="Rectangle 144" width="11.092" height="8.422" rx="1.255" transform="translate(0 6.446)" fill="#fff"/>
        <path id="Path_341" data-name="Path 341" d="M404.989,169.065h-1.046v-1.658a2.791,2.791,0,0,0-5.582,0v1.658h-1.047v-1.658a3.837,3.837,0,0,1,7.674,0Z" transform="translate(-395.606 -163.572)" fill="#fff"/>
        <path id="Path_342" data-name="Path 342" d="M402.2,172.721a1.17,1.17,0,1,0-1.747,1.012l-.4,2.305h1.962l-.4-2.305A1.164,1.164,0,0,0,402.2,172.721Z" transform="translate(-395.48 -163.175)" fill="#fff"/>
      </g>
      <g id="Group_179" data-name="Group 179" transform="translate(26.383 9.193)">
        <circle id="Ellipse_53" data-name="Ellipse 53" cx="1.919" cy="1.919" r="1.919" fill="#fff"/>
        <circle id="Ellipse_54" data-name="Ellipse 54" cx="1.919" cy="1.919" r="1.919" transform="translate(7.326)" fill="#fff"/>
        <path id="Path_343" data-name="Path 343" d="M433.929,171.439a1.919,1.919,0,1,1-1.919-1.919A1.92,1.92,0,0,1,433.929,171.439Z" transform="translate(-415.438 -169.52)" fill="#fff"/>
        <path id="Path_344" data-name="Path 344" d="M440.908,171.439a1.919,1.919,0,1,1-1.92-1.919A1.92,1.92,0,0,1,440.908,171.439Z" transform="translate(-415.091 -169.52)" fill="#fff"/>
        <path id="Path_345" data-name="Path 345" d="M447.886,171.439a1.919,1.919,0,1,1-1.919-1.919A1.919,1.919,0,0,1,447.886,171.439Z" transform="translate(-414.744 -169.52)" fill="#fff"/>
      </g>
    </g>
  </g>
</svg>
