<svg xmlns="http://www.w3.org/2000/svg" xmlns:xlink="http://www.w3.org/1999/xlink" width="272.632" height="281.845" viewBox="0 0 272.632 281.845">
  <defs>
    <linearGradient id="linear-gradient" x1="0.5" x2="0.5" y2="1" gradientUnits="objectBoundingBox">
      <stop offset="0" stop-color="#0092ff"/>
      <stop offset="1" stop-color="#003bff"/>
    </linearGradient>
  </defs>
  <g id="Group_18257" data-name="Group 18257" transform="translate(-114.886 -271.64)">
    <g id="Layer_1" data-name="Layer 1" transform="translate(114.886 271.64)">
      <path id="Path_51164" data-name="Path 51164" d="M1032.878,1737.985c0,3.836-10.992,6.946-24.552,6.946s-24.552-3.11-24.552-6.946,10.992-6.947,24.552-6.947S1032.878,1734.148,1032.878,1737.985Z" transform="translate(-876.43 -1463.086)" fill="#f2eafd"/>
      <path id="Path_51367" data-name="Path 51367" d="M1089.508,1734.653c0,2-23.669,3.615-52.867,3.615s-52.867-1.619-52.867-3.615,23.669-3.615,52.867-3.615S1089.508,1732.657,1089.508,1734.653Z" transform="translate(-983.774 -1471.73)" fill="#f2eafd"/>
      <path id="Path_51165" data-name="Path 51165" d="M1373.245,1674.145c0,3.837-13.157,6.947-29.388,6.947s-29.388-3.11-29.388-6.947,13.157-6.947,29.388-6.947S1373.245,1670.308,1373.245,1674.145Z" transform="translate(-1146.408 -1410.967)" fill="#f2eafd"/>
      <g id="Group_18256" data-name="Group 18256" transform="translate(0)">
        <g id="Group_18192" data-name="Group 18192" transform="translate(95.201 59.476)">
          <path id="Path_51166" data-name="Path 51166" d="M917.8,596.66a.165.165,0,0,1-.1-.3,5.018,5.018,0,0,1,5.117-.193.165.165,0,0,1-.144.3,4.6,4.6,0,0,0-4.77.157A.164.164,0,0,1,917.8,596.66Z" transform="translate(-917.638 -595.577)" fill="#ffd584"/>
        </g>
        <path id="Path_51167" data-name="Path 51167" d="M781.441,1150.087c-60.776-31.76-81.5-64.674-88.1-87.022h39.036a22.857,22.857,0,0,1-3.026,9.99,9.256,9.256,0,1,0,15.85-.011,22.84,22.84,0,0,1-3.02-9.978h39.255v36.367l.72-.065a24.243,24.243,0,0,0,9.944-3.154,7.934,7.934,0,1,1,.011,13.575,24.266,24.266,0,0,0-9.955-3.161l-.72-.064Z" transform="translate(-639.325 -917.756)" fill="#ffe4ce"/>
        <g id="Group_18193" data-name="Group 18193" transform="translate(143.273 119.568)">
          <path id="Path_51168" data-name="Path 51168" d="M1180.36,994.3a22.6,22.6,0,0,1,8.678,2.905,9.256,9.256,0,1,0-.012-15.849,22.574,22.574,0,0,1-8.667,2.9V949.342h46.223l.021-.639a24.072,24.072,0,0,0-3.237-12.886,7.934,7.934,0,1,1,13.575-.011,24.078,24.078,0,0,0-3.243,12.9l.021.639h34.734c-6.6,22.349-27.319,55.262-88.1,87.022Z" transform="translate(-1180.195 -923.601)" fill="#f17b00"/>
          <path id="Path_51169" data-name="Path 51169" d="M1179.46,1035.9V993.376l.185.022a22.763,22.763,0,0,1,8.741,2.926,9.091,9.091,0,1,0-.009-15.565,22.733,22.733,0,0,1-8.732,2.921l-.185.022V948.442h46.228l.016-.479a23.906,23.906,0,0,0-3.214-12.8,8.1,8.1,0,1,1,13.859-.008,23.925,23.925,0,0,0-3.219,12.806l.016.479h34.8l-.063.212c-6.535,22.138-27.137,55.224-88.177,87.122Zm.331-42.153v41.607c60.554-31.7,81.132-64.538,87.708-86.584h-34.672l-.027-.8a24.256,24.256,0,0,1,3.265-12.985,7.768,7.768,0,1,0-13.29.009,24.238,24.238,0,0,1,3.26,12.977l-.027.8h-46.217v34.557a22.4,22.4,0,0,0,8.418-2.855,9.422,9.422,0,1,1,.009,16.134A22.431,22.431,0,0,0,1179.791,993.75Z" transform="translate(-1179.46 -922.866)" fill="#f17b00"/>
        </g>
        <path id="Path_51170" data-name="Path 51170" d="M724.1,759.858a7.936,7.936,0,0,1-6.791-12.04,24.184,24.184,0,0,0,3.243-11.3l.023-.683H679.787A70.079,70.079,0,0,1,677.2,717.22c0-14.238,4.507-27.553,12.69-37.491,8.428-10.235,20.09-15.871,32.84-15.871a54.955,54.955,0,0,1,34.148,11.982,56.367,56.367,0,0,1,11.382,11.866v16.818a22.625,22.625,0,0,1-7.913-2.8,9.257,9.257,0,1,0,.011,15.85,22.611,22.611,0,0,1,7.9-2.793v21.049H727.628l.022.683a24.177,24.177,0,0,0,3.236,11.292,7.936,7.936,0,0,1-6.784,12.051Z" transform="translate(-626.144 -591.845)" fill="#f17b00"/>
        <g id="Group_18196" data-name="Group 18196" transform="translate(37.355 34.165)">
          <g id="Group_18194" data-name="Group 18194" transform="translate(28.217 14.5)">
            <path id="Path_51171" data-name="Path 51171" d="M797.975,577.016a4.14,4.14,0,0,0-2,.637A35.29,35.29,0,0,1,792.327,576s-9.963-4.9-10.492-5.188l-7.191-9.022-5.542,2.549s8.088,9.592,8.6,10.015,14.8,5.418,16.04,5.9c0,0,1.253,1.141,2.063,1.831a8.612,8.612,0,0,0,2.153,1.12,9.067,9.067,0,0,0,2.2.768c1.089.236.181-.5.181-.5s-1.926-.811-1.831-.957c.073-.113,1.1.394,2.3.668.309.07.614.139.895.2.738.159,1.062-.262.321-.555a7.244,7.244,0,0,0-1.031-.333,5.948,5.948,0,0,1-.947-.371,7.853,7.853,0,0,1-.973-.389c.029-.026-.051-.152.279-.088a18.266,18.266,0,0,0,1.794.5c.337.038,1.036.161,1.036.161s1.236.118,1.245-.055c.018-.377-.743-.588-1.21-.579a4.883,4.883,0,0,0-1.034-.258s-1.434-.564-1.35-.776a10.2,10.2,0,0,1,1.822.108c.974.067,1.679.066,1.731-.122.082-.3-.693-.411-.693-.411s-.683-.1-.907-.15c-.262-.06-1.032-.3-1.032-.3s-2.637-.966-2.541-1.16.531-.6.717-.6.518.186.7.187.586-.035.614-.268-1-.716-1-.716A2.929,2.929,0,0,0,797.975,577.016Z" transform="translate(-766.744 -557.186)" fill="#ffd584"/>
            <path id="Path_51172" data-name="Path 51172" d="M769.166,546.888s-1.794,1.625-2.541,2.161c-.62.444-3.644,1.9-3.644,1.9s-3.008-4.592-4.323-6.9c-1.6-2.794-2.7-6.949-2.323-7.062a5.535,5.535,0,0,1,3.86.106C764.849,539.224,769.166,546.888,769.166,546.888Z" transform="translate(-756.262 -536.691)" fill="#f4f4f4"/>
            <path id="Path_51173" data-name="Path 51173" d="M916.874,654.414a1.726,1.726,0,0,0,1.968-.754C918.922,654.524,917.608,654.953,916.874,654.414Z" transform="translate(-887.385 -632.184)" fill="#fe875e"/>
          </g>
          <path id="Path_51174" data-name="Path 51174" d="M664.1,973.67s-.2,3.516-.2,3.523c-.073.447-.361,1.549-.361,1.955,0,1.525,6.783-1.294,5.263-1.97-.138-.061-.858-.523-.9-1.042-.07-.8-.247-2.417-.247-2.417Z" transform="translate(-652.346 -878.939)" fill="#efac7f"/>
          <path id="Path_51175" data-name="Path 51175" d="M667.716,992.423a24.5,24.5,0,0,1-2.408.583c-.816.117-1.891-.865-2.468-.6-.635.292-.61,2.919-.61,2.919s8.54.748,10.942-.026C674.122,994.993,670.971,993.509,667.716,992.423Z" transform="translate(-651.278 -894.198)" fill="#45258f"/>
          <path id="Path_51176" data-name="Path 51176" d="M604.723,972.517s-.2,3.516-.2,3.523c-.073.446-.361,1.549-.361,1.955,0,1.525,6.783-1.294,5.263-1.97-.137-.061-1.072-.869-1.117-1.388-.07-.8-.033-2.071-.033-2.071Z" transform="translate(-603.872 -877.998)" fill="#efac7f"/>
          <path id="Path_51177" data-name="Path 51177" d="M608.117,991.27a24.474,24.474,0,0,1-2.408.583c-.816.117-1.891-.865-2.468-.6-.635.292-.66,2.919-.66,2.919s8.479.347,10.992-.026C614.561,994,611.373,992.356,608.117,991.27Z" transform="translate(-602.581 -893.256)" fill="#45258f"/>
          <path id="Path_51178" data-name="Path 51178" d="M606.854,667.958a43.139,43.139,0,0,0-.681,10.428c.468,4.5.505,20.473.505,20.473l-1.788,25.561,4.242.1s5.03-25.549,4.936-24.893,1.687-17.989,1.687-17.989l-6-14.241Z" transform="translate(-604.467 -628.898)" fill="red"/>
          <path id="Path_51179" data-name="Path 51179" d="M607.881,649.6s-5.208,5.469-3.271,11.444c.778,2.4,8.036,25.325,8.13,27.2s2.454,22.585,2.454,22.585l4.932-.148,1.067-23.027-1.41-31.026-2.994-5.233Z" transform="translate(-603.885 -614.367)" fill="#d20043"/>
          <path id="Path_51180" data-name="Path 51180" d="M640.717,520.422a48.584,48.584,0,0,0-5.417-4.66,17.633,17.633,0,0,0-3.113-2.193c-1.327-.456-3.6-1.673-6.886,3.294-2.352,3.555-17.194,21.96-19.631,22.579l15.91,7.59c.436-3.625,8.3-10.474,9.431-11.751C633.542,532.424,642.332,522.218,640.717,520.422Z" transform="translate(-605.104 -502.932)" fill="#ffdee9"/>
          <g id="Group_18195" data-name="Group 18195" transform="translate(29.913)">
            <path id="Path_51181" data-name="Path 51181" d="M770.459,510.635l-4.956,2.893s-.14,4.218,1.481,5.314c1.359.919,2.394-1.287,2.394-1.287a15.1,15.1,0,0,1,3.243-3.34C774.02,513.422,770.459,510.635,770.459,510.635Z" transform="translate(-765.5 -500.919)" fill="#efac7f"/>
            <path id="Path_51182" data-name="Path 51182" d="M787.367,512.492a10.335,10.335,0,0,0,1.286,3.2,8.039,8.039,0,0,1,1.707-1.477c.646-.366.235-1.156-.395-1.9-.889-.923-1.767-1.678-1.767-1.678l-.953.556A4.425,4.425,0,0,0,787.367,512.492Z" transform="translate(-783.24 -500.919)" fill="#d19369"/>
            <path id="Path_51183" data-name="Path 51183" d="M790.126,470.185c-.083-.1-4.157,4.954-3.655,7.326s2.965,4.536,4.677,3.941c1.893-.658,5.414-6.612,4.151-9.5S790.126,470.185,790.126,470.185Z" transform="translate(-782.586 -467.72)" fill="#efac7f"/>
            <path id="Path_51184" data-name="Path 51184" d="M788.09,458.589a7.733,7.733,0,0,0-6.838-.138c-2.661,1.389-3.268,4.885-2.434,7.018a3.439,3.439,0,0,1-.121,3.338l1.412-.822a6.694,6.694,0,0,0,.932-2.306c.108-1.023,1.6-.842,2.335-1.306.563-.357,1.281-1.518,2.191-2.121a7.278,7.278,0,0,1,3.419.35C790.907,463.678,790.634,460,788.09,458.589Z" transform="translate(-776.089 -457.719)" fill="#5e2e0d"/>
          </g>
          <path id="Path_51185" data-name="Path 51185" d="M756.488,589a9.82,9.82,0,0,0-2.192-.115,40.121,40.121,0,0,1-3.32-2.64s-8.967-7.595-9.437-8.021l-4.921-10.872-6.5.964s6.054,12.781,6.477,13.337,13.726,8.311,14.872,9.132c0,0,1.012,1.466,1.679,2.367a9.753,9.753,0,0,0,1.925,1.7,10.282,10.282,0,0,0,2.044,1.369c1.045.538.292-.437.292-.437s-1.763-1.334-1.636-1.45c.1-.089,1.019.695,2.17,1.3.3.156.588.309.858.448.708.363,1.127.045.444-.449a8.207,8.207,0,0,0-.966-.616,6.8,6.8,0,0,1-.873-.629,8.2,8.2,0,0,1-.866-.632c.035-.016-.048-.184.271-.028.383.188,1.113.762,1.7,1,.331.133,1.008.451,1.008.451a5.991,5.991,0,0,0,1.037.07c.2-.312-.391-.554-.864-.677a5.507,5.507,0,0,0-.985-.544s-1.321-.955-1.191-1.138c.05-.07.828.46,1.781.816,1.091.407,1.615.186,1.712.011.148-.267-.518-.431-.518-.431a9.586,9.586,0,0,1-1.129-.334c-.252-.132-3.172-2.34-3.034-2.5s.588-.163.776-.11.518.188.705.241a.63.63,0,0,0,.594-.382c.079-.219-.621-.617-.621-.617A3.71,3.71,0,0,0,756.488,589Z" transform="translate(-706.705 -547.224)" fill="#ffd584"/>
          <path id="Path_51186" data-name="Path 51186" d="M718.176,528.785s1.869-.593,3.067-1.14c.8-.366,4.3-2.1,4.3-2.1a76.649,76.649,0,0,0-2.53-8.634c-3.745-8.379-8-2.6-8.579-1.254C713.146,518.667,718.176,528.785,718.176,528.785Z" transform="translate(-693.727 -502.408)" fill="#fff"/>
        </g>
        <path id="Path_51187" data-name="Path 51187" d="M1137.409,735.832a22.748,22.748,0,0,1,3.071-11.539,9.256,9.256,0,1,0-15.85.011,22.732,22.732,0,0,1,3.065,11.528H1082.76V713.276l-.742.091a23.956,23.956,0,0,0-9.158,3.071,7.934,7.934,0,1,1-.011-13.575,23.972,23.972,0,0,0,9.168,3.078l.742.091V687.707a56.337,56.337,0,0,1,11.381-11.866,54.953,54.953,0,0,1,34.148-11.982c12.749,0,24.412,5.636,32.84,15.871,8.183,9.938,12.69,23.253,12.69,37.491a70.081,70.081,0,0,1-2.586,18.612Z" transform="translate(-939.322 -591.845)" fill="#ffe4ce"/>
        <g id="Group_18200" data-name="Group 18200" transform="translate(179.057 150.82)">
          <path id="Path_51188" data-name="Path 51188" d="M1598.544,1204.963h-13.465a1.207,1.207,0,0,1-1.208-1.207h0a1.207,1.207,0,0,1,1.208-1.208h13.465a1.208,1.208,0,0,1,1.208,1.208h0A1.208,1.208,0,0,1,1598.544,1204.963Z" transform="translate(-1545.403 -1182.449)" fill="#7772d6"/>
          <path id="Path_51189" data-name="Path 51189" d="M1593.985,1215.342h-16.11a1.207,1.207,0,0,1-1.208-1.208h0a1.208,1.208,0,0,1,1.208-1.208h16.11a1.208,1.208,0,0,1,1.208,1.208h0A1.208,1.208,0,0,1,1593.985,1215.342Z" transform="translate(-1539.522 -1190.922)" fill="#45258f"/>
          <g id="Group_18199" data-name="Group 18199" transform="translate(0 0)">
            <path id="Path_51190" data-name="Path 51190" d="M1382.79,1648.544s-1.24,1.226-1.268,1.676-.11,5.273.4,5.723,1.994.77,1.515,1.276c-.361.382-3.141.3-4.984.2-.538-.03-1.213-4.38-1.425-5.019-.309-.929-1.424-2.949-1.143-3.6a8.6,8.6,0,0,1,2.079-1.639,8.514,8.514,0,0,0,1.9-2.053Z" transform="translate(-1375.565 -1543.755)" fill="#efac7f"/>
            <path id="Path_51191" data-name="Path 51191" d="M1497.313,1679.917s-1.11,3.178-1.111,3.186c-.082.5-.407,1.748-.407,2.205,0,1.719,7.651-1.46,5.936-2.221a1.84,1.84,0,0,1-.693-1.205,4.066,4.066,0,0,1,.645-2.033Z" transform="translate(-1473.498 -1572.115)" fill="#efac7f"/>
            <g id="Group_18197" data-name="Group 18197" transform="translate(3.112 47.467)">
              <path id="Path_51192" data-name="Path 51192" d="M1511.878,1351.606l2.77,7.173s1.807,17.118.755,27.366c-.44,4.285-9.968,27.227-9.968,27.227l-4.732-.676,6.338-27.167-2.332-10.389-3.3-20.535Z" transform="translate(-1480.618 -1351.606)" fill="#2d185d"/>
              <path id="Path_51193" data-name="Path 51193" d="M1409.521,1353.643l-2.376,7.987-3.614,24.107-12.222,22.551s1.838,2.821,3.811,3.265l17.347-22.792,9.4-28.533-.33-6.339Z" transform="translate(-1391.309 -1353.269)" fill="#45258f"/>
            </g>
            <path id="Path_51194" data-name="Path 51194" d="M1576.559,1236.978a3.214,3.214,0,0,0-1.462.988,25.663,25.663,0,0,1-3.213-.862s-8.841-2.735-9.315-2.9l-7.43-7.173-3.909,3.482s8.25,7.541,8.736,7.843,12.775,2.294,13.853,2.512c0,0,1.212.842,1.987,1.34a6.356,6.356,0,0,0,1.922.648,6.458,6.458,0,0,0,1.888.306c.909.015.048-.51.048-.51s-1.683-.4-1.636-.556c.037-.121.946.163,1.951.192.259.007.514.013.748.017.615.009.792-.452.148-.588a5.07,5.07,0,0,0-.882-.118,4.233,4.233,0,0,1-.822-.17,5.571,5.571,0,0,1-.846-.182c.018-.03-.07-.134.2-.137a12.693,12.693,0,0,0,1.519.13c.275-.029.853-.046.853-.046a4.877,4.877,0,0,0,.939-.22c.031-.362-.664-.487-1.033-.388a3.374,3.374,0,0,0-.87-.047s-1.245-.259-1.22-.476c.021-.178,3.1-.262,3.105-.628.009-.3-.917-.325-.917-.325s-.561.037-.748.032c-.22-.006-.876-.086-.876-.086s-2.277-.409-2.238-.611.307-.672.454-.706.447.077.594.042a.448.448,0,0,0,.293-.462c-.022-.226-.791-.4-.791-.4A2.017,2.017,0,0,0,1576.559,1236.978Z" transform="translate(-1518.755 -1202.434)" fill="#f8a492"/>
            <path id="Path_51195" data-name="Path 51195" d="M1533.805,1203.182l-3.719,5.052s-3.287-3.94-4.765-5.919c-1.793-2.4-3.759-5.723-3.468-5.9a3.841,3.841,0,0,1,3.038-.73C1529.041,1196.76,1533.805,1203.182,1533.805,1203.182Z" transform="translate(-1494.75 -1176.767)" fill="#dbdbdb"/>
            <path id="Path_51196" data-name="Path 51196" d="M1376.813,1656.123s2.612,8,3.731,8.393c.3.1,1.969.528,2.237,1.167a.373.373,0,0,1,.017.057.665.665,0,0,1-.667.778h-5.307s-.754-3.594-1.051-5.173c0,0-1.577-3.859-1.4-4.209S1376.813,1656.123,1376.813,1656.123Z" transform="translate(-1374.357 -1552.745)" fill="#45258f"/>
            <path id="Path_51197" data-name="Path 51197" d="M1493.426,1700.2l.854-2.805a7.688,7.688,0,0,0,2.782.658,27.585,27.585,0,0,0,2.716-.658c3.672,1.225,6.68,1.819,6.133,2.805h-12.484Z" transform="translate(-1471.564 -1586.439)" fill="#45258f"/>
            <path id="Path_51198" data-name="Path 51198" d="M1683,1290.192a1.842,1.842,0,0,0,1.621-.979A1.156,1.156,0,0,1,1683,1290.192Z" transform="translate(-1626.333 -1253.202)" fill="#fe875e"/>
            <path id="Path_51199" data-name="Path 51199" d="M1456.358,1193.815a43.219,43.219,0,0,0-5.923.989c-1.24.434-2.919,4.487-2.919,4.487s6.726,19.444,6.462,22.921-1.012,8.625-1.012,8.625,13.246.836,18.263-1.144c0,0-1.584-7.877-1.584-9.945s-.89-22.742-1.523-23.825-1.91-1.7-4.33-2.227S1456.358,1193.815,1456.358,1193.815Z" transform="translate(-1434.084 -1175.052)" fill="#f2eafd"/>
            <path id="Path_51200" data-name="Path 51200" d="M1496.557,1162.23l-.884,5.786s2.658,3.064,4.584,2.467c1.616-.5,1.192-2.773,1.192-2.773a16.6,16.6,0,0,1-.617-4.912C1501.1,1161.161,1496.557,1162.23,1496.557,1162.23Z" transform="translate(-1473.399 -1149.254)" fill="#efac7f"/>
            <path id="Path_51201" data-name="Path 51201" d="M1504.436,1162.8c.264-1.638-4.275-.569-4.275-.569l-.073.48a2.652,2.652,0,0,0,.492.807,6,6,0,0,0,3.969,1.785A8.863,8.863,0,0,1,1504.436,1162.8Z" transform="translate(-1477.003 -1149.254)" fill="#d19369"/>
            <g id="Group_18198" data-name="Group 18198" transform="translate(18.777)">
              <path id="Path_51202" data-name="Path 51202" d="M1494.868,1111.137c-.128-.046-1.028,6.589.68,8.415s5.036,2.424,6.23.986c1.32-1.591,1.254-8.723-1.4-10.6S1494.868,1111.137,1494.868,1111.137Z" transform="translate(-1491.232 -1106.346)" fill="#efac7f"/>
              <path id="Path_51203" data-name="Path 51203" d="M1484.76,1093.12a7.386,7.386,0,0,0-3.871,2.193c-.932.11-2.2.621-3.507,2.773a5.357,5.357,0,0,0,1.452,7.015,4.179,4.179,0,0,1,1.847,3.095l.3-.855a4.771,4.771,0,0,0,.235-2.024,3.928,3.928,0,0,0-.3-1.216c-.45-.96.967-1.6,1.365-2.4.306-.615.32-2.023.8-3.04l.576-.776a3.676,3.676,0,0,1,2.629-.737C1487.581,1097.438,1487.394,1092.586,1484.76,1093.12Z" transform="translate(-1476.627 -1093.079)" fill="#282828"/>
              <path id="Path_51204" data-name="Path 51204" d="M1499.321,1140.022c.014.81-.357,1.472-.828,1.48s-.863-.642-.877-1.452.357-1.472.828-1.48S1499.307,1139.213,1499.321,1140.022Z" transform="translate(-1493.762 -1130.218)" fill="#efac7f"/>
            </g>
            <rect id="Rectangle_10079" data-name="Rectangle 10079" width="26.734" height="23.191" transform="translate(57.073 46.848) rotate(180)" fill="#ffd584"/>
            <rect id="Rectangle_10080" data-name="Rectangle 10080" width="23.191" height="23.191" transform="translate(70.166 46.848) rotate(180)" fill="#ffa700"/>
            <path id="Path_51205" data-name="Path 51205" d="M1503.979,1269.423c-1.365-.4-17-4.4-17.587-4.788s-10.245-9.408-10.245-9.408l5.531-2.926,8.645,8.514c.59.248,11.662,4.458,11.662,4.458a33.071,33.071,0,0,0,3.679,1.323,14.049,14.049,0,0,1,2.388-.7,3.32,3.32,0,0,1,1.349.111s.972.3.97.532a.479.479,0,0,1-.441.425c-.2.012-.568-.15-.764-.139s-.606.447-.683.648c-.047.121,2.692,2.122,2.826,2.395.063.063,3.347-.161,3.212.049,0,.337-.391.24-.394.287-.05.9-4.7,1.567-5.02,1.477C1508.573,1271.53,1503.979,1269.423,1503.979,1269.423Z" transform="translate(-1457.457 -1223.067)" fill="#efac7f"/>
            <path id="Path_51206" data-name="Path 51206" d="M1455.526,1216.764l6.336-4.148s-7.338-11.128-9.843-12.277c-1.725-.791-3.872.4-4.713,3.328C1446.392,1206.843,1455.526,1216.764,1455.526,1216.764Z" transform="translate(-1433.859 -1180.451)" fill="#dbdbdb"/>
          </g>
          <path id="Path_51207" data-name="Path 51207" d="M1664.508,1223.275l-1.075,1.03v-6.018a1.13,1.13,0,0,0-1.13-1.13h-9.4a1.13,1.13,0,0,0-1.13,1.13v6.993l-1.157-2.006-3.968,1.157s3.183,6.06,5.125,7.049c2.6,1.323,9.044,1.293,11.655,0,1.589-.786,4.3-5.639,4.3-5.639Z" transform="translate(-1596.658 -1194.376)" fill="#0065ff"/>
          <path id="Path_51208" data-name="Path 51208" d="M1695.2,1282.647c-.184-2.082-1.585-3.7-3.286-3.7s-3.112,1.63-3.288,3.723A21.983,21.983,0,0,0,1695.2,1282.647Z" transform="translate(-1630.924 -1244.821)" fill="#a7c6f6"/>
        </g>
        <g id="Group_18202" data-name="Group 18202" transform="translate(172.888 18.179)">
          <path id="Path_51209" data-name="Path 51209" d="M1355.242,372.137c-.958,1.628-2.668,1.562-4.5,2.018-1.232.306-1.99,2.333-1.872,3.867.3,3.884-2.745,3.224-5.194,4.832-5.866,3.85-2.082,13.9,4.328,14.546a6.79,6.79,0,0,0,3.884-.718,16.129,16.129,0,0,1,2.592-1.534c2.161-.765,4.567-1.03,6.294-2.691,2.471-2.377.424-3.539,1.061-5.269s3.385-.863,3.908-4.448c.566-3.878-.054-7.22-1.484-9.146-2.367-3.187-6.524-3.4-8.04-2.436A2.919,2.919,0,0,0,1355.242,372.137Z" transform="translate(-1340.758 -370.652)" fill="#5e2e0d"/>
          <path id="Path_51210" data-name="Path 51210" d="M1500,397.016c-.228-.482-2.257.944-2.707.673s1.818-2.557,1.586-2.957c-.426-.736-2.637,2.351-2.855,2.025s1.906-3.622,1.147-3.8-1.845,3.647-2.234,3.4,1.331-3.469.6-4.126c-.392-.351-2.241,5.881-2.913,6.14s-1.426-2.462-2.058-2.355,2.071,5,1.938,5.387-2.607,8.378-4.068,10.792c-.879-.42-1.735-.843-2.551-1.255-.328,1.855-.364,3.807-.795,5.627,2.834,1.245,5.363,2.149,6.186,1.846,2.506-.923,3.743-13.089,4.145-15.359s1.474-2.718,2.084-3.911S1500.224,397.5,1500,397.016Z" transform="translate(-1458.587 -388.254)" fill="#efac7f"/>
          <path id="Path_51211" data-name="Path 51211" d="M1433.5,474.174l-4.195,4.231s5.542,3.005,10.242,5.071c.431-1.82.467-3.772.795-5.627C1436.456,475.889,1433.5,474.174,1433.5,474.174Z" transform="translate(-1413.045 -455.167)" fill="red"/>
          <path id="Path_51212" data-name="Path 51212" d="M1594.669,722.91a33.46,33.46,0,0,1,3.32,4.712c.07.134.1.908.166,1.049,2.864,1.884,5.9,1.361,8.388.585-1.64-.71-3.923-1.532-4.136-1.875a35.726,35.726,0,0,1-3.512-6.092C1597.611,722.567,1596.4,722.42,1594.669,722.91Z" transform="translate(-1548.05 -656.911)" fill="#efac7f"/>
          <path id="Path_51213" data-name="Path 51213" d="M1612.262,756.343c-.25,1.143-.15,3.464.077,3.515.271.061,9.884,1.481,11.115.247.74-.742-.657-1.313-2.668-2.231C1618.3,758.65,1612.354,757.118,1612.262,756.343Z" transform="translate(-1562.293 -685.528)" fill="#efefef"/>
          <path id="Path_51214" data-name="Path 51214" d="M1599.113,770.14a33.479,33.479,0,0,1,3.32,4.712c.07.134.1.908.166,1.049,2.864,1.884,5.9,1.361,8.388.585-1.639-.71-3.923-1.532-4.136-1.875a35.754,35.754,0,0,1-3.512-6.092C1602.055,769.8,1600.845,769.65,1599.113,770.14Z" transform="translate(-1551.678 -695.47)" fill="#efac7f"/>
          <path id="Path_51215" data-name="Path 51215" d="M1616.706,803.575c-.25,1.143-.15,3.464.077,3.515.271.061,9.884,1.481,11.115.246.74-.742-.657-1.313-2.668-2.231C1622.74,805.882,1616.8,804.35,1616.706,803.575Z" transform="translate(-1565.921 -724.088)" fill="#efefef"/>
          <path id="Path_51216" data-name="Path 51216" d="M1482.82,637.984l-5,1.731L1450.91,617.39a178.588,178.588,0,0,1,18.337,1.118C1472.766,618.868,1482.82,637.984,1482.82,637.984Z" transform="translate(-1430.686 -572.087)" fill="#d20043"/>
          <path id="Path_51217" data-name="Path 51217" d="M1392.143,600.193a15.272,15.272,0,0,0-.809,2.918c-.293,3.33,1.428,7.56,3.281,8.207,1.9.664,13.581,3.923,20.617,2.931l15.248,20.326,5.084-2.232-11.909-20.913s-2.3-3.6-4.183-4.448-17.226-4.935-17.226-4.935l-2.374-3.452Z" transform="translate(-1382.022 -556.742)" fill="red"/>
          <path id="Path_51218" data-name="Path 51218" d="M1405.5,469.664a31.577,31.577,0,0,0-1.711-2.8,6.533,6.533,0,0,0-3.133-2.348s-.756.015-1.623.058a.7.7,0,0,1-.164.289c-.326.245-2.194-.071-3.4.751-4.045,3.479-2.926,20.342-2.608,25.669l9.827.361s.939-11.7,3.442-14.649C1407.873,474.948,1406.751,471.977,1405.5,469.664Z" transform="translate(-1382.981 -447.285)" fill="#ffdee9"/>
          <path id="Path_51219" data-name="Path 51219" d="M1427.84,430.8a50.386,50.386,0,0,1-1.15,6.032c-.473,1.179,2.6,3.7,5.158,4.466s-.782-2.6-.676-3.865.571-7.229.571-7.229Z" transform="translate(-1410.872 -419.267)" fill="#efac7f"/>
          <path id="Path_51220" data-name="Path 51220" d="M1436.022,431.913c.075-.987.129-1.712.129-1.712l-3.9.6s-.1.57-.207,1.376A3.2,3.2,0,0,0,1436.022,431.913Z" transform="translate(-1415.281 -419.267)" fill="#d19369"/>
          <path id="Path_51221" data-name="Path 51221" d="M1425.284,384.981a4.432,4.432,0,0,0-2.488,1.8c-.95,1.455-1.6,5.736,1.527,7.735s5.562-.829,5.6-3.586S1429.376,384.495,1425.284,384.981Z" transform="translate(-1407.093 -382.314)" fill="#efac7f"/>
          <path id="Path_51222" data-name="Path 51222" d="M1462.119,406.128c-.267.665-.8,1.078-1.183.922s-.483-.822-.216-1.487.8-1.078,1.183-.922S1462.386,405.463,1462.119,406.128Z" transform="translate(-1438.572 -398.373)" fill="#efac7f"/>
          <path id="Path_51223" data-name="Path 51223" d="M1417.826,411.2c.227.717.02,1.423-.464,1.576s-1.058-.3-1.285-1.019-.019-1.423.464-1.576S1417.6,410.485,1417.826,411.2Z" transform="translate(-1402.174 -402.9)" fill="#efac7f"/>
          <g id="Group_18201" data-name="Group 18201" transform="translate(17.92 24.055)">
            <path id="Path_51224" data-name="Path 51224" d="M1496.587,502.534s1.052.029,1.352,0c1.725-.165,1.009,2.383,1.009,2.383s-.842-.826-1.18-.826a5.22,5.22,0,0,0-.807.092Z" transform="translate(-1485.897 -502.368)" fill="#45258f"/>
            <path id="Path_51225" data-name="Path 51225" d="M1521.175,593.6s.71,1.1,1.508.608,2.175-1.458,2.432-.734.206,1.328-.072,1.473a12.238,12.238,0,0,1-3.453,1.341,2.906,2.906,0,0,1-2.041-.982Z" transform="translate(-1504.642 -576.405)" fill="#efefef"/>
            <path id="Path_51226" data-name="Path 51226" d="M1456.56,539.691a5.822,5.822,0,0,0-.685-2.665,52.405,52.405,0,0,0-7.14-8.241c-.763-.445-.214-2.156-.214-2.156l-3.055-1.649-1.591-.861s-3.607,5.507-3.883,6.026.213,2.222-.153,3.269.014,6.73-.5,7.354c-.4.4-.781.461-.906.7a.416.416,0,0,0,.02.484c.414.532,2.528.085,2.528.085.016-.033.887-1.257.751-1.985-.136-.7.3-4.945.588-4.945.257,0,1.475,1.885,1.961,2.243v0a.264.264,0,0,0,.133.062,8.305,8.305,0,0,1,3.1.993,1.572,1.572,0,0,1,.188.938c.007.3-.01.636-.036.98-.048.63-.136,1.276-.2,1.7.536,0,1.074.005,1.611,0a2.777,2.777,0,0,1,2.451-1.346,2.808,2.808,0,0,1,2.369,1.209c.9-.048,1.25.391,2.022.317C1455.965,541.948,1456.573,540.035,1456.56,539.691Z" transform="translate(-1438.361 -519.997)" fill="#f4f4f4"/>
            <path id="Path_51227" data-name="Path 51227" d="M1471.715,502.079a1.51,1.51,0,0,0-1.28-.394,4.553,4.553,0,0,1-1.116.018,3.694,3.694,0,0,0-3,.713c-.724.724-.815,3.3,0,4.516s3.119,1.518,3.323,2.068,2.2.815,2.487.143a.668.668,0,0,0,.53.056,1.258,1.258,0,0,0,.755-1.749c-.265-.795-1.386-2.426-1.183-3.894A1.654,1.654,0,0,0,1471.715,502.079Z" transform="translate(-1460.717 -501.667)" fill="#efefef"/>
            <path id="Path_51228" data-name="Path 51228" d="M1495.255,528.948a.362.362,0,0,0-.012.487,4.839,4.839,0,0,0,.945.892c.444.255.866-.823.866-1.305C1497.054,528.561,1496.037,528.146,1495.255,528.948Z" transform="translate(-1484.727 -523.569)" fill="#45258f"/>
            <path id="Path_51229" data-name="Path 51229" d="M1479.525,571.315a.418.418,0,0,0-.443-.4h-.008a2.027,2.027,0,0,0-1.852,2.336.505.505,0,0,1,0,.172,12.386,12.386,0,0,1-.773,1.622l2.138.535c.523-.905,1.041-1.749,1.041-1.749Z" transform="translate(-1469.454 -558.199)" fill="#efefef"/>
            <path id="Path_51230" data-name="Path 51230" d="M1466.488,593.8s-.808,2.423-1.04,3.349c.652.375,1.048-.361,2.528.046.039-.291.561-2.088.561-2.529a14.389,14.389,0,0,1,1.179-2.118.117.117,0,0,0-.069-.172c-.648-.18-1.469-.512-2.115-.691a.177.177,0,0,0-.206.089A18.955,18.955,0,0,0,1466.488,593.8Z" transform="translate(-1460.475 -575.152)" fill="#efefef"/>
            <path id="Path_51231" data-name="Path 51231" d="M1461.972,616.839a1.454,1.454,0,0,1,1.325-.753c.694,0,1.8,1.036,1.8,1.036a1.82,1.82,0,0,1-1.234.321C1462.961,617.443,1461.66,617.513,1461.972,616.839Z" transform="translate(-1457.599 -595.078)" fill="#e0e0e0"/>
            <path id="Path_51232" data-name="Path 51232" d="M1484.2,616.045a1.453,1.453,0,0,1,1.325-.753,1.862,1.862,0,0,1,.875.328.555.555,0,0,1-.28,1.029h-.027C1485.19,616.649,1483.889,616.718,1484.2,616.045Z" transform="translate(-1475.747 -594.43)" fill="#efefef"/>
            <path id="Path_51233" data-name="Path 51233" d="M1519.617,616.045a1.824,1.824,0,0,1,1.595-.753,2.539,2.539,0,0,1,1.053.328c.569.291.33,1.025-.337,1.029h-.032C1520.807,616.649,1519.241,616.718,1519.617,616.045Z" transform="translate(-1504.652 -594.43)" fill="#efefef"/>
            <path id="Path_51234" data-name="Path 51234" d="M1468.7,502.618a.672.672,0,0,1,.055-.94,3.246,3.246,0,0,0-2.435.746c-.724.724-.815,3.3,0,4.516.732,1.088,2.664,1.446,3.2,1.906.553-.941-.293-1.734-.492-2.177s.994-1.56,1.131-2.446S1469.2,503.118,1468.7,502.618Z" transform="translate(-1460.717 -501.675)" fill="#45258f"/>
            <path id="Path_51235" data-name="Path 51235" d="M1458.008,502.441a2.665,2.665,0,0,1-1.631-.072c-.908-.322-1.81,1.3-1.81,1.3a7.633,7.633,0,0,0,1.514,2.263C1456.754,506.376,1458.008,502.441,1458.008,502.441Z" transform="translate(-1451.592 -502.206)" fill="#efefef"/>
          </g>
          <path id="Path_51236" data-name="Path 51236" d="M1431.806,528.433c0-.4-1.237-1.567-1.831-1.379a29.412,29.412,0,0,0-2.916,1.65l-10.343-2.432s-2.611-5.953-2.865-11.066a14.181,14.181,0,0,0-5.5,1.872c.9,4.891,3.1,12.818,5.533,14.305,1.022.626,13.229-.749,13.229-.749a15.7,15.7,0,0,0,3.169.181C1432.869,530.1,1431.806,529.246,1431.806,528.433Z" transform="translate(-1395.939 -488.664)" fill="#efac7f"/>
          <path id="Path_51237" data-name="Path 51237" d="M1409.154,468.984c-.32-1.544-.693-3.093-2.362-3.582a3.371,3.371,0,0,0-3.021.664,4.122,4.122,0,0,0-1.253,3.322,47.663,47.663,0,0,0,.705,8.393c1.876-1.044,4.606-.925,6.764-1.218A29.213,29.213,0,0,0,1409.154,468.984Z" transform="translate(-1391.178 -447.908)" fill="#d20043"/>
        </g>
        <path id="Path_51238" data-name="Path 51238" d="M887.062,341.838c-1.094,5.812-4.589,18.034-10.286,17.842-.277-7.974-.668-14.824-1.215-16.988a11,11,0,0,0-.452-1.3c3.549.308,5.68-5.1,6.5-8.912-.727,2.418-2.376,6.292-4.536,7.587a2.689,2.689,0,0,1-2.468.263c-2.06-3.836-5.951-6.4-7.83-8.686-1.486-1.828-.533-9.135-.166-11.453a39.1,39.1,0,0,0-.846,9.376c.29,3.1,1.889,3.294,5.551,7.456,2.933,3.282,3.956,5.052,4.059,17.628a5.111,5.111,0,0,1-.811.1c-3,.055-5.763-2.861-7.292-5.412,1.208,2.32,3.35,4.947,5.863,5.743a5.62,5.62,0,0,0,1.428.248,6.019,6.019,0,0,0,.816-.047c.065,1.1.4,22.71.1,36.67.885.011.725-.4,1.594-.334-.034-3.781.159-17.92-.243-30.328C883.475,361.023,886.264,348.729,887.062,341.838Z" transform="translate(-780.039 -311.275)" fill="#7772d6"/>
        <g id="Group_18203" data-name="Group 18203" transform="translate(81.121 8.344)">
          <path id="Path_51239" data-name="Path 51239" d="M842.484,320.357a5,5,0,0,0,3.374.819l-4.906-3.934A5,5,0,0,0,842.484,320.357Z" transform="translate(-840.951 -317.213)" fill="#96a65f"/>
          <path id="Path_51240" data-name="Path 51240" d="M840.951,317.113l4.906,3.934a4.1,4.1,0,0,0-4.906-3.934Z" transform="translate(-840.951 -317.084)" fill="#9ed16f"/>
        </g>
        <g id="Group_18204" data-name="Group 18204" transform="translate(102.247 44.54)">
          <path id="Path_51241" data-name="Path 51241" d="M959.211,523.193A5,5,0,0,0,962.3,521.6l-6.284.237A5,5,0,0,0,959.211,523.193Z" transform="translate(-956.013 -520.25)" fill="#96a65f"/>
          <path id="Path_51242" data-name="Path 51242" d="M956.013,515.82l6.284-.237a4.1,4.1,0,0,0-6.284.237Z" transform="translate(-956.013 -514.229)" fill="#9ed16f"/>
        </g>
        <g id="Group_18205" data-name="Group 18205" transform="translate(104.468 38.674)">
          <path id="Path_51243" data-name="Path 51243" d="M970.9,485.194a4.066,4.066,0,0,0,1.5-2.392l-4.3,2.774A4.066,4.066,0,0,0,970.9,485.194Z" transform="translate(-968.107 -482.706)" fill="#96a65f"/>
          <path id="Path_51244" data-name="Path 51244" d="M968.107,485.147l4.3-2.774a3.33,3.33,0,0,0-4.3,2.774Z" transform="translate(-968.107 -482.277)" fill="#9ed16f"/>
        </g>
        <g id="Group_18206" data-name="Group 18206" transform="translate(100.955 38.112)">
          <path id="Path_51245" data-name="Path 51245" d="M949.146,482.032a4.067,4.067,0,0,0,2.008,1.984l-1.771-4.8A4.066,4.066,0,0,0,949.146,482.032Z" transform="translate(-948.977 -479.219)" fill="#96a65f"/>
          <path id="Path_51246" data-name="Path 51246" d="M951.189,479.219l1.771,4.8a3.33,3.33,0,0,0-1.771-4.8Z" transform="translate(-950.783 -479.219)" fill="#9ed16f"/>
        </g>
        <g id="Group_18207" data-name="Group 18207" transform="translate(85.904 14.636)">
          <path id="Path_51247" data-name="Path 51247" d="M868.3,351.852a3.722,3.722,0,0,0-1.3,2.237l3.842-2.676A3.722,3.722,0,0,0,868.3,351.852Z" transform="translate(-867.002 -351.353)" fill="#96a65f"/>
          <path id="Path_51248" data-name="Path 51248" d="M870.844,351.681,867,354.356a3.049,3.049,0,0,0,3.842-2.675Z" transform="translate(-867.002 -351.621)" fill="#9ed16f"/>
        </g>
        <g id="Group_18208" data-name="Group 18208" transform="translate(99.455 25.847)">
          <path id="Path_51249" data-name="Path 51249" d="M943.222,412.423a3.723,3.723,0,0,0-2.419.91l4.668.364A3.722,3.722,0,0,0,943.222,412.423Z" transform="translate(-940.803 -412.416)" fill="#96a65f"/>
          <path id="Path_51250" data-name="Path 51250" d="M945.471,417.776l-4.668-.364a3.049,3.049,0,0,0,4.668.364Z" transform="translate(-940.803 -416.495)" fill="#9ed16f"/>
        </g>
        <g id="Group_18209" data-name="Group 18209" transform="translate(85.666 40.541)">
          <path id="Path_51251" data-name="Path 51251" d="M868.124,492.453a3.723,3.723,0,0,0-2.419.91l4.668.363A3.722,3.722,0,0,0,868.124,492.453Z" transform="translate(-865.705 -492.446)" fill="#96a65f"/>
          <path id="Path_51252" data-name="Path 51252" d="M870.373,497.806l-4.668-.363a3.049,3.049,0,0,0,4.668.363Z" transform="translate(-865.705 -496.526)" fill="#9ed16f"/>
        </g>
        <g id="Group_18210" data-name="Group 18210" transform="translate(88.294 37.461)">
          <path id="Path_51253" data-name="Path 51253" d="M883.748,477.45a3.722,3.722,0,0,0-1.872-1.782l1.7,4.361A3.723,3.723,0,0,0,883.748,477.45Z" transform="translate(-881.534 -475.668)" fill="#96a65f"/>
          <path id="Path_51254" data-name="Path 51254" d="M882.06,480.029l-1.7-4.361a3.049,3.049,0,0,0,1.7,4.361Z" transform="translate(-880.016 -475.668)" fill="#9ed16f"/>
        </g>
        <g id="Group_18211" data-name="Group 18211" transform="translate(98.311 23.045)">
          <path id="Path_51255" data-name="Path 51255" d="M937.029,398.31a2.379,2.379,0,0,0-1.178-1.157l1.045,2.8A2.378,2.378,0,0,0,937.029,398.31Z" transform="translate(-935.617 -397.153)" fill="#96a65f"/>
          <path id="Path_51256" data-name="Path 51256" d="M935.856,399.955l-1.045-2.8a1.948,1.948,0,0,0,1.045,2.8Z" transform="translate(-934.577 -397.153)" fill="#9ed16f"/>
        </g>
        <g id="Group_18212" data-name="Group 18212" transform="translate(81.652 17.79)">
          <path id="Path_51257" data-name="Path 51257" d="M846.42,368.7a3.723,3.723,0,0,0-2.577.191l4.375,1.666A3.723,3.723,0,0,0,846.42,368.7Z" transform="translate(-843.843 -368.531)" fill="#96a65f"/>
          <path id="Path_51258" data-name="Path 51258" d="M848.219,372.133l-4.375-1.666a3.049,3.049,0,0,0,4.375,1.666Z" transform="translate(-843.843 -370.112)" fill="#9ed16f"/>
        </g>
        <path id="Path_51259" data-name="Path 51259" d="M941.746,588.912h.682V562.136a.341.341,0,0,0-.341-.341h0a.341.341,0,0,0-.341.341Z" transform="translate(-842.118 -508.521)" fill="#96a65f"/>
        <path id="Path_51260" data-name="Path 51260" d="M898.463,701.121s3.14-3.775,5.667-2.7,2.941-.866,4.263-.226a14.821,14.821,0,0,1,2.976,2.254Z" transform="translate(-806.782 -619.769)" fill="#333"/>
        <g id="Group_18213" data-name="Group 18213" transform="translate(95.201 60.054)">
          <path id="Path_51261" data-name="Path 51261" d="M920.181,599.849a5.218,5.218,0,0,1-2.455-.641.165.165,0,0,1,.154-.293,4.388,4.388,0,0,0,4.763-.158.165.165,0,0,1,.207.258A4.6,4.6,0,0,1,920.181,599.849Z" transform="translate(-917.637 -598.721)" fill="#ffd584"/>
        </g>
        <g id="Group_18214" data-name="Group 18214" transform="translate(92.948 57.383)">
          <path id="Path_51262" data-name="Path 51262" d="M907.894,587.373l-.295-.174c-.222-.131-2.167-1.3-2.232-2.206a.626.626,0,0,1,.251-.549.907.907,0,0,1,.934-.213c.932.37,1.261,2.555,1.295,2.8Zm-1.623-2.865a.732.732,0,0,0-.445.195.3.3,0,0,0-.128.267c.038.526,1.1,1.322,1.762,1.753-.146-.749-.489-1.97-1.029-2.184A.433.433,0,0,0,906.27,584.509Z" transform="translate(-905.365 -584.177)" fill="#ffd584"/>
        </g>
        <g id="Group_18215" data-name="Group 18215" transform="translate(92.9 60.334)">
          <path id="Path_51263" data-name="Path 51263" d="M905.6,602.494a.459.459,0,0,1-.4-.251.608.608,0,0,1-.052-.54c.265-.719,1.819-1.26,2-1.319l.4-.136-.208.373c-.173.311-1.068,1.862-1.728,1.873Zm1.206-1.628c-.523.222-1.218.588-1.352.952a.277.277,0,0,0,.025.255c.055.092.1.09.123.09C905.885,602.159,906.409,601.494,906.805,600.866Z" transform="translate(-905.103 -600.248)" fill="#ffd584"/>
        </g>
        <path id="Path_51264" data-name="Path 51264" d="M917.416,598.989a.283.283,0,1,1-.283-.283A.283.283,0,0,1,917.416,598.989Z" transform="translate(-821.793 -538.655)" fill="#3797db"/>
        <path id="Path_51289" data-name="Path 51289" d="M588.059,1066.24h2.666V924.659a1.333,1.333,0,0,0-1.333-1.333h0a1.333,1.333,0,0,0-1.333,1.333Z" transform="translate(-553.37 -803.673)" fill="#dbdbdb"/>
        <path id="Path_51290" data-name="Path 51290" d="M686.151,1055.581h2.666V911.6a1.333,1.333,0,0,0-1.333-1.333h0a1.333,1.333,0,0,0-1.333,1.333Z" transform="translate(-633.452 -793.015)" fill="#dbdbdb"/>
        <rect id="Rectangle_10081" data-name="Rectangle 10081" width="18.351" height="1.598" transform="translate(36.584 135)" fill="#dbdbdb"/>
        <rect id="Rectangle_10082" data-name="Rectangle 10082" width="18.351" height="1.598" transform="translate(36.584 156.41)" fill="#dbdbdb"/>
        <rect id="Rectangle_10083" data-name="Rectangle 10083" width="18.351" height="1.598" transform="translate(36.584 177.819)" fill="#dbdbdb"/>
        <rect id="Rectangle_10084" data-name="Rectangle 10084" width="18.351" height="1.598" transform="translate(36.584 199.228)" fill="#dbdbdb"/>
        <g id="Group_18245" data-name="Group 18245" transform="translate(0 155.77)">
          <path id="Path_51291" data-name="Path 51291" d="M567.094,1430.745H555.518a1.73,1.73,0,0,0-1.731,1.73v6.5h1.936v-6.161h11.371Z" transform="translate(-525.39 -1373.698)" fill="#13375b"/>
          <path id="Path_51292" data-name="Path 51292" d="M541.622,1330.011l-3.588-3.786s-3.841,2.112-8.318,4.131c-1.231-2.142-3.24-9.19-3.348-9.526s2.353-4.57,1.8-4.677-1.265,2.261-1.847,2.021-2.078-5.731-2.429-5.431c-.656.561.787,3.415.442,3.623s-1.222-3.164-1.889-3.02,1.127,3.07.93,3.351-2.071-2.464-2.459-1.828c-.21.345,1.729,2.39,1.33,2.619s-2.147-1.06-2.356-.642,1.631.852,2.142,1.908,1.44,1.467,1.748,3.464,1.151,12.667,3.326,13.524C529.007,1336.491,541.622,1330.011,541.622,1330.011Z" transform="translate(-497.705 -1277.353)" fill="#efac7f"/>
          <g id="Group_18234" data-name="Group 18234" transform="translate(70.483 91.894)">
            <path id="Path_51293" data-name="Path 51293" d="M792.521,1630.505a67.518,67.518,0,0,0,.117-9.65c1.756-.089,3.242-.2,5-.316-.731,5.007-1.222,10.164-1.222,10.164l.12.99.065,2.933-9.938.074a44.589,44.589,0,0,0,5.024-2.763A1.994,1.994,0,0,0,792.521,1630.505Z" transform="translate(-785.989 -1620.539)" fill="#efac7f"/>
            <path id="Path_51294" data-name="Path 51294" d="M793.885,1684.646l-10.479.124c-.379-.034-.472-.341-.34-.53.271-.389,1.468-.675,2.813-1.3,2.359.246,7.3-1.366,7.668-1.908C793.761,1682.122,794.1,1684.6,793.885,1684.646Z" transform="translate(-783.009 -1669.929)" fill="#45258f"/>
          </g>
          <g id="Group_18235" data-name="Group 18235" transform="translate(89.833 88.479)">
            <path id="Path_51295" data-name="Path 51295" d="M893.385,1613.249a67.559,67.559,0,0,0-4.987-8.263c1.445-1,2.878-2.02,4.308-3.044,2.018,4.641,4.09,9.424,4.09,9.424l.624.778,1.6,2.458-8.406,5.3a44.645,44.645,0,0,0,2.813-5A2,2,0,0,0,893.385,1613.249Z" transform="translate(-888.398 -1601.942)" fill="#efac7f"/>
            <path id="Path_51296" data-name="Path 51296" d="M907.345,1660.307l-8.718,5.407c-.34.171-.581-.04-.569-.271.025-.473.892-1.347,1.708-2.583,2.135-1.034,5.46-5.031,5.491-5.688C906.011,1657.98,907.5,1660.157,907.345,1660.307Z" transform="translate(-896.284 -1647.032)" fill="#45258f"/>
          </g>
          <path id="Path_51297" data-name="Path 51297" d="M788.642,1137.977a8.231,8.231,0,0,0-5.078-8.956c.023-2.156-.676-4.887-2.148-6.364-2.9-2.912-8.447-3.933-10.583-.22-2.821,1.6-5.041,5.053-4.2,8.2-2.734,2.832-1.7,7.956,2.291,10.375a8.4,8.4,0,0,0,4.395,7.693,18.315,18.315,0,0,1,1.842.922c-.174-.165,2.058,6.05,8.992,3.206C791.229,1149.931,793.254,1141.762,788.642,1137.977Z" transform="translate(-697.91 -1120.041)" fill="#5e2e0d"/>
          <path id="Path_51298" data-name="Path 51298" d="M786.219,1422.927c.861-4.774-2.129-16.609-3.952-21.812-1.9-5.412-3.1-28.316-3.1-28.316l2.15-2.514,8.775-.526s-3.734,11.472-3.734,15.413a71.864,71.864,0,0,0,3.95,19.411c1.968,4.884,1.15,15.125.555,18.492A12.734,12.734,0,0,1,786.219,1422.927Z" transform="translate(-709.387 -1323.91)" fill="#ffa700"/>
          <path id="Path_51299" data-name="Path 51299" d="M792.307,1375.559c.4.4,2.76,3.194,2.76,5.147s-4.445,19.521-3.378,20.587,5.013,3.731,7.531,7.445a155.717,155.717,0,0,1,7.915,14.329,18.886,18.886,0,0,1-5.261,2.472c-.294-1.6-14.665-17.443-16.306-20.756s-2.531-18.457-3.36-20.468-3.043-7.121-3.043-7.121Z" transform="translate(-709.387 -1328.645)" fill="#ffd584"/>
          <path id="Path_51300" data-name="Path 51300" d="M722.526,1305s-5.417,6.182-11.412,8.509a6.714,6.714,0,0,0-1.743,1.075c0,.631,1.125.174,1.125.174a1.892,1.892,0,0,0-.179,1.363c.2.749,1.5.251,2.216.251.326,0,2-1.87,4.255-2.97,2.671-1.3,5.823-2.575,6.208-2.959C723.706,1309.737,722.737,1304.777,722.526,1305Z" transform="translate(-652.408 -1271.038)" fill="#efac7f"/>
          <path id="Path_51301" data-name="Path 51301" d="M783.414,1209.921s-5.452-.552-8.3,1.262-4.662,8.282-4.662,11.042,2.051,17.274,1.262,20.035c0,0,9.01-.394,12.091-.394s3.714-1.183,3.714-1.183-6.4-6.31-6.4-9.071S783.414,1209.921,783.414,1209.921Z" transform="translate(-702.277 -1193.354)" fill="red"/>
          <g id="Group_18244" data-name="Group 18244" transform="translate(0 24.908)">
            <path id="Path_51302" data-name="Path 51302" d="M435.557,1495.171v9.456h1.023v-8.6h6.778v2.951a5.5,5.5,0,0,0-4.668,5.646,5.2,5.2,0,1,0,10.359,0,5.5,5.5,0,0,0-4.668-5.646v-2.951h1.407v-1.12h-1.407v-3.4h1.407v-1.121h-1.407V1486.6h18.544v-1.681H452.679v-9.628a5.708,5.708,0,0,1,5.528-5.448h8.81v-1.681h-8.81a7.282,7.282,0,0,0-7.062,7.129v9.628h-6.763v-5.4h-1.023v10.869h-3.432A4.6,4.6,0,0,0,435.557,1495.171Zm7.8-.262h-6.769a3.5,3.5,0,0,1,3.338-3.4h3.432Z" transform="translate(-428.868 -1429.15)" fill="#45258f"/>
            <path id="Path_51303" data-name="Path 51303" d="M434.728,1621.425s.206,3.646.207,3.654c.076.462.375,1.606.375,2.027,0,1.581-7.034-1.342-5.458-2.042a4.958,4.958,0,0,0,1.159-1.439,12.266,12.266,0,0,0,.522-2.636Z" transform="translate(-424.022 -1553.92)" fill="#f48c7f"/>
            <path id="Path_51304" data-name="Path 51304" d="M404.972,1642.815a25.347,25.347,0,0,0,2.5.6c.846.121,1.961-.9,2.559-.622.659.3.7,3.082.7,3.082s-8.841.294-11.41-.083C398.289,1645.647,401.6,1643.941,404.972,1642.815Z" transform="translate(-399.125 -1571.687)" fill="#466eb6"/>
            <g id="Group_18236" data-name="Group 18236" transform="translate(45.92 18.816)">
              <path id="Path_51305" data-name="Path 51305" d="M649.226,1399.085h1.943v-37.02a2.53,2.53,0,0,1,2.726-2.265h17.48a.827.827,0,0,0,.845-.807h0a.827.827,0,0,0-.845-.807h-17.48c-2.574,0-4.669,1.74-4.669,3.88Z" transform="translate(-649.226 -1358.185)" fill="#45258f"/>
            </g>
            <g id="Group_18237" data-name="Group 18237" transform="translate(22.531 49.375)">
              <path id="Path_51306" data-name="Path 51306" d="M547.467,1538.648a11.832,11.832,0,1,1-11.726,11.831A11.779,11.779,0,0,1,547.467,1538.648Z" transform="translate(-533.188 -1536.073)" fill="#707070"/>
              <path id="Path_51307" data-name="Path 51307" d="M521.838,1539.029a14.279,14.279,0,1,0,14.279-14.407A14.343,14.343,0,0,0,521.838,1539.029Zm1.353,0a12.926,12.926,0,1,1,12.926,13.042A12.984,12.984,0,0,1,523.191,1539.029Z" transform="translate(-521.838 -1524.622)" fill="#333"/>
            </g>
            <rect id="Rectangle_10085" data-name="Rectangle 10085" width="5.737" height="22.227" transform="translate(51.921 47.366) rotate(180)" fill="#58595b"/>
            <g id="Group_18238" data-name="Group 18238" transform="translate(17.767 61.233)">
              <path id="Path_51308" data-name="Path 51308" d="M505.491,1589.211h-4.854a4.771,4.771,0,0,0-4.744,4.787v9.456H497V1594a3.654,3.654,0,0,1,3.633-3.666h4.854Z" transform="translate(-495.893 -1589.211)" fill="#333"/>
            </g>
            <rect id="Rectangle_10086" data-name="Rectangle 10086" width="15.087" height="2.588" transform="translate(25.357 51.385) rotate(180)" fill="#45258f"/>
            <g id="Group_18239" data-name="Group 18239" transform="translate(18.322 65.758)">
              <rect id="Rectangle_10087" data-name="Rectangle 10087" width="8.96" height="1.12" fill="#333"/>
            </g>
            <g id="Group_18240" data-name="Group 18240" transform="translate(26.791 55.765)">
              <rect id="Rectangle_10088" data-name="Rectangle 10088" width="20.687" height="1.681" fill="#333"/>
            </g>
            <rect id="Rectangle_10089" data-name="Rectangle 10089" width="26.935" height="2.628" transform="translate(51.921 51.385) rotate(180)" fill="#45258f"/>
            <g id="Group_18241" data-name="Group 18241" transform="translate(51.088 20.797)">
              <path id="Path_51309" data-name="Path 51309" d="M677.376,1409.875h1.666v-37.021a2.3,2.3,0,0,1,2.337-2.265h15.712v-1.614H681.379a3.947,3.947,0,0,0-4,3.879Z" transform="translate(-677.376 -1368.975)" fill="#707070"/>
            </g>
            <path id="Path_51310" data-name="Path 51310" d="M510.993,1641.555a6.281,6.281,0,1,0,6.252-5.673A5.984,5.984,0,0,0,510.993,1641.555Z" transform="translate(-490.454 -1566.08)" fill="#45258f"/>
            <path id="Path_51311" data-name="Path 51311" d="M524.31,1651.421a3.825,3.825,0,1,0,3.807-3.455A3.644,3.644,0,0,0,524.31,1651.421Z" transform="translate(-501.326 -1575.945)" fill="#333"/>
            <path id="Path_51312" data-name="Path 51312" d="M440.413,1463.062c1.808-1.808,27-.936,27-.936s-21.346,5.209-22.593,5.888-5.885,23.6-5.89,23.9c-1.287-.306-2.067-.074-3.377-.343C435.767,1487.591,437.5,1465.974,440.413,1463.062Z" transform="translate(-428.868 -1424.054)" fill="#a0a0a0"/>
            <path id="Path_51313" data-name="Path 51313" d="M452.676,1623.972s.206,3.646.208,3.654c.076.463.375,1.606.375,2.027,0,1.581-7.034-1.342-5.458-2.043.143-.064,1.112-.9,1.159-1.439.072-.829.034-2.148.034-2.148Z" transform="translate(-438.675 -1556.356)" fill="#f7a491"/>
            <path id="Path_51314" data-name="Path 51314" d="M422.919,1643.419a25.348,25.348,0,0,0,2.5.6c.846.121,1.961-.9,2.559-.622.659.3.7,3.082.7,3.082s-8.841.295-11.41-.082C416.237,1646.252,419.543,1644.546,422.919,1643.419Z" transform="translate(-413.777 -1572.18)" fill="#466eb6"/>
            <path id="Path_51315" data-name="Path 51315" d="M482.906,1464.709s-.218,5.72-2.121,5.788-14.12.341-21-.277l-4.629,20.462-5.437-.524s1.638-13.666,2.22-18.864c.573-5.114,2.224-9.4,5.115-9.508s21.9-3.044,21.9-3.044Z" transform="translate(-440.428 -1421.464)" fill="#dbdbdb"/>
            <path id="Path_51316" data-name="Path 51316" d="M580.93,1342.105s3.085.782,2.666,6.807-3.75,24.252-9.912,25.683-10.175-11.544-10.175-11.544,3.887-1.277,5.506-7.308c1.122-4.178,4.128-13.607,4.881-14.06C575.765,1340.557,580.93,1342.105,580.93,1342.105Z" transform="translate(-533.327 -1325.562)" fill="#a0a0a0"/>
            <path id="Path_51317" data-name="Path 51317" d="M588.059,1486.21h1.666v-10.923c0-2.572,2.566-5.448,6-5.448h9.565v-1.681h-9.565c-4.084,0-7.667,3.331-7.667,7.129Z" transform="translate(-553.37 -1429.15)" fill="#333"/>
            <ellipse id="Ellipse_1994" data-name="Ellipse 1994" cx="13.467" cy="13.588" rx="13.467" ry="13.588" transform="translate(38.454 51.754)" fill="#333"/>
            <path id="Path_51318" data-name="Path 51318" d="M592.6,1538.019a16.4,16.4,0,1,0,16.4-16.546A16.473,16.473,0,0,0,592.6,1538.019Zm1.554,0A14.846,14.846,0,1,1,609,1553,14.912,14.912,0,0,1,594.15,1538.019Z" transform="translate(-557.074 -1472.677)" fill="#333"/>
            <path id="Path_51319" data-name="Path 51319" d="M621.418,1561.76a11.107,11.107,0,1,0,11.107-11.207A11.157,11.157,0,0,0,621.418,1561.76Z" transform="translate(-580.604 -1496.418)" fill="#58595b"/>
            <path id="Path_51320" data-name="Path 51320" d="M668.3,1600.377a2.5,2.5,0,1,0,2.5-2.522A2.51,2.51,0,0,0,668.3,1600.377Z" transform="translate(-618.88 -1535.034)" fill="#f4f4f4"/>
            <rect id="Rectangle_10090" data-name="Rectangle 10090" width="16.957" height="2.937" transform="translate(19.34 77.199) rotate(180)" fill="#45258f"/>
            <rect id="Rectangle_10091" data-name="Rectangle 10091" width="9.626" height="2.937" transform="translate(19.34 77.199) rotate(180)" fill="#333"/>
            <g id="Group_18242" data-name="Group 18242" transform="translate(26.236 51.353)">
              <rect id="Rectangle_10092" data-name="Rectangle 10092" width="1.111" height="25.845" fill="#333"/>
            </g>
            <path id="Path_51321" data-name="Path 51321" d="M541.453,1665.5a.685.685,0,1,0,.685-.692A.689.689,0,0,0,541.453,1665.5Z" transform="translate(-515.321 -1589.696)" fill="#45258f"/>
            <g id="Group_18243" data-name="Group 18243" transform="translate(39.644)">
              <path id="Path_51322" data-name="Path 51322" d="M621.14,1256.119a1.931,1.931,0,0,1,3.074,1.1,4.772,4.772,0,0,1,.867.023,7.006,7.006,0,0,1,1.27.867,5.316,5.316,0,0,1,2.138,4.27,6.357,6.357,0,0,1-2,4.8,4.981,4.981,0,0,1-1.28,1.089c-.6.321-1.072.066-1.635.2-.474.115-.64.615-1.2.435-.783-.253-1.606-1.234-2.577-1.089a9.781,9.781,0,0,1-3.216-.73c-2.878-1.122-.935-6.692-.383-8.669C616.717,1256.554,619.36,1255.447,621.14,1256.119Z" transform="translate(-615.044 -1255.704)" fill="#282828"/>
              <path id="Path_51323" data-name="Path 51323" d="M628.97,1312.976l-.747,2.039-.4,1.14s-.028,2.04.448,2.569c.819.91,4.186-2.462,4.186-2.462l1.067-6.416Z" transform="translate(-625.474 -1299.906)" fill="#efac7f"/>
              <path id="Path_51324" data-name="Path 51324" d="M634.936,1311.926a7.366,7.366,0,0,1-4.959,3.109l.755-2.059,4.55-3.129Z" transform="translate(-627.235 -1299.906)" fill="#d19369"/>
              <path id="Path_51325" data-name="Path 51325" d="M628.212,1271.877a3.222,3.222,0,0,0-4.671,1.6,24.359,24.359,0,0,0-.922,2.964c-.657,2.738.175,5.729,1.424,6a6.033,6.033,0,0,0,6.079-4.618C630.731,1275.432,630.011,1272.978,628.212,1271.877Z" transform="translate(-621.04 -1268.526)" fill="#efac7f"/>
              <path id="Path_51326" data-name="Path 51326" d="M658.982,1302.844a.938.938,0,1,0,1.141-.9A1.037,1.037,0,0,0,658.982,1302.844Z" transform="translate(-650.889 -1293.439)" fill="#efac7f"/>
              <path id="Path_51327" data-name="Path 51327" d="M626.244,1312.472s1.646.537,1.78,1.142a2.246,2.246,0,0,1-.873,2.149c-.806.672-2.53.257-3-.112a2.846,2.846,0,0,1-.358-2.809C624.262,1311.968,626.244,1312.472,626.244,1312.472Z" transform="translate(-622.006 -1301.931)" fill="#282828"/>
              <path id="Path_51328" data-name="Path 51328" d="M631.046,1317.494s-.01.674-.235.8a2.08,2.08,0,0,1-.75.24,1.074,1.074,0,0,1-1.005-.457.8.8,0,0,1-.058-.1,3,3,0,0,1-.2-.929,3.632,3.632,0,0,1,1.1-.1A4.6,4.6,0,0,1,631.046,1317.494Z" transform="translate(-626.271 -1305.689)" fill="#efac7f"/>
            </g>
          </g>
          <path id="Path_51329" data-name="Path 51329" d="M733.212,1335.84c.652-.651,3.674-1.657,5.966-3.313,1.013-.732,2.961-1.7,4.857-2.745a12.187,12.187,0,0,1,3.573,2.883c-3.43,1.577-7.153,3.162-7.719,3.727-1.067,1.065-2.924,3.471-3.358,3.471a14.993,14.993,0,0,1-4.227-1.459C731.81,1337.911,732.56,1336.491,733.212,1335.84Z" transform="translate(-671 -1291.273)" fill="#efac7f"/>
          <path id="Path_51330" data-name="Path 51330" d="M796.909,1232.215c2.391-1.323,4.7-2.779,4.941-4.078.435-2.327-1.541-12.383-.435-14.316a12.926,12.926,0,0,1,3.6-3.549,3.417,3.417,0,0,1,2.212,2.6c.4,1.735-.316,17.353-.711,18.773-.185.666-2.889,3.321-5.926,4.716C799.65,1235.211,798.294,1232.982,796.909,1232.215Z" transform="translate(-723.874 -1193.705)" fill="#f2eafd"/>
          <path id="Path_51331" data-name="Path 51331" d="M591.021,1443.752l-9.533,2.5a23.841,23.841,0,0,1-4.063,2.422c-1.261.4-2.8,1.79-2.5,2.216s1.886-1.021,2.143-.977-.931,1.757-1.124,2.881-.579,2.214.065,2.126,1.112-2.619,1.112-2.619.99-1.913,1.15-1.687-.661,1.539-.661,1.539-.195,1.419-.281,1.919c-.064.373.279,1.491.571,1.08.172-.241.091-1.165.29-1.691a8.348,8.348,0,0,1,1.078-1.937s-.716,3.236-.266,3.313.916-2.6.916-2.6,1.1-2.233,1.58-2.432,1.8-1.049,2.821-1.4,5.24.813,7.123.837,4.938-1.14,5.191-2.617a1.854,1.854,0,0,0-.633-1.425A5,5,0,0,0,591.021,1443.752Z" transform="translate(-542.616 -1384.179)" fill="#efac7f"/>
          <path id="Path_51332" data-name="Path 51332" d="M658.39,1345.737s2.884-.513,5.495,4.183.921,16.8.921,16.8l-5.613-2.864Z" transform="translate(-610.788 -1304.285)" fill="#d6d6d6"/>
          <path id="Path_51333" data-name="Path 51333" d="M717.517,1363.124c-.339,0-2.114.111-2.393-.167s.919-.991,1.04-.871.629-.145.8.024.677-.024.822.12S717.856,1363.124,717.517,1363.124Z" transform="translate(-657.07 -1317.618)" fill="#efac7f"/>
          <path id="Path_51334" data-name="Path 51334" d="M803.452,1176.023a27.179,27.179,0,0,0-.486,4.654c.121,1.317-.463,5.56-3.085,5.574s-.84-4.405-.593-5.7.647-6.273.647-6.273Z" transform="translate(-725.146 -1164.323)" fill="#efac7f"/>
          <path id="Path_51335" data-name="Path 51335" d="M805.582,1175.855a11.857,11.857,0,0,1,.238-1.961l3.44,1.812s-.124.682-.249,1.552A3.2,3.2,0,0,1,805.582,1175.855Z" transform="translate(-730.955 -1164.006)" fill="#d19369"/>
          <path id="Path_51336" data-name="Path 51336" d="M803.429,1130.292a4.514,4.514,0,0,1,2.281,2.132c.8,1.606,1.069,6.1-2.171,7.83s-5.379-1.459-5.178-4.313S799.461,1129.346,803.429,1130.292Z" transform="translate(-725.049 -1128.288)" fill="#efac7f"/>
          <path id="Path_51337" data-name="Path 51337" d="M793.1,1151.74c-.085.74.176,1.371.585,1.41s.809-.53.894-1.27-.176-1.371-.585-1.41S793.188,1151,793.1,1151.74Z" transform="translate(-720.753 -1144.881)" fill="#efac7f"/>
          <path id="Path_51338" data-name="Path 51338" d="M836.237,1159.865c-.285.717-.143,1.469.317,1.68s1.063-.2,1.348-.915.143-1.468-.317-1.68S836.522,1159.148,836.237,1159.865Z" transform="translate(-755.862 -1151.761)" fill="#efac7f"/>
        </g>
        <g id="Group_18246" data-name="Group 18246" transform="translate(227.197 35.401)">
          <path id="Path_51339" data-name="Path 51339" d="M1704.507,464.453l8.72,11.968,5.773-6.315Z" transform="translate(-1704.507 -464.453)" fill="url(#linear-gradient)"/>
          <path id="Path_51340" data-name="Path 51340" d="M1719.783,466.8l-.782,3.308-14.494-5.653Z" transform="translate(-1704.507 -464.453)" fill="#95bfff"/>
          <path id="Path_51341" data-name="Path 51341" d="M1719,471.369l-14.494-6.916,13.471,11.968Z" transform="translate(-1704.507 -464.453)" fill="#95bfff"/>
          <path id="Path_51342" data-name="Path 51342" d="M1766.045,522.533a14.892,14.892,0,0,1-5.883-2.283,10.19,10.19,0,0,1-4.454-6.105.391.391,0,0,1,.782-.007,9.636,9.636,0,0,0,4.086,5.449,14.412,14.412,0,0,0,5.544,2.168.391.391,0,0,1-.075.778Zm-9.555-8.392v0Z" transform="translate(-1742.748 -501.275)" fill="#ffd584"/>
          <path id="Path_51343" data-name="Path 51343" d="M1793.067,526.073a40.726,40.726,0,0,1-12.846-4.959c-3.3-1.964-5.96-4.957-9.326-6.619a.391.391,0,1,1,.346-.7c3.484,1.72,6.124,4.711,9.379,6.648a39.951,39.951,0,0,0,12.6,4.864,24.428,24.428,0,0,0,5.736.355.391.391,0,1,1,.033.781A25.381,25.381,0,0,1,1793.067,526.073Z" transform="translate(-1753.928 -501.275)" fill="#ffd584"/>
        </g>
        <g id="Group_18250" data-name="Group 18250" transform="translate(106.109 114.306)">
          <g id="Group_18249" data-name="Group 18249">
            <g id="Group_18248" data-name="Group 18248">
              <path id="Path_51344" data-name="Path 51344" d="M1000.244,932.793s-6.958-12.418-8.65-15.058-6.1-13.13-6.26-13.543,3.037-5.377,2.324-5.547-1.5,2.617-2.263,2.284-2.983-7.043-3.417-6.71c-.811.623,1.2,4.162.765,4.385s-1.742-3.894-2.591-3.773,1.615,3.774,1.377,4.1-2.8-3.119-3.258-2.385c-.251.4,2.352,3,1.852,3.248s-2.816-1.438-3.061-.953,2.142,1.149,2.856,2.457,1.929,1.873,2.434,4.294,1.259,11.184,3.845,15.556,8.272,14.047,8.272,14.047Z" transform="translate(-977.044 -894.208)" fill="#efac7f"/>
              <g id="Group_18247" data-name="Group 18247" transform="translate(37.193 56.314)">
                <path id="Path_51345" data-name="Path 51345" d="M1196.457,1243.117s-.566-.707-.736-.956c-.2-.292-.729-1.214-.729-1.214s-1.694-3.3-1.441-3.4.861.3,1.037.465.4.345.574.512a.473.473,0,0,0,.668-.03c.223-.2-.334-1.022-.583-1.266a38.4,38.4,0,0,0-3.514-2.561c-.3-.216-2.188-6.479-3-8.573h0c-1.234-3.468-2.329-7.095-2.458-7.463l-.777-15.746-5.882-1.96s.617,17.487.748,18.358c.062.414,3.546,8.231,3.549,8.229,1.958,3.741,3.693,7.032,4.008,7.674,0,0,.427,2.173.617,3.573a12.21,12.21,0,0,0,1.042,3,9.1,9.1,0,0,0,1.307,2.8c.837,1.2.595-.33.595-.33s-1.149-2.513-.936-2.572c.165-.046.711,1.365,1.623,2.7.234.345.467.684.683.994.568.813,1.23.689.772-.259a9.756,9.756,0,0,0-.7-1.246,8.208,8.208,0,0,1-.588-1.208,10.756,10.756,0,0,1-.6-1.249c.049,0,.079-.2.339.162.313.43.775,1.5,1.284,2.091.289.338.849,1.082.849,1.082a9.3,9.3,0,0,0,1.118,1.061c.42-.238-.1-1.245-.551-1.652a6.6,6.6,0,0,0-.766-1.175s-.889-1.832-.631-1.965c.211-.11,3.186,3.854,3.59,3.585C1197.3,1244.35,1196.457,1243.117,1196.457,1243.117Z" transform="translate(-1179.613 -1200.919)" fill="#efac7f"/>
              </g>
              <path id="Path_51346" data-name="Path 51346" d="M1056.294,1032.879a20.8,20.8,0,0,0-1.9-10.024c-1.322-2.751-4.594-4.312-7.577-4.316-9.473-.012-10.678,12.5-16.708,17.332-1.842,1.475-3.9,2.677-5.646,4.268-6.438,5.874-3.538,16.749,2.374,21.9,4.1,3.574,10.55,5.6,15.606,2.811a15.9,15.9,0,0,0,6.07-6.539c2.026-3.77,3.332-8.12,4.773-12.137A45.291,45.291,0,0,0,1056.294,1032.879Z" transform="translate(-1012.779 -995.711)" fill="#282828"/>
              <path id="Path_51347" data-name="Path 51347" d="M1036.06,1698.9s-.667,4.62-1.816,6.111a11.809,11.809,0,0,0-1.551,2.038,5.982,5.982,0,0,0,.209,4.658c.272.593-.019.591.6.782a3.812,3.812,0,0,0,4.572-2.142,10.864,10.864,0,0,0,.9-3.937,14.231,14.231,0,0,1,1.5-6.328Z" transform="translate(-1022.157 -1551.158)" fill="#efac7f"/>
              <path id="Path_51348" data-name="Path 51348" d="M1158.794,1710.413a43.47,43.47,0,0,1,.078,6.9c-.179.907-1.177,2.773-.719,3.626a2.3,2.3,0,0,0,.98,1.066l11.858.19c.646.011.219-.4-.3-.786a23.909,23.909,0,0,0-4.263-2.354c-.178-.086-.824-.5-1.057-.638a8.2,8.2,0,0,1-1.7-1.5c-.852-.946-.926-5.534-.926-5.534Z" transform="translate(-1124.803 -1560.554)" fill="#efac7f"/>
              <path id="Path_51349" data-name="Path 51349" d="M1162.291,1327.443s1.493,8.458.513,14-5.686,56.947-5.686,56.947l-5.229.294s-1.1-21.472-.9-24.458a46.217,46.217,0,0,1,1.748-7.983l-.521-17.336,6.6-22.775Z" transform="translate(-1119.032 -1246.833)" fill="#2d185d"/>
              <path id="Path_51350" data-name="Path 51350" d="M1063.854,1315.023s-4.118,6.185-5.1,11.3.719,20.85-1.166,27.558c-1.021,3.631-4.89,9.239-5.478,13.931s-2.9,16.984-2.9,16.984l5.227,1.034,12.147-30.7,9.529-27.744,2.441-14.289Z" transform="translate(-1035.964 -1236.192)" fill="#45258f"/>
              <path id="Path_51351" data-name="Path 51351" d="M1111.423,1131.807s-5.452-.347-7.609,2,4.784,20.906,5.177,23.891-2,10.925-2,10.925,12.807,2.572,16.467.154c0,0,.392-21.472,0-23.6s-3.66-10.807-4.445-11.66S1111.423,1131.807,1111.423,1131.807Z" transform="translate(-1080.2 -1088.168)" fill="#f17b00"/>
              <path id="Path_51352" data-name="Path 51352" d="M1148.092,1091.75s-.028.161-.079.433a41.21,41.21,0,0,1-1.811,6.841c-.764,1.441,2.616,6.04,5.87,5.478.969-.167-.818-4.224-.733-4.654.164-.823.388-1.945.615-3.1.129-.649.259-1.308.382-1.927l.632-3.2Z" transform="translate(-1115.054 -1055.382)" fill="#efac7f"/>
              <path id="Path_51353" data-name="Path 51353" d="M1155.9,1092.183c.051-.272.079-.433.079-.433l4.876-.121-.632,3.2c-.122.616-.251,1.27-.379,1.916a4.568,4.568,0,0,1-2.328-1.165,6.134,6.134,0,0,1-1.763-2.617C1155.808,1092.651,1155.858,1092.386,1155.9,1092.183Z" transform="translate(-1122.937 -1055.382)" fill="#d19369"/>
              <path id="Path_51354" data-name="Path 51354" d="M1151.09,1032a4.4,4.4,0,0,0-3.739,1.594c-1.44,1.859-2.993,7.609.585,10.735s7.114-.412,7.638-4.164S1156.3,1031.86,1151.09,1032Z" transform="translate(-1114.771 -1006.687)" fill="#efac7f"/>
              <path id="Path_51355" data-name="Path 51355" d="M1196.328,1067.108c-.427.829-1.144,1.288-1.6,1.025s-.481-1.147-.055-1.976,1.144-1.287,1.6-1.025S1196.755,1066.279,1196.328,1067.108Z" transform="translate(-1154.466 -1033.689)" fill="#efac7f"/>
              <path id="Path_51356" data-name="Path 51356" d="M1141.791,1028.447s-3.07,5.467-5.266,5.721-2.484,3.158-2.484,3.158.785-6.694,2.959-7.985A8.088,8.088,0,0,1,1141.791,1028.447Z" transform="translate(-1105.215 -1003.752)" fill="#282828"/>
              <path id="Path_51357" data-name="Path 51357" d="M1036.64,1745.589a5.847,5.847,0,0,1-5.73-2.39c-.724,1.411-1.077,3.515-.545,4.674.469,1.021,1.84.991,2.919,1.031a2.819,2.819,0,0,0,2.59-1.582A9.459,9.459,0,0,0,1036.64,1745.589Z" transform="translate(-1020.366 -1587.32)" fill="#45258f"/>
              <path id="Path_51358" data-name="Path 51358" d="M1165.249,1752.843a10.753,10.753,0,0,1-6.751-.265c-.335.946-.778,2.133-.543,2.817.288.838.7,1.027,1.06,1.037,2.865.075,10.492.177,12.677.206a.356.356,0,0,0,.278-.585C1171.427,1755.406,1165.483,1752.985,1165.249,1752.843Z" transform="translate(-1124.685 -1594.977)" fill="#45258f"/>
              <path id="Path_51359" data-name="Path 51359" d="M1140.494,1060.485c.179.971-.18,1.861-.8,1.989s-1.271-.556-1.449-1.527.181-1.861.8-1.989S1140.316,1059.514,1140.494,1060.485Z" transform="translate(-1108.609 -1028.696)" fill="#efac7f"/>
              <path id="Path_51360" data-name="Path 51360" d="M1068.631,1082.444s7.7,8.259,8.84,11.588-1.116,8.09-4.236,8.3-10.065-14.659-10.065-14.659Z" transform="translate(-1047.357 -1047.883)" fill="#f17b00"/>
            </g>
          </g>
        </g>
        <g id="Group_18252" data-name="Group 18252" transform="translate(119.191 33.093)">
          <path id="Path_51361" data-name="Path 51361" d="M1077.431,463.239l-8.691,1.893a3.863,3.863,0,0,1-4.6-2.953l-.81-3.72a3.863,3.863,0,0,1,2.953-4.6l8.691-1.892a3.863,3.863,0,0,1,4.6,2.953l.81,3.72A3.863,3.863,0,0,1,1077.431,463.239Z" transform="translate(-1060.5 -451.881)" fill="#0065ff"/>
          <path id="Path_51362" data-name="Path 51362" d="M1052.023,496.948l-3.723,6.018,5.713-2.459Z" transform="translate(-1048.3 -488.673)" fill="#0065ff"/>
          <g id="Group_18251" data-name="Group 18251" transform="translate(7.694 2.097)">
            <path id="Path_51363" data-name="Path 51363" d="M1090.44,467.8l1.449-.354s1.525-1.783,1.471-2.279-.584-1.453-.329-1.646a.977.977,0,0,1,1.359.125c.381.4.535,2.152.731,2.227a7.9,7.9,0,0,0,1.572-.274,1.105,1.105,0,0,1,1.089.357h0a.59.59,0,0,1,.021.742l-.264.345.332.282a.589.589,0,0,1,.071.828l-.212.253.221.16a.589.589,0,0,1,.089.873l-.192.211.049.055a.589.589,0,0,1-.018.8l-.195.2-3.859.943a2.731,2.731,0,0,1-1.1.04l-1.412.107a.308.308,0,0,1-.323-.238l-.774-3.39A.307.307,0,0,1,1090.44,467.8Z" transform="translate(-1090.206 -463.303)" fill="#fff"/>
          </g>
        </g>
        <g id="Group_18254" data-name="Group 18254" transform="translate(147.528)">
          <path id="Path_51364" data-name="Path 51364" d="M1218.438,272.031c7.785,1.45,13.375,6.5,12.485,11.285-.445,2.391-2.427,4.263-5.269,5.355l1.846,7.64-5.629-6.72a21.829,21.829,0,0,1-6.659-.24c-7.786-1.45-13.375-6.5-12.485-11.285S1210.652,270.581,1218.438,272.031Z" transform="translate(-1202.634 -271.64)" fill="#ffd584"/>
          <g id="Group_18253" data-name="Group 18253" transform="translate(9.866 3.738)">
            <path id="Path_51365" data-name="Path 51365" d="M1265.871,299.164a5,5,0,1,1-2.341-6.669A5,5,0,0,1,1265.871,299.164Z" transform="translate(-1256.369 -292)" fill="#ffa700"/>
            <path id="Path_51366" data-name="Path 51366" d="M1267.433,316.814a2.672,2.672,0,1,0,4.816,2.314Z" transform="translate(-1265.186 -312.258)" fill="#fff"/>
          </g>
        </g>
      </g>
    </g>
  </g>
</svg>
