<svg xmlns="http://www.w3.org/2000/svg" xmlns:xlink="http://www.w3.org/1999/xlink" width="320" height="128" viewBox="0 0 320 128">
  <defs>
    <clipPath id="clip-path">
      <rect id="Rectangle_10144" data-name="Rectangle 10144" width="320" height="128" rx="5" transform="translate(28 131)" fill="#ebddff"/>
    </clipPath>
  </defs>
  <g id="Mask_Group_50" data-name="Mask Group 50" transform="translate(-28 -131)" clip-path="url(#clip-path)">
    <g id="Group_18534" data-name="Group 18534" transform="translate(-21.407 60.809)">
      <path id="Path_51915" data-name="Path 51915" d="M125.508,219.341c-4.261-2.839-9.859-3.4-15.783-.13-6.532,3.608-11.334,7.293-19.2,5.863-12.357-2.245-22.357-9.252-35.42-8.582-6.882.353-14,2.769-18.4,8.118a19.71,19.71,0,0,0-4.058,15.457,21.783,21.783,0,0,0,8.349,13.7,18.233,18.233,0,0,0,11.637,3.916c3.789-.173,7.352-1.756,10.887-3.142,8.518-3.339,18.074-5.643,26.712-2.633,5.272,1.837,9.691,5.585,15.293,6.389a24.807,24.807,0,0,0,16.149-3.2c6.239-3.741,10.974-10.578,11.623-17.9C133.955,229.739,130.737,222.826,125.508,219.341Z" transform="translate(-11.487 -83.176)" fill="#fff"/>
      <path id="Path_51916" data-name="Path 51916" d="M186.761,320.733c-4.376,1.869-9.433,4.66-9.68,9.411a8.671,8.671,0,0,0,3.222,6.69,25.675,25.675,0,0,0,6.634,3.818l11.281,5.068a16.234,16.234,0,0,1,5.483,3.408c3.806,4.118,3.3,11.944,8.519,14a6.367,6.367,0,0,0,7.279-2.37,7.782,7.782,0,0,0,.36-7.85c-2.2-4.282-7.376-5.919-11.16-8.9a17.827,17.827,0,0,1-6.2-9.525c-.5-1.974-.666-4.034-1.336-5.958a12.257,12.257,0,0,0-14.424-7.468" transform="translate(-73.104 -138.224)" fill="none" stroke="#9944ea" stroke-width="0.412"/>
      <path id="Path_51917" data-name="Path 51917" d="M393.013,132.48c-1.076-2.974-3.315-5.59-6.4-6.351-5.7-.464-8.676.984-11.624,3.828s-4.639,6.711-6.282,10.462-3.389,7.606-6.407,10.375c-5.151,4.726-13.095,5.469-18.109,10.34s-5.768,13.191-2.58,19.412,9.719,10.326,16.59,11.619a21.318,21.318,0,0,0,6.783.269c6.624-.895,12.264-5.78,15.3-11.736s3.746-12.856,3.388-19.531c-.174-3.253-.561-6.669.78-9.638,2.658-5.886,9.45-7.91,9.274-15.328A11.865,11.865,0,0,0,393.013,132.48Z" transform="translate(-159.017 -35.417)" fill="#fff"/>
      <path id="Path_51918" data-name="Path 51918" d="M192.009,147.292a6.177,6.177,0,0,1,1.706-6.72,9.71,9.71,0,0,1,6.835-2.29c3.059.07,6.149,1.161,9.12.432,3.057-.751,5.351-3.3,6.973-6s2.786-5.677,4.676-8.193c2.275-3.028,6.438-5.346,9.793-3.591,2.557,1.337,3.593,4.664,2.976,7.483s-2.555,5.172-4.71,7.091-4.583,3.524-6.64,5.548c-3.546,3.49-5.867,8.107-9.58,11.419-3.554,3.171-8.55,4.979-13.185,3.878s-8.51-5.546-8.14-10.295" transform="translate(-80.782 -32.398)" fill="none" stroke="#9944ea" stroke-width="0.439"/>
      <path id="Path_51919" data-name="Path 51919" d="M516.11,190.523c-2.809-4.718-9.618-7.615-14.981-6.338-8.074,1.924-8.333,10.89-9.32,17.654-.757,5.194-2.457,10.546-6.366,14.048-2.253,2.019-5.07,3.27-7.8,4.565-6.94,3.285-13.765,7.129-19.075,12.673s-8.986,13.028-8.545,20.693a16.349,16.349,0,0,0,1.258,5.626c1.694,3.869,5.182,6.692,8.932,8.634a33.046,33.046,0,0,0,17.21,3.611c5.512-.354,11.1-2.236,14.991-6.159,5.573-5.624,6.679-14.166,7.357-22.054s1.471-16.387,6.67-22.359c1.608-1.847,3.571-3.357,5.2-5.186a26.2,26.2,0,0,0,6.05-20.987A12.757,12.757,0,0,0,516.11,190.523Z" transform="translate(-217.276 -65.973)" fill="#fff"/>
      <path id="Path_51920" data-name="Path 51920" d="M537.34,95.044a18.529,18.529,0,0,0-15.16,5.1,16.047,16.047,0,0,0-4.159,15.244,14.17,14.17,0,0,0,11.8,10.174c3.791.379,7.537-.908,11.335-1.209A22.321,22.321,0,0,1,558.727,131a32.25,32.25,0,0,0,3.928,3.948,5.547,5.547,0,0,0,5.24,1,7.5,7.5,0,0,0,3.085-3.122,12.151,12.151,0,0,0,2.2-5.016c.512-4.409-3.514-7.991-7.469-10.007s-8.519-3.571-10.911-7.311a38.168,38.168,0,0,1-2.145-4.619,19.358,19.358,0,0,0-16.888-10.945" transform="translate(-252.942 -18.974)" fill="none" stroke="#9944ea" stroke-width="0.439"/>
      <path id="Path_51921" data-name="Path 51921" d="M627.782,249q-.405-.243-.822-.46c-8.439-4.409-18.859-.6-24.6,6.415-5.9,7.208-6.654,19.088-14.6,24.459-2.647,1.789-5.615,1.745-8.571,2.618-8,2.364-18.891,12.252-12.262,21.154,5.749,7.72,19.793,3.119,25.172-2.806,2.763-3.044,4.482-6.934,7.34-9.889,6.33-6.544,15.955-7.21,23.773-11.065,5.31-2.619,10.286-6.773,12.076-12.614C637.388,259.951,633.775,252.593,627.782,249Z" transform="translate(-277.971 -99.135)" fill="none" stroke="#9944ea" stroke-width="0.439"/>
      <path id="Path_51922" data-name="Path 51922" d="M670.869,331.017c-2.8-.894-6.1,1.084-5.856,5.823.122,2.4,1.108,4.947,3.21,6.116,4.571,2.541,6.81-3.059,6.346-6.784C674.21,333.29,672.638,331.581,670.869,331.017Z" transform="translate(-330.865 -143.59)" fill="#f2eafd"/>
      <path id="Path_51923" data-name="Path 51923" d="M46.32,154.638a8.065,8.065,0,0,0-3.851,3.5,5.446,5.446,0,0,0-.031,5.087,6.143,6.143,0,0,0,2.925,2.459c2.818,1.242,6.741.583,8.029-2.214a5.372,5.372,0,0,0,.42-2.711,7.026,7.026,0,0,0-7.832-6.058" transform="translate(-1.655 -50.514)" fill="none" stroke="#9944ea" stroke-width="0.439"/>
      <g id="Group_18523" data-name="Group 18523" transform="translate(63.129 82.628)">
        <g id="Group_18517" data-name="Group 18517" transform="translate(0 0)">
          <path id="Path_51924" data-name="Path 51924" d="M165.521,356.476c-.267-.859-.6-1.693-.8-2.577a8.923,8.923,0,0,1,.5-6.124c-.262-.121-.522-.248-.786-.363a2.731,2.731,0,0,0-3.182.651,3.866,3.866,0,0,0-1.148,3.25c.092.962.172,1.926.288,2.885a37.774,37.774,0,0,1,.2,6.072,14.467,14.467,0,0,0,.08,1.543,1.778,1.778,0,0,0,.214.737,1.082,1.082,0,0,0,1.754.418,4.342,4.342,0,0,0,1.615-2.668,24.231,24.231,0,0,1,.8-2.984A2.6,2.6,0,0,1,165.521,356.476Z" transform="translate(-139.368 -234.854)" fill="#6395ce"/>
          <g id="Group_18495" data-name="Group 18495" transform="translate(1.679 5.187)">
            <path id="Path_51925" data-name="Path 51925" d="M63.52,141.856a6.634,6.634,0,0,1,2.6-1.506,8.932,8.932,0,0,1,6.184.165c3.081,1.27,5.2,4.174,8.155,5.722,2.886,1.513,6.419,1.654,9.062,3.561,1.567,1.131,2.753,2.841,4.561,3.527a7.423,7.423,0,0,0,3.844.179c3.527-.589,7.1-2.512,8.45-5.824.92-2.261.719-4.934,2.017-7,.818-1.3,2.179-2.263,2.711-3.706.754-2.043-.385-4.238-.8-6.375a9.187,9.187,0,0,1,1.568-7.149,8.329,8.329,0,0,1,6.451-3.355,8.631,8.631,0,0,1,4.589,1.336c3.444,2.379,4.607,7.11,3.878,11.231s-3,7.783-5.284,11.293-4.659,7.076-5.644,11.144a3.264,3.264,0,0,0-.023,1.982,4.334,4.334,0,0,0,1.562,1.6c5.272,4.073,5.488,12,9.4,17.389,1.269,1.747,2.91,3.2,4.185,4.939,1.552,2.122,2.429,4.849,1.235,7.349a6.184,6.184,0,0,1-5.477,3.487c-.092,0-.183,0-.275-.01-.939-.06-1.857-.343-2.8-.359a9.917,9.917,0,0,0-2.776.487,104.869,104.869,0,0,0-10.956,3.457c-3.72,1.481-7.285,3.393-11.149,4.442s-8.211,1.14-11.655-.9a12.228,12.228,0,0,1-5.543-8.368A17.228,17.228,0,0,1,83.089,180.5c1.039-2.276,2.477-4.379,3.238-6.762s.711-5.25-.98-7.094a13.756,13.756,0,0,0-3.577-2.338,17.909,17.909,0,0,1-4.857-4.023,23.51,23.51,0,0,0-2.254-2.578c-1.593-1.405-3.714-2.018-5.582-3.028a14.677,14.677,0,0,1-5.424-5.093c-1.3-2.079-2.336-4.616-.837-6.88A5.245,5.245,0,0,1,63.52,141.856Z" transform="translate(-62.076 -120.085)" fill="#d20043"/>
            <path id="Path_51926" data-name="Path 51926" d="M50.535,308.322c.158.241.324.477.473.724a6.939,6.939,0,0,0,7.974,3.192,6.54,6.54,0,0,0,1.884-.724,3.231,3.231,0,0,1,3.211-.092c1.054.273,2.1.557,3.162.814a.543.543,0,0,1,.461.62,8.244,8.244,0,0,0,1.3,4.363c.026.018.062.03.079.054,2.271,3.4,6.992,2.908,9.534.53.776-.726,1.489-1.52,2.239-2.275.545-.549,1.087-1.1,1.661-1.622a17.813,17.813,0,0,1,4.437-3.061,61.463,61.463,0,0,0,8.627-4.765,19.67,19.67,0,0,0,5.15-5.051,11.108,11.108,0,0,0,1.588-9.508,18.465,18.465,0,0,0-2.753-5.935c-1.128-1.65-2.231-3.323-3.455-4.9a58.617,58.617,0,0,1-6.268-10.316c-1.09-2.233-2.223-4.438-3.479-6.581-.113-.193-.2-.4-.3-.6a19.006,19.006,0,0,1-1.971-3.644A13.02,13.02,0,0,0,82.135,256c-.277.221-.556.438-.83.662a20.207,20.207,0,0,1-6.96,3.869,55.229,55.229,0,0,1-11.114,2.385,1.732,1.732,0,0,0-1.184.318,2.065,2.065,0,0,1,0,.382c-.5,2.765-1.03,5.526-1.264,8.332a26.117,26.117,0,0,0,2.311,10.991c.551,1.342,1.228,2.628,1.809,3.959a8.17,8.17,0,0,1,.634,4.632,20.335,20.335,0,0,0-.037,6.839c.1.562.042.562-.557.541a25.023,25.023,0,0,1-7.487-1.4,8.308,8.308,0,0,0-2.282-.392,5.115,5.115,0,0,0-4.616,2.145c-.1.126-.213.237-.321.355a8.923,8.923,0,0,0-.5,6.124C49.933,306.629,50.269,307.464,50.535,308.322Zm31.627-19.754c.668.646,1.146,1.118,1.637,1.577.469.441.967.851,1.425,1.3a1.554,1.554,0,0,1,.013,2.415c-.685.68-1.366,1.366-2.053,2.043-.635.626-.759.6-1.1-.211a1.021,1.021,0,0,1-.1-.461A40.467,40.467,0,0,0,82.162,288.569Z" transform="translate(-26.061 -191.888)" fill="#e17c37"/>
            <path id="Path_51927" data-name="Path 51927" d="M126.322,181.128a.842.842,0,0,1,.606-.665.375.375,0,0,1,.2,0,.471.471,0,0,1,.224.21,3.714,3.714,0,0,0,.7.985c.318.251.875.266,1.058-.1.042-.082.075-.189.165-.206a.236.236,0,0,1,.186.085,19.726,19.726,0,0,0,3.891,2.722c.051.027.108.064.11.121s-.04.09-.073.129c-.175.213-.083.531.025.785.316.743.8,1.535,1.59,1.694a.88.88,0,0,1,.356.108.612.612,0,0,1,.194.323,3.87,3.87,0,0,1-1.064,3.858,2.56,2.56,0,0,1-2.05.758,2.716,2.716,0,0,1-1.3-.591c-.973-.764-2.381-2.22-1.505-3.032,1.445-1.34.488-4.541-1.243-5.412a2.708,2.708,0,0,0-.669-.178,1.848,1.848,0,0,1-1.339-.909A1.072,1.072,0,0,1,126.322,181.128Z" transform="translate(-95.298 -151.974)" fill="#d77062"/>
            <path id="Path_51928" data-name="Path 51928" d="M127.026,379.28a8.243,8.243,0,0,1-1.3-4.363.543.543,0,0,0-.461-.62c-1.058-.257-2.108-.541-3.162-.814a3.247,3.247,0,0,0-1.152,2.936,31.828,31.828,0,0,0,.38,3.258,25.873,25.873,0,0,1,.142,3.562c.008.771-.058,1.543-.07,2.314a2.318,2.318,0,0,0,.4,1.467,1.016,1.016,0,0,0,1.515.269,3.638,3.638,0,0,0,1.5-2.407,11.992,11.992,0,0,1,2.118-5.231A1,1,0,0,0,127.026,379.28Z" transform="translate(-84.091 -253.949)" fill="#6395ce"/>
            <path id="Path_51929" data-name="Path 51929" d="M92.532,205.787a1.991,1.991,0,0,1,.023-2.181,8.578,8.578,0,0,0,1.182-3.839,23.9,23.9,0,0,0-.07-2.891c-.037-.959.316-1.354,1.274-1.455.511-.054,1.027-.056,1.541-.081a3.954,3.954,0,0,0,1.722,3.2,2.262,2.262,0,0,0,2.633.051,3.715,3.715,0,0,0,1.4-4.587,1.694,1.694,0,0,1,2.466.735,29.046,29.046,0,0,0,4.936,5.281l.023.019c.094.071.184.146.27.225l.3.253c0,.015-.008.031-.012.046a2.523,2.523,0,0,1,.653,1.451c.214,3.341-.541,6.969,1.162,9.851a14.794,14.794,0,0,0,3.347,3.465,9.491,9.491,0,0,1,2.994,3.735,4,4,0,0,1-.452,3.706,5.155,5.155,0,0,1-.084.647c-.151.12-.3.239-.453.361a20.2,20.2,0,0,1-6.96,3.869,55.223,55.223,0,0,1-11.114,2.385,1.732,1.732,0,0,0-1.184.318,2.939,2.939,0,0,1-1.435-1.629,10.652,10.652,0,0,1-.8-4.819,41.625,41.625,0,0,0-.048-7.811,23.786,23.786,0,0,0-1.051-5.288A31.579,31.579,0,0,0,92.532,205.787Zm22.6,13.255c.2.152.422.306.647.465a14.4,14.4,0,0,0-1.49-1.175A10.758,10.758,0,0,0,115.132,219.042Z" transform="translate(-62.145 -158.994)" fill="#f8ebe5"/>
            <path id="Path_51930" data-name="Path 51930" d="M128.02,173.1c.674,3.07,2.771,5.233,4.677,4.8,2.723-.619,2.909-3.248,2.235-6.318s-2.769-5.219-4.677-4.8S127.345,170.031,128.02,173.1Z" transform="translate(-95.562 -144.727)" fill="#d77062"/>
            <path id="Path_51931" data-name="Path 51931" d="M120.957,152.355c.7-.228,1.411-.45,2.113-.686,3.413-1.153,5.735-3.344,6.3-7a6.861,6.861,0,0,0-2.424-6.772,4.712,4.712,0,0,0-4.066-1.078,4.418,4.418,0,0,0-3.6,5.318,12.774,12.774,0,0,0,.892,2.955,1.3,1.3,0,0,1,.155.737c-.337,2.022-1.081,3.778-3.009,4.809a5.9,5.9,0,0,0-1.415,1.005,1.8,1.8,0,0,0-.561,1.759,2.759,2.759,0,0,1-.035,1.324,4.535,4.535,0,0,0,.461,2.622,4.4,4.4,0,0,0,.824,1.172c.451.387.77.35,1.127-.133a2.2,2.2,0,0,0,.417-1.635,4.678,4.678,0,0,0-1.021-2.346c-.484-.613-.468-.671.247-1.018A15.885,15.885,0,0,1,120.957,152.355Z" transform="translate(-83.86 -128.87)" fill="#212443"/>
            <path id="Path_51932" data-name="Path 51932" d="M141.709,180.26c.571,1.133,1.541,1.8,2.167,1.481s.671-1.49.1-2.623-1.541-1.8-2.167-1.481S141.138,179.127,141.709,180.26Z" transform="translate(-111.046 -150.447)" fill="#d77062"/>
            <path id="Path_51933" data-name="Path 51933" d="M125.617,175.64c-.151,1.128.236,2.111.867,2.2s1.264-.761,1.415-1.889-.236-2.111-.866-2.2S125.769,174.512,125.617,175.64Z" transform="translate(-87.184 -148.432)" fill="#d77062"/>
          </g>
          <path id="Path_51934" data-name="Path 51934" d="M130.636,181.861a1.338,1.338,0,0,0,2.533-.836Z" transform="translate(-93.154 -147.091)" fill="#fff"/>
          <path id="Path_51935" data-name="Path 51935" d="M202.168,157.849c.316-.418,2.049,1.085,2.049,1.085s-2.135-2.1-1.953-2.461c.287-.566,2.677,1.863,2.677,1.863s-2.534-2.71-1.969-3.117,2.767,2.561,2.767,2.561-1.9-2.919-1.357-3.181,2.848,3.6,2.848,3.6.339-2.249.8-2.209c.78.067.261,4.873.261,4.873l-2.044,1.686S201.853,158.268,202.168,157.849Z" transform="translate(-202.152 -133.124)" fill="#d77062"/>
          <path id="Path_51936" data-name="Path 51936" d="M84.882,111.882c-.387-.354-1.814,1.443-1.814,1.443s1.712-2.459,1.467-2.778c-.386-.5-2.288,2.323-2.288,2.323s1.992-3.13,1.363-3.426-2.25,3.026-2.25,3.026,1.331-3.219.75-3.377-2.139,4.059-2.139,4.059-.746-2.148-1.193-2.024c-.755.209.639,4.838.639,4.838l2.319,1.282S85.269,112.236,84.882,111.882Z" transform="translate(-20.298 -109.089)" fill="#d77062"/>
          <g id="Group_18496" data-name="Group 18496" transform="translate(2.967 27.097)">
            <path id="Path_51937" data-name="Path 51937" d="M204.337,167.543a5.593,5.593,0,0,1-3.5,1.984c-.751.087-.744-1.089,0-1.176a4.419,4.419,0,0,0,2.669-1.64c.524-.549,1.354.284.831.832Z" transform="translate(-200.276 -166.532)" fill="#4f7ca6"/>
          </g>
          <g id="Group_18497" data-name="Group 18497" transform="translate(57.351 6.584)">
            <path id="Path_51938" data-name="Path 51938" d="M83.258,123.053a5.408,5.408,0,0,1,4.629,2.209c.458.6-.563,1.19-1.015.594a4.2,4.2,0,0,0-3.613-1.627c-.756.038-.754-1.138,0-1.176Z" transform="translate(-82.691 -123.046)" fill="#4f7ca6"/>
          </g>
          <g id="Group_18498" data-name="Group 18498" transform="translate(42.464 38.057)">
            <path id="Path_51939" data-name="Path 51939" d="M86.67,189.913a19.831,19.831,0,0,0,9.584,9.17c3.442,1.552,7.913,3,8.448,7.36.046.375-.542.371-.588,0-.6-4.9-6.693-5.833-10.2-7.9a20.289,20.289,0,0,1-7.755-8.334c-.17-.337.337-.635.508-.3Z" transform="translate(-86.128 -189.764)" fill="#4f7ca6"/>
          </g>
          <g id="Group_18499" data-name="Group 18499" transform="translate(60.487 56.353)">
            <path id="Path_51940" data-name="Path 51940" d="M84.02,228.759a12.337,12.337,0,0,0,1.2,2.844.294.294,0,0,1-.508.3,12.992,12.992,0,0,1-1.259-2.984.294.294,0,0,1,.567-.156Z" transform="translate(-83.441 -228.551)" fill="#4f7ca6"/>
          </g>
          <g id="Group_18500" data-name="Group 18500" transform="translate(29.485 40.044)">
            <path id="Path_51941" data-name="Path 51941" d="M148.507,194.339c-.551,1.751.105,3.453.09,5.224a10.143,10.143,0,0,1-.9,3.784c-1.068,2.566-2.756,5.051-2.411,7.951.044.375-.544.372-.588,0-.326-2.743,1.109-5.142,2.19-7.552a10.164,10.164,0,0,0,1.116-4.6c-.076-1.695-.585-3.3-.059-4.968.113-.359.681-.206.567.157Z" transform="translate(-144.646 -193.978)" fill="#4f7ca6"/>
          </g>
          <g id="Group_18501" data-name="Group 18501" transform="translate(28.643 60.451)">
            <path id="Path_51942" data-name="Path 51942" d="M153.784,237.521a5.271,5.271,0,0,1-.29,2.23c-.126.354-.694.2-.567-.157a4.865,4.865,0,0,0,.269-2.073c-.032-.377.557-.375.588,0Z" transform="translate(-152.909 -237.239)" fill="#4f7ca6"/>
          </g>
          <g id="Group_18502" data-name="Group 18502" transform="translate(26.789 69.223)">
            <path id="Path_51943" data-name="Path 51943" d="M149.348,270.359c-2.978-.051-6.307-1.747-7.375-4.646-1.212-3.288.154-6.689,1.436-9.725.147-.348.653-.048.508.3-1.137,2.694-2.359,5.652-1.583,8.616.792,3.021,4.012,4.82,7.015,4.871a.294.294,0,0,1,0,.588Z" transform="translate(-141.502 -255.833)" fill="#4f7ca6"/>
          </g>
          <g id="Group_18503" data-name="Group 18503" transform="translate(61.782 63.361)">
            <path id="Path_51944" data-name="Path 51944" d="M73.586,243.461a10.1,10.1,0,0,1,4.313,6.906,3.285,3.285,0,0,1-1.243,3.187c-1.308.848-2.978-.193-4.227.689-.31.219-.6-.291-.3-.508a3.249,3.249,0,0,1,2.277-.406,2.656,2.656,0,0,0,2.282-.565,3.063,3.063,0,0,0,.588-2.558,9.564,9.564,0,0,0-3.99-6.238c-.305-.218-.012-.729.3-.508Z" transform="translate(-72.002 -243.407)" fill="#4f7ca6"/>
          </g>
          <g id="Group_18504" data-name="Group 18504" transform="translate(46.414 28.833)">
            <path id="Path_51945" data-name="Path 51945" d="M106.443,183.974a20.576,20.576,0,0,1-8.727-13.394c-.066-.37.5-.529.567-.156a20,20,0,0,0,8.457,13.042c.312.211.018.721-.3.508Z" transform="translate(-97.71 -170.211)" fill="#4f7ca6"/>
          </g>
          <g id="Group_18505" data-name="Group 18505" transform="translate(23.772 34.043)">
            <path id="Path_51946" data-name="Path 51946" d="M158.856,181.469a22.933,22.933,0,0,1-.557,10.25c-.7,2.5-1.544,5.346-3.966,6.7-.331.184-.627-.323-.3-.508,2.39-1.335,3.159-4.317,3.815-6.783a21.968,21.968,0,0,0,.437-9.5c-.065-.37.5-.529.567-.156Z" transform="translate(-153.892 -181.256)" fill="#4f7ca6"/>
          </g>
          <g id="Group_18506" data-name="Group 18506" transform="translate(35.334 41.191)">
            <path id="Path_51947" data-name="Path 51947" d="M131.041,196.687a4.971,4.971,0,0,1-3.089,5.364c-2.472.948-4.187-.413-5.341-2.5-.183-.331.324-.628.508-.3a5.306,5.306,0,0,0,1.669,2.115,3.508,3.508,0,0,0,3.259,0,4.418,4.418,0,0,0,2.406-4.687c-.049-.374.54-.371.588,0Z" transform="translate(-122.572 -196.408)" fill="#eac2b0"/>
          </g>
          <g id="Group_18507" data-name="Group 18507" transform="translate(46.298 55.968)">
            <path id="Path_51948" data-name="Path 51948" d="M103.616,241.082c.645-1.932-1.964-2.981-3.21-3.892a25.93,25.93,0,0,1-7.732-9.011c-.176-.334.332-.632.508-.3a25.812,25.812,0,0,0,6.084,7.663c1.16.989,2.461,1.732,3.666,2.649a2.7,2.7,0,0,1,1.251,3.044c-.119.357-.687.2-.567-.156Z" transform="translate(-92.637 -227.735)" fill="#eac2b0"/>
          </g>
          <g id="Group_18508" data-name="Group 18508" transform="translate(45.184 52.329)">
            <path id="Path_51949" data-name="Path 51949" d="M117.982,220.305a2.661,2.661,0,0,0,.468,1.577c.212.315-.3.609-.508.3a3.214,3.214,0,0,1-.548-1.873.294.294,0,0,1,.588,0Z" transform="translate(-117.393 -220.021)" fill="#eac2b0"/>
          </g>
          <g id="Group_18509" data-name="Group 18509" transform="translate(25.094 74.598)">
            <path id="Path_51950" data-name="Path 51950" d="M132.3,267.677c-2.949,6.436-1.208,13.677,2.269,19.522.612,1.028,1.768,2.176,1.821,3.426.059,1.382-.641,2.925-.853,4.294-.525,3.393-.175,7.09,2.409,9.6a.3.3,0,0,1-.13.491,3.3,3.3,0,0,0-2.329,3.517.3.3,0,0,1-.442.254,9.171,9.171,0,0,0-9.7.329.3.3,0,0,1-.356-.046,7.131,7.131,0,0,0-8.218-.736.294.294,0,0,1-.3-.508A7.667,7.667,0,0,1,121.2,306.8a7.784,7.784,0,0,1,2.127.542c.665.276,1.515,1.152,2.159.968.785-.225,1.5-.776,2.321-1a9.873,9.873,0,0,1,2.512-.36,9.7,9.7,0,0,1,5.019,1.324l-.442.254a3.879,3.879,0,0,1,2.761-4.084q-.065.246-.13.492a10.359,10.359,0,0,1-2.781-8.156,35.076,35.076,0,0,1,.9-5.2,3.447,3.447,0,0,0-.822-2.852q-.73-1.124-1.375-2.3c-3.184-5.821-4.506-12.82-1.655-19.042.158-.344.665-.045.508.3Z" transform="translate(-116.325 -267.228)" fill="#f8ebe5"/>
          </g>
          <g id="Group_18510" data-name="Group 18510" transform="translate(57.464 95.256)">
            <path id="Path_51951" data-name="Path 51951" d="M86.506,317.327c1.5-1.733,3-3.589,2.738-6.026-.041-.375.548-.373.588,0,.279,2.579-1.321,4.6-2.91,6.442-.248.287-.662-.131-.416-.416Z" transform="translate(-86.43 -311.02)" fill="#cc5b1c"/>
          </g>
          <g id="Group_18511" data-name="Group 18511" transform="translate(54.861 101.378)">
            <path id="Path_51952" data-name="Path 51952" d="M95.035,324.279c.633,5.384,1,10.912-2.386,15.508-.222.3-.733.008-.508-.3,3.331-4.515,2.926-9.934,2.305-15.212-.044-.375.544-.372.588,0Z" transform="translate(-92.086 -323.999)" fill="#cc5b1c"/>
          </g>
          <g id="Group_18512" data-name="Group 18512" transform="translate(36.372 120.346)">
            <path id="Path_51953" data-name="Path 51953" d="M120.8,364.72a11.571,11.571,0,0,1-2.8,2.593,17.018,17.018,0,0,1-3.867,1.4,8.526,8.526,0,0,1-3.715.588c-1.292-.219-3.5-1.541-4.684-.613-.295.231-.714-.183-.416-.416a2.951,2.951,0,0,1,2.636-.254c1.647.349,2.909.951,4.627.517a33.568,33.568,0,0,0,4.146-1.269,9.644,9.644,0,0,0,3.66-2.963c.248-.287.662.131.416.416Z" transform="translate(-105.216 -364.208)" fill="#cc5b1c"/>
          </g>
          <g id="Group_18513" data-name="Group 18513" transform="translate(59.742 98.637)">
            <path id="Path_51954" data-name="Path 51954" d="M74.954,318.289a36.412,36.412,0,0,0,6.23,6.253.3.3,0,0,1,.046.356,11.208,11.208,0,0,0-.9,8.082.294.294,0,0,1-.567.157,11.828,11.828,0,0,1-.367-4.128,24.4,24.4,0,0,1,.977-3.71c.13-.522.2-.4-.238-.842-.231-.236-.52-.431-.77-.647q-.837-.723-1.628-1.5a36.523,36.523,0,0,1-3.2-3.607c-.23-.3.183-.714.416-.416Z" transform="translate(-74.471 -318.187)" fill="#cc5b1c"/>
          </g>
          <g id="Group_18514" data-name="Group 18514" transform="translate(43.914 113.685)">
            <path id="Path_51955" data-name="Path 51955" d="M98.347,350.659c-8.955,1.3-10.887,15.715-20.892,14.192-.373-.057-.214-.623.157-.567,5.241.8,8.772-3.952,11.582-7.585,2.311-2.988,5.058-6.035,9-6.608.37-.054.53.513.157.568Z" transform="translate(-77.243 -350.088)" fill="#cc5b1c"/>
          </g>
          <g id="Group_18515" data-name="Group 18515" transform="translate(52.477 67.058)">
            <path id="Path_51956" data-name="Path 51956" d="M67.188,256.987c1.291-2.63,4.074-5.6,7.215-5.739a5.591,5.591,0,0,1,3.626,1.56,5.611,5.611,0,0,0,2.161,1.228,5.725,5.725,0,0,0,3.569-.932c.675-.338,1.271.676.593,1.016-1.376.69-2.9,1.4-4.475,1.05-1.309-.294-2.249-1.278-3.32-2.008-3.284-2.235-6.976,1.613-8.353,4.417-.334.68-1.348.084-1.016-.593Z" transform="translate(-67.122 -251.245)" fill="#cc5b1c"/>
          </g>
          <g id="Group_18516" data-name="Group 18516" transform="translate(47.385 72.949)">
            <path id="Path_51957" data-name="Path 51957" d="M80.931,264.531a2.385,2.385,0,0,1,3.594.039c1.395,1.533,1.719,3.737,2.755,5.478a4.391,4.391,0,0,0,2.445,2.136c1.149.3,2.245-.361,3.365-.516a3.7,3.7,0,0,1,3.786,1.989c.355.668-.66,1.263-1.016.594a2.52,2.52,0,0,0-2.053-1.436,13.048,13.048,0,0,0-2.851.581,4.07,4.07,0,0,1-3.266-1.025,8.626,8.626,0,0,1-2.228-3.412c-.463-1.117-1.869-5.536-3.7-3.6-.521.551-1.351-.281-.832-.832Z" transform="translate(-80.767 -263.733)" fill="#cc5b1c"/>
          </g>
        </g>
        <g id="Group_18518" data-name="Group 18518" transform="translate(40.694 73.553)">
          <path id="Path_51958" data-name="Path 51958" d="M112.3,265.912a18.022,18.022,0,0,0,2.3,18.145,6.538,6.538,0,0,1,1.7,3.842c.039,1.8-.436,3.636-.53,5.439-.189,3.624.387,7.418,2.968,10.151a.6.6,0,0,1-.259.983,4.689,4.689,0,0,0-3.316,4.794c.043.756-1.133.753-1.176,0a5.87,5.87,0,0,1,4.179-5.928l-.259.983a13.639,13.639,0,0,1-3.349-9.425c-.021-2.08.345-4.1.525-6.161.188-2.156-1.009-3.33-2.153-4.972a19.107,19.107,0,0,1-1.641-18.443c.306-.691,1.32-.093,1.016.593Z" transform="translate(-109.654 -265.012)" fill="#f8ebe5"/>
        </g>
        <g id="Group_18519" data-name="Group 18519" transform="translate(32.232 116.51)">
          <path id="Path_51959" data-name="Path 51959" d="M131.467,358.025a11.794,11.794,0,0,0-11.673,1.9c-.578.481-1.414-.347-.832-.832a12.965,12.965,0,0,1,12.818-2.207c.7.265.4,1.4-.313,1.134Z" transform="translate(-118.764 -356.077)" fill="#f8ebe5"/>
        </g>
        <g id="Group_18520" data-name="Group 18520" transform="translate(24.302 117.183)">
          <path id="Path_51960" data-name="Path 51960" d="M152.93,360.327c-.35-1.044-1.627-1.294-2.588-1.451a10.639,10.639,0,0,0-4.363.072.588.588,0,0,1-.312-1.134,12.033,12.033,0,0,1,5.57.036,3.506,3.506,0,0,1,2.827,2.165c.241.719-.894,1.028-1.134.312Z" transform="translate(-145.248 -357.504)" fill="#f8ebe5"/>
        </g>
        <g id="Group_18521" data-name="Group 18521" transform="translate(21.876 112.493)">
          <path id="Path_51961" data-name="Path 51961" d="M167.1,348.079a5.212,5.212,0,0,0-.748,3.515c.035,1.324.087,2.646.13,3.97l.123,3.736c.036,1.112-.245,2.987.655,3.8.281.255-.136.67-.416.416a3.326,3.326,0,0,1-.774-2.585c-.065-1.79-.118-3.58-.176-5.371-.053-1.619-.173-3.253-.141-4.873a4.81,4.81,0,0,1,.93-3.027c.233-.3.647.121.416.416Z" transform="translate(-165.748 -347.561)" fill="#f8ebe5"/>
        </g>
        <g id="Group_18522" data-name="Group 18522" transform="translate(39.313 124.71)">
          <path id="Path_51962" data-name="Path 51962" d="M129.377,373.907c-1.02,2.185-.4,4.516-.177,6.8.211,2.169-.552,4.709.846,6.587.226.3-.284.6-.508.3-1.481-1.991-.7-4.6-.926-6.884-.238-2.415-.817-4.792.258-7.094.16-.342.667-.044.508.3Z" transform="translate(-128.241 -373.459)" fill="#f8ebe5"/>
        </g>
      </g>
      <g id="Group_18527" data-name="Group 18527" transform="translate(115.691 88.067)">
        <g id="Group_18526" data-name="Group 18526" transform="translate(0 0)">
          <g id="Group_18525" data-name="Group 18525" transform="translate(0 6.234)">
            <path id="Path_51963" data-name="Path 51963" d="M328.428,145.2a43.394,43.394,0,0,1,2.478-11.231c.937-.024,1.872-.075,2.808-.132a20.456,20.456,0,0,0-.179,2.147c-.059,1.288-.117,2.578-.249,3.86-.309,2.982-.658,5.96-1,8.938a2.427,2.427,0,0,0,.26,1.4c1.1,2.226,2.013,4.539,3.267,6.69a10.811,10.811,0,0,1,.537,1.239.87.87,0,0,1-.051.279,56.339,56.339,0,0,0-2.736,5.014c-.024.052-.093.084-.141.126a7.724,7.724,0,0,1-1.8-2.606c-.794-1.625-1.459-3.305-2.1-4.995a20.587,20.587,0,0,1-1.388-5.714A28.172,28.172,0,0,1,328.428,145.2Z" transform="translate(-306.296 -133.833)" fill="#d77062"/>
            <g id="Group_18524" data-name="Group 18524" transform="translate(0 0.499)">
              <path id="Path_51964" data-name="Path 51964" d="M194.135,288.586c.318-2.8,1.729-5.689,4.806-6.107a7.707,7.707,0,0,1,4.9,1.2c3.388,2.025,8.877,8.483,12.211,2.782a22.379,22.379,0,0,0,2.171-6.5c1.063-4.9,2.024-9.815,3.221-14.682q.251-.7.484-1.405a83.985,83.985,0,0,0,11.992,1.167,31.556,31.556,0,0,0,11.059-1.557c.643-.207,1.3-.384,1.945-.574,5.5,6.771,9.246,14.44,13.243,22.128,3.628,6.977,9.157,12.683,13.479,19.2,3.827,5.773,8.574,14.563,3.564,21.038a21.956,21.956,0,0,1-2.168,2.31,10.526,10.526,0,0,1-2.769,1.7c-.477.072-.953.176-1.434.21-4.8.332-8.525-1.751-11.42-5.371a33.861,33.861,0,0,1-4.456-7.681c-2.211-5.059-4.044-10.263-6.048-15.4a36.931,36.931,0,0,0-5.436-9.658,9.062,9.062,0,0,0-2.861-2.411c-2.962-1.582-5.362.49-6.437,3.206-2.226,5.623-4.011,11.555-8.382,15.973a13.948,13.948,0,0,1-9.292,4.41c-7.382.192-15.058-6.527-19.45-11.892C195.171,298.375,193.64,292.934,194.135,288.586Z" transform="translate(-186.091 -202.521)" fill="#58595b"/>
              <path id="Path_51965" data-name="Path 51965" d="M258.374,184.165a4.092,4.092,0,0,1,.313.285,17.984,17.984,0,0,0,1.4,1.323,23.1,23.1,0,0,1,3.03,2.958,1.11,1.11,0,0,0,.925.384c1.157.026,2.313.042,3.468.14.639.054,1.672-.555,2.046.133.044.081-.16.634-.041.674a2.652,2.652,0,0,0,2.783,2.57,2.525,2.525,0,0,0,2.469-2.729c.206-.424.561-.461.976-.4,1.793.249,3.6.074,5.4.185,1.137.07,2.284-1.092,3.084-1.77,1.65-1.4,3.2-1.764,4.94-3.035.173-.126.328-.329.657-.206.276,1.081.562,2.2.848,3.319q.579,2.98,1.159,5.961a1.714,1.714,0,0,1-.824,1.971c-.284.213-.57.421-.863.621a16.764,16.764,0,0,1-5,2.256.783.783,0,0,0-.68.948c.077,1.515.171,3.028.383,4.529a35.624,35.624,0,0,0,1.753,7.813c.872,2.286,1.591,4.63,2.684,6.831.415.835.229,1.289-.6,1.741-.423.23-.86.433-1.291.648-.649.191-1.3.367-1.945.574a31.567,31.567,0,0,1-11.059,1.557A80.025,80.025,0,0,1,261.5,222.1c-2.214-1.07-2.41-1.527-1.8-3.94a39.84,39.84,0,0,0,1.311-8.486c.1-3.128-.172-6.25-.177-9.376a1.5,1.5,0,0,0-.994-1.542,14.929,14.929,0,0,1-2.589-1.5,13.485,13.485,0,0,1-3.652-4.805,2.2,2.2,0,0,1-.261-1.709A76.1,76.1,0,0,1,258.374,184.165Z" transform="translate(-226.551 -160.921)" fill="#e8a628"/>
              <path id="Path_51966" data-name="Path 51966" d="M230.178,160.841A35.864,35.864,0,0,1,233,157.527c.854-.884,1.6-1.856,2.394-2.792a2.1,2.1,0,0,0,.563-1.3c.089-2.291.563-4.538.762-6.82.221-2.535.623-5.055.968-7.578a15.033,15.033,0,0,0-.3-4.144c.859.326,1.986,2.2,2.835,2.023a3.633,3.633,0,0,0,.052.8c.508,2.792,1.042,5.581,1.33,8.408a17.323,17.323,0,0,1-1.092,8.918c-.649,1.477-1.32,2.944-2,4.408a6.477,6.477,0,0,1-.542.913,30.938,30.938,0,0,1-7.69,7.558l-1.159-5.961A3.892,3.892,0,0,0,230.178,160.841Z" transform="translate(-165.011 -134.891)" fill="#d77062"/>
              <path id="Path_51967" data-name="Path 51967" d="M286.5,183.771a2.651,2.651,0,0,0,2.782,2.57,2.525,2.525,0,0,0,2.469-2.729,2.419,2.419,0,0,1-1.267-2.55.723.723,0,0,1,.388-.512,3.837,3.837,0,0,0,1.216-1.215c.359-.569.516-1.255,1.416-1.355.49-.054.655-.67.641-1.176a1.258,1.258,0,0,0-.948-1.382c-.467.307-.8.193-.948-.341a.732.732,0,0,0-.831-.617c-.283.008-.566-.136-.853-.148a2.59,2.59,0,0,1-2.574-1.956c-.013-.042-.1-.06-.183-.1a1.619,1.619,0,0,0-.859,1.294c-.145.693-.235,1.4-.387,2.089-.194.88-.456,1.012-1.369.759a1.345,1.345,0,0,0-.593,1.744,1.269,1.269,0,0,0,1.35,1.007.747.747,0,0,1,.773.434,5.157,5.157,0,0,0,.333.47c.227.329.734.477.669.991a3.826,3.826,0,0,1-.659,2.076C286.886,183.342,286.691,183.554,286.5,183.771Z" transform="translate(-243.537 -154.63)" fill="#d77062"/>
              <path id="Path_51968" data-name="Path 51968" d="M185.307,393.786a22,22,0,0,1-2.168,2.31,10.53,10.53,0,0,1-2.769,1.7.463.463,0,0,1,.4.466,12.715,12.715,0,0,0,.19,1.436c.415,1.95,1.671,2.743,3.55,1.856a11.387,11.387,0,0,0,2.607-2.136,11.954,11.954,0,0,1,2.933-2.018,16,16,0,0,0,2.695-1.517,3.181,3.181,0,0,0,.945-.956,1.507,1.507,0,0,0-1.153-2.314,4,4,0,0,0-1.346.077c-1.543.334-3.092.643-4.635.977A6.978,6.978,0,0,1,185.307,393.786Z" transform="translate(-94.186 -271.027)" fill="#6297d4"/>
              <path id="Path_51969" data-name="Path 51969" d="M370.107,308.564c.144-.689.256-1.386.436-2.066.692-2.607,2.188-4.128,5.028-4.137a2.577,2.577,0,0,0,.379-.057,3.9,3.9,0,0,0-3.506-1.626,5.133,5.133,0,0,0-2.53.871c-.7.464-1.362.97-2.029,1.477a33.645,33.645,0,0,1-3.859,2.2,7.088,7.088,0,0,0-1.451.95,1.77,1.77,0,0,0,.067,2.972,3.124,3.124,0,0,0,2.62.687A21.017,21.017,0,0,0,370.107,308.564Z" transform="translate(-361.801 -222.468)" fill="#6297d4"/>
              <path id="Path_51970" data-name="Path 51970" d="M285.421,174.89a.892.892,0,0,1,.334.073c.047-2.791,1.615-5.034,3.546-5.034,1.733,0,3.174,1.807,3.486,4.2a.835.835,0,0,1,.178-.025c.641,0,1.16.738,1.16,1.648s-.519,1.648-1.16,1.648a.868.868,0,0,1-.448-.128c-.464,2.054-1.791,2.986-3.216,2.986a3.5,3.5,0,0,1-3-2.4,1.1,1.1,0,0,1-.884.534c-.68,0-1.231-.783-1.231-1.749S284.741,174.89,285.421,174.89Z" transform="translate(-243.364 -153.401)" fill="#d77062"/>
            </g>
            <path id="Path_51971" data-name="Path 51971" d="M282.749,165.5a.944.944,0,0,1,1.069.492,23.207,23.207,0,0,0,.587-3,2.085,2.085,0,0,0,1.782.943,6.152,6.152,0,0,0,2.056-.42,1.849,1.849,0,0,0,.31,1.41,1.33,1.33,0,0,0,2.347-.3,1.892,1.892,0,0,0-.01-1.386,2.069,2.069,0,0,0,1.633-1.162,2.9,2.9,0,0,0,.146-2.045,1.561,1.561,0,0,0-.327-.659,1.944,1.944,0,0,0-1.292-.461,2.138,2.138,0,0,0,.838-2.194,2.191,2.191,0,0,0-1.746-1.618,1.634,1.634,0,0,0-.931.1,1.109,1.109,0,0,0-.615.686,5.932,5.932,0,0,0,.255-1.7,2.363,2.363,0,0,0-.556-1.517,2.28,2.28,0,0,0-1.268-.668,3.055,3.055,0,0,0-3.122,1.411,5.591,5.591,0,0,0-.3,3.79q.2,1.168.475,2.323a.7.7,0,0,0-1.027-.176,1.812,1.812,0,0,0-.607,1.029A7.826,7.826,0,0,0,282.749,165.5Z" transform="translate(-241.065 -143.409)" fill="#e8a628"/>
          </g>
          <path id="Path_51972" data-name="Path 51972" d="M333.288,123.882c.315-.419,2.048,1.085,2.048,1.085s-2.135-2.1-1.953-2.461c.288-.566,2.677,1.863,2.677,1.863s-2.534-2.711-1.969-3.117,2.768,2.561,2.768,2.561-1.9-2.919-1.358-3.182,2.848,3.6,2.848,3.6.339-2.249.8-2.209c.78.067.261,4.873.261,4.873l-2.044,1.686S332.973,124.3,333.288,123.882Z" transform="translate(-311.973 -120.618)" fill="#d77062"/>
          <path id="Path_51973" data-name="Path 51973" d="M231.587,128.25c-.356-.384-1.928,1.288-1.928,1.288s1.91-2.309,1.693-2.647c-.343-.534-2.474,2.125-2.474,2.125s2.245-2.953,1.643-3.3-2.493,2.828-2.493,2.828,1.593-3.1,1.027-3.3-2.469,3.867-2.469,3.867-.565-2.2-1.021-2.116c-.769.145.235,4.874.235,4.874l2.2,1.47S231.943,128.635,231.587,128.25Z" transform="translate(-153.058 -123.056)" fill="#d77062"/>
          <path id="Path_51974" data-name="Path 51974" d="M252.114,184.042a67.931,67.931,0,0,0,2.757,10.983" transform="translate(-188.98 -154.123)" fill="none" stroke="#d88f25" stroke-width="0.997"/>
          <path id="Path_51975" data-name="Path 51975" d="M330.334,181.922l-5.285,8.432.227-.221" transform="translate(-298.848 -153.003)" fill="none" stroke="#d88f25" stroke-width="0.997"/>
          <path id="Path_51976" data-name="Path 51976" d="M290.641,185.229a1.338,1.338,0,0,0,2.664-.133Z" transform="translate(-245.588 -154.68)" fill="#fff"/>
          <path id="Path_51977" data-name="Path 51977" d="M279.041,233.173a31.168,31.168,0,0,0,6.749,5.973" transform="translate(-232.601 -180.078)" fill="none" stroke="#d88f25" stroke-width="0.499"/>
          <path id="Path_51978" data-name="Path 51978" d="M299.393,221.315a22.063,22.063,0,0,0,2.39,2.8" transform="translate(-258.195 -173.814)" fill="none" stroke="#d88f25" stroke-width="0.499"/>
          <path id="Path_51979" data-name="Path 51979" d="M270.352,266.8a16.572,16.572,0,0,1,1.251,3.13,26.843,26.843,0,0,1,.8,4.531,70.769,70.769,0,0,1,.211,12.72" transform="translate(-215.517 -197.842)" fill="none" stroke="#6395ce" stroke-width="0.5"/>
          <path id="Path_51980" data-name="Path 51980" d="M280.069,267.847a55.42,55.42,0,0,1,.315,21.17" transform="translate(-228.544 -198.395)" fill="none" stroke="#6395ce" stroke-width="0.5"/>
          <path id="Path_51981" data-name="Path 51981" d="M279.128,310.459a14.488,14.488,0,0,0-5.039.152c-4.28.943-6.246,6.472-7.138,10.194" transform="translate(-220.236 -220.828)" fill="none" stroke="#6395ce" stroke-width="0.5"/>
          <path id="Path_51982" data-name="Path 51982" d="M309.756,268.079c-1.427,3.185-2.985,6.529-5.858,8.509a5.445,5.445,0,0,1-4.931.935" transform="translate(-265.966 -198.518)" fill="none" stroke="#6395ce" stroke-width="0.5"/>
          <path id="Path_51983" data-name="Path 51983" d="M248.991,265.676a27.5,27.5,0,0,0,3.345,5.363,9.242,9.242,0,0,0,5.287,3.255,1.734,1.734,0,0,1,1.062.4" transform="translate(-191.319 -197.249)" fill="none" stroke="#6395ce" stroke-width="0.5"/>
          <path id="Path_51984" data-name="Path 51984" d="M200.858,312.05c6.123,4.832,9.974,11.939,13.244,19.021a89.185,89.185,0,0,0,6.116,11.985c2.474,3.746,5.754,7.105,9.888,8.858a8.391,8.391,0,0,0,5.629.634" transform="translate(-145.664 -221.747)" fill="none" stroke="#6395ce" stroke-width="0.5"/>
          <path id="Path_51985" data-name="Path 51985" d="M326.363,288.484l-2.436,12.55a1.8,1.8,0,0,1-.245.71,1.9,1.9,0,0,1-.764.54c-3.588,1.758-6.849,5.059-6.888,9.054" transform="translate(-290.622 -209.298)" fill="none" stroke="#6395ce" stroke-width="0.5"/>
          <path id="Path_51986" data-name="Path 51986" d="M357.291,317.88a38,38,0,0,0-12.11-9.233,11.577,11.577,0,0,0-4.173-1.3,4.905,4.905,0,0,0-4,1.43" transform="translate(-331.446 -219.253)" fill="none" stroke="#6395ce" stroke-width="0.5"/>
          <path id="Path_51987" data-name="Path 51987" d="M193.1,395.324a33.742,33.742,0,0,0-9.2,5.39c-.976.8-2.1,1.722-3.348,1.491" transform="translate(-93.451 -265.739)" fill="none" stroke="#f8ebe5" stroke-width="0.249"/>
          <path id="Path_51988" data-name="Path 51988" d="M190.846,390.951a11.816,11.816,0,0,0-.66,2.977" transform="translate(-95.742 -263.429)" fill="none" stroke="#f8ebe5" stroke-width="0.249"/>
          <path id="Path_51989" data-name="Path 51989" d="M193.945,390.952a13.708,13.708,0,0,1-1.1,3.447" transform="translate(-100.092 -263.429)" fill="none" stroke="#f8ebe5" stroke-width="0.249"/>
          <path id="Path_51990" data-name="Path 51990" d="M377.523,300.933c-1.766-.007-3.03,1.608-4.442,2.668-2.363,1.777-5.629,2.182-7.719,4.272" transform="translate(-365.053 -215.874)" fill="none" stroke="#f8ebe5" stroke-width="0.249"/>
          <path id="Path_51991" data-name="Path 51991" d="M266.118,188.9a37.664,37.664,0,0,0-6.657,4.73" transform="translate(-203.693 -156.692)" fill="none" stroke="#f8ebe5" stroke-width="0.249"/>
          <path id="Path_51992" data-name="Path 51992" d="M281.807,198.925a55.52,55.52,0,0,0-8.351.125" transform="translate(-225.984 -161.932)" fill="none" stroke="#f8ebe5" stroke-width="0.249"/>
          <path id="Path_51993" data-name="Path 51993" d="M266.469,186.233a25.923,25.923,0,0,0-6.419,4.43" transform="translate(-204.321 -155.281)" fill="none" stroke="#f8ebe5" stroke-width="0.249"/>
          <path id="Path_51994" data-name="Path 51994" d="M281.13,195.573h-7.174" transform="translate(-225.542 -160.215)" fill="none" stroke="#f8ebe5" stroke-width="0.249"/>
          <path id="Path_51995" data-name="Path 51995" d="M306.77,195.137q-3.068-.135-6.141-.068l.141.109" transform="translate(-263.764 -159.937)" fill="none" stroke="#f8ebe5" stroke-width="0.249"/>
          <path id="Path_51996" data-name="Path 51996" d="M318.767,189.528a19.614,19.614,0,0,0-5.366-4.988" transform="translate(-281.787 -154.386)" fill="none" stroke="#f8ebe5" stroke-width="0.249"/>
          <path id="Path_51997" data-name="Path 51997" d="M307.311,197.834l-7.176-.445" transform="translate(-264.072 -161.174)" fill="none" stroke="#f8ebe5" stroke-width="0.249"/>
          <path id="Path_51998" data-name="Path 51998" d="M320.4,192.215a19.286,19.286,0,0,0-5.745-4.824" transform="translate(-284.015 -155.893)" fill="none" stroke="#f8ebe5" stroke-width="0.249"/>
          <path id="Path_51999" data-name="Path 51999" d="M294.727,194.429c-.2.662-.043,1.431-.417,2.011a2.39,2.39,0,0,1-1.956.81,3.046,3.046,0,0,1-1.843-.322,2.254,2.254,0,0,1-.89-1.332,6.708,6.708,0,0,1-.162-1.626" transform="translate(-246.452 -159.368)" fill="none" stroke="#f8ebe5" stroke-width="0.499"/>
        </g>
        <path id="Path_52000" data-name="Path 52000" d="M380.33,313.5v3.136" transform="translate(-374.921 -222.512)" fill="none" stroke="#f8ebe5" stroke-width="0.249"/>
        <path id="Path_52001" data-name="Path 52001" d="M384.2,317.454a15.272,15.272,0,0,1,.31,1.646" transform="translate(-380.922 -224.602)" fill="none" stroke="#f8ebe5" stroke-width="0.249"/>
      </g>
      <g id="Group_18531" data-name="Group 18531" transform="translate(189.705 90.247)">
        <path id="Path_52002" data-name="Path 52002" d="M453.561,148.585a8.946,8.946,0,0,1-3.318-2.6,8.023,8.023,0,0,1-1.772-5.589,3.747,3.747,0,0,1,3.373-3.553,5.645,5.645,0,0,1,3.121.453c.59.262,1.184.516,1.759.807a2.031,2.031,0,0,0,2.264-.27,6.043,6.043,0,0,0,2.178-2.895c.454-1.243.893-2.491,1.367-3.726a8.609,8.609,0,0,1,2.812-3.864,5.507,5.507,0,0,1,6.823-.214,4.708,4.708,0,0,1,1.774,2.584c.109.405.208.815.351,1.208a2.582,2.582,0,0,0,3.317,1.725,6.98,6.98,0,0,0,2.516-1.41,15.118,15.118,0,0,0,1.74-1.68,14.726,14.726,0,0,1,3.649-3c4.257-2.384,9.207-1.616,12.61,2.848,2.735,3.588,1.19,8.368-1.139,10.489a10.287,10.287,0,0,1-3.08,1.973c-2.243.907-4.492,1.8-6.736,2.7-.359.144-.71.309-1.058.478a4.972,4.972,0,0,0-2.87,4.293c-.114,1.156-.2,2.315-.338,3.469a8.259,8.259,0,0,1-3.226,5.648,4.434,4.434,0,0,1-5.564.217c-.906-.616-1.751-1.322-2.618-1.994a12.281,12.281,0,0,0-1.935-1.281,1.413,1.413,0,0,0-2.059.359c-.34.344-.655.715-1.016,1.036a3.13,3.13,0,0,1-4.589-.081,15.222,15.222,0,0,1-1.942-2.528,2.6,2.6,0,0,1,1.71-1.227,1.54,1.54,0,0,0,1.242-1.433,1,1,0,0,0-.447-1.086.77.77,0,0,0-.97.139.284.284,0,0,1-.418.034,2.5,2.5,0,0,1,0-2.143c.058-.183.135-.4-.02-.544-.186-.172-.359.011-.5.124-1.3,1.038-3.671.425-4.552-.7a.961.961,0,0,0-.554-.454,3.7,3.7,0,0,0-.787,1.153C454.446,148.626,454.116,148.8,453.561,148.585Z" transform="translate(-406.17 -125.241)" fill="#1f2241"/>
        <path id="Path_52003" data-name="Path 52003" d="M449.616,176.759a1.409,1.409,0,0,1-.064.175,13.134,13.134,0,0,1-1.513,2.461.964.964,0,0,1-.948.329,58.433,58.433,0,0,0-10.542,1.31c1.861,2.371,9.877,5.941,12.812,6.325,5.849.763,10.929-1.151,14.047-2.453a98.411,98.411,0,0,0-9.887-4.377,1.07,1.07,0,0,1-.861-.9c-.11-.633-.285-1.255-.392-1.889a3.152,3.152,0,0,1-.083-.981,5.052,5.052,0,0,0,2.189-1.856c.028-.023.059-.043.088-.065.009.007.015.017.024.024a2.135,2.135,0,0,0,2.56-3.314,1.6,1.6,0,0,0-1.454-.217c.19-2.641-1.073-4.938-3.083-5.354-2.257-.467-4.6,1.614-5.222,4.649C446.722,173.367,447.749,175.942,449.616,176.759Z" transform="translate(-399.885 -146.726)" fill="#d77062"/>
        <path id="Path_52004" data-name="Path 52004" d="M458.016,164.463a2.414,2.414,0,0,0,.427.83,2.032,2.032,0,0,0,1.472.549,3.014,3.014,0,0,0,2.948-1.558,1.731,1.731,0,0,0,2.231,1.9,1.738,1.738,0,0,0,.971,2.436,3.464,3.464,0,0,1,2.784-3.191,15.07,15.07,0,0,0-1.562-5.4,5.806,5.806,0,0,0-1.273-1.781c-1.721-1.513-3.96-.907-6.016-.876a2.658,2.658,0,0,0-1.737.392,3.761,3.761,0,0,0-.981,2.611A10.462,10.462,0,0,0,458.016,164.463Z" transform="translate(-410.829 -142.137)" fill="#1f2241"/>
        <path id="Path_52005" data-name="Path 52005" d="M405.364,378.018a7.7,7.7,0,0,1,3.559-.124,1.559,1.559,0,0,0,.068.377,2.6,2.6,0,0,1-.686,3.074,11.833,11.833,0,0,1-1.652,1.475,31.624,31.624,0,0,0-4.1,3.366,3.7,3.7,0,0,1-1.534.974.968.968,0,0,1-1.076-.194,1.124,1.124,0,0,1-.248-1.166,2.313,2.313,0,0,1,.64-.951c.678-.686,1.34-1.391,2.049-2.044A13.327,13.327,0,0,0,405.364,378.018Z" transform="translate(-380.384 -258.622)" fill="#e7a729"/>
        <g id="Group_18529" data-name="Group 18529" transform="translate(3.366 11.64)">
          <g id="Group_18528" data-name="Group 18528">
            <path id="Path_52006" data-name="Path 52006" d="M407.083,315.869c-.975-.235-1.06-.316-1.173-1.138-.548-4-4.536-26.125-2.392-34.027a14.206,14.206,0,0,1,2.313-4.762c1.039-1.443,7.883-8.688,9.815-10.551a47.364,47.364,0,0,0,4.674-5.287c.321-.008.642-.033.963-.021,1.611.06,3.223.2,4.833.182,3.938-.038,7.862.276,11.792.41a2.878,2.878,0,0,1,.56.131,22.6,22.6,0,0,1,2.325,8.317,20.253,20.253,0,0,1-.356,3.551,40.336,40.336,0,0,1-1.081,5.593c-.192.68-.088.807.645.7a31.34,31.34,0,0,0,3.231-.583c3.394-.886,6.874-1.439,10.183-2.651a3.735,3.735,0,0,0,.878-.387,1.2,1.2,0,0,1,.441.722q.5,1.7,1,3.407a.813.813,0,0,1-.429.492c-3.165,1.935-6.28,3.96-9.5,5.792a64.717,64.717,0,0,1-9.78,5.074c-1.67.6-3.647,1.382-5.42.789-3.8-1.271-3.194-8.217-3.47-11.35a34.79,34.79,0,0,0-.826-5.728,3.12,3.12,0,0,0-.935.719,135.873,135.873,0,0,1-11.88,9.466c-1.844,1.328-1.848,1.3-1.9,3.577-.143,6.129-.094,12.256.019,18.385.05,2.708.087,5.42-.058,8.128-.042.787-.063.786-.906.929A7.7,7.7,0,0,0,407.083,315.869Z" transform="translate(-385.468 -208.113)" fill="#d20043"/>
            <path id="Path_52007" data-name="Path 52007" d="M459.169,195.778a2.085,2.085,0,0,0-.42-.174c-.245-.073-.5-.1-.756-.152-1.261-.252-2.525-.494-3.783-.76a25.637,25.637,0,0,1-4.851-1.677c-.019.014-.037.028-.057.041a21.862,21.862,0,0,1-15.713,3.221c-4.162-.724-8.622-2.832-10.106-6.946l-.057,0c-.353-.016-.705-.076-1.058-.084a6.965,6.965,0,0,1-3.681-1.289c-1.3-.847-2.5-1.813-3.723-2.756-1.04-.8-1.507-.661-1.984.578q-.7,2.983-1.4,5.966c.022.487-.771,5-.861,6.8-.049.976.06,1.171,1.043,1.421a57.64,57.64,0,0,0,6.9,1.447c.759.1.778.106.839.888.025.32-.407,13.212-.7,16.427-.08.877-.026.958.845,1.006,5.264.976,27.817,1.731,28.91,1.266a1.307,1.307,0,0,0,1.429-1.358c.132-1.344.871-11.021.874-11.535,0-.421.209-.672.659-.637,1.807.138,6.662-.211,7.356-1.244A63.057,63.057,0,0,1,459.169,195.778Z" transform="translate(-389.599 -168.29)" fill="#ffd584"/>
            <path id="Path_52008" data-name="Path 52008" d="M384.35,164.255c-1.645-1.251-3.176-2.638-4.745-3.98-2.824-2.413-11.519-9.989-11.426-10.359-1.326.525-.911.819-2.221,1.382.505.688.953,1.418,1.464,2.1a93.323,93.323,0,0,0,14.185,15.431c.935.792,1.94,1.507,2.835,2.34a10.511,10.511,0,0,0,3.5,2.2q.7-2.983,1.4-5.966A35.968,35.968,0,0,1,384.35,164.255Z" transform="translate(-365.958 -149.916)" fill="#d77062"/>
            <path id="Path_52009" data-name="Path 52009" d="M539.923,208.787a1.4,1.4,0,0,1-1.061.943,45.141,45.141,0,0,1-5.887,1.145c-2.784.385-5.6.426-8.4.576a48.19,48.19,0,0,1-7.251.037c-1.316-.128-2.626-.32-3.938-.484a31.082,31.082,0,0,0-.185,6c.06.6,8.807.326,15.7-1.127a56.35,56.35,0,0,0,10.929-3.723A3.076,3.076,0,0,0,539.923,208.787Z" transform="translate(-443.7 -181.016)" fill="#d77062"/>
            <path id="Path_52010" data-name="Path 52010" d="M513.3,294.137q-.5-1.7-1-3.407a1.2,1.2,0,0,0-.441-.722,10.688,10.688,0,0,1,.584-1.212,1.69,1.69,0,0,1,2.9-.253,3.8,3.8,0,0,1,1.034,1.829,8.187,8.187,0,0,0,2.742,4.209,10.4,10.4,0,0,1,1.585,1.81,2.114,2.114,0,0,1,.355,1.56,1.009,1.009,0,0,1-1.324.9,1.781,1.781,0,0,1-1.044-.652,9.793,9.793,0,0,1-.737-1.014,4.38,4.38,0,0,0-1.551-1.556A7.928,7.928,0,0,0,513.3,294.137Z" transform="translate(-443.033 -222.778)" fill="#e7a729"/>
            <path id="Path_52011" data-name="Path 52011" d="M513.725,207.679a63.157,63.157,0,0,0-.618,11.034" transform="translate(-443.677 -180.431)" fill="none" stroke="#f4d9c6" stroke-width="0.855"/>
          </g>
          <path id="Path_52012" data-name="Path 52012" d="M414.22,182.719a65.876,65.876,0,0,0-2.776,16.078" transform="translate(-389.987 -167.245)" fill="none" stroke="#f4d9c6" stroke-width="0.855"/>
        </g>
        <path id="Path_52013" data-name="Path 52013" d="M358.844,139.933c.342-.392,1.95,1.219,1.95,1.219s-1.964-2.232-1.758-2.574c.325-.54,2.517,2.033,2.517,2.033s-2.315-2.861-1.728-3.224,2.558,2.73,2.558,2.73-1.673-3.023-1.118-3.245,2.564,3.761,2.564,3.761.494-2.2.949-2.129c.767.121-.088,4.841-.088,4.841l-2.142,1.524S358.5,140.326,358.844,139.933Z" transform="translate(-358.823 -131.381)" fill="#d77062"/>
        <path id="Path_52014" data-name="Path 52014" d="M576.06,203.132c-.282-.437-2.1.929-2.1.929s2.261-1.93,2.107-2.3c-.244-.581-2.781,1.654-2.781,1.654s2.7-2.5,2.17-2.945-2.92,2.338-2.92,2.338,2.087-2.754,1.569-3.052-3.073,3.358-3.073,3.358-.176-2.249-.636-2.243c-.777.011-.6,4.8-.6,4.8l-.029,1.7S576.342,203.569,576.06,203.132Z" transform="translate(-470.255 -164.597)" fill="#d77062"/>
        <g id="Group_18530" data-name="Group 18530" transform="translate(34.969 30.55)">
          <path id="Path_52015" data-name="Path 52015" d="M451.986,191.19a7.813,7.813,0,0,0-1.594-.6c.047.262.131.627.131.627s.147.045.2.057a3.073,3.073,0,0,1,1.892,4.775c-.94,1.316-2.888,1.675-4.2,2.521-2.763,1.778-4.536,5.93-8.019,6.4-4.048.549-7.017-4.542-6.839-8.062a5.868,5.868,0,0,1,2.415-4.471c1.57-1.117,3.242-.9,5.014-.541,1.332.268,2.74.517,3.959-.246a10.037,10.037,0,0,1,1.245-.841,2.531,2.531,0,0,1,1.016-.207q.149-.3.291-.6a3.129,3.129,0,0,0-1.737.307c-1.036.571-1.615,1.316-2.928,1.269-1.088-.038-2.136-.393-3.21-.538a6.038,6.038,0,0,0-6.661,6.2c-.008,3.515,2.722,8.122,6.574,8.349a6.616,6.616,0,0,0,4.9-2.366c1.689-1.713,3.044-3.594,5.239-4.716,1.789-.914,3.789-1.519,4.074-3.821A3.578,3.578,0,0,0,451.986,191.19Z" transform="translate(-432.954 -190.003)" fill="#d88f25"/>
        </g>
        <path id="Path_52016" data-name="Path 52016" d="M476.565,184.224a.865.865,0,1,1-.8-.924A.865.865,0,0,1,476.565,184.224Z" transform="translate(-420.111 -155.911)" fill="#d88f25"/>
        <path id="Path_52017" data-name="Path 52017" d="M465.575,183.094a1.338,1.338,0,0,1-2.648-.323Z" transform="translate(-413.819 -155.633)" fill="#fff"/>
        <path id="Path_52018" data-name="Path 52018" d="M474.513,261.9c1.523,2.24,1.6,5.127,1.621,7.836.032,5.325.008,10.724-1.392,15.861" transform="translate(-419.94 -197.437)" fill="none" stroke="#bea7ff" stroke-width="0.5"/>
        <path id="Path_52019" data-name="Path 52019" d="M475.774,302.879q9.173-2.226,18.189-5.047" transform="translate(-420.606 -216.417)" fill="none" stroke="#bea7ff" stroke-width="0.5"/>
        <path id="Path_52020" data-name="Path 52020" d="M450.819,286.43a19.341,19.341,0,0,0-1.684-5.458" transform="translate(-406.533 -207.51)" fill="none" stroke="#bea7ff" stroke-width="0.5"/>
        <path id="Path_52021" data-name="Path 52021" d="M433.332,287.764a162.48,162.48,0,0,0-13.845,9.717,6.4,6.4,0,0,0-2.36,5.041l.363,27.712" transform="translate(-389.624 -211.098)" fill="none" stroke="#bea7ff" stroke-width="0.5"/>
        <line id="Line_1643" data-name="Line 1643" y1="7.76" x2="9.311" transform="translate(19.563 120.584)" fill="none" stroke="#d88f25" stroke-width="1.496"/>
        <path id="Path_52022" data-name="Path 52022" d="M515.259,288.238c1.281.826,1.54,2.544,2.156,3.938a12.523,12.523,0,0,0,3.539,4.231c.7.6,1.5,1.4,1.257,2.3" transform="translate(-441.465 -211.349)" fill="none" stroke="#d88f25" stroke-width="0.249"/>
      </g>
      <g id="Group_18533" data-name="Group 18533" transform="translate(289.419 81.211)">
        <path id="Path_52023" data-name="Path 52023" d="M590.307,107.987c.474-.213,1.261,1.923,1.261,1.923s-.85-2.849-.52-3.073c.521-.355,1.435,2.9,1.435,2.9s-.906-3.568-.221-3.651,1.181,3.549,1.181,3.549-.255-3.446.341-3.415.756,4.488.756,4.488,1.369-1.793,1.752-1.537c.647.431-2.1,4.361-2.1,4.361l-2.583.489S589.832,108.2,590.307,107.987Z" transform="translate(-580.782 -106.084)" fill="#d77062"/>
        <path id="Path_52024" data-name="Path 52024" d="M712.76,164.059c-.362-.373-1.882,1.322-1.882,1.322s1.841-2.334,1.617-2.664c-.353-.522-2.4,2.165-2.4,2.165s2.159-2.982,1.552-3.312-2.407,2.863-2.407,2.863,1.509-3.109.942-3.3-2.358,3.893-2.358,3.893-.612-2.171-1.062-2.075c-.76.162.347,4.829.347,4.829l2.221,1.407S713.123,164.432,712.76,164.059Z" transform="translate(-642.203 -135.162)" fill="#d77062"/>
        <g id="Group_18532" data-name="Group 18532" transform="translate(0 6.022)">
          <path id="Path_52025" data-name="Path 52025" d="M640.359,146.2c-1.138-.781-2.239-1.613-3.337-2.448-.048.075-.1.155-.153.249a86.089,86.089,0,0,1-5.819,8.787c-.57.74-1.049,1.55-1.664,2.258-.5.574-.508.576-.988-.02a40.127,40.127,0,0,1-3.01-4.386,22.366,22.366,0,0,0-3.691-4.71,12.563,12.563,0,0,0-7.448-3.577,27.964,27.964,0,0,0-4.836.012,7.345,7.345,0,0,1-1.37,3.341,2.844,2.844,0,0,1-3.733.589,4.1,4.1,0,0,1-1.879-2.891c-.068-.312-.115-.629-.172-.943-1.577-.076-3.147-.292-4.73-.249a1.67,1.67,0,0,1-.9-.3,28.374,28.374,0,0,0-4.83-2.2c-2.264-.793-4.231-2.186-6.4-3.174-.332-.151-.362-.369-.3-.7.512-2.722.993-5.451,1.508-8.173s1.252-5.4,1.7-8.135c.01-.062.018-.121.024-.177-1.884-.134-3.768-.255-5.637-.5-.04.076-.078.156-.115.241-1.087,2.554-2.1,5.132-2.946,7.777-.755,2.366-1.542,4.72-2.408,7.048a26.542,26.542,0,0,0-1.317,4.347,4.735,4.735,0,0,0,.293,2.839,15.352,15.352,0,0,0,2.573,3.845,56.938,56.938,0,0,0,9.107,8.2,6.8,6.8,0,0,1,1.352,1.24c1.555,2.056,1.487,6.893,1.706,9.461.233,2.719-2.38,5.074-2.762,7.693a7.322,7.322,0,0,0,.995,4.764,13,13,0,0,0,3.874,4.168,18.085,18.085,0,0,0,7.821,2.587,19.593,19.593,0,0,0,4.731-.008,13.959,13.959,0,0,0,6.851-3.376c.2-.163.391-.334.586-.5.347-.463.717-.911,1.036-1.393a8.873,8.873,0,0,0,1.332-6.29,40.932,40.932,0,0,1,.206-9.927,1.146,1.146,0,0,1,.8-1.089c.5-.167.69.25.948.5q2.872,2.806,5.94,5.395a16.073,16.073,0,0,0,3.4,2.192,3.477,3.477,0,0,0,3.653-.336,5.863,5.863,0,0,0,1.78-2.009c1.284-2.2,2.608-4.37,3.711-6.671,1.155-2.411,2.393-4.782,3.556-7.189a21.925,21.925,0,0,0,1.928-5.57C640.994,146.6,640.667,146.409,640.359,146.2Z" transform="translate(-573.167 -118.851)" fill="#1f2241"/>
          <path id="Path_52026" data-name="Path 52026" d="M590.083,248.039a18.085,18.085,0,0,0,7.822,2.587,19.589,19.589,0,0,0,4.73-.008,13.958,13.958,0,0,0,6.851-3.376c.2-.163.391-.334.586-.5a24.967,24.967,0,0,1,2.409,5.244,13.487,13.487,0,0,1-2.609,12.356,48.388,48.388,0,0,1-7.809,7.883,8.037,8.037,0,0,0-.739.753,1.117,1.117,0,0,0-.591.3c-.75.607-1.486,1.233-2.267,1.8a73.727,73.727,0,0,1-7.355,4.978c-.954.529-.931.58-.3,1.543,1.143,1.754,2.359,3.461,3.425,5.265a31.394,31.394,0,0,1,2.58,3.5c1.089,1.638,2.1,3.329,3.193,4.964a1.279,1.279,0,0,1,.111,1.649,27.225,27.225,0,0,0-2.69,3.688,6.033,6.033,0,0,0-1.02,1.274c-.228.308-.434.33-.708.084q-1.293-1.162-2.592-2.317a16.542,16.542,0,0,0-1.853-1.541q-2.7-2.186-5.4-4.372c-1.75-1.416-3.486-2.851-5.259-4.237a39.711,39.711,0,0,0-3.526-2.845c-1.185-1.184-2.364-2.374-3.557-3.549a19.632,19.632,0,0,1-2.244-2.661c-1.434-2.026-1.426-3.6.044-5.579a49.765,49.765,0,0,1,5.308-5.891c1.133-1.1,2.264-2.208,3.327-3.38,2.579-2.847,5.284-5.574,7.938-8.349a1.661,1.661,0,0,0,.527-1.268A21.52,21.52,0,0,1,590.083,248.039Z" transform="translate(-570.206 -186.412)" fill="#e8a628"/>
          <path id="Path_52027" data-name="Path 52027" d="M583.984,331.478a39.69,39.69,0,0,1,3.526,2.844c1.773,1.386,3.509,2.821,5.259,4.237q2.7,2.184,5.4,4.372a17.4,17.4,0,0,0,.677,3.295c.891,3.618,1.754,7.242,2.489,10.9.143.713.116.723-.544.954-.363.127-.732.238-1.1.357l-4.564,1.415c-.42.16-.837.327-1.26.481-.8.289-.8.287-1.1-.469-.583-1.466-1.145-2.94-1.743-4.4-1.243-3.04-2.483-6.082-3.764-9.106a113.35,113.35,0,0,1-3.745-10.862A5.009,5.009,0,0,1,583.984,331.478Z" transform="translate(-577.116 -231.177)" fill="#e28a21"/>
          <path id="Path_52028" data-name="Path 52028" d="M616.8,316.246c-1.066-1.8-2.282-3.511-3.425-5.265-.627-.963-.65-1.014.3-1.543a73.725,73.725,0,0,0,7.355-4.978c.78-.566,1.517-1.192,2.267-1.8a1.116,1.116,0,0,1,.591-.3c-.69,1.376-1.361,2.763-2.072,4.129-1.529,2.935-3.08,5.858-4.616,8.79A2.207,2.207,0,0,0,616.8,316.246Z" transform="translate(-592.778 -215.794)" fill="#e28a21"/>
          <path id="Path_52029" data-name="Path 52029" d="M603.508,390.034l4.564-1.415c.042.416.079.832.129,1.247a2.838,2.838,0,0,1-.847,2.564c-2.095,1.909-4.054,3.97-6.314,5.7a2.728,2.728,0,0,1-.906.543c-.633.173-1.019-.127-.975-.788a4.184,4.184,0,0,1,.954-2.185,9.265,9.265,0,0,1,1.166-1.288c1.208-1.113,1.684-2.646,2.377-4.054C603.725,390.214,603.606,390.119,603.508,390.034Z" transform="translate(-585.5 -261.363)" fill="#dd6a3e"/>
          <path id="Path_52030" data-name="Path 52030" d="M627.912,356.929a27.226,27.226,0,0,1,2.69-3.688,3.186,3.186,0,0,1,1.607,3.429c-.148,1.082-.253,2.17-.412,3.251a18.788,18.788,0,0,0-.186,3.172,3.358,3.358,0,0,1-.191,1.233.779.779,0,0,1-1.368.324,2.564,2.564,0,0,1-.724-1.234,14.017,14.017,0,0,1-.394-1.884A24.552,24.552,0,0,0,627.912,356.929Z" transform="translate(-600.691 -242.674)" fill="#dd6a3e"/>
          <path id="Path_52031" data-name="Path 52031" d="M638.015,145.831a1.663,1.663,0,0,0-1.75,1.271c-.054-.035-.111-.076-.176-.127a2.534,2.534,0,0,1-.83-1.088,2.366,2.366,0,0,1-.152-.711c-.016-.27-.028-.545-.04-.892l-.008,0a2.241,2.241,0,0,0-.827.577c-.071.072-.181-.181-.251-.111-1,1-1.951,1.126-3.486,1.233a1.815,1.815,0,0,1-.557-.145c-.129-.105-.251-.206-.363-.311a6.273,6.273,0,0,0-.161,1.425,5.817,5.817,0,0,0,.941,3.243l.028.041a3.637,3.637,0,0,0,2.125,1.546,1.075,1.075,0,0,1,.18.849c-.023.19,0,.387-.03.575-.2,1.12-.571,2.112-1.861,2.389-.142.03-.161.186-.222.3.057.315.1.631.172.943a4.1,4.1,0,0,0,1.879,2.891,2.845,2.845,0,0,0,3.733-.589,7.345,7.345,0,0,0,1.37-3.341,5.213,5.213,0,0,1-2.529-4.314c-.006-.125-.032-.253-.032-.375a4.712,4.712,0,0,0,1.372-2,1.285,1.285,0,0,0,.77.491,1.971,1.971,0,0,0,.706-3.768Z" transform="translate(-601.484 -132.287)" fill="#d77062"/>
          <path id="Path_52032" data-name="Path 52032" d="M636.328,126.069a2.74,2.74,0,0,0-3.172-.364,2.821,2.821,0,0,0-1.687,2.708,7.579,7.579,0,0,0,.178,1.519,6.286,6.286,0,0,0-2.177-.746,4.5,4.5,0,0,0-3.485.917,3.339,3.339,0,0,0-1.128,3.328,3.911,3.911,0,0,0,2.813,2.466c1.837.571,3.448-.481,4.944-1.428.01.265.02.492.034.713a2.394,2.394,0,0,0,.981,1.8c.424.331.589.335.835-.04.02-.036.044-.073.068-.113.117-.19.206-.4.307-.6a9.512,9.512,0,0,0,.222-2.256,3.36,3.36,0,0,0,3.152-2.986A5.189,5.189,0,0,0,636.328,126.069Z" transform="translate(-599.025 -122.292)" fill="#212443"/>
        </g>
        <path id="Path_52033" data-name="Path 52033" d="M622.508,253.1c2.06,3.511.89,8.068-1.179,11.574-4.391,7.44-12.134,12.147-19.567,16.55" transform="translate(-586.876 -183.75)" fill="none" stroke="#d88f25" stroke-width="0.249"/>
        <path id="Path_52034" data-name="Path 52034" d="M599.11,309.809a231.355,231.355,0,0,0,15.7,20.662" transform="translate(-585.475 -213.707)" fill="none" stroke="#d88f25" stroke-width="0.249"/>
        <path id="Path_52035" data-name="Path 52035" d="M608.962,394c-2.269,3.167-5.493,5.5-8.657,7.771" transform="translate(-586.107 -258.183)" fill="none" stroke="#f9efe6" stroke-width="0.249"/>
        <path id="Path_52036" data-name="Path 52036" d="M603.419,400.868q1.038.811,2.035,1.674" transform="translate(-587.752 -261.812)" fill="none" stroke="#f9efe6" stroke-width="0.249"/>
        <path id="Path_52037" data-name="Path 52037" d="M604.419,398.738q1.436.78,2.8,1.686" transform="translate(-588.28 -260.686)" fill="none" stroke="#f9efe6" stroke-width="0.249"/>
        <path id="Path_52038" data-name="Path 52038" d="M632.762,365.033a30.454,30.454,0,0,1-3.576,2.067" transform="translate(-601.364 -242.881)" fill="none" stroke="#f9efe6" stroke-width="0.249"/>
        <path id="Path_52039" data-name="Path 52039" d="M632.955,368.307q-1.783,1.1-3.65,2.047" transform="translate(-601.427 -244.61)" fill="none" stroke="#f9efe6" stroke-width="0.249"/>
        <path id="Path_52040" data-name="Path 52040" d="M636.1,356.753q-.2,4.228-.782,8.425a3.925,3.925,0,0,1-.557,1.78" transform="translate(-604.311 -238.507)" fill="none" stroke="#f9efe6" stroke-width="0.249"/>
        <ellipse id="Ellipse_2038" data-name="Ellipse 2038" cx="4.387" cy="5.042" rx="4.387" ry="5.042" transform="translate(31.124 7.936)" fill="#212443"/>
        <path id="Path_52041" data-name="Path 52041" d="M636.026,152.951a1.338,1.338,0,0,1-2.664-.133Z" transform="translate(-603.57 -130.772)" fill="#fff"/>
      </g>
      <circle id="Ellipse_2039" data-name="Ellipse 2039" cx="2.749" cy="2.749" r="2.749" transform="translate(103.968 81.21)" fill="#ffa700"/>
      <circle id="Ellipse_2040" data-name="Ellipse 2040" cx="2.749" cy="2.749" r="2.749" transform="translate(362.91 156.416)" fill="#ffa700"/>
      <path id="Path_52042" data-name="Path 52042" d="M162.163,146.675a1.326,1.326,0,1,1-1.326-1.326A1.325,1.325,0,0,1,162.163,146.675Z" transform="translate(-63.827 -45.616)" fill="#ffa700"/>
      <path id="Path_52043" data-name="Path 52043" d="M39.143,210.219a1.2,1.2,0,1,1-1.2-1.2A1.2,1.2,0,0,1,39.143,210.219Z" transform="translate(1.026 -79.253)" fill="#e8a628"/>
      <path id="Path_52044" data-name="Path 52044" d="M39.143,310.665a1.2,1.2,0,1,1-1.2-1.2A1.2,1.2,0,0,1,39.143,310.665Z" transform="translate(1.026 -132.317)" fill="#e8a628"/>
      <path id="Path_52045" data-name="Path 52045" d="M164.892,313.29a1.285,1.285,0,1,1-1.285-1.285A1.285,1.285,0,0,1,164.892,313.29Z" transform="translate(-65.312 -133.657)" fill="#ffa700"/>
      <path id="Path_52046" data-name="Path 52046" d="M389.248,283.169a2.2,2.2,0,1,1-2.2-2.2A2.2,2.2,0,0,1,389.248,283.169Z" transform="translate(-182.87 -117.263)" fill="#ffa700"/>
      <path id="Path_52047" data-name="Path 52047" d="M386.7,96.169a1.253,1.253,0,1,1-1.253-1.253A1.253,1.253,0,0,1,386.7,96.169Z" transform="translate(-182.523 -18.974)" fill="#e8a628"/>
      <path id="Path_52048" data-name="Path 52048" d="M341.052,277.214a2.022,2.022,0,1,1-2.022-2.022A2.022,2.022,0,0,1,341.052,277.214Z" transform="translate(-157.594 -114.209)" fill="#ffa700"/>
      <path id="Path_52049" data-name="Path 52049" d="M549.864,258.235a1.443,1.443,0,1,1-1.444-1.443A1.443,1.443,0,0,1,549.864,258.235Z" transform="translate(-268.516 -104.489)" fill="#ffa700"/>
      <path id="Path_52050" data-name="Path 52050" d="M690.452,122.72a2.1,2.1,0,1,1-2.1-2.1A2.1,2.1,0,0,1,690.452,122.72Z" transform="translate(-342.09 -32.551)" fill="#ffa700"/>
      <path id="Path_52051" data-name="Path 52051" d="M671.593,389.687a1.331,1.331,0,1,1-1.331-1.331A1.331,1.331,0,0,1,671.593,389.687Z" transform="translate(-332.941 -173.991)" fill="#e8a628"/>
      <path id="Path_52052" data-name="Path 52052" d="M559.921,382.826a1.538,1.538,0,1,1-1.537-1.538A1.537,1.537,0,0,1,559.921,382.826Z" transform="translate(-273.73 -170.257)" fill="#ffa700"/>
      <circle id="Ellipse_2041" data-name="Ellipse 2041" cx="1.748" cy="1.748" r="1.748" transform="translate(49.464 96.236)" fill="#d77062"/>
      <path id="Path_52053" data-name="Path 52053" d="M35.241,342.949a1.424,1.424,0,1,1-1.424-1.424A1.424,1.424,0,0,1,35.241,342.949Z" transform="translate(3.326 -149.251)" fill="#d77062"/>
      <circle id="Ellipse_2042" data-name="Ellipse 2042" cx="1.563" cy="1.563" r="1.563" transform="translate(122.107 144.436)" fill="#e8a628"/>
      <path id="Path_52054" data-name="Path 52054" d="M191.233,276.446a1.254,1.254,0,1,1-1.254-1.254A1.254,1.254,0,0,1,191.233,276.446Z" transform="translate(-79.26 -114.209)" fill="#d77062"/>
      <circle id="Ellipse_2043" data-name="Ellipse 2043" cx="1.717" cy="1.717" r="1.717" transform="translate(154.647 211.031)" fill="#d77062"/>
      <circle id="Ellipse_2044" data-name="Ellipse 2044" cx="0.959" cy="0.959" r="0.959" transform="translate(199.85 141.161)" fill="#d77062"/>
      <circle id="Ellipse_2045" data-name="Ellipse 2045" cx="1.38" cy="1.38" r="1.38" transform="translate(164.432 78.449)" fill="#d77062"/>
      <path id="Path_52055" data-name="Path 52055" d="M427.686,151.248a1.331,1.331,0,1,1-1.332-1.332A1.332,1.332,0,0,1,427.686,151.248Z" transform="translate(-204.091 -48.029)" fill="#d77062"/>
      <circle id="Ellipse_2046" data-name="Ellipse 2046" cx="1.317" cy="1.317" r="1.317" transform="translate(255.139 77.196)" fill="#d77062"/>
      <circle id="Ellipse_2047" data-name="Ellipse 2047" cx="1.298" cy="1.298" r="1.298" transform="translate(271.123 159.114)" fill="#d77062"/>
      <path id="Path_52056" data-name="Path 52056" d="M453.365,363.937a1.691,1.691,0,1,1-1.691-1.691A1.691,1.691,0,0,1,453.365,363.937Z" transform="translate(-217.276 -160.198)" fill="#ffa700"/>
      <path id="Path_52057" data-name="Path 52057" d="M722.741,232.525a1.455,1.455,0,1,1-1.455-1.455A1.455,1.455,0,0,1,722.741,232.525Z" transform="translate(-359.831 -90.901)" fill="#d77062"/>
      <circle id="Ellipse_2048" data-name="Ellipse 2048" cx="1.528" cy="1.528" r="1.528" transform="translate(321.874 78.449)" fill="#d77062"/>
      <path id="Path_52058" data-name="Path 52058" d="M654.6,373.231a.584.584,0,1,1-.584-.584A.584.584,0,0,1,654.6,373.231Z" transform="translate(-324.754 -165.692)" fill="#d77062"/>
      <circle id="Ellipse_2049" data-name="Ellipse 2049" cx="1.264" cy="1.264" r="1.264" transform="translate(355.58 181.749)" fill="#d77062"/>
      <path id="Path_52059" data-name="Path 52059" d="M104.954,78.966l1.484,2.713,2.713,1.484-2.713,1.484-1.484,2.713-1.484-2.713-2.713-1.484,2.713-1.484Z" transform="translate(-32.789 -10.548)" fill="#aa6bf9"/>
      <path id="Path_52060" data-name="Path 52060" d="M46.226,108.43l1.012,1.85,1.85,1.012-1.85,1.012-1.012,1.85-1.012-1.85-1.85-1.012,1.85-1.012Z" transform="translate(-2.469 -26.113)" fill="#aa6bf9"/>
      <path id="Path_52061" data-name="Path 52061" d="M269.217,80.791l1.179,2.156,2.156,1.179L270.4,85.306l-1.179,2.157-1.179-2.157-2.156-1.179,2.156-1.179Z" transform="translate(-120.019 -11.511)" fill="#f8ebe5"/>
      <path id="Path_52062" data-name="Path 52062" d="M227.559,73.027l.5.906.906.5-.906.5-.5.906-.5-.906-.906-.5.906-.5Z" transform="translate(-99.035 -7.41)" fill="#f8ebe5"/>
      <path id="Path_52063" data-name="Path 52063" d="M317.869,148.2l.385.7.7.385-.7.385-.385.7-.385-.7-.7-.385.7-.385Z" transform="translate(-146.908 -47.122)" fill="#f8ebe5"/>
      <path id="Path_52064" data-name="Path 52064" d="M277.152,353.929l.6,1.09,1.09.6-1.09.6-.6,1.09-.6-1.09-1.09-.6,1.09-.6Z" transform="translate(-125.083 -155.804)" fill="#f8ebe5"/>
      <path id="Path_52065" data-name="Path 52065" d="M443.2,59l1.656,3.028,3.028,1.656-3.028,1.656L443.2,68.369l-1.656-3.028-3.028-1.656,3.028-1.656Z" transform="translate(-211.219 0)" fill="#aa6bf9"/>
      <path id="Path_52066" data-name="Path 52066" d="M434.123,339.468l.766,1.4,1.4.766-1.4.766-.766,1.4-.766-1.4-1.4-.766,1.4-.766Z" transform="translate(-207.753 -148.165)" fill="#f8ebe5"/>
      <path id="Path_52067" data-name="Path 52067" d="M493.786,390.793l1.184,2.165,2.165,1.184-2.165,1.184-1.184,2.165-1.184-2.165-2.165-1.184,2.165-1.184Z" transform="translate(-238.648 -175.278)" fill="#f8ebe5"/>
      <path id="Path_52068" data-name="Path 52068" d="M512.867,332.406l.755,1.38,1.38.755-1.38.755-.755,1.38-.755-1.38-1.38-.755,1.38-.755Z" transform="translate(-249.368 -144.434)" fill="#f8ebe5"/>
      <path id="Path_52069" data-name="Path 52069" d="M397,138.739Z" transform="translate(-189.288 -42.124)" fill="#f8ebe5"/>
      <path id="Path_52070" data-name="Path 52070" d="M663.272,78.672l.547,1,1,.547-1,.546-.547,1-.547-1-1-.546,1-.547Z" transform="translate(-329.136 -10.392)" fill="#f8ebe5"/>
      <path id="Path_52071" data-name="Path 52071" d="M610.769,68.931l.683,1.249,1.249.683-1.249.683-.683,1.249-.683-1.249-1.249-.683,1.249-.683Z" transform="translate(-301.195 -5.246)" fill="#f8ebe5"/>
      <path id="Path_52072" data-name="Path 52072" d="M425.682,90.82l.683,1.249,1.249.683-1.249.683-.683,1.249L425,93.436l-1.249-.683L425,92.069Z" transform="translate(-203.418 -16.81)" fill="#f8ebe5"/>
      <path id="Path_52073" data-name="Path 52073" d="M703.481,360.369l.951,1.738,1.738.951-1.738.951-.951,1.738-.951-1.738-1.738-.951,1.738-.951Z" transform="translate(-349.773 -159.206)" fill="#aa6bf9"/>
    </g>
  </g>
</svg>
