<svg id="information-button" xmlns="http://www.w3.org/2000/svg" width="18.387" height="18.387" viewBox="0 0 18.387 18.387">
  <path id="Path_53630" data-name="Path 53630" d="M9.193,0a9.193,9.193,0,1,0,9.194,9.193A9.194,9.194,0,0,0,9.193,0Zm1.914,14.248q-.71.28-1.132.426a2.987,2.987,0,0,1-.982.147A1.957,1.957,0,0,1,7.656,14.4a1.354,1.354,0,0,1-.476-1.064,3.865,3.865,0,0,1,.035-.513c.024-.174.062-.37.114-.591l.592-2.092c.052-.2.1-.391.133-.569a2.523,2.523,0,0,0,.053-.493.759.759,0,0,0-.165-.558.937.937,0,0,0-.633-.156,1.661,1.661,0,0,0-.471.07c-.16.049-.3.093-.412.137l.156-.644q.581-.237,1.113-.405a3.288,3.288,0,0,1,1-.17,1.921,1.921,0,0,1,1.317.412,1.37,1.37,0,0,1,.462,1.071q0,.137-.032.48a3.213,3.213,0,0,1-.118.631l-.589,2.086c-.048.167-.091.359-.13.573a3.029,3.029,0,0,0-.057.487.7.7,0,0,0,.186.567,1.041,1.041,0,0,0,.644.151,1.867,1.867,0,0,0,.487-.075,2.77,2.77,0,0,0,.394-.132ZM11,5.782a1.406,1.406,0,0,1-.992.383,1.421,1.421,0,0,1-1-.383A1.222,1.222,0,0,1,8.6,4.853a1.235,1.235,0,0,1,.415-.931,1.411,1.411,0,0,1,1-.387A1.4,1.4,0,0,1,11,3.923a1.254,1.254,0,0,1,0,1.859Z" fill="#fff"/>
</svg>
