<svg id="invoice_2_" data-name="invoice (2)" xmlns="http://www.w3.org/2000/svg" width="23.583" height="28.696" viewBox="0 0 23.583 28.696">
  <g id="Group_18503" data-name="Group 18503" transform="translate(0 0)">
    <g id="Group_18502" data-name="Group 18502">
      <path id="Path_48301" data-name="Path 48301" d="M122.383,155.988h4.251a.664.664,0,1,0,0-1.328h-4.251a.664.664,0,1,0,0,1.328Z" transform="translate(-116.538 -144.828)" fill="#f17b00"/>
      <path id="Path_48302" data-name="Path 48302" d="M130.62,222.579h-8.237a.664.664,0,1,0,0,1.328h8.237a.664.664,0,0,0,0-1.328Z" transform="translate(-116.538 -208.43)" fill="#f17b00"/>
      <path id="Path_48303" data-name="Path 48303" d="M130.62,290.5h-8.237a.664.664,0,0,0,0,1.328h8.237a.664.664,0,0,0,0-1.328Z" transform="translate(-116.538 -272.03)" fill="#f17b00"/>
      <path id="Path_48304" data-name="Path 48304" d="M63.8,23.448V2.525A2.424,2.424,0,0,0,61.477,0q-.084,0-.169,0H47.026A2.7,2.7,0,0,0,44.2,2.525V3.654H43.041a2.889,2.889,0,0,0-2.823,2.757V27.367a1.162,1.162,0,0,0,.664.93,1.029,1.029,0,0,0,1.129-.2l2.026-1.827,2.424,2.159a1,1,0,0,0,.664.266,1.063,1.063,0,0,0,.664-.266l2.391-2.159,2.391,2.159a1,1,0,0,0,1.328,0l2.424-2.159L58.318,28.1a.8.8,0,0,0,1,.2,1,1,0,0,0,.5-.93V22.651l.4-.3,2.026,1.827a.963.963,0,0,0,.7.266.6.6,0,0,0,.332-.066A.963.963,0,0,0,63.8,23.448Zm-5.314,3.188-1.561-1.528a.93.93,0,0,0-1.3-.033L53.2,27.235l-2.358-2.159a1.063,1.063,0,0,0-1.328,0l-2.391,2.159L44.7,25.076a1.1,1.1,0,0,0-1.428.033l-1.727,1.528V6.411a1.561,1.561,0,0,1,1.495-1.428H57.322a1.291,1.291,0,0,1,1.162,1.428V26.637ZM62.47,2.525V22.718L60.809,21.19c-.266-.266-.332-.332-1-.232V6.411a2.616,2.616,0,0,0-2.491-2.757H45.532V2.525a1.38,1.38,0,0,1,1.495-1.2H61.307a1.1,1.1,0,0,1,1.162,1.2Z" transform="translate(-40.218 0)" fill="#f17b00"/>
    </g>
  </g>
</svg>
