<svg xmlns="http://www.w3.org/2000/svg" width="17.765" height="19.593" viewBox="0 0 17.765 19.593">
  <g id="XMLID_15_" transform="translate(-14.65 0.35)">
    <path id="XMLID_16_" d="M27.6,45.2a.914.914,0,0,0-.873,1.607,6.7,6.7,0,1,1-6.412.012.914.914,0,0,0-.879-1.6A8.533,8.533,0,1,0,27.6,45.2Z" transform="translate(0 -42.336)" fill="#333" stroke="#fff" stroke-width="0.7"/>
    <path id="XMLID_17_" d="M140.914,7.923a.914.914,0,0,0,.914-.914V.914a.914.914,0,1,0-1.828,0V7.009A.914.914,0,0,0,140.914,7.923Z" transform="translate(-117.382)" fill="#333" stroke="#fff" stroke-width="0.7"/>
  </g>
</svg>
