<svg xmlns="http://www.w3.org/2000/svg" xmlns:xlink="http://www.w3.org/1999/xlink" width="163.147" height="100.359" viewBox="0 0 163.147 100.359">
  <defs>
    <linearGradient id="linear-gradient" x1="0.5" x2="0.5" y2="1" gradientUnits="objectBoundingBox">
      <stop offset="0" stop-color="#f17b00"/>
      <stop offset="1" stop-color="#d20043"/>
    </linearGradient>
  </defs>
  <g id="Group_25876" data-name="Group 25876" transform="translate(2926.666 470.741)">
    <path id="Path_55133" data-name="Path 55133" d="M5.008-.187a4.143,4.143,0,0,1-1.6.317A2.767,2.767,0,0,1,1.3-.74,3.183,3.183,0,0,1,.479-3.011a3.421,3.421,0,0,1,.886-2.465A2.978,2.978,0,0,1,3.616-6.4a4.173,4.173,0,0,1,1.392.234v.463a3.374,3.374,0,0,0-1.4-.3A2.512,2.512,0,0,0,1.673-5.2,3.038,3.038,0,0,0,.928-3.055,2.833,2.833,0,0,0,1.64-1.018a2.385,2.385,0,0,0,1.8.747A3.506,3.506,0,0,0,5.008-.61ZM9.771.02V-2.685a1.909,1.909,0,0,0-.291-1.174,1.08,1.08,0,0,0-.908-.372,1.383,1.383,0,0,0-1.022.454,1.79,1.79,0,0,0-.441,1.3V.02H6.7V-6.659H7.11v2.978h.018A1.7,1.7,0,0,1,8.679-4.6a1.353,1.353,0,0,1,1.115.471,2.1,2.1,0,0,1,.383,1.353V.02Zm4.838-6.261h-.4l1.031-1.445H15.7Zm0,6.261v-.9h-.018a1.768,1.768,0,0,1-.628.738,1.61,1.61,0,0,1-.914.275,1.4,1.4,0,0,1-1.018-.361,1.214,1.214,0,0,1-.375-.912q0-1.181,1.564-1.428l1.388-.207q0-1.454-1.093-1.454a2.226,2.226,0,0,0-1.45.6v-.489a2.21,2.21,0,0,1,.681-.339,2.6,2.6,0,0,1,.808-.141,1.361,1.361,0,0,1,1.077.432,1.842,1.842,0,0,1,.381,1.256V.02ZM13.367-2.227a2.152,2.152,0,0,0-1,.328.886.886,0,0,0-.286.738.884.884,0,0,0,.267.661,1.018,1.018,0,0,0,.742.26,1.393,1.393,0,0,0,1.084-.482,1.8,1.8,0,0,0,.432-1.245v-.441Zm.775-2.987L13.45-6.267l-.7,1.053h-.361l.974-1.48h.2l.965,1.48ZM18.535-.042a1.4,1.4,0,0,1-.595.15q-1,0-1-1.2V-4.122h-.811v-.37h.811V-5.664q.1-.035.2-.07t.2-.066v1.309h1.19v.37h-1.19v2.978a1.2,1.2,0,0,0,.148.676.569.569,0,0,0,.5.209,1.119,1.119,0,0,0,.542-.163ZM22.659.02V-6.659h.405V.02Zm5.613,0h-.405V-.8h-.018A1.533,1.533,0,0,1,26.4.13q-1.6,0-1.6-2.014V-4.492h.41v2.507a3.612,3.612,0,0,0,.075.789,1.482,1.482,0,0,0,.227.542.915.915,0,0,0,.388.313,1.417,1.417,0,0,0,.562.1A1.272,1.272,0,0,0,27.475-.7a1.855,1.855,0,0,0,.392-1.234V-4.492h.084a1.072,1.072,0,0,0,.656-.154A.5.5,0,0,0,28.8-5.06a1.7,1.7,0,0,0-.093-.573h.427a1.461,1.461,0,0,1,.059.264,2.249,2.249,0,0,1,.02.3,1.034,1.034,0,0,1-.068.392.768.768,0,0,1-.194.282.9.9,0,0,1-.3.178,1.44,1.44,0,0,1-.383.082Zm3.745.11a2.228,2.228,0,0,1-.894-.172,1.888,1.888,0,0,1-.672-.482,2.158,2.158,0,0,1-.423-.74,2.893,2.893,0,0,1-.148-.945,3.017,3.017,0,0,1,.156-1,2.11,2.11,0,0,1,.445-.753,1.92,1.92,0,0,1,.692-.471,2.359,2.359,0,0,1,.892-.163,2.3,2.3,0,0,1,.78.128q.093.009.207.013t.216,0a1.6,1.6,0,0,0,.392-.042.76.76,0,0,0,.264-.117.445.445,0,0,0,.148-.181.576.576,0,0,0,.046-.234,1.7,1.7,0,0,0-.093-.573h.427a1.461,1.461,0,0,1,.059.264,2.25,2.25,0,0,1,.02.3,1.048,1.048,0,0,1-.073.41.738.738,0,0,1-.211.286.952.952,0,0,1-.337.174,1.768,1.768,0,0,1-.445.068,2.229,2.229,0,0,1,.511.789,3.026,3.026,0,0,1,.172,1.079A2.967,2.967,0,0,1,34-1.275a2.151,2.151,0,0,1-.421.745,1.9,1.9,0,0,1-.672.487A2.2,2.2,0,0,1,32.018.13Zm.031-4.362a1.8,1.8,0,0,0-.718.139,1.536,1.536,0,0,0-.551.4,1.793,1.793,0,0,0-.352.637A2.749,2.749,0,0,0,30.3-2.2a2.554,2.554,0,0,0,.119.8,1.773,1.773,0,0,0,.344.619,1.534,1.534,0,0,0,.544.4,1.766,1.766,0,0,0,.72.141,1.807,1.807,0,0,0,.725-.137,1.418,1.418,0,0,0,.531-.394,1.761,1.761,0,0,0,.328-.628,2.88,2.88,0,0,0,.112-.837,2.23,2.23,0,0,0-.436-1.483A1.541,1.541,0,0,0,32.048-4.232Zm-.04,5.441a.341.341,0,0,1-.24-.1.323.323,0,0,1-.1-.247.29.29,0,0,1,.1-.236A.353.353,0,0,1,32,.544a.382.382,0,0,1,.245.086.285.285,0,0,1,.108.236.331.331,0,0,1-.1.242A.331.331,0,0,1,32.009,1.21ZM38.715.02V-2.606q0-1.626-1.172-1.626a1.359,1.359,0,0,0-1.071.478,1.732,1.732,0,0,0-.419,1.183V.02h-.405V-4.492h.405v.82h.018a1.633,1.633,0,0,1,1.542-.93,1.346,1.346,0,0,1,1.119.487,2.185,2.185,0,0,1,.388,1.39V.02Zm5.75-.335a2.652,2.652,0,0,1-.555,1.864,2.269,2.269,0,0,1-1.727.59A3.012,3.012,0,0,1,40.838,1.8V1.373a2.8,2.8,0,0,0,1.353.4q1.868,0,1.868-1.974V-.791h-.018A1.755,1.755,0,0,1,42.416.13a1.72,1.72,0,0,1-1.359-.6,2.477,2.477,0,0,1-.527-1.683A2.663,2.663,0,0,1,41.1-3.919,1.853,1.853,0,0,1,42.6-4.6a1.526,1.526,0,0,1,1.445.824h.018v-.714h.405ZM44.059-2.76a1.474,1.474,0,0,0-.4-1.035,1.365,1.365,0,0,0-1.051-.436,1.467,1.467,0,0,0-1.2.56,2.279,2.279,0,0,0-.454,1.48,2.226,2.226,0,0,0,.416,1.439,1.346,1.346,0,0,0,1.1.513,1.5,1.5,0,0,0,1.159-.471,1.646,1.646,0,0,0,.432-1.154Zm5,.335v-.4h2.41v.4ZM60.1.02V-3.011H56.484V.02h-.436V-6.3h.436v2.89H60.1V-6.3h.432V.02Zm2.542-5.648a.328.328,0,0,1-.234-.1.327.327,0,0,1-.1-.247.3.3,0,0,1,.1-.236.343.343,0,0,1,.231-.09.359.359,0,0,1,.24.088.3.3,0,0,1,.1.238.331.331,0,0,1-.1.242A.331.331,0,0,1,62.644-5.628ZM62.446.02V-4.492h.405V.02Zm2.326-2.238A2.231,2.231,0,0,0,65.2-.764,1.441,1.441,0,0,0,66.38-.24a2.4,2.4,0,0,0,1.48-.56v.432A2.637,2.637,0,0,1,66.3.13,1.769,1.769,0,0,1,64.887-.5a2.63,2.63,0,0,1-.538-1.767,2.516,2.516,0,0,1,.562-1.663A1.809,1.809,0,0,1,66.372-4.6a1.525,1.525,0,0,1,1.291.59A2.6,2.6,0,0,1,68.112-2.4v.181Zm2.917-.37A2,2,0,0,0,67.314-3.8a1.166,1.166,0,0,0-.96-.432,1.409,1.409,0,0,0-1.051.425,2.041,2.041,0,0,0-.513,1.218Zm-.661-2.626-.692-1.053-.7,1.053H65.27l.974-1.48h.2l.965,1.48ZM66.42,1.21a.341.341,0,0,1-.24-.1.323.323,0,0,1-.1-.247.29.29,0,0,1,.1-.236.353.353,0,0,1,.231-.086.382.382,0,0,1,.245.086.285.285,0,0,1,.108.236.331.331,0,0,1-.1.242A.331.331,0,0,1,66.42,1.21ZM72.589.02V-.8h-.018a1.539,1.539,0,0,1-1.454.93q-1.6,0-1.6-2.014V-4.492h.41v2.507a2.294,2.294,0,0,0,.3,1.331,1.1,1.1,0,0,0,.949.414A1.27,1.27,0,0,0,72.2-.7a1.851,1.851,0,0,0,.39-1.234V-4.492h.405V.02ZM80.872,2.1v-2.9h-.018A1.716,1.716,0,0,1,79.22.13a1.682,1.682,0,0,1-1.361-.621,2.541,2.541,0,0,1-.516-1.674,2.576,2.576,0,0,1,.586-1.78A1.908,1.908,0,0,1,79.418-4.6a1.485,1.485,0,0,1,1.436.842h.018v-.731h.405V2.1Zm0-4.78A1.6,1.6,0,0,0,80.48-3.8a1.389,1.389,0,0,0-1.088-.436,1.468,1.468,0,0,0-1.163.54,2.248,2.248,0,0,0-.463,1.509,2.231,2.231,0,0,0,.412,1.425,1.3,1.3,0,0,0,1.068.518,1.508,1.508,0,0,0,1.207-.485,1.75,1.75,0,0,0,.419-1.185ZM86.08.02V-.8h-.018a1.539,1.539,0,0,1-1.454.93q-1.6,0-1.6-2.014V-4.492h.41v2.507a2.294,2.294,0,0,0,.3,1.331,1.1,1.1,0,0,0,.949.414A1.27,1.27,0,0,0,85.69-.7a1.851,1.851,0,0,0,.39-1.234V-4.492h.405V.02Zm4.926,0v-.9h-.018a1.768,1.768,0,0,1-.628.738,1.61,1.61,0,0,1-.914.275,1.4,1.4,0,0,1-1.018-.361,1.214,1.214,0,0,1-.375-.912q0-1.181,1.564-1.428l1.388-.207q0-1.454-1.093-1.454a2.226,2.226,0,0,0-1.45.6v-.489a2.21,2.21,0,0,1,.681-.339,2.6,2.6,0,0,1,.808-.141,1.361,1.361,0,0,1,1.077.432,1.842,1.842,0,0,1,.381,1.256V.02ZM89.763-2.227a2.152,2.152,0,0,0-1,.328.886.886,0,0,0-.286.738.884.884,0,0,0,.267.661,1.018,1.018,0,0,0,.742.26,1.393,1.393,0,0,0,1.084-.482,1.8,1.8,0,0,0,.432-1.245v-.441Zm.128-4.692a.952.952,0,0,1,.615.174.618.618,0,0,1,.214.509.666.666,0,0,1-.143.452.685.685,0,0,1-.46.2v.238H89.8v-.507a.7.7,0,0,0,.41-.095.326.326,0,0,0,.128-.28.289.289,0,0,0-.117-.251.548.548,0,0,0-.324-.084q-.115,0-.2.009a.984.984,0,0,0-.154.026v-.361q.084-.013.17-.022A1.8,1.8,0,0,1,89.891-6.919Zm6.023,4.494v-.4h2.41v.4ZM107.106-.187a4.143,4.143,0,0,1-1.6.317,2.768,2.768,0,0,1-2.113-.87,3.183,3.183,0,0,1-.817-2.271,3.421,3.421,0,0,1,.886-2.465,2.978,2.978,0,0,1,2.251-.927,4.173,4.173,0,0,1,1.392.234v.463a3.374,3.374,0,0,0-1.4-.3,2.512,2.512,0,0,0-1.934.806,3.038,3.038,0,0,0-.745,2.146,2.833,2.833,0,0,0,.712,2.038,2.385,2.385,0,0,0,1.8.747,3.506,3.506,0,0,0,1.564-.339Zm4.763.207V-2.685a1.909,1.909,0,0,0-.291-1.174,1.08,1.08,0,0,0-.908-.372,1.383,1.383,0,0,0-1.022.454,1.791,1.791,0,0,0-.441,1.3V.02H108.8V-6.659h.405v2.978h.018a1.7,1.7,0,0,1,1.551-.921,1.353,1.353,0,0,1,1.115.471,2.1,2.1,0,0,1,.383,1.353V.02Zm5.12,0V-.8h-.018a1.539,1.539,0,0,1-1.454.93q-1.6,0-1.6-2.014V-4.492h.41v2.507a2.294,2.294,0,0,0,.3,1.331,1.1,1.1,0,0,0,.949.414A1.27,1.27,0,0,0,116.6-.7a1.851,1.851,0,0,0,.39-1.234V-4.492h.405V.02Zm3.331.921a2.681,2.681,0,0,1-.546.9,1.052,1.052,0,0,1-.771.3.943.943,0,0,1-.352-.062V1.672a1.018,1.018,0,0,0,.37.062q.542,0,.855-.749l.419-1-1.71-4.476h.454L120.4-.817q.044.119.062.181a1.367,1.367,0,0,0,.04.15h.018l.106-.3,1.454-3.7h.441Zm3.463-3.159a2.232,2.232,0,0,0,.43,1.454,1.441,1.441,0,0,0,1.179.524,2.4,2.4,0,0,0,1.48-.56v.432a2.637,2.637,0,0,1-1.564.5A1.769,1.769,0,0,1,123.9-.5a2.63,2.63,0,0,1-.538-1.767,2.516,2.516,0,0,1,.562-1.663,1.809,1.809,0,0,1,1.461-.676,1.525,1.525,0,0,1,1.291.59,2.6,2.6,0,0,1,.449,1.613v.181Zm2.917-.37a2,2,0,0,0-.374-1.212,1.166,1.166,0,0,0-.961-.432,1.409,1.409,0,0,0-1.051.425,2.041,2.041,0,0,0-.513,1.218Zm-.634-2.626-.692-1.053-.7,1.053h-.361l.974-1.48h.2l.965,1.48ZM131.687.02V-2.606q0-1.626-1.172-1.626a1.359,1.359,0,0,0-1.071.478,1.732,1.732,0,0,0-.419,1.183V.02h-.405V-4.492h.405v.82h.018a1.633,1.633,0,0,1,1.542-.93,1.346,1.346,0,0,1,1.119.487,2.185,2.185,0,0,1,.388,1.39V.02Zm8.059,0V-2.606q0-1.626-1.172-1.626a1.359,1.359,0,0,0-1.071.478,1.732,1.732,0,0,0-.419,1.183V.02h-.405V-4.492h.405v.82h.018a1.633,1.633,0,0,1,1.542-.93,1.346,1.346,0,0,1,1.119.487,2.185,2.185,0,0,1,.388,1.39V.02Zm5.75-.335a2.652,2.652,0,0,1-.555,1.864,2.269,2.269,0,0,1-1.727.59,3.012,3.012,0,0,1-1.344-.344V1.373a2.8,2.8,0,0,0,1.353.4q1.868,0,1.868-1.974V-.791h-.018a1.755,1.755,0,0,1-1.626.921,1.72,1.72,0,0,1-1.359-.6,2.477,2.477,0,0,1-.527-1.683,2.663,2.663,0,0,1,.568-1.762,1.853,1.853,0,0,1,1.5-.683,1.526,1.526,0,0,1,1.445.824h.018v-.714h.405ZM145.09-2.76a1.474,1.474,0,0,0-.4-1.035,1.365,1.365,0,0,0-1.051-.436,1.467,1.467,0,0,0-1.2.56,2.278,2.278,0,0,0-.454,1.48A2.226,2.226,0,0,0,142.4-.753a1.346,1.346,0,0,0,1.1.513,1.5,1.5,0,0,0,1.159-.471,1.646,1.646,0,0,0,.432-1.154Zm5.3,2.78V-2.685a1.909,1.909,0,0,0-.291-1.174,1.08,1.08,0,0,0-.908-.372,1.383,1.383,0,0,0-1.022.454,1.791,1.791,0,0,0-.441,1.3V.02h-.405V-6.659h.405v2.978h.018a1.7,1.7,0,0,1,1.551-.921,1.353,1.353,0,0,1,1.115.471,2.1,2.1,0,0,1,.383,1.353V.02Zm2.34-5.648a.328.328,0,0,1-.234-.1.327.327,0,0,1-.1-.247.3.3,0,0,1,.1-.236.343.343,0,0,1,.231-.09.359.359,0,0,1,.24.088.3.3,0,0,1,.1.238.331.331,0,0,1-.1.242A.331.331,0,0,1,152.726-5.628Zm-.2,5.648V-4.492h.405V.02Zm2.326-2.238a2.232,2.232,0,0,0,.43,1.454,1.441,1.441,0,0,0,1.179.524,2.4,2.4,0,0,0,1.48-.56v.432a2.637,2.637,0,0,1-1.564.5,1.769,1.769,0,0,1-1.41-.626,2.63,2.63,0,0,1-.538-1.767,2.516,2.516,0,0,1,.562-1.663,1.809,1.809,0,0,1,1.461-.676,1.525,1.525,0,0,1,1.291.59,2.6,2.6,0,0,1,.449,1.613v.181Zm2.917-.37A2,2,0,0,0,157.4-3.8a1.166,1.166,0,0,0-.96-.432,1.409,1.409,0,0,0-1.051.425,2.041,2.041,0,0,0-.513,1.218Zm-.661-2.626-.692-1.053-.7,1.053h-.361l.974-1.48h.2l.965,1.48ZM156.5,1.21a.341.341,0,0,1-.24-.1.323.323,0,0,1-.1-.247.29.29,0,0,1,.1-.236.353.353,0,0,1,.231-.086.382.382,0,0,1,.245.086.285.285,0,0,1,.108.236.331.331,0,0,1-.1.242A.331.331,0,0,1,156.5,1.21Zm3.613-1.992H160.1V2.1h-.405V-4.492h.405v.93h.018a1.783,1.783,0,0,1,.694-.769A1.9,1.9,0,0,1,161.8-4.6a1.634,1.634,0,0,1,1.342.593,2.477,2.477,0,0,1,.482,1.61,2.863,2.863,0,0,1-.553,1.831,1.771,1.771,0,0,1-1.461.7A1.591,1.591,0,0,1,160.115-.782ZM160.1-2.461v.568a1.707,1.707,0,0,0,.427,1.165,1.423,1.423,0,0,0,1.124.487,1.33,1.33,0,0,0,1.124-.593A2.584,2.584,0,0,0,163.2-2.39a2.1,2.1,0,0,0-.4-1.344,1.283,1.283,0,0,0-1.057-.5,1.487,1.487,0,0,0-1.22.529A1.9,1.9,0,0,0,160.1-2.461Z" transform="translate(-2927.145 -372.522)" fill="#333"/>
    <g id="Group_26827" data-name="Group 26827" transform="translate(4.096)">
      <rect id="Rectangle_17025" data-name="Rectangle 17025" width="13.014" height="13.014" rx="3" transform="translate(-2870.185 -442.979)" fill="#d20043"/>
      <rect id="Rectangle_17026" data-name="Rectangle 17026" width="13.014" height="13.014" rx="3" transform="translate(-2870.185 -470.741)" fill="#f17b00"/>
      <rect id="Rectangle_17027" data-name="Rectangle 17027" width="13.014" height="13.014" rx="3" transform="translate(-2870.185 -456.86)" fill="#d20043"/>
      <rect id="Rectangle_17028" data-name="Rectangle 17028" width="13.014" height="13.014" rx="3" transform="translate(-2842.422 -442.979)" fill="#f17b00"/>
      <rect id="Rectangle_17029" data-name="Rectangle 17029" width="13.014" height="13.014" rx="3" transform="translate(-2842.422 -470.741)" fill="#f17b00"/>
      <rect id="Rectangle_17030" data-name="Rectangle 17030" width="13.014" height="13.014" rx="3" transform="translate(-2856.303 -442.979)" fill="#f17b00"/>
      <rect id="Rectangle_17031" data-name="Rectangle 17031" width="13.014" height="13.014" rx="3" transform="translate(-2856.303 -456.86)" fill="#d20043"/>
      <path id="Path_55132" data-name="Path 55132" d="M-3619.125,1093.209s7.563,11.524,19.133,11.519a78.24,78.24,0,0,0,19.178-2.135s4.134-1.316,4.97.8.412,4.579-9.269,8.346c4.107.664,10.918-.5,17.42-5.481s10.918-9.548,14.5-7.611c-.128.226-11.833,22.067-34.678,21.786S-3619.125,1093.209-3619.125,1093.209Z" transform="translate(736.363 -1530.209)" fill="url(#linear-gradient)"/>
    </g>
    <path id="Path_90535" data-name="Path 90535" d="M-71.012-6.137a3.172,3.172,0,0,0,1.026-.285A3.6,3.6,0,0,0-67.9-9.69a3.64,3.64,0,0,0-1.045-2.546,3.561,3.561,0,0,0-2.527-1.045h-8.4V.019h2.375V-6.1h2.375A2.354,2.354,0,0,1-73.1-4.959l.057.114,1.273,2.489L-70.557.019h2.66l-1.216-2.375Zm-6.479-2.318v-2.451h6.023a1.2,1.2,0,0,1,.855.342,1.253,1.253,0,0,1,.361.874,1.207,1.207,0,0,1-.722,1.1,1.109,1.109,0,0,1-.494.114Zm15.105-2.47h9.709V-13.3h-9.709a3.584,3.584,0,0,0-3.572,3.591v6.118A3.584,3.584,0,0,0-62.386,0h9.709V-2.375h-9.709A1.225,1.225,0,0,1-63.6-3.591V-6.1h8.55V-8.474H-63.6V-9.709A1.225,1.225,0,0,1-62.386-10.925Zm23.218,8.55L-44.736-13.3-50.3-2.375-51.519,0h2.66l1.216-2.375,2.907-5.7,2.907,5.7L-40.613,0h2.66Zm5.852,0A1.894,1.894,0,0,1-34.931-3.99v-9.291h-2.375v9.063a4.131,4.131,0,0,0,.437,1.862A4.214,4.214,0,0,0-34.951-.418a4.131,4.131,0,0,0,1.862.437h6.745V-2.356Zm29.526-5.4a3.52,3.52,0,0,0,.57-1.938A3.6,3.6,0,0,0-6.812-13.3h-8.379V0h9.063A4.241,4.241,0,0,0-1.891-4.237,4.238,4.238,0,0,0-3.791-7.771Zm-9.025-3.154h6.023A1.225,1.225,0,0,1-5.577-9.709,1.225,1.225,0,0,1-6.793-8.493h-6.023Zm6.688,8.55h-6.688V-6.118h6.688A1.865,1.865,0,0,1-4.266-4.256,1.865,1.865,0,0,1-6.128-2.394ZM10.46-13.3v6.65A4.281,4.281,0,0,1,6.185-2.375,4.281,4.281,0,0,1,1.91-6.65V-13.3H-.465v6.65A6.657,6.657,0,0,0,6.185,0a6.657,6.657,0,0,0,6.65-6.65V-13.3ZM17.11,0V-13.3H14.734V0ZM23-2.375A1.894,1.894,0,0,1,21.385-3.99v-9.291H19.01v9.063a4.131,4.131,0,0,0,.437,1.862A4.214,4.214,0,0,0,21.366-.418a4.131,4.131,0,0,0,1.862.437h6.745V-2.356ZM38.522-13.3h-6.65V0h6.65A6.53,6.53,0,0,0,43.2-1.957c.133-.133.266-.266.38-.4A6.6,6.6,0,0,0,45.153-6.65a6.641,6.641,0,0,0-6.65-6.631ZM38.5-2.356H34.229v-8.55H38.5a4.281,4.281,0,0,1,4.275,4.275A4.281,4.281,0,0,1,38.5-2.356ZM49.447,0V-13.3H47.072V0ZM62.273-13.3v8.474l-8.55-6.593-2.375-1.824V.019h2.375V-8.4L62.273-1.8,64.648.019v-13.3ZM73.2-10.925h6.65V-13.3H73.2a6.657,6.657,0,0,0-6.65,6.65A6.657,6.657,0,0,0,73.2,0h6.65V-7.3H73.2v2.375h4.275v2.546H73.2A4.281,4.281,0,0,1,68.923-6.65,4.281,4.281,0,0,1,73.2-10.925Z" transform="translate(-2845.799 -386.383)" fill="#333"/>
  </g>
</svg>
