<svg id="translation_1_" data-name="translation (1)" xmlns="http://www.w3.org/2000/svg" width="23.737" height="23.736" viewBox="0 0 23.737 23.736">
  <path id="Path_52118" data-name="Path 52118" d="M21.789,8.345h-6.52c.021-.229.032-.46.032-.695A7.652,7.652,0,0,0,3.828,1.022a.464.464,0,1,0,.464.8A6.724,6.724,0,1,1,7.65,14.374a6.648,6.648,0,0,1-4.216-1.487.464.464,0,0,0-.427-.082l-1.231.322.482-1.059a.463.463,0,0,0-.047-.465A6.727,6.727,0,0,1,1.83,4.284a.464.464,0,0,0-.8-.465,7.655,7.655,0,0,0,.278,8.106L.529,13.63a.464.464,0,0,0,.539.641l1.972-.515a7.649,7.649,0,0,0,5.676,1.471v4.06a1.949,1.949,0,0,0,1.947,1.947H17.22l2.932,2.4a.464.464,0,0,0,.757-.359v-2.04h.881a1.949,1.949,0,0,0,1.947-1.947V10.292A1.949,1.949,0,0,0,21.789,8.345Zm1.02,10.941a1.021,1.021,0,0,1-1.02,1.02H20.445a.464.464,0,0,0-.464.464v1.525l-2.29-1.873c-.126-.115-.237-.115-.485-.115H10.663a1.021,1.021,0,0,1-1.02-1.02V15.037a7.676,7.676,0,0,0,5.484-5.765h6.662a1.021,1.021,0,0,1,1.02,1.02Zm0,0" fill="#333"/>
  <path id="Path_52119" data-name="Path 52119" d="M292.6,254.65a.463.463,0,0,0-.2-.883h-.19l-1.5-3.408a.464.464,0,0,0-.849,0l-1.5,3.408h-.19a.463.463,0,0,0-.2.883l-.557,1.269a.464.464,0,1,0,.849.373l.7-1.6H291.6l.7,1.6a.464.464,0,1,0,.849-.373Zm-3.214-.883.907-2.067.907,2.067Zm0,0" transform="translate(-274.062 -238.488)" fill="#333"/>
  <path id="Path_52120" data-name="Path 52120" d="M45.866,46.326a.464.464,0,1,0-.328-.136A.468.468,0,0,0,45.866,46.326Zm0,0" transform="translate(-43.297 -43.294)" fill="#333"/>
  <path id="Path_52121" data-name="Path 52121" d="M100.374,91.907a.464.464,0,1,0,.446.813,5.309,5.309,0,0,0,2.294-2.489,5.31,5.31,0,0,0,2.294,2.489.464.464,0,1,0,.446-.813,4.385,4.385,0,0,1-2.227-3.19h2.058a.464.464,0,1,0,0-.927h-2.108V85.858a.464.464,0,1,0-.927,0V87.79h-1.675a.464.464,0,0,0,0,.927H102.6A4.384,4.384,0,0,1,100.374,91.907Zm0,0" transform="translate(-95.491 -81.436)" fill="#333"/>
</svg>
