<svg xmlns="http://www.w3.org/2000/svg" width="49.582" height="49.582" viewBox="0 0 49.582 49.582">
  <g id="Outline" transform="translate(-2 -2)">
    <g id="Group_18409" data-name="Group 18409" transform="translate(2 2)">
      <path id="Path_47964" data-name="Path 47964" d="M50.756,11.916h-14.4l-4.82-8.264h.874L47.958,10.2A.827.827,0,0,0,48.6,8.675L32.9,2.064A.82.82,0,0,0,32.576,2H21.006a.82.82,0,0,0-.321.064L4.985,8.675a.826.826,0,0,0-.506.762v2.479H2.826A.826.826,0,0,0,2,12.743v3.305a.826.826,0,0,0,.826.826v4.132a4.119,4.119,0,0,0,7.437,2.453,4.094,4.094,0,0,0,6.611,0,4.094,4.094,0,0,0,6.611,0,4.094,4.094,0,0,0,6.611,0,4.094,4.094,0,0,0,6.611,0,4.094,4.094,0,0,0,6.611,0,4.117,4.117,0,0,0,3.305,1.678V49.929h-21.9V32.576a.826.826,0,0,0-.826-.826H10.264a.826.826,0,0,0-.826.826V49.929H6.958V27.5a.826.826,0,1,0-1.653,0V50.756a.826.826,0,0,0,.826.826H47.45a.826.826,0,0,0,.826-.826V24.788a4.132,4.132,0,0,0,2.479-3.781V19.354a.826.826,0,0,0-1.653,0v1.653a2.479,2.479,0,1,1-4.958,0V16.875h6.611a.826.826,0,0,0,.826-.826V12.743A.826.826,0,0,0,50.756,11.916ZM11.09,49.929V33.4H23.072V49.929ZM29.622,3.653l4.82,8.264H19.14l4.82-8.264ZM6.132,9.986l15.04-6.333h.873l-4.819,8.264H6.132Zm.826,13.5a2.479,2.479,0,0,1-2.479-2.479V16.875H9.437v4.132a2.479,2.479,0,0,1-2.479,2.479Zm6.611,0a2.479,2.479,0,0,1-2.479-2.479V16.875h4.958v4.132a2.479,2.479,0,0,1-2.479,2.479Zm6.611,0A2.479,2.479,0,0,1,17.7,21.006V16.875h4.958v4.132a2.479,2.479,0,0,1-2.479,2.479Zm6.611,0a2.479,2.479,0,0,1-2.479-2.479V16.875H29.27v4.132a2.479,2.479,0,0,1-2.479,2.479Zm6.611,0a2.479,2.479,0,0,1-2.479-2.479V16.875h4.958v4.132A2.479,2.479,0,0,1,33.4,23.486Zm9.09-2.479a2.479,2.479,0,0,1-4.958,0V16.875h4.958Zm7.437-5.785H3.653V13.569H49.929Z" transform="translate(-2 -2)" fill="#f17b00"/>
      <path id="Path_47965" data-name="Path 47965" d="M41.263,32a4.137,4.137,0,0,0-4.132,4.132v.826H34.652a.826.826,0,0,0-.826.78L33,52.613a.826.826,0,0,0,.826.873H48.7a.826.826,0,0,0,.826-.873l-.275-4.958a.828.828,0,1,0-1.653.093l.228,4.086H34.7l.735-13.222h1.7V41.09a.826.826,0,0,0,1.653,0V38.611h4.958V41.09a.826.826,0,1,0,1.653,0V38.611h1.7l.324,5.831a.828.828,0,0,0,1.653-.093L48.7,37.738a.826.826,0,0,0-.828-.78H45.4v-.826A4.137,4.137,0,0,0,41.263,32Zm-2.479,4.958v-.826a2.479,2.479,0,1,1,4.958,0v.826Z" transform="translate(-7.382 -7.209)" fill="#f17b00"/>
      <path id="Path_47966" data-name="Path 47966" d="M42.305,45a3.305,3.305,0,1,0,3.305,3.305A3.305,3.305,0,0,0,42.305,45Zm0,4.958a1.653,1.653,0,1,1,1.653-1.653A1.653,1.653,0,0,1,42.305,49.958Z" transform="translate(-8.424 -9.466)" fill="#f17b00"/>
      <path id="Path_47967" data-name="Path 47967" d="M23.826,46a.826.826,0,0,0-.826.826v3.305a.826.826,0,0,0,1.653,0V46.826A.826.826,0,0,0,23.826,46Z" transform="translate(-5.646 -9.64)" fill="#f17b00"/>
    </g>
  </g>
</svg>
