<svg xmlns="http://www.w3.org/2000/svg" width="19.361" height="17.738" viewBox="0 0 19.361 17.738">
  <g id="Group_12842" data-name="Group 12842" transform="translate(0 0)">
    <path id="Path_35029" data-name="Path 35029" d="M82.87,81.956H71.336a2.379,2.379,0,0,0-4.511,0h-1.8a.757.757,0,0,0,0,1.515h1.8a2.379,2.379,0,0,0,4.511,0H82.87a.757.757,0,1,0,0-1.515ZM69.08,83.579a.865.865,0,1,1,.865-.865A.866.866,0,0,1,69.08,83.579Z" transform="translate(-64.267 -80.334)" fill="#333"/>
    <path id="Path_35030" data-name="Path 35030" d="M82.87,210.489h-1.8a2.379,2.379,0,0,0-4.511,0H65.024a.757.757,0,0,0,0,1.515H76.559a2.379,2.379,0,0,0,4.511,0h1.8a.757.757,0,1,0,0-1.515Zm-4.056,1.622a.865.865,0,1,1,.865-.865A.866.866,0,0,1,78.814,212.112Z" transform="translate(-64.267 -202.378)" fill="#333"/>
    <path id="Path_35031" data-name="Path 35031" d="M82.87,339.022H74.58a2.379,2.379,0,0,0-4.511,0H65.024a.757.757,0,1,0,0,1.515H70.07a2.379,2.379,0,0,0,4.511,0h8.29a.757.757,0,1,0,0-1.515Zm-10.545,1.622a.865.865,0,1,1,.865-.865A.866.866,0,0,1,72.325,340.645Z" transform="translate(-64.267 -324.421)" fill="#333"/>
  </g>
</svg>
