<svg xmlns="http://www.w3.org/2000/svg" width="50" height="45.054" viewBox="0 0 50 45.054">
  <g id="briefcase_1_" data-name="briefcase (1)" transform="translate(0 -25.324)">
    <g id="Group_18495" data-name="Group 18495" transform="translate(15.78 25.324)">
      <g id="Group_18494" data-name="Group 18494">
        <path id="Path_48299" data-name="Path 48299" d="M176.814,25.324H164.92a3.336,3.336,0,0,0-3.332,3.332v1.531a.977.977,0,1,0,1.953,0V28.656a1.38,1.38,0,0,1,1.379-1.379h11.894a1.38,1.38,0,0,1,1.379,1.379v1.531a.977.977,0,1,0,1.953,0V28.656A3.335,3.335,0,0,0,176.814,25.324Z" transform="translate(-161.588 -25.324)" fill="#f17b00"/>
      </g>
    </g>
    <g id="Group_18497" data-name="Group 18497" transform="translate(0 33.214)">
      <g id="Group_18496" data-name="Group 18496">
        <path id="Path_48300" data-name="Path 48300" d="M45.232,106.118H4.768A4.773,4.773,0,0,0,0,110.886v8.672a.977.977,0,0,0,.7.937l.6.176v20.458a2.157,2.157,0,0,0,2.154,2.154h43.1a2.157,2.157,0,0,0,2.154-2.154V120.814l.59-.17a.977.977,0,0,0,.706-.938v-8.82A4.773,4.773,0,0,0,45.232,106.118ZM8.714,141.329H3.45a.2.2,0,0,1-.2-.2v-5.265H6.057a2.66,2.66,0,0,1,2.657,2.657Zm38.037-.2a.2.2,0,0,1-.2.2H41.286V138.52a2.66,2.66,0,0,1,2.657-2.657h2.809Zm0-7.218H43.943a4.616,4.616,0,0,0-4.61,4.61v2.809H10.667V138.52a4.616,4.616,0,0,0-4.61-4.61H3.249V121.246l17.242,5.085v3.138a.977.977,0,0,0,.977.977h7.066a.977.977,0,0,0,.977-.977v-3.112l17.242-4.979V133.91Zm-24.308-5.417v-4.759h5.113v4.759Zm25.6-9.522-18.537,5.353v-1.567a.977.977,0,0,0-.977-.977H21.467a.977.977,0,0,0-.977.977v1.538L1.953,118.828v-7.942a2.818,2.818,0,0,1,2.815-2.815H8.714v3.381a.977.977,0,1,0,1.953,0v-3.381H38.979v3.381a.977.977,0,0,0,1.953,0v-3.381h4.3a2.818,2.818,0,0,1,2.815,2.815v8.085Z" transform="translate(0 -106.118)" fill="#f17b00"/>
      </g>
    </g>
    <g id="Group_18499" data-name="Group 18499" transform="translate(38.979 41.339)">
      <g id="Group_18498" data-name="Group 18498">
        <circle id="Ellipse_1981" data-name="Ellipse 1981" cx="0.977" cy="0.977" r="0.977" fill="#f17b00"/>
      </g>
    </g>
    <g id="Group_18501" data-name="Group 18501" transform="translate(8.714 41.339)">
      <g id="Group_18500" data-name="Group 18500">
        <circle id="Ellipse_1982" data-name="Ellipse 1982" cx="0.977" cy="0.977" r="0.977" fill="#f17b00"/>
      </g>
    </g>
  </g>
</svg>
