<svg id="motorcycle" xmlns="http://www.w3.org/2000/svg" width="20.888" height="29.117" viewBox="0 0 20.888 29.117">
  <g id="Group_17331" data-name="Group 17331">
    <path id="Path_46866" data-name="Path 46866" d="M92.287,3.8H87.444a4.748,4.748,0,0,0-9.3,0H73.3a.949.949,0,1,0,0,1.9H78.14A4.748,4.748,0,0,0,79.6,8.255a8.564,8.564,0,0,0-5.244,7.886V23a2.325,2.325,0,0,0,2.323,2.323h3.268v.949a2.848,2.848,0,0,0,5.7,0v-.949h3.374A2.325,2.325,0,0,0,91.337,23V16.141A8.561,8.561,0,0,0,86.02,8.225,4.746,4.746,0,0,0,87.444,5.7h4.843a.949.949,0,1,0,0-1.9ZM82.792,1.9a2.848,2.848,0,1,1-2.848,2.848A2.852,2.852,0,0,1,82.792,1.9Zm.949,24.37a.949.949,0,1,1-1.9,0v-3.8a.949.949,0,0,1,1.9,0Zm5.7-10.128V23a.424.424,0,0,1-.424.424H85.641v-.949a2.848,2.848,0,1,0-5.7,0v.949H76.675A.424.424,0,0,1,76.251,23V16.141a6.594,6.594,0,1,1,13.187,0Z" transform="translate(-72.348)" fill="#f17b00"/>
  </g>
</svg>
