<svg xmlns="http://www.w3.org/2000/svg" width="45.917" height="44.518" viewBox="0 0 45.917 44.518">
  <g id="report_2_" data-name="report (2)" transform="translate(0 -7.801)">
    <path id="Path_48288" data-name="Path 48288" d="M197.123,272.742h-1.955a2,2,0,0,0-1.992,1.993v3.931a2,2,0,0,0,1.992,1.993h1.955a2,2,0,0,0,1.993-1.993v-3.931A2,2,0,0,0,197.123,272.742Zm.647,5.924a.648.648,0,0,1-.647.647h-1.955a.648.648,0,0,1-.647-.647v-3.931a.648.648,0,0,1,.647-.647h1.955a.648.648,0,0,1,.647.647Z" transform="translate(-175.852 -241.181)" fill="#f17b00"/>
    <path id="Path_48289" data-name="Path 48289" d="M273.086,215.339h-1.955a2,2,0,0,0-1.993,1.992v9.079a2,2,0,0,0,1.993,1.993h1.955a2,2,0,0,0,1.992-1.993v-9.079A2,2,0,0,0,273.086,215.339Zm.647,11.072a.648.648,0,0,1-.647.647h-1.955a.648.648,0,0,1-.647-.647v-9.079a.648.648,0,0,1,.647-.647h1.955a.648.648,0,0,1,.647.647Z" transform="translate(-245.001 -188.926)" fill="#f17b00"/>
    <path id="Path_48290" data-name="Path 48290" d="M347.094,257.746h1.955a2,2,0,0,0,1.992-1.993v-6.189a2,2,0,0,0-1.992-1.992h-1.955a2,2,0,0,0-1.993,1.992v6.189A2,2,0,0,0,347.094,257.746Zm-.647-8.181a.648.648,0,0,1,.647-.647h1.955a.648.648,0,0,1,.647.647v6.189a.648.648,0,0,1-.647.647h-1.955a.648.648,0,0,1-.647-.647Z" transform="translate(-314.152 -218.268)" fill="#f17b00"/>
    <path id="Path_48291" data-name="Path 48291" d="M116.751,280.381a.673.673,0,0,0-.921.237L113.3,284.9l-.729-1.192a.673.673,0,1,0-1.148.7l1.312,2.147a.672.672,0,0,0,.574.322h.005a.673.673,0,0,0,.574-.33l3.1-5.249A.673.673,0,0,0,116.751,280.381Z" transform="translate(-101.339 -248.05)" fill="#f17b00"/>
    <path id="Path_48292" data-name="Path 48292" d="M45.917,19.226V12.477a3.748,3.748,0,0,0-3.744-3.744h-.32a.673.673,0,1,0,0,1.345h.32a2.4,2.4,0,0,1,2.4,2.4v6.749a2.4,2.4,0,0,1-2.4,2.4H37.718a.673.673,0,0,0-.476.2l-3.21,3.21a.7.7,0,0,1-1.191-.493V22.3a.673.673,0,0,0-.673-.673H30.926a2.4,2.4,0,0,1-2.4-2.4V12.477a2.4,2.4,0,0,1,2.4-2.4h8.3a.673.673,0,0,0,0-1.345h-8.3a3.748,3.748,0,0,0-3.744,3.744v5.112H23.543A11.862,11.862,0,1,0,3.387,27.954v16.3a4.059,4.059,0,0,0,.673,8.062H35.709a.673.673,0,1,0,0-1.345H4.06a2.714,2.714,0,0,1,0-5.428H15.386a3.66,3.66,0,0,0,3.592,2.982h7.961a3.66,3.66,0,0,0,3.592-2.982H41.86a2.714,2.714,0,0,1,0,5.428H38.387a.673.673,0,0,0,0,1.345h3.471a4.059,4.059,0,0,0,.673-8.062v-21.3a3.75,3.75,0,0,0,3.386-3.728ZM26.939,47.182H18.978a2.314,2.314,0,0,1-2.21-1.637H29.149A2.314,2.314,0,0,1,26.939,47.182ZM4.733,44.2V29.138A11.877,11.877,0,0,0,6.8,30.388V39.8a2.339,2.339,0,0,0,2.336,2.337H36.786A2.339,2.339,0,0,0,39.122,39.8V23.468a2.472,2.472,0,0,0-.052-.5h2.115V44.2ZM30.926,22.971H31.5V24.54a2.011,2.011,0,0,0,1.261,1.887,2.074,2.074,0,0,0,.795.161,2.015,2.015,0,0,0,1.431-.6l2.764-2.765a1.13,1.13,0,0,1,.029.249V39.8a.993.993,0,0,1-.991.992H9.131A.993.993,0,0,1,8.14,39.8V30.927a11.865,11.865,0,0,0,15.28-8.585h5.431a3.721,3.721,0,0,0,2.075.629Zm-3.744-4.037v.292A3.722,3.722,0,0,0,27.627,21H23.65a11.936,11.936,0,0,0,.075-1.333c0-.245-.008-.488-.023-.73Zm-4.823.057H12.536V9.167A10.533,10.533,0,0,1,22.359,18.991ZM11.19,9.168V11.2A8.487,8.487,0,0,0,5.826,25.63a.673.673,0,0,0,.956-.946A7.14,7.14,0,0,1,11.19,12.554v7.11a.673.673,0,0,0,.673.673h7.11a7.151,7.151,0,0,1-7.11,6.469,7.074,7.074,0,0,1-3.082-.7A.673.673,0,1,0,8.2,27.322a8.408,8.408,0,0,0,3.664.829,8.5,8.5,0,0,0,8.461-7.815h2.034A10.517,10.517,0,1,1,11.19,9.168Z" transform="translate(0)" fill="#f17b00"/>
    <path id="Path_48293" data-name="Path 48293" d="M346.829,56.5h-7.334a.673.673,0,0,0,0,1.345h7.334a.673.673,0,0,0,0-1.345Z" transform="translate(-308.436 -44.332)" fill="#f17b00"/>
    <path id="Path_48294" data-name="Path 48294" d="M451.938,57.845h.9a.673.673,0,0,0,0-1.345h-.9a.673.673,0,1,0,0,1.345Z" transform="translate(-410.795 -44.332)" fill="#f17b00"/>
    <path id="Path_48295" data-name="Path 48295" d="M346.829,85.764h-7.334a.673.673,0,0,0,0,1.345h7.334a.673.673,0,0,0,0-1.345Z" transform="translate(-308.436 -70.971)" fill="#f17b00"/>
    <path id="Path_48296" data-name="Path 48296" d="M451.938,87.109h.9a.673.673,0,0,0,0-1.345h-.9a.673.673,0,1,0,0,1.345Z" transform="translate(-410.795 -70.971)" fill="#f17b00"/>
    <path id="Path_48297" data-name="Path 48297" d="M346.829,115.027h-7.334a.673.673,0,0,0,0,1.345h7.334a.673.673,0,0,0,0-1.345Z" transform="translate(-308.436 -97.61)" fill="#f17b00"/>
    <path id="Path_48298" data-name="Path 48298" d="M451.938,116.372h.9a.673.673,0,0,0,0-1.345h-.9a.673.673,0,1,0,0,1.345Z" transform="translate(-410.795 -97.61)" fill="#f17b00"/>
  </g>
</svg>
