<svg xmlns="http://www.w3.org/2000/svg" width="49.151" height="50.675" viewBox="0 0 49.151 50.675">
  <g id="team" transform="translate(-7.7)">
    <g id="Group_18404" data-name="Group 18404" transform="translate(49.66 32.474)">
      <g id="Group_18403" data-name="Group 18403">
        <circle id="Ellipse_1960" data-name="Ellipse 1960" cx="0.99" cy="0.99" r="0.99" fill="#f17b00"/>
      </g>
    </g>
    <g id="Group_18406" data-name="Group 18406" transform="translate(11.982 32.474)">
      <g id="Group_18405" data-name="Group 18405">
        <circle id="Ellipse_1961" data-name="Ellipse 1961" cx="0.99" cy="0.99" r="0.99" fill="#f17b00"/>
      </g>
    </g>
    <g id="Group_18408" data-name="Group 18408" transform="translate(7.7)">
      <g id="Group_18407" data-name="Group 18407">
        <path id="Path_47963" data-name="Path 47963" d="M55.861,48.7h-8.5L47.31,24.37a.99.99,0,0,0-.99-.988h0a.99.99,0,0,0-.988.992L45.382,48.7H42.507l-.025-10.823a.99.99,0,0,0-.99-.988h0a.99.99,0,0,0-.988.992L40.527,48.7h-2.4V35.6a5.431,5.431,0,0,0,5.005-5.346V20.656a10.745,10.745,0,0,0-.943-4.4,8.194,8.194,0,0,1,5.174,2.278,7.673,7.673,0,0,1,2.382,5.54l.018,5.633a.99.99,0,0,0,.99.987h0a.99.99,0,0,0,.987-.993l-.018-5.632a9.637,9.637,0,0,0-2.987-6.959,10.118,10.118,0,0,0-3.82-2.32,5.234,5.234,0,0,0-3.607-9.03H41.3a5.255,5.255,0,0,0-2.415.595A.99.99,0,0,0,39.8,8.107a3.221,3.221,0,0,1,1.5-.369,3.258,3.258,0,0,1,.014,6.516.986.986,0,0,0-.125.009l-.158.007a11.265,11.265,0,0,0-5.725-4.1,5.807,5.807,0,1,0-7.47.152,11.255,11.255,0,0,0-5.275,3.94c-.157-.007-.313-.011-.469-.011l-.222,0-.054,0A3.258,3.258,0,1,1,23.37,8.13a.99.99,0,1,0,.946-1.739,5.236,5.236,0,0,0-5.938,8.55,9.86,9.86,0,0,0-6.4,9.147V29.7a.99.99,0,0,0,1.98,0V24.088A7.978,7.978,0,0,1,21.4,16.263a10.745,10.745,0,0,0-.939,4.392v9.593a5.435,5.435,0,0,0,5.172,5.359V48.7h-2.7V37.875a.99.99,0,1,0-1.98,0V48.7H18.522V24.382a.99.99,0,1,0-1.98,0V48.7H8.69a.99.99,0,1,0,0,1.98H55.861a.99.99,0,1,0,0-1.98ZM27.654,5.807a3.827,3.827,0,1,1,3.827,3.827A3.832,3.832,0,0,1,27.654,5.807ZM37.133,20a.99.99,0,0,0-.99.99V48.7H32.618V34.923a.99.99,0,1,0-1.98,0V48.7H27.612V20.99a.99.99,0,1,0-1.98,0V33.623a3.449,3.449,0,0,1-3.192-3.374V20.656a8.792,8.792,0,0,1,1.441-4.822,9.53,9.53,0,0,1,15.833.011,8.793,8.793,0,0,1,1.434,4.811v9.593A3.441,3.441,0,0,1,38.123,33.6V20.99A.99.99,0,0,0,37.133,20Z" transform="translate(-7.7)" fill="#f17b00"/>
      </g>
    </g>
  </g>
</svg>
