<svg xmlns="http://www.w3.org/2000/svg" width="44.937" height="50.675" viewBox="0 0 44.937 50.675">
  <g id="chat_3_" data-name="chat (3)" transform="translate(-28.987)">
    <g id="Group_18453" data-name="Group 18453" transform="translate(28.987)">
      <g id="Group_18452" data-name="Group 18452" transform="translate(0)">
        <path id="Path_48278" data-name="Path 48278" d="M69.8,0H33.115a4.133,4.133,0,0,0-4.128,4.128V21.209a4.133,4.133,0,0,0,4.128,4.128h1.5l4.058,5.443a2.24,2.24,0,0,0,1.8.918,2.321,2.321,0,0,0,.717-.115,2.242,2.242,0,0,0,1.571-2.129l.057-4.117h4.552a6.025,6.025,0,0,0,1.876,7.016A11.543,11.543,0,0,0,41.47,43.16v5.535H35.541a.99.99,0,0,0,0,1.98H68.278a.99.99,0,0,0,0-1.98h-3.15V43.16A11.562,11.562,0,0,0,56.88,32.2a6.034,6.034,0,1,0-8.2-8.842H41.847a.99.99,0,0,0-.99.976l-.07,5.093a.291.291,0,0,1-.524.17l-4.355-5.841a.99.99,0,0,0-.794-.4h-2a2.15,2.15,0,0,1-2.148-2.148V4.128A2.15,2.15,0,0,1,33.115,1.98H69.8a2.15,2.15,0,0,1,2.148,2.148V21.209A2.15,2.15,0,0,1,69.8,23.356H66.013a.99.99,0,1,0,0,1.98H69.8a4.133,4.133,0,0,0,4.128-4.128V4.128A4.132,4.132,0,0,0,69.8,0ZM63.148,43.16v5.535H59.884V43.51a.99.99,0,1,0-1.98,0v5.185H48.87V43.51a.99.99,0,1,0-1.98,0v5.185H43.451V43.16a9.854,9.854,0,0,1,19.7,0ZM52.971,23.544A4.058,4.058,0,1,1,48.914,27.6,4.062,4.062,0,0,1,52.971,23.544Z" transform="translate(-28.987)" fill="#f17b00"/>
      </g>
    </g>
    <g id="Group_18455" data-name="Group 18455" transform="translate(71.536 48.695)">
      <g id="Group_18454" data-name="Group 18454">
        <circle id="Ellipse_1970" data-name="Ellipse 1970" cx="0.99" cy="0.99" r="0.99" fill="#f17b00"/>
      </g>
    </g>
    <g id="Group_18457" data-name="Group 18457" transform="translate(42.037 11.231)">
      <g id="Group_18456" data-name="Group 18456" transform="translate(0)">
        <circle id="Ellipse_1971" data-name="Ellipse 1971" cx="0.99" cy="0.99" r="0.99" fill="#f17b00"/>
      </g>
    </g>
    <g id="Group_18459" data-name="Group 18459" transform="translate(47.813 11.231)">
      <g id="Group_18458" data-name="Group 18458">
        <circle id="Ellipse_1972" data-name="Ellipse 1972" cx="0.99" cy="0.99" r="0.99" fill="#f17b00"/>
      </g>
    </g>
    <g id="Group_18461" data-name="Group 18461" transform="translate(52.981 11.231)">
      <g id="Group_18460" data-name="Group 18460">
        <circle id="Ellipse_1973" data-name="Ellipse 1973" cx="0.99" cy="0.99" r="0.99" fill="#f17b00"/>
      </g>
    </g>
    <g id="Group_18463" data-name="Group 18463" transform="translate(58.635 11.231)">
      <g id="Group_18462" data-name="Group 18462" transform="translate(0)">
        <circle id="Ellipse_1974" data-name="Ellipse 1974" cx="0.99" cy="0.99" r="0.99" fill="#f17b00"/>
      </g>
    </g>
    <g id="Group_18465" data-name="Group 18465" transform="translate(60.792 23.314)">
      <g id="Group_18464" data-name="Group 18464">
        <circle id="Ellipse_1975" data-name="Ellipse 1975" cx="0.99" cy="0.99" r="0.99" fill="#f17b00"/>
      </g>
    </g>
  </g>
</svg>
