<svg xmlns="http://www.w3.org/2000/svg" width="43.433" height="44.328" viewBox="0 0 43.433 44.328">
  <g id="contract_5_" data-name="contract (5)" transform="translate(-5.165)">
    <g id="Group_18467" data-name="Group 18467" transform="translate(5.165)">
      <g id="Group_18466" data-name="Group 18466" transform="translate(0)">
        <path id="Path_48279" data-name="Path 48279" d="M38.2,0l-.147,0H9.765a4.606,4.606,0,0,0-4.6,4.565c0,.005,0,.01,0,.015v36.5a3.247,3.247,0,0,0,3.243,3.243H31.96A3.247,3.247,0,0,0,35.2,41.084V14.031H40.53a2.146,2.146,0,0,0,2.143-2.143V4.678A4.671,4.671,0,0,0,38.2,0ZM33.472,4.565c0,.005,0,.01,0,.015v36.5A1.514,1.514,0,0,1,31.96,42.6H8.408A1.514,1.514,0,0,1,6.9,41.084V4.6A2.872,2.872,0,0,1,9.765,1.732H34.475A4.558,4.558,0,0,0,33.472,4.565Zm7.469,7.323a.412.412,0,0,1-.411.411H35.2V4.6a2.869,2.869,0,0,1,2.862-2.869h.089a2.928,2.928,0,0,1,2.788,2.946v7.21Z" transform="translate(-5.165)" fill="#f17b00"/>
      </g>
    </g>
    <g id="Group_18469" data-name="Group 18469" transform="translate(9.795 5.072)">
      <g id="Group_18468" data-name="Group 18468">
        <path id="Path_48280" data-name="Path 48280" d="M65.487,58.586a6.845,6.845,0,1,0,6.845,6.845A6.853,6.853,0,0,0,65.487,58.586Zm0,11.959A5.114,5.114,0,1,1,70.6,65.431,5.12,5.12,0,0,1,65.487,70.545Z" transform="translate(-58.642 -58.586)" fill="#f17b00"/>
      </g>
    </g>
    <g id="Group_18471" data-name="Group 18471" transform="translate(13.705 8.983)">
      <g id="Group_18470" data-name="Group 18470">
        <path id="Path_48281" data-name="Path 48281" d="M106.743,107.89a1.2,1.2,0,0,1,0-2.407.866.866,0,0,0,0-1.732,2.935,2.935,0,1,0,0,5.87.866.866,0,0,0,0-1.732Z" transform="translate(-103.808 -103.752)" fill="#f17b00"/>
      </g>
    </g>
    <g id="Group_18473" data-name="Group 18473" transform="translate(9.795 22.131)">
      <g id="Group_18472" data-name="Group 18472">
        <path id="Path_48282" data-name="Path 48282" d="M77.852,255.618H59.508a.866.866,0,1,0,0,1.732H77.852a.866.866,0,1,0,0-1.732Z" transform="translate(-58.642 -255.618)" fill="#f17b00"/>
      </g>
    </g>
    <g id="Group_18475" data-name="Group 18475" transform="translate(9.795 25.802)">
      <g id="Group_18474" data-name="Group 18474">
        <path id="Path_48283" data-name="Path 48283" d="M77.852,298.02H59.508a.866.866,0,1,0,0,1.732H77.852a.866.866,0,1,0,0-1.732Z" transform="translate(-58.642 -298.02)" fill="#f17b00"/>
      </g>
    </g>
    <g id="Group_18477" data-name="Group 18477" transform="translate(9.795 29.678)">
      <g id="Group_18476" data-name="Group 18476">
        <path id="Path_48284" data-name="Path 48284" d="M69.031,342.788H59.508a.866.866,0,1,0,0,1.732h9.524a.866.866,0,1,0,0-1.732Z" transform="translate(-58.642 -342.788)" fill="#f17b00"/>
      </g>
    </g>
    <g id="Group_18479" data-name="Group 18479" transform="translate(37.504 17.34)">
      <g id="Group_18478" data-name="Group 18478" transform="translate(0)">
        <path id="Path_48285" data-name="Path 48285" d="M387.361,214.633v-2.6l1.462-2.861a.866.866,0,0,0,0-.781l-3.81-7.628a.866.866,0,0,0-.775-.479h0a.866.866,0,0,0-.774.482l-3.81,7.694a.866.866,0,0,0,.008.785l1.46,2.794v2.6a3.1,3.1,0,0,0-2.429,3.021c0,.029,0,.057,0,.086l.871,8.75a.866.866,0,0,0,.862.78h7.619a.866.866,0,0,0,.861-.78l.872-8.75q0-.043,0-.086A3.1,3.1,0,0,0,387.361,214.633Zm-3.984-9.786v3.617a.866.866,0,1,0,1.732,0v-3.645l1.974,3.952-1.117,2.186h-3.45l-1.111-2.126Zm2.253,7.841v1.871h-2.773v-1.871Zm1.639,12.849h-6.052l-.789-7.922a1.364,1.364,0,0,1,1.362-1.325H386.7a1.364,1.364,0,0,1,1.362,1.325Z" transform="translate(-378.696 -200.282)" fill="#f17b00"/>
      </g>
    </g>
    <g id="Group_18481" data-name="Group 18481" transform="translate(9.989 37.03)">
      <g id="Group_18480" data-name="Group 18480">
        <path id="Path_48286" data-name="Path 48286" d="M71.239,428.979a.866.866,0,0,0-1.175-.343.518.518,0,0,1-.588-.064,2.248,2.248,0,0,0-2.249-.422l-1.464.532a.289.289,0,0,1-.282-.1l-.192-.207a2.01,2.01,0,0,0-2.084-.569l-1.71.532a.866.866,0,0,0,.514,1.653l1.71-.532a.286.286,0,0,1,.3.093l.192.207a2.013,2.013,0,0,0,2.067.575l.046-.015,1.494-.543a.516.516,0,0,1,.516.1,2.254,2.254,0,0,0,2.562.28A.866.866,0,0,0,71.239,428.979Z" transform="translate(-60.886 -427.715)" fill="#f17b00"/>
      </g>
    </g>
    <g id="Group_18483" data-name="Group 18483" transform="translate(21.185 37.71)">
      <g id="Group_18482" data-name="Group 18482" transform="translate(0)">
        <circle id="Ellipse_1976" data-name="Ellipse 1976" cx="0.866" cy="0.866" r="0.866" fill="#f17b00"/>
      </g>
    </g>
  </g>
</svg>
