<svg xmlns="http://www.w3.org/2000/svg" width="17" height="18.869" viewBox="0 0 17 18.869">
  <g id="Group_16029" data-name="Group 16029" transform="translate(-343 -49)">
    <g id="icon-bell" transform="translate(342.928 49)">
      <g id="Group_5187" data-name="Group 5187" transform="translate(0.072)">
        <path id="Path_35162" data-name="Path 35162" d="M1.363,15.688a1.068,1.068,0,1,1,0-2.133c1.2,0,1.272-4.128,1.272-5.573A5.654,5.654,0,0,1,7.158,2.064a1.469,1.469,0,1,1,2.686,0,5.654,5.654,0,0,1,4.523,5.918c0,1.445.071,5.573,1.272,5.573a1.068,1.068,0,1,1,0,2.133Z" transform="translate(-0.25)" fill="#f17b00"/>
        <path id="Path_35163" data-name="Path 35163" d="M99.35,235a1.718,1.718,0,1,1-2.936,0Z" transform="translate(-89.631 -218.741)" fill="#f17b00"/>
      </g>
    </g>
    <circle id="Ellipse_1301" data-name="Ellipse 1301" cx="3.5" cy="3.5" r="3.5" transform="translate(353 50)" fill="red"/>
  </g>
</svg>
