<svg xmlns="http://www.w3.org/2000/svg" width="16.018" height="20.102" viewBox="0 0 16.018 20.102">
  <path id="padlock" d="M13.663,7.381H12.328V3.846A3.891,3.891,0,0,0,8.4,0H7.577A3.891,3.891,0,0,0,3.651,3.846V7.381h-1.3A2.358,2.358,0,0,0,0,9.737v2.356a8.012,8.012,0,0,0,11.71,7.1.785.785,0,1,0-.727-1.392,6.365,6.365,0,0,1-2.974.726A6.446,6.446,0,0,1,1.57,12.092V9.737a.786.786,0,0,1,.785-.785H13.663a.786.786,0,0,1,.785.785v2.356a6.433,6.433,0,0,1-.881,3.254.785.785,0,1,0,1.354.795,8,8,0,0,0,1.1-4.049V9.737A2.358,2.358,0,0,0,13.663,7.381ZM5.222,3.846A2.319,2.319,0,0,1,7.577,1.57H8.4a2.319,2.319,0,0,1,2.356,2.276V7.381H5.222Zm2,11.465V13.588a1.453,1.453,0,1,1,1.57,0v1.722a.785.785,0,0,1-1.57,0Zm0,0" fill="#707070"/>
</svg>
