<svg xmlns="http://www.w3.org/2000/svg" width="15.586" height="19.042" viewBox="0 0 15.586 19.042">
  <g id="file_1_" data-name="file (1)" transform="translate(-86.9)">
    <path id="Path_52552" data-name="Path 52552" d="M210.033,108.4h-.557v13.679a1.651,1.651,0,0,1-1.648,1.648H197.7v.507a1.052,1.052,0,0,0,1.052,1.052h11.279a1.052,1.052,0,0,0,1.052-1.052V109.452A1.051,1.051,0,0,0,210.033,108.4Z" transform="translate(-108.597 -106.244)" fill="#707070"/>
    <path id="Path_52553" data-name="Path 52553" d="M93.589,16.886h5.639a1.052,1.052,0,0,0,1.052-1.052V1.052A1.052,1.052,0,0,0,99.229,0H91.714V.348a1.022,1.022,0,0,1,.006.111V3.341a1.483,1.483,0,0,1-1.481,1.481H87.357c-.03,0-.062,0-.091,0H86.9V15.835a1.052,1.052,0,0,0,1.052,1.052h5.637Zm.213-3.575H90.125a.5.5,0,0,1,0-.994H93.8a.5.5,0,1,1,0,.994Zm3.679-2.537H90.125a.5.5,0,0,1,0-.994h7.356a.5.5,0,1,1,0,.994ZM90.125,7.085h7.356a.5.5,0,1,1,0,.994H90.125a.5.5,0,0,1,0-.994Z" transform="translate(0)" fill="#707070"/>
    <path id="Path_52554" data-name="Path 52554" d="M87.99,5.01H90.88a.883.883,0,0,0,.875-.875V1.243A.443.443,0,0,0,91.309.8.431.431,0,0,0,91,.931L87.676,4.254A.443.443,0,0,0,87.99,5.01Z" transform="translate(-0.633 -0.784)" fill="#707070"/>
  </g>
</svg>
