<svg xmlns="http://www.w3.org/2000/svg" width="59" height="59" viewBox="0 0 59 59">
  <g id="Group_25086" data-name="Group 25086" transform="translate(-52 -544)">
    <circle id="Ellipse_1725" data-name="Ellipse 1725" cx="29.5" cy="29.5" r="29.5" transform="translate(52 544)" fill="#ffe4ce"/>
    <g id="photo-camera-interface-symbol-for-button" transform="translate(66 561)">
      <path id="Path_43252" data-name="Path 43252" d="M19.859,17.461a4.843,4.843,0,1,1-4.843-4.792A4.823,4.823,0,0,1,19.859,17.461Zm10.172-6.8v13.61a3.3,3.3,0,0,1-3.321,3.285H3.321A3.3,3.3,0,0,1,0,24.266V10.657A3.3,3.3,0,0,1,3.321,7.371H7.405V6.235A2.89,2.89,0,0,1,10.311,3.36H19.72a2.89,2.89,0,0,1,2.906,2.875V7.371H26.71A3.3,3.3,0,0,1,30.031,10.657Zm-7.682,6.8a7.334,7.334,0,1,0-7.334,7.256A7.3,7.3,0,0,0,22.35,17.461Z" transform="translate(0 -3.36)" fill="#f17b00"/>
    </g>
  </g>
</svg>
