<svg xmlns="http://www.w3.org/2000/svg" width="13.897" height="17.104" viewBox="0 0 13.897 17.104">
  <g id="trash_2_" data-name="trash (2)" transform="translate(-48)">
    <path id="Path_52106" data-name="Path 52106" d="M60.561,2.138h-2.94V1.6a1.605,1.605,0,0,0-1.6-1.6H53.88a1.605,1.605,0,0,0-1.6,1.6v.535h-2.94A1.338,1.338,0,0,0,48,3.474V5.345a.535.535,0,0,0,.535.535h.292l.462,9.7a1.6,1.6,0,0,0,1.6,1.527h8.117a1.6,1.6,0,0,0,1.6-1.527l.462-9.7h.292a.535.535,0,0,0,.535-.535V3.474A1.338,1.338,0,0,0,60.561,2.138ZM53.345,1.6a.535.535,0,0,1,.535-.535h2.138a.535.535,0,0,1,.535.535v.535H53.345ZM49.069,3.474a.268.268,0,0,1,.267-.267H60.561a.268.268,0,0,1,.267.267V4.811H49.069ZM59.541,15.526a.534.534,0,0,1-.534.509H50.89a.534.534,0,0,1-.534-.509L49.9,5.88H60Z" transform="translate(0)" fill="#fff"/>
    <path id="Path_52107" data-name="Path 52107" d="M240.535,216.018a.535.535,0,0,0,.535-.535v-6.949a.535.535,0,0,0-1.069,0v6.949A.535.535,0,0,0,240.535,216.018Z" transform="translate(-185.586 -201.051)" fill="#fff"/>
    <path id="Path_52108" data-name="Path 52108" d="M320.535,216.018a.535.535,0,0,0,.535-.535v-6.949a.535.535,0,0,0-1.069,0v6.949A.535.535,0,0,0,320.535,216.018Z" transform="translate(-262.914 -201.051)" fill="#fff"/>
    <path id="Path_52109" data-name="Path 52109" d="M160.535,216.018a.535.535,0,0,0,.534-.535v-6.949a.535.535,0,1,0-1.069,0v6.949A.535.535,0,0,0,160.535,216.018Z" transform="translate(-108.258 -201.051)" fill="#fff"/>
  </g>
</svg>
