<svg xmlns="http://www.w3.org/2000/svg" width="28.481" height="28.48" viewBox="0 0 28.481 28.48">
  <g id="service" transform="translate(0 0)">
    <g id="Group_18548" data-name="Group 18548" transform="translate(0.417 0.417)">
      <g id="Group_18547" data-name="Group 18547">
        <path id="Path_49582" data-name="Path 49582" d="M55.824,59.757l3.93-3.937-1.036-1.036a1.273,1.273,0,0,0-1.8,0l-2.133,2.134a1.273,1.273,0,0,0,0,1.8Z" transform="translate(-51.803 -51.803)" fill="#ffe4ce"/>
        <path id="Path_49583" data-name="Path 49583" d="M366.539,58.718a1.273,1.273,0,0,0,0-1.8l-2.134-2.134a1.273,1.273,0,0,0-1.8,0l-1.036,1.036,3.93,3.937Z" transform="translate(-341.875 -51.803)" fill="#ffe4ce"/>
        <path id="Path_49584" data-name="Path 49584" d="M210.29,7.5h-3.017A1.273,1.273,0,0,0,206,8.773v1.462h5.563V8.773A1.273,1.273,0,0,0,210.29,7.5Z" transform="translate(-194.958 -7.5)" fill="#ffe4ce"/>
        <path id="Path_49585" data-name="Path 49585" d="M10.245,206H8.773A1.273,1.273,0,0,0,7.5,207.273v3.017a1.273,1.273,0,0,0,1.273,1.273h1.479Z" transform="translate(-7.5 -194.958)" fill="#ffe4ce"/>
        <path id="Path_49586" data-name="Path 49586" d="M54.785,362.379a1.273,1.273,0,0,0,0,1.8l2.133,2.134a1.273,1.273,0,0,0,1.8,0l1.052-1.052-3.937-3.93Z" transform="translate(-51.803 -341.648)" fill="#ffe4ce"/>
        <path id="Path_49587" data-name="Path 49587" d="M456.528,206h-1.472l-.006,5.563h1.478a1.272,1.272,0,0,0,1.273-1.273v-3.017A1.273,1.273,0,0,0,456.528,206Z" transform="translate(-430.155 -194.958)" fill="#ffe4ce"/>
        <path id="Path_49588" data-name="Path 49588" d="M365.207,361.33l-3.937,3.93,1.052,1.052a1.273,1.273,0,0,0,1.8,0l2.134-2.134a1.273,1.273,0,0,0,0-1.8Z" transform="translate(-341.591 -341.648)" fill="#ffe4ce"/>
        <path id="Path_49589" data-name="Path 49589" d="M206,456.349a1.273,1.273,0,0,0,1.273,1.273h3.017a1.272,1.272,0,0,0,1.273-1.273v-1.488H206Z" transform="translate(-194.958 -429.975)" fill="#ffe4ce"/>
      </g>
      <path id="Path_49590" data-name="Path 49590" d="M73.6,61.956A11.416,11.416,0,0,1,62.186,73.372c-.309,0-.615-.012-.918-.037a11.416,11.416,0,0,1,0-22.759c.3-.024.609-.037.918-.037A11.416,11.416,0,0,1,73.6,61.956Z" transform="translate(-48.363 -48.146)" fill="#fff"/>
      <path id="Path_49591" data-name="Path 49591" d="M251.834,61.956a11.416,11.416,0,0,1-11.417,11.416c-.309,0-.615-.012-.918-.037a11.416,11.416,0,0,0,0-22.759c.3-.024.609-.037.918-.037A11.416,11.416,0,0,1,251.834,61.956Z" transform="translate(-226.595 -48.146)" fill="#fff"/>
      <path id="Path_49592" data-name="Path 49592" d="M130.864,122.8a7.832,7.832,0,1,1-7.832-7.832A7.836,7.836,0,0,1,130.864,122.8Z" transform="translate(-109.209 -108.992)" fill="#fff"/>
      <path id="Path_49593" data-name="Path 49593" d="M176.618,182.758a4.97,4.97,0,0,1-2.994,4.561v3.756a7.895,7.895,0,0,1-3.949,0v-3.76a4.965,4.965,0,0,1-1.916-7.647,1.157,1.157,0,0,1,2.053.733v.874a1.837,1.837,0,1,0,3.674,0V180.4a1.157,1.157,0,0,1,2.053-.733A4.947,4.947,0,0,1,176.618,182.758Z" transform="translate(-157.826 -169.683)" fill="#ffe4ce"/>
    </g>
    <g id="Group_18549" data-name="Group 18549" transform="translate(0 0)">
      <path id="Path_49594" data-name="Path 49594" d="M26.79,11.042H25.638a11.766,11.766,0,0,0-1.077-2.6l.815-.815a1.692,1.692,0,0,0,0-2.39L23.243,3.1a1.7,1.7,0,0,0-2.39,0l-.812.812a11.763,11.763,0,0,0-2.6-1.083V1.69A1.692,1.692,0,0,0,15.749,0H12.732a1.692,1.692,0,0,0-1.69,1.69V2.833a11.763,11.763,0,0,0-2.6,1.083L7.628,3.1a1.692,1.692,0,0,0-2.39,0L3.1,5.238a1.692,1.692,0,0,0,0,2.39l.815.815a11.76,11.76,0,0,0-1.077,2.6H1.69A1.692,1.692,0,0,0,0,12.732v3.017a1.692,1.692,0,0,0,1.69,1.69H2.85a11.763,11.763,0,0,0,1.079,2.59l-.824.825a1.69,1.69,0,0,0,0,2.39l2.133,2.134a1.692,1.692,0,0,0,2.39,0l.828-.828a11.763,11.763,0,0,0,2.586,1.073v1.169a1.692,1.692,0,0,0,1.69,1.69h3.017a1.692,1.692,0,0,0,1.69-1.69V25.622a11.764,11.764,0,0,0,2.586-1.074l.828.828a1.69,1.69,0,0,0,2.39,0,.417.417,0,0,0-.59-.59.856.856,0,0,1-1.209,0l-.686-.686A11.93,11.93,0,0,0,24.1,20.76l.683.683a.856.856,0,0,1,0,1.21l-.981.981a.417.417,0,1,0,.59.59l.981-.981a1.692,1.692,0,0,0,0-2.39l-.825-.825a11.764,11.764,0,0,0,1.079-2.59h1.159a1.692,1.692,0,0,0,1.69-1.69V12.732a1.692,1.692,0,0,0-1.69-1.691ZM21.443,3.694a.86.86,0,0,1,1.21,0l2.134,2.134a.856.856,0,0,1,0,1.21l-.673.673a11.93,11.93,0,0,0-3.341-3.346Zm-9.567-2a.857.857,0,0,1,.856-.856h3.017a.857.857,0,0,1,.856.856v.941a11.942,11.942,0,0,0-4.728,0ZM3.694,7.038a.856.856,0,0,1,0-1.21L5.827,3.694a.857.857,0,0,1,1.21,0l.67.67A11.93,11.93,0,0,0,4.367,7.711Zm-2,9.567a.856.856,0,0,1-.856-.856V12.732a.857.857,0,0,1,.856-.856h.952A11.942,11.942,0,0,0,2.647,16.6Zm5.348,8.182a.857.857,0,0,1-1.21,0L3.694,22.653a.86.86,0,0,1,0-1.21l.683-.683A11.93,11.93,0,0,0,7.724,24.1Zm9.567,2a.856.856,0,0,1-.856.856H12.732a.856.856,0,0,1-.856-.856v-.967a11.943,11.943,0,0,0,4.728,0ZM14.24,25.227a11.012,11.012,0,0,1-11-11c.553-14.572,21.448-14.568,22,0a11.012,11.012,0,0,1-11,11Zm13.406-9.478a.856.856,0,0,1-.856.856h-.956a11.944,11.944,0,0,0,.005-4.728h.951a.857.857,0,0,1,.856.856v3.017Z" transform="translate(0 0)" fill="#f17b00"/>
      <path id="Path_49595" data-name="Path 49595" d="M116.291,107.47a8.208,8.208,0,0,0-3.062.587.417.417,0,0,0,.31.775,7.416,7.416,0,1,1,5.144,13.907v-2.928a5.433,5.433,0,0,0,2.618-2.846.417.417,0,1,0-.776-.307,4.589,4.589,0,0,1-2.426,2.5.417.417,0,0,0-.251.383v3.425a7.481,7.481,0,0,1-3.114,0V119.54a.417.417,0,0,0-.25-.382,4.572,4.572,0,0,1-1.756-7.006.738.738,0,0,1,1.309.473v.874a2.254,2.254,0,0,0,4.509,0v-.874a.73.73,0,0,1,.5-.7.709.709,0,0,1,.807.23,4.5,4.5,0,0,1,.988,2.831.417.417,0,1,0,.834,0,5.329,5.329,0,0,0-1.169-3.351,1.577,1.577,0,0,0-2.8.993v.874a1.42,1.42,0,0,1-2.84,0v-.874a1.563,1.563,0,0,0-1.062-1.491,1.541,1.541,0,0,0-1.735.5,5.411,5.411,0,0,0,1.825,8.172v2.933a7.44,7.44,0,0,1-1.82-13.123.417.417,0,0,0-.475-.686,8.267,8.267,0,0,0,4.686,15.039c10.928-.414,10.927-16.085,0-16.5Z" transform="translate(-102.05 -101.492)" fill="#f17b00"/>
    </g>
  </g>
</svg>
