<svg xmlns="http://www.w3.org/2000/svg" xmlns:xlink="http://www.w3.org/1999/xlink" width="149.715" height="160.321" viewBox="0 0 149.715 160.321">
  <defs>
    <linearGradient id="linear-gradient" x1="0.5" x2="0.5" y2="1" gradientUnits="objectBoundingBox">
      <stop offset="0" stop-color="#003579"/>
      <stop offset="1" stop-color="#009edd"/>
    </linearGradient>
  </defs>
  <g id="Group_26780" data-name="Group 26780" transform="translate(-65.277 -117.75)">
    <ellipse id="Ellipse_2312" data-name="Ellipse 2312" cx="74.857" cy="8.806" rx="74.857" ry="8.806" transform="translate(65.277 260.459)" fill="#e3eeff" opacity="0.56"/>
    <path id="Path_56717" data-name="Path 56717" d="M175.8,204.2h18.338a4.434,4.434,0,0,0,4.45-4.3c0-.055,0-.11,0-.166a6.858,6.858,0,0,0-8.528-6.652,5.851,5.851,0,0,0-11.489.341,5.852,5.852,0,0,0-7.4,5.717,5.814,5.814,0,0,0,.8,2.887A4.428,4.428,0,0,0,175.8,204.2Z" fill="#0055a4"/>
    <g id="Group_26787" data-name="Group 26787">
      <path id="Path_56718" data-name="Path 56718" d="M169.2,138.7l-65.68-.137a9.312,9.312,0,0,0-9.3,9.265l-.219,112a9.312,9.312,0,0,0,9.265,9.3l65.68.137a9.312,9.312,0,0,0,9.3-9.265l.218-112A9.312,9.312,0,0,0,169.2,138.7Z" fill="#333"/>
      <path id="Path_56719" data-name="Path 56719" d="M168.6,146.371l-7.205-.015a1.809,1.809,0,0,0-1.513.81l-1.7,2.564a9.487,9.487,0,0,1-7.927,4.244l-27.869-.058a9.491,9.491,0,0,1-7.91-4.277l-1.69-2.571a1.809,1.809,0,0,0-1.51-.817l-7.205-.015a1.811,1.811,0,0,0-1.815,1.808l-.217,111.6a1.811,1.811,0,0,0,1.807,1.815l64.53.134a1.811,1.811,0,0,0,1.815-1.807l.218-111.6A1.811,1.811,0,0,0,168.6,146.371Z" fill="#e3eeff"/>
    </g>
    <g id="Group_26792" data-name="Group 26792">
      <rect id="Rectangle_18053" data-name="Rectangle 18053" width="53.304" height="32.359" rx="2.489" transform="translate(147.201 154.781) rotate(0.119)" fill="url(#linear-gradient)"/>
      <g id="Group_26791" data-name="Group 26791">
        <path id="Path_56723" data-name="Path 56723" d="M186.276,162.559H161.362a1.694,1.694,0,0,0-1.689,1.689h0a1.694,1.694,0,0,0,1.689,1.689h24.914a1.7,1.7,0,0,0,1.69-1.689h0A1.7,1.7,0,0,0,186.276,162.559Z" fill="#fff"/>
        <path id="Path_56724" data-name="Path 56724" d="M180.365,170.371H167.274a1.694,1.694,0,0,0-1.689,1.689h0a1.694,1.694,0,0,0,1.689,1.689h13.091a1.694,1.694,0,0,0,1.689-1.689h0A1.694,1.694,0,0,0,180.365,170.371Z" fill="#fff"/>
        <path id="Path_56725" data-name="Path 56725" d="M184.447,178.075H163.192a1.694,1.694,0,0,0-1.689,1.689h0a1.694,1.694,0,0,0,1.689,1.689h21.255a1.694,1.694,0,0,0,1.689-1.689h0A1.694,1.694,0,0,0,184.447,178.075Z" fill="#fff"/>
      </g>
    </g>
    <path id="Path_56726" data-name="Path 56726" d="M78.122,173.445h23.6a5.706,5.706,0,0,0,5.726-5.527c0-.071,0-.143,0-.214a8.823,8.823,0,0,0-10.974-8.559,7.529,7.529,0,0,0-14.783.438A7.53,7.53,0,0,0,73.2,170.654,5.7,5.7,0,0,0,78.122,173.445Z" fill="#009edd"/>
    <path id="Path_56727" data-name="Path 56727" d="M142.8,133.445h18.338a4.434,4.434,0,0,0,4.45-4.3c0-.055,0-.11,0-.166a6.858,6.858,0,0,0-8.528-6.652,5.851,5.851,0,0,0-11.489.341,5.852,5.852,0,0,0-7.4,5.717,5.814,5.814,0,0,0,.8,2.887A4.428,4.428,0,0,0,142.8,133.445Z" fill="#e3eeff"/>
    <g id="Group_26796" data-name="Group 26796">
      <rect id="Rectangle_18054" data-name="Rectangle 18054" width="64.212" height="38.981" rx="2.998" transform="translate(68.128 183.497) rotate(0.119)" fill="#ffa800"/>
      <g id="Group_26793" data-name="Group 26793">
        <path id="Path_56728" data-name="Path 56728" d="M126.06,196.362H99.649a1.125,1.125,0,0,0-1.122,1.122h0a1.126,1.126,0,0,0,1.122,1.123H126.06a1.126,1.126,0,0,0,1.123-1.123h0A1.126,1.126,0,0,0,126.06,196.362Z" fill="#fff"/>
        <path id="Path_56729" data-name="Path 56729" d="M120.112,201.9H99.649a1.125,1.125,0,0,0-1.122,1.122h0a1.126,1.126,0,0,0,1.122,1.123h20.463a1.127,1.127,0,0,0,1.123-1.123h0A1.126,1.126,0,0,0,120.112,201.9Z" fill="#fff"/>
        <rect id="Rectangle_18055" data-name="Rectangle 18055" width="19.902" height="2.244" rx="1.122" transform="translate(98.527 207.174)" fill="#fff"/>
      </g>
      <g id="Group_26795" data-name="Group 26795">
        <g id="Group_26794" data-name="Group 26794">
          <path id="Path_56730" data-name="Path 56730" d="M87.572,197.3a4.236,4.236,0,1,1-4.233-4.378A4.307,4.307,0,0,1,87.572,197.3Z" fill="#fff"/>
        </g>
        <path id="Path_56731" data-name="Path 56731" d="M88.729,204.831,86.177,204a9.164,9.164,0,0,0-5.659,0l-2.57.833a3.836,3.836,0,0,0-2.654,3.65v4.128H91.383v-4.128A3.836,3.836,0,0,0,88.729,204.831Z" fill="#fff"/>
      </g>
    </g>
  </g>
</svg>
