<svg xmlns="http://www.w3.org/2000/svg" width="19.682" height="19.682" viewBox="0 0 19.682 19.682">
  <g id="settings_6_" data-name="settings (6)" transform="translate(0 0)">
    <path id="Path_46836" data-name="Path 46836" d="M10.459,19.682H9.223A1.814,1.814,0,0,1,7.412,17.87v-.418a7.946,7.946,0,0,1-1.234-.512l-.3.3a1.812,1.812,0,0,1-2.563,0l-.873-.873a1.812,1.812,0,0,1,0-2.563l.3-.3a7.946,7.946,0,0,1-.512-1.234H1.812A1.814,1.814,0,0,1,0,10.459V9.223A1.814,1.814,0,0,1,1.812,7.412H2.23a7.948,7.948,0,0,1,.512-1.234l-.3-.3a1.812,1.812,0,0,1,0-2.563l.873-.873a1.812,1.812,0,0,1,2.563,0l.3.3A7.953,7.953,0,0,1,7.412,2.23V1.812A1.814,1.814,0,0,1,9.223,0h1.235a1.814,1.814,0,0,1,1.812,1.812V2.23a7.946,7.946,0,0,1,1.234.512l.3-.3a1.812,1.812,0,0,1,2.563,0l.873.873a1.812,1.812,0,0,1,0,2.563l-.3.3a7.946,7.946,0,0,1,.512,1.234h.418a1.814,1.814,0,0,1,1.812,1.812v1.235a1.814,1.814,0,0,1-1.812,1.812h-.418A7.948,7.948,0,0,1,16.94,13.5l.3.3a1.812,1.812,0,0,1,0,2.563l-.873.873a1.812,1.812,0,0,1-2.563,0l-.3-.3a7.954,7.954,0,0,1-1.234.512v.418A1.814,1.814,0,0,1,10.459,19.682ZM6.37,15.729a6.8,6.8,0,0,0,1.762.731.577.577,0,0,1,.433.558v.851a.659.659,0,0,0,.659.659h1.235a.659.659,0,0,0,.659-.659v-.851a.577.577,0,0,1,.433-.558,6.8,6.8,0,0,0,1.762-.731.577.577,0,0,1,.7.089l.6.6a.658.658,0,0,0,.931,0l.874-.874a.659.659,0,0,0,0-.931l-.6-.6a.577.577,0,0,1-.089-.7,6.8,6.8,0,0,0,.731-1.762.577.577,0,0,1,.558-.433h.851a.659.659,0,0,0,.659-.659V9.223a.659.659,0,0,0-.659-.659h-.851a.577.577,0,0,1-.558-.433,6.8,6.8,0,0,0-.731-1.762.577.577,0,0,1,.089-.7l.6-.6a.658.658,0,0,0,0-.931l-.874-.874a.658.658,0,0,0-.931,0l-.6.6a.577.577,0,0,1-.7.089,6.8,6.8,0,0,0-1.762-.731.577.577,0,0,1-.433-.558V1.812a.659.659,0,0,0-.659-.659H9.224a.659.659,0,0,0-.659.659v.851a.577.577,0,0,1-.433.558,6.8,6.8,0,0,0-1.762.731.577.577,0,0,1-.7-.089l-.6-.6a.658.658,0,0,0-.931,0l-.874.874a.659.659,0,0,0,0,.931l.6.6a.577.577,0,0,1,.089.7,6.8,6.8,0,0,0-.731,1.762.577.577,0,0,1-.558.433H1.812a.659.659,0,0,0-.659.659v1.235a.659.659,0,0,0,.659.659h.851a.577.577,0,0,1,.558.433,6.8,6.8,0,0,0,.731,1.762.577.577,0,0,1-.089.7l-.6.6a.658.658,0,0,0,0,.931l.874.874a.658.658,0,0,0,.931,0l.6-.6a.579.579,0,0,1,.7-.089Z" fill="#333"/>
    <path id="Path_46837" data-name="Path 46837" d="M148.882,153.165a4.282,4.282,0,1,1,4.282-4.282A4.287,4.287,0,0,1,148.882,153.165Zm0-7.412a3.129,3.129,0,1,0,3.129,3.129A3.133,3.133,0,0,0,148.882,145.753Z" transform="translate(-139.041 -139.041)" fill="#333"/>
  </g>
</svg>
