<svg xmlns="http://www.w3.org/2000/svg" width="14.468" height="14.468" viewBox="0 0 14.468 14.468">
  <g id="share_2_" data-name="share (2)" transform="translate(-0.004 0)">
    <path id="Path_45183" data-name="Path 45183" d="M138.729,4.208,134.81.138a.452.452,0,0,0-.778.314V2.412h-.151A5.885,5.885,0,0,0,128,8.289v.9a.446.446,0,0,0,.352.432.4.4,0,0,0,.1.012.468.468,0,0,0,.413-.257,4.945,4.945,0,0,1,4.448-2.749h.716V8.591a.452.452,0,0,0,.778.313l3.919-4.069A.452.452,0,0,0,138.729,4.208Zm0,0" transform="translate(-124.383 0)" fill="#707070"/>
    <path id="Path_45184" data-name="Path 45184" d="M12.664,97.4H1.812A1.811,1.811,0,0,1,0,95.588v-8.44A1.811,1.811,0,0,1,1.812,85.34H3.621a.6.6,0,1,1,0,1.206H1.812a.6.6,0,0,0-.6.6v8.44a.6.6,0,0,0,.6.6H12.664a.6.6,0,0,0,.6-.6V90.765a.6.6,0,1,1,1.206,0v4.823A1.811,1.811,0,0,1,12.664,97.4Zm0,0" transform="translate(0 -82.928)" fill="#707070"/>
  </g>
</svg>
