<svg xmlns="http://www.w3.org/2000/svg" width="99.39" height="96.649" viewBox="0 0 99.39 96.649">
  <g id="Group_13357" data-name="Group 13357" transform="translate(-99.299 -146.925)">
    <g id="information" transform="translate(112.653 156.889)">
      <path id="Path_43026" data-name="Path 43026" d="M56.785,7.781C41.773,8.061,31.316.476,24.082.613S1.731,5.191,2.354,38.473,23.507,76.255,31.466,76.108c37.259-.7,51.908-68.823,25.319-68.326Z" transform="translate(51.392 -12.292) rotate(60)" fill="#fff5eb"/>
      <path id="Path_43027" data-name="Path 43027" d="M28.006,12.987A3.256,3.256,0,1,1,31.263,9.73,3.26,3.26,0,0,1,28.006,12.987Zm0-4.342A1.085,1.085,0,1,0,29.092,9.73,1.086,1.086,0,0,0,28.006,8.645Z" transform="translate(26.245 14.865)" fill="#f17b00"/>
    </g>
    <path id="Path_43043" data-name="Path 43043" d="M118.118,214.5h7.126s-1.9-10.324,7.5-14.216-4.252,0-4.252,0l-6.459,3.127Z" transform="translate(8.255)" fill="#ffd2ad"/>
    <g id="user-profile" transform="translate(121.673 171.804)">
      <path id="Subtraction_1" data-name="Subtraction 1" d="M-1855.161-1001.3h-4.326a17.793,17.793,0,0,1,17.977-17.561,18.273,18.273,0,0,1,5.871.962,18.066,18.066,0,0,1,5.063,2.668,10.912,10.912,0,0,0-2.035,3.9,13.9,13.9,0,0,0-8.9-3.206,13.463,13.463,0,0,0-13.649,13.234Z" transform="translate(1861.047 1044)" fill="#f17b00"/>
      <path id="Path_43041" data-name="Path 43041" d="M16.249,23.73A11.865,11.865,0,1,1,28.116,11.865,11.88,11.88,0,0,1,16.249,23.73Zm0-19.4a7.539,7.539,0,1,0,7.541,7.539A7.546,7.546,0,0,0,16.249,4.326Z" transform="translate(3.288)" fill="#f17b00"/>
    </g>
    <g id="checked" transform="translate(152.186 196.25)">
      <g id="Group_12887" data-name="Group 12887" transform="translate(5.741 3.038)">
        <g id="Group_12886" data-name="Group 12886">
          <path id="Path_43024" data-name="Path 43024" d="M139.315,64.6a.911.911,0,0,0-1.289,0L127.094,75.5l-3.945-4.284a.911.911,0,0,0-1.341,1.235l4.587,4.982a.91.91,0,0,0,.651.294h.019a.912.912,0,0,0,.643-.266l11.6-11.574A.911.911,0,0,0,139.315,64.6Z" transform="translate(-121.568 -64.327)" fill="#f17b00"/>
        </g>
      </g>
      <g id="Group_12889" data-name="Group 12889">
        <g id="Group_12888" data-name="Group 12888">
          <path id="Path_43025" data-name="Path 43025" d="M23.269,11.179a.911.911,0,0,0-.911.911A10.268,10.268,0,1,1,12.09,1.823.911.911,0,1,0,12.09,0,12.09,12.09,0,1,0,24.18,12.09.911.911,0,0,0,23.269,11.179Z" fill="#f17b00"/>
        </g>
      </g>
    </g>
  </g>
</svg>
