<svg xmlns="http://www.w3.org/2000/svg" width="15.634" height="18.669" viewBox="0 0 15.634 18.669">
    <g id="user-profile" transform="translate(-0.254 -0.251)">
        <path id="Subtraction_65" data-name="Subtraction 65"
            d="M-12575.237,3336.885h-1.446a7.507,7.507,0,0,1,2.375-5.227,7.882,7.882,0,0,1,5.443-2.156,7.882,7.882,0,0,1,5.442,2.156,7.515,7.515,0,0,1,2.373,5.226h-1.442a6.077,6.077,0,0,0-1.952-4.209,6.449,6.449,0,0,0-4.424-1.735,6.441,6.441,0,0,0-4.421,1.735,6.07,6.07,0,0,0-1.948,4.209Z"
            transform="translate(12576.938 -3317.965)" fill="#707070" />
        <path id="Subtraction_64" data-name="Subtraction 64"
            d="M-12571.611,3339.653a5.081,5.081,0,0,1-5.075-5.075,5.044,5.044,0,0,1,1.486-3.589,5.043,5.043,0,0,1,3.589-1.487,5.082,5.082,0,0,1,5.076,5.076A5.082,5.082,0,0,1-12571.611,3339.653Zm0-8.712a3.64,3.64,0,0,0-3.636,3.636,3.638,3.638,0,0,0,3.636,3.633,3.637,3.637,0,0,0,3.634-3.633A3.639,3.639,0,0,0-12571.611,3330.941Z"
            transform="translate(12579.683 -3329.25)" fill="#707070" />
    </g>
</svg>
