<svg xmlns="http://www.w3.org/2000/svg" width="17.362" height="17.366" viewBox="0 0 17.362 17.366">
    <g id="Group_18299" data-name="Group 18299" transform="translate(-35.319 -451.849)">
        <path id="Union_90" data-name="Union 90"
            d="M-12229.709,3612.365a.651.651,0,0,1-.648-.651V3607.7a.689.689,0,0,0-.691-.688h-1.6a.689.689,0,0,0-.69.688v4.015a.651.651,0,0,1-.648.651h-2.725a1.989,1.989,0,0,1-1.988-1.988V3605.4h-.129a.413.413,0,0,1-.059,0,1.7,1.7,0,0,1-1.137-.5,1.722,1.722,0,0,1,0-2.43l.007-.009,6.958-6.958a1.717,1.717,0,0,1,1.216-.5,1.718,1.718,0,0,1,1.217.5l6.965,6.964a1.725,1.725,0,0,1,0,2.433,1.7,1.7,0,0,1-1.216.5h-.107v4.974a1.989,1.989,0,0,1-1.988,1.988Zm-1.34-6.654a1.992,1.992,0,0,1,1.991,1.988v3.367h2.073a.691.691,0,0,0,.688-.688v-5.625a.65.65,0,0,1,.648-.648h.759a.429.429,0,0,0,.3-.123.424.424,0,0,0,0-.6l-6.961-6.961a.425.425,0,0,0-.3-.126.419.419,0,0,0-.3.126l-6.948,6.949-.037.055h-.016a.425.425,0,0,0,.04.553.4.4,0,0,0,.289.12c.009,0,.019,0,.027,0h.737a.651.651,0,0,1,.651.648v5.625a.689.689,0,0,0,.688.688h2.073V3607.7a1.991,1.991,0,0,1,1.99-1.988Z"
            transform="translate(12275.851 -3143.15)" fill="#707070" />
    </g>
</svg>
