<svg xmlns="http://www.w3.org/2000/svg" width="17.358" height="17.358" viewBox="0 0 17.358 17.358">
  <path id="info_2_" data-name="info (2)" d="M13.29,17.358H4.068A4.073,4.073,0,0,1,0,13.29V4.068A4.073,4.073,0,0,1,4.068,0H13.29a4.073,4.073,0,0,1,4.068,4.068V13.29A4.073,4.073,0,0,1,13.29,17.358Zm-9.222-16A2.715,2.715,0,0,0,1.356,4.068V13.29A2.715,2.715,0,0,0,4.068,16H13.29A2.715,2.715,0,0,0,16,13.29V4.068A2.715,2.715,0,0,0,13.29,1.356Zm6.984,11.595a.678.678,0,0,1-.678.678H6.984a.678.678,0,0,1,0-1.356H8V8.442a.679.679,0,0,0-.678-.678H6.984a.678.678,0,0,1,0-1.356h.339A2.036,2.036,0,0,1,9.357,8.442v3.831h1.017A.678.678,0,0,1,11.052,12.951ZM8.679,5.424a.848.848,0,1,0-.848-.848A.848.848,0,0,0,8.679,5.424Z" fill="#707070"/>
</svg>
