<svg id="teamwork_1_" data-name="teamwork (1)" xmlns="http://www.w3.org/2000/svg" width="30.667"
    height="17.431" viewBox="0 0 30.667 17.431">
    <g id="Group_18337" data-name="Group 18337">
        <path id="Path_47887" data-name="Path 47887"
            d="M30.068,220.768H28.852V219.2a3.965,3.965,0,0,0-2.659-3.74,4.231,4.231,0,1,0-5.676-6.266,5.212,5.212,0,0,0-10.366,0,4.231,4.231,0,1,0-5.676,6.266,3.966,3.966,0,0,0-2.659,3.74v1.564H.6a.6.6,0,1,0,0,1.2H12.626a.6.6,0,1,0,0-1.2H9.885v-2.146a3.669,3.669,0,0,1,3.665-3.665h3.567a3.669,3.669,0,0,1,3.665,3.665v2.146H18.041a.6.6,0,1,0,0,1.2H30.068a.6.6,0,1,0,0-1.2Zm-6.58-11.592a3.035,3.035,0,1,1-3.035,3.035A3.039,3.039,0,0,1,23.488,209.176Zm-8.155-3.443a4.013,4.013,0,1,1-4.013,4.013A4.018,4.018,0,0,1,15.333,205.733Zm-11.19,6.478a3.035,3.035,0,1,1,3.035,3.035A3.039,3.039,0,0,1,4.143,212.211ZM3.013,219.2a2.764,2.764,0,0,1,2.761-2.761h2.81a2.142,2.142,0,0,1,.582.074,4.834,4.834,0,0,0-.48,2.1v2.146H3.013Zm7.476-4.358a4.219,4.219,0,0,0,.835-1.775,5.256,5.256,0,0,0,.917.867A4.854,4.854,0,0,0,10.489,214.846Zm7.937-.908a5.256,5.256,0,0,0,.917-.867,4.22,4.22,0,0,0,.835,1.775A4.855,4.855,0,0,0,18.426,213.939Zm3.554,6.83v-2.146a4.834,4.834,0,0,0-.48-2.1,2.142,2.142,0,0,1,.582-.074h2.811a2.764,2.764,0,0,1,2.761,2.761v1.564Z"
            transform="translate(0 -204.535)" fill="#707070" />
        <path id="Path_47888" data-name="Path 47888"
            d="M246.711,475.684a.566.566,0,1,0,.205.7A.573.573,0,0,0,246.711,475.684Z"
            transform="translate(-231.074 -459.29)" fill="#707070" />
    </g>
</svg>
