<svg xmlns="http://www.w3.org/2000/svg" width="13.829" height="16.328" viewBox="0 0 13.829 16.328">
  <g id="user-profile" transform="translate(-1.309 0.25)">
    <path id="Path_46706" data-name="Path 46706" d="M14.888,18.13h-1.6a4.99,4.99,0,0,0-5.061-4.906,4.99,4.99,0,0,0-5.06,4.906h-1.6a6.6,6.6,0,0,1,6.665-6.51A6.6,6.6,0,0,1,14.888,18.13Z" transform="translate(0 -2.302)" fill="#333" stroke="#fff" stroke-width="0.5"/>
    <path id="Path_46707" data-name="Path 46707" d="M8.784,8.8a4.4,4.4,0,1,1,4.4-4.4A4.4,4.4,0,0,1,8.784,8.8Zm0-7.193a2.795,2.795,0,1,0,2.8,2.795A2.8,2.8,0,0,0,8.784,1.6Z" transform="translate(-0.56)" fill="#333" stroke="#fff" stroke-width="0.5"/>
  </g>
</svg>
