<svg xmlns="http://www.w3.org/2000/svg" xmlns:xlink="http://www.w3.org/1999/xlink" width="80" height="80" viewBox="0 0 80 80">
  <defs>
    <clipPath id="clip-path">
      <path id="Path_52036" data-name="Path 52036" d="M39.937,0A39.937,39.937,0,1,1,0,39.937,39.937,39.937,0,0,1,39.937,0Z" fill="#eaeaea" stroke="#f1aa3c" stroke-width="2"/>
    </clipPath>
  </defs>
  <g id="Group_31702" data-name="Group 31702" transform="translate(-12 -32)">
    <circle id="Ellipse_2055" data-name="Ellipse 2055" cx="40" cy="40" r="40" transform="translate(12 32)" fill="#fff"/>
    <g id="Mask_Group_127" data-name="Mask Group 127" transform="translate(12 32)" clip-path="url(#clip-path)">
      <path id="user_19_" data-name="user (19)" d="M69.127,64.967,54.656,57.732a3.984,3.984,0,0,1-2.213-3.582V49.028c.347-.424.712-.907,1.089-1.441A34.666,34.666,0,0,0,58.007,38.8a6.01,6.01,0,0,0,3.525-5.479V27.266a6.041,6.041,0,0,0-1.515-3.976V15.232a13.579,13.579,0,0,0-3.169-9.884C53.737,1.8,48.688,0,41.84,0s-11.9,1.8-15.008,5.347a13.582,13.582,0,0,0-3.169,9.885v8.057a6.041,6.041,0,0,0-1.515,3.976v6.059a6.023,6.023,0,0,0,2.268,4.709A31.791,31.791,0,0,0,29.721,49v5.012a4,4,0,0,1-2.086,3.514L14.122,64.894A13.66,13.66,0,0,0,7,76.892v4.9c0,7.189,22.79,9.089,34.84,9.089s34.84-1.9,34.84-9.089V77.188A13.592,13.592,0,0,0,69.127,64.967Z" transform="translate(-1.503 10)" fill="#ffe4ce"/>
    </g>
  </g>
</svg>
