<svg xmlns="http://www.w3.org/2000/svg" width="12.041" height="12.043" viewBox="0 0 12.041 12.043">
  <g id="world_1_" data-name="world (1)" transform="translate(-0.004)">
    <g id="Group_18097" data-name="Group 18097" transform="translate(0.004)">
      <path id="Path_49828" data-name="Path 49828" d="M19.734,4.625l-.18.057-.959.085-.271.433-.2-.062-.764-.688-.111-.358L17.1,3.709l-.48-.43-.566-.111-.013.259.555.541.271.32-.305.159-.248-.073-.372-.155.013-.3-.488-.2-.162.706-.492.112.049.394.641.123.111-.629.529.078.246.144h.395l.27.541.716.727-.053.283-.578-.074-1,.5-.719.862-.094.382h-.258l-.481-.222-.467.222.116.493.2-.234.357-.011-.025.442.3.087.3.332.483-.136.551.087.64.172.32.038.542.615,1.046.615-.677,1.293-.714.332-.271.739-1.033.69-.11.4a6.013,6.013,0,0,0,3.588-9.2Z" transform="translate(-8.713 -1.954)" fill="#f17b00"/>
      <path id="Path_49829" data-name="Path 49829" d="M6.716,13.813,6.278,13l.4-.839-.4-.12-.452-.454-1-.225-.332-.7v.413H4.346L3.483,9.91V8.949L2.851,7.92l-1,.179H1.17l-.34-.223.434-.344-.433.1a6.013,6.013,0,0,0,5.194,9.055,6.3,6.3,0,0,0,.756-.053l-.063-.729s.276-1.083.276-1.12S6.716,13.813,6.716,13.813Z" transform="translate(-0.004 -4.645)" fill="#f17b00"/>
      <path id="Path_49830" data-name="Path 49830" d="M4.456,1.942l1.069-.149.493-.27.555.16.886-.049.3-.477.443.073,1.075-.1L9.577.8,10,.522l.591.089L10.8.578A6,6,0,0,0,3.6,2.189h0ZM8.493.6,9.108.26,9.5.488,8.932.923,8.386.978,8.14.819ZM6.672.648l.271.113L7.3.648l.194.335-.82.215L6.278.968S6.663.72,6.672.648Z" transform="translate(-2.219 0)" fill="#f17b00"/>
    </g>
  </g>
</svg>
